  0
SECTION
  2
HEADER
  9
$ACADVER
  1
AC1015
  9
$ACADMAINTVER
 70
     6
  9
$DWGCODEPAGE
  3
ANSI_1252
  9
$INSBASE
 10
0.0
 20
0.0
 30
0.0
  9
$EXTMIN
 10
-2.6145111628
 20
-0.025
 30
0.0
  9
$EXTMAX
 10
-0.6676955843
 20
2.136
 30
0.0
  9
$LIMMIN
 10
0.0
 20
0.0
  9
$LIMMAX
 10
12.0
 20
9.0
  9
$ORTHOMODE
 70
     0
  9
$REGENMODE
 70
     1
  9
$FILLMODE
 70
     1
  9
$QTEXTMODE
 70
     0
  9
$MIRRTEXT
 70
     1
  9
$LTSCALE
 40
1.0
  9
$ATTMODE
 70
     1
  9
$TEXTSIZE
 40
0.125
  9
$TRACEWID
 40
0.05
  9
$TEXTSTYLE
  7
Standard
  9
$CLAYER
  8
0
  9
$CELTYPE
  6
ByLayer
  9
$CECOLOR
 62
   256
  9
$CELTSCALE
 40
1.0
  9
$DISPSILH
 70
     0
  9
$DIMSCALE
 40
1.0
  9
$DIMASZ
 40
0.13
  9
$DIMEXO
 40
0.05
  9
$DIMDLI
 40
0.38
  9
$DIMRND
 40
0.0
  9
$DIMDLE
 40
0.0
  9
$DIMEXE
 40
0.125
  9
$DIMTP
 40
0.0
  9
$DIMTM
 40
0.0
  9
$DIMTXT
 40
0.125
  9
$DIMCEN
 40
0.09
  9
$DIMTSZ
 40
0.0
  9
$DIMTOL
 70
     0
  9
$DIMLIM
 70
     0
  9
$DIMTIH
 70
     1
  9
$DIMTOH
 70
     1
  9
$DIMSE1
 70
     0
  9
$DIMSE2
 70
     0
  9
$DIMTAD
 70
     0
  9
$DIMZIN
 70
     0
  9
$DIMBLK
  1

  9
$DIMASO
 70
     1
  9
$DIMSHO
 70
     1
  9
$DIMPOST
  1

  9
$DIMAPOST
  1

  9
$DIMALT
 70
     0
  9
$DIMALTD
 70
     2
  9
$DIMALTF
 40
25.4
  9
$DIMLFAC
 40
1.0
  9
$DIMTOFL
 70
     0
  9
$DIMTVP
 40
0.0
  9
$DIMTIX
 70
     0
  9
$DIMSOXD
 70
     0
  9
$DIMSAH
 70
     0
  9
$DIMBLK1
  1

  9
$DIMBLK2
  1

  9
$DIMSTYLE
  2
Standard
  9
$DIMCLRD
 70
     0
  9
$DIMCLRE
 70
     0
  9
$DIMCLRT
 70
     0
  9
$DIMTFAC
 40
1.0
  9
$DIMGAP
 40
0.06
  9
$DIMJUST
 70
     0
  9
$DIMSD1
 70
     0
  9
$DIMSD2
 70
     0
  9
$DIMTOLJ
 70
     1
  9
$DIMTZIN
 70
     0
  9
$DIMALTZ
 70
     0
  9
$DIMALTTZ
 70
     0
  9
$DIMUPT
 70
     0
  9
$DIMDEC
 70
     3
  9
$DIMTDEC
 70
     3
  9
$DIMALTU
 70
     2
  9
$DIMALTTD
 70
     2
  9
$DIMTXSTY
  7
Standard
  9
$DIMAUNIT
 70
     0
  9
$DIMADEC
 70
     2
  9
$DIMALTRND
 40
0.0
  9
$DIMAZIN
 70
     0
  9
$DIMDSEP
 70
    46
  9
$DIMATFIT
 70
     3
  9
$DIMFRAC
 70
     0
  9
$DIMLDRBLK
  1

  9
$DIMLUNIT
 70
     2
  9
$DIMLWD
 70
    -2
  9
$DIMLWE
 70
    -2
  9
$DIMTMOVE
 70
     0
  9
$LUNITS
 70
     2
  9
$LUPREC
 70
     2
  9
$SKETCHINC
 40
0.1
  9
$FILLETRAD
 40
0.5
  9
$AUNITS
 70
     0
  9
$AUPREC
 70
     2
  9
$MENU
  1
.
  9
$ELEVATION
 40
0.0
  9
$PELEVATION
 40
0.0
  9
$THICKNESS
 40
0.0
  9
$LIMCHECK
 70
     0
  9
$CHAMFERA
 40
0.5
  9
$CHAMFERB
 40
0.5
  9
$CHAMFERC
 40
1.0
  9
$CHAMFERD
 40
0.0
  9
$SKPOLY
 70
     0
  9
$TDCREATE
 40
2455990.171240903
  9
$TDUCREATE
 40
2455990.379574236
  9
$TDUPDATE
 40
2455990.171240914
  9
$TDUUPDATE
 40
2455990.379574248
  9
$TDINDWG
 40
0.0000000116
  9
$TDUSRTIMER
 40
0.0000000116
  9
$USRTIMER
 70
     1
  9
$ANGBASE
 50
0.0
  9
$ANGDIR
 70
     0
  9
$PDMODE
 70
     0
  9
$PDSIZE
 40
-1.0
  9
$PLINEWID
 40
0.0
  9
$SPLFRAME
 70
     0
  9
$SPLINETYPE
 70
     6
  9
$SPLINESEGS
 70
     8
  9
$HANDSEED
  5
81
  9
$SURFTAB1
 70
     6
  9
$SURFTAB2
 70
     6
  9
$SURFTYPE
 70
     6
  9
$SURFU
 70
     6
  9
$SURFV
 70
     6
  9
$UCSBASE
  2

  9
$UCSNAME
  2

  9
$UCSORG
 10
0.0
 20
0.0
 30
0.0
  9
$UCSXDIR
 10
1.0
 20
0.0
 30
0.0
  9
$UCSYDIR
 10
0.0
 20
1.0
 30
0.0
  9
$UCSORTHOREF
  2

  9
$UCSORTHOVIEW
 70
     0
  9
$UCSORGTOP
 10
0.0
 20
0.0
 30
0.0
  9
$UCSORGBOTTOM
 10
0.0
 20
0.0
 30
0.0
  9
$UCSORGLEFT
 10
0.0
 20
0.0
 30
0.0
  9
$UCSORGRIGHT
 10
0.0
 20
0.0
 30
0.0
  9
$UCSORGFRONT
 10
0.0
 20
0.0
 30
0.0
  9
$UCSORGBACK
 10
0.0
 20
0.0
 30
0.0
  9
$PUCSBASE
  2

  9
$PUCSNAME
  2

  9
$PUCSORG
 10
0.0
 20
0.0
 30
0.0
  9
$PUCSXDIR
 10
1.0
 20
0.0
 30
0.0
  9
$PUCSYDIR
 10
0.0
 20
1.0
 30
0.0
  9
$PUCSORTHOREF
  2

  9
$PUCSORTHOVIEW
 70
     0
  9
$PUCSORGTOP
 10
0.0
 20
0.0
 30
0.0
  9
$PUCSORGBOTTOM
 10
0.0
 20
0.0
 30
0.0
  9
$PUCSORGLEFT
 10
0.0
 20
0.0
 30
0.0
  9
$PUCSORGRIGHT
 10
0.0
 20
0.0
 30
0.0
  9
$PUCSORGFRONT
 10
0.0
 20
0.0
 30
0.0
  9
$PUCSORGBACK
 10
0.0
 20
0.0
 30
0.0
  9
$USERI1
 70
     0
  9
$USERI2
 70
     0
  9
$USERI3
 70
     0
  9
$USERI4
 70
     0
  9
$USERI5
 70
     0
  9
$USERR1
 40
0.0
  9
$USERR2
 40
0.0
  9
$USERR3
 40
0.0
  9
$USERR4
 40
0.0
  9
$USERR5
 40
0.0
  9
$WORLDVIEW
 70
     1
  9
$SHADEDGE
 70
     3
  9
$SHADEDIF
 70
    70
  9
$TILEMODE
 70
     1
  9
$MAXACTVP
 70
    64
  9
$PINSBASE
 10
0.0
 20
0.0
 30
0.0
  9
$PLIMCHECK
 70
     0
  9
$PEXTMIN
 10
1.0000000000E+20
 20
1.0000000000E+20
 30
1.0000000000E+20
  9
$PEXTMAX
 10
-1.0000000000E+20
 20
-1.0000000000E+20
 30
-1.0000000000E+20
  9
$PLIMMIN
 10
0.0
 20
0.0
  9
$PLIMMAX
 10
12.0
 20
9.0
  9
$UNITMODE
 70
     0
  9
$VISRETAIN
 70
     1
  9
$PLINEGEN
 70
     0
  9
$PSLTSCALE
 70
     1
  9
$TREEDEPTH
 70
  3020
  9
$CMLSTYLE
  2
Standard
  9
$CMLJUST
 70
     0
  9
$CMLSCALE
 40
1.0
  9
$PROXYGRAPHICS
 70
     1
  9
$MEASUREMENT
 70
     0
  9
$CELWEIGHT
370
    -1
  9
$ENDCAPS
280
     0
  9
$JOINSTYLE
280
     0
  9
$LWDISPLAY
290
     1
  9
$INSUNITS
 70
     1
  9
$HYPERLINKBASE
  1

  9
$STYLESHEET
  1

  9
$XEDIT
290
     1
  9
$CEPSNTYPE
380
     0
  9
$PSTYLEMODE
290
     1
  9
$FINGERPRINTGUID
  2
{AAC42B89-0A15-4A8B-B1A0-800D6EEBE294}
  9
$VERSIONGUID
  2
{FAEB1C32-E019-11D5-929B-00C0DF256EC4}
  9
$EXTNAMES
290
     1
  9
$PSVPSCALE
 40
0.0
  9
$OLESTARTUP
290
     0
  0
ENDSEC
  0
SECTION
  2
CLASSES
  0
CLASS
  1
ACDBDICTIONARYWDFLT
  2
AcDbDictionaryWithDefault
  3
ObjectDBX Classes
 90
        0
280
     0
281
     0
  0
CLASS
  1
VISUALSTYLE
  2
AcDbVisualStyle
  3
ObjectDBX Classes
 90
     4095
280
     0
281
     0
  0
CLASS
  1
MATERIAL
  2
AcDbMaterial
  3
ObjectDBX Classes
 90
     1153
280
     0
281
     0
  0
CLASS
  1
ACDBPLACEHOLDER
  2
AcDbPlaceHolder
  3
ObjectDBX Classes
 90
        0
280
     0
281
     0
  0
CLASS
  1
LAYOUT
  2
AcDbLayout
  3
ObjectDBX Classes
 90
        0
280
     0
281
     0
  0
ENDSEC
  0
SECTION
  2
TABLES
  0
TABLE
  2
VPORT
  5
8
330
0
100
AcDbSymbolTable
 70
     1
  0
VPORT
  5
29
330
8
100
AcDbSymbolTableRecord
100
AcDbViewportTableRecord
  2
*Active
 70
     0
 10
0.0
 20
0.0
 11
1.0
 21
1.0
 12
-1.6411033736
 22
1.0555
 13
0.0
 23
0.0
 14
0.5
 24
0.5
 15
0.5
 25
0.5
 16
0.0
 26
0.0
 36
1.0
 17
0.0
 27
0.0
 37
0.0
 40
2.20422
 41
0.9008864315
 42
50.0
 43
0.0
 44
0.0
 50
0.0
 51
0.0
 71
     0
 72
   100
 73
     1
 74
     3
 75
     0
 76
     0
 77
     0
 78
     0
281
     0
 65
     1
110
0.0
120
0.0
130
0.0
111
1.0
121
0.0
131
0.0
112
0.0
122
1.0
132
0.0
 79
     0
146
0.0
  0
ENDTAB
  0
TABLE
  2
LTYPE
  5
5
330
0
100
AcDbSymbolTable
 70
     6
  0
LTYPE
  5
14
330
5
100
AcDbSymbolTableRecord
100
AcDbLinetypeTableRecord
  2
ByBlock
 70
     0
  3

 72
    65
 73
     0
 40
0.0
  0
LTYPE
  5
15
330
5
100
AcDbSymbolTableRecord
100
AcDbLinetypeTableRecord
  2
ByLayer
 70
     0
  3

 72
    65
 73
     0
 40
0.0
  0
LTYPE
  5
16
330
5
100
AcDbSymbolTableRecord
100
AcDbLinetypeTableRecord
  2
Continuous
 70
     0
  3
Solid line
 72
    65
 73
     0
 40
0.0
  0
LTYPE
  5
3F
330
5
100
AcDbSymbolTableRecord
100
AcDbLinetypeTableRecord
  2
HIDDEN
 70
     0
  3
Hidden __ __ __ __ __ __ __ __ __ __ __ __ __ __
 72
    65
 73
     2
 40
0.075
 49
0.05
 74
     0
 49
-0.025
 74
     0
  0
LTYPE
  5
40
330
5
100
AcDbSymbolTableRecord
100
AcDbLinetypeTableRecord
  2
PHANTOM
 70
     0
  3
Phantom ______  __  __  ______  __  __  ______
 72
    65
 73
     6
 40
0.5
 49
0.25
 74
     0
 49
-0.05
 74
     0
 49
0.05
 74
     0
 49
-0.05
 74
     0
 49
0.05
 74
     0
 49
-0.05
 74
     0
  0
LTYPE
  5
41
330
5
100
AcDbSymbolTableRecord
100
AcDbLinetypeTableRecord
  2
CENTER
 70
     0
  3
Center ____ _ ____ _ ____ _ ____ _ ____ _ ____
 72
    65
 73
     4
 40
0.4
 49
0.25
 74
     0
 49
-0.05
 74
     0
 49
0.05
 74
     0
 49
-0.05
 74
     0
  0
LTYPE
  5
42
330
5
100
AcDbSymbolTableRecord
100
AcDbLinetypeTableRecord
  2
CENTERX2
 70
     0
  3
Center (2x) ________  __  ________  __  _____
 72
    65
 73
     4
 40
0.8
 49
0.5
 74
     0
 49
-0.1
 74
     0
 49
0.1
 74
     0
 49
-0.1
 74
     0
  0
LTYPE
  5
43
330
5
100
AcDbSymbolTableRecord
100
AcDbLinetypeTableRecord
  2
DOT2
 70
     0
  3
Dot (.5x) ........................................
 72
    65
 73
     2
 40
0.025
 49
0.0
 74
     0
 49
-0.025
 74
     0
  0
ENDTAB
  0
TABLE
  2
LAYER
  5
2
330
0
100
AcDbSymbolTable
 70
     1
  0
LAYER
  5
10
330
2
100
AcDbSymbolTableRecord
100
AcDbLayerTableRecord
  2
0
 70
     0
 62
     7
  6
Continuous
370
    -3
390
F
  0
ENDTAB
  0
TABLE
  2
STYLE
  5
3
330
0
100
AcDbSymbolTable
 70
     1
  0
STYLE
  5
11
330
3
100
AcDbSymbolTableRecord
100
AcDbTextStyleTableRecord
  2
Standard
 70
     0
 40
0.0
 41
1.0
 50
0.0
 71
     0
 42
0.2
  3
txt
  4

  0
ENDTAB
  0
TABLE
  2
VIEW
  5
6
330
0
100
AcDbSymbolTable
 70
     0
  0
ENDTAB
  0
TABLE
  2
UCS
  5
7
330
0
100
AcDbSymbolTable
 70
     0
  0
ENDTAB
  0
TABLE
  2
APPID
  5
9
330
0
100
AcDbSymbolTable
 70
     1
  0
APPID
  5
12
330
9
100
AcDbSymbolTableRecord
100
AcDbRegAppTableRecord
  2
ACAD
 70
     0
  0
ENDTAB
  0
TABLE
  2
DIMSTYLE
  5
A
330
0
100
AcDbSymbolTable
 70
     1
100
AcDbDimStyleTable
  0
DIMSTYLE
105
27
330
A
100
AcDbSymbolTableRecord
100
AcDbDimStyleTableRecord
  2
Standard
 70
     0
178
     0
340
11
  0
ENDTAB
  0
TABLE
  2
BLOCK_RECORD
  5
1
330
0
100
AcDbSymbolTable
 70
     1
  0
BLOCK_RECORD
  5
1F
330
1
100
AcDbSymbolTableRecord
100
AcDbBlockTableRecord
  2
*Model_Space
340
22
  0
BLOCK_RECORD
  5
1B
330
1
100
AcDbSymbolTableRecord
100
AcDbBlockTableRecord
  2
*Paper_Space
340
1E
  0
BLOCK_RECORD
  5
23
330
1
100
AcDbSymbolTableRecord
100
AcDbBlockTableRecord
  2
*Paper_Space0
340
26
  0
ENDTAB
  0
ENDSEC
  0
SECTION
  2
BLOCKS
  0
BLOCK
  5
20
330
1F
100
AcDbEntity
  8
0
100
AcDbBlockBegin
  2
*Model_Space
 70
     0
 10
0.0
 20
0.0
 30
0.0
  3
*Model_Space
  1

  0
ENDBLK
  5
21
330
1F
100
AcDbEntity
  8
0
100
AcDbBlockEnd
  0
BLOCK
  5
1C
330
1B
100
AcDbEntity
 67
     1
  8
0
100
AcDbBlockBegin
  2
*Paper_Space
 70
     0
 10
0.0
 20
0.0
 30
0.0
  3
*Paper_Space
  1

  0
ENDBLK
  5
1D
330
1B
100
AcDbEntity
 67
     1
  8
0
100
AcDbBlockEnd
  0
BLOCK
  5
24
330
23
100
AcDbEntity
  8
0
100
AcDbBlockBegin
  2
*Paper_Space0
 70
     0
 10
0.0
 20
0.0
 30
0.0
  3
*Paper_Space0
  1

  0
ENDBLK
  5
25
330
23
100
AcDbEntity
  8
0
100
AcDbBlockEnd
  0
ENDSEC
  0
SECTION
  2
ENTITIES
  0
SPLINE
  5
44
330
1F
100
AcDbEntity
  8
0
  6
Continuous
 62
     7
370
    15
100
AcDbSpline
210
0.0
220
0.0
230
1.0
 70
     8
 71
     3
 72
    22
 73
    18
 74
     0
 42
0.00000001
 43
0.00000001
 40
0.2547935708383067
 40
0.2547935708383067
 40
0.2547935708383067
 40
0.2547935708383067
 40
0.2780812717496096
 40
0.3013689726609126
 40
0.3479443744835183
 40
0.3945197763061241
 40
0.44109517812873
 40
0.4876705799513359
 40
0.5342459817739417
 40
0.5808213835965474
 40
0.6273967854191533
 40
0.720547589064365
 40
0.7671229908869708
 40
0.8136983927095767
 40
0.8602737945321826
 40
0.9068491963547883
 40
0.9357834243651276
 40
0.9357834243651276
 40
0.9357834243651276
 40
0.9357834243651276
 10
-2.00646418638783
 20
1.525001995604314
 30
0.0
 10
-2.006536571136578
 20
1.533912059450798
 30
0.0
 10
-2.006643159508974
 20
1.552465755988672
 30
0.0
 10
-2.006730060455891
 20
1.583707669781153
 30
0.0
 10
-2.006826146698139
 20
1.617220219098366
 30
0.0
 10
-2.00760081260779
 20
1.651602239083028
 30
0.0
 10
-2.010226242887859
 20
1.685731639600298
 30
0.0
 10
-2.017252459660309
 20
1.722864823061022
 30
0.0
 10
-2.030190313775533
 20
1.759029957239021
 30
0.0
 10
-2.045052976146165
 20
1.788801901920486
 30
0.0
 10
-2.07062727880768
 20
1.83089769616823
 30
0.0
 10
-2.105818416509432
 20
1.874422539059721
 30
0.0
 10
-2.152092125960265
 20
1.916606971159695
 30
0.0
 10
-2.192682289998071
 20
1.946500376752084
 30
0.0
 10
-2.238763501961146
 20
1.973537536325206
 30
0.0
 10
-2.285074100393814
 20
1.993851884421179
 30
0.0
 10
-2.311345776604417
 20
2.003221945252488
 30
0.0
 10
-2.321028933947405
 20
2.006539965350041
 30
0.0
  0
ARC
  5
45
330
1F
100
AcDbEntity
  8
0
  6
Continuous
 62
     7
370
    15
100
AcDbCircle
 10
-2.3177873688
 20
2.016
 30
0.0
 40
0.0100000000000002
100
AcDbArc
 50
90.0
 51
251.0855196415
  0
LINE
  5
46
330
1F
100
AcDbEntity
  8
0
  6
Continuous
 62
     7
370
    15
100
AcDbLine
 10
-2.3177873688
 20
2.026
 30
0.0
 11
-1.1544907925
 21
2.026
 31
0.0
  0
ARC
  5
47
330
1F
100
AcDbEntity
  8
0
  6
Continuous
 62
     7
370
    15
100
AcDbCircle
 10
-1.1544907925
 20
2.016
 30
0.0
 40
0.0100000000000007
100
AcDbArc
 50
288.9144803585
 51
90.0
  0
SPLINE
  5
48
330
1F
100
AcDbEntity
  8
0
  6
Continuous
 62
     7
370
    15
100
AcDbSpline
210
0.0
220
0.0
230
1.0
 70
     8
 71
     3
 72
    22
 73
    18
 74
     0
 42
0.00000001
 43
0.00000001
 40
0.3190101464732064
 40
0.3190101464732064
 40
0.3190101464732064
 40
0.3190101464732064
 40
0.3479443744835234
 40
0.3945197763061289
 40
0.4410951781287344
 40
0.4876705799513399
 40
0.5342459817739453
 40
0.6273967854191562
 40
0.6739721872417617
 40
0.7205475890643671
 40
0.7671229908869726
 40
0.8136983927095781
 40
0.8602737945321837
 40
0.9068491963547891
 40
0.9534245981773946
 40
0.9767122990886973
 40
1.0
 40
1.0
 40
1.0
 40
1.0
 10
-1.151249227358109
 20
2.00653996535004
 30
0.0
 10
-1.160932384701092
 20
2.00322194525249
 30
0.0
 10
-1.187204060911693
 20
1.993851884421179
 30
0.0
 10
-1.233514659344357
 20
1.973537536325204
 30
0.0
 10
-1.27959587130742
 20
1.946500376752085
 30
0.0
 10
-1.320186035345222
 20
1.916606971159699
 30
0.0
 10
-1.366459744796051
 20
1.874422539059733
 30
0.0
 10
-1.401650882497806
 20
1.830897696168245
 30
0.0
 10
-1.427225185159324
 20
1.788801901920501
 30
0.0
 10
-1.442087847529962
 20
1.759029957239026
 30
0.0
 10
-1.455025701645186
 20
1.722864823061025
 30
0.0
 10
-1.462051918417633
 20
1.685731639600301
 30
0.0
 10
-1.464677348697706
 20
1.651602239083028
 30
0.0
 10
-1.465452014607356
 20
1.617220219098366
 30
0.0
 10
-1.465548100849605
 20
1.583707669781154
 30
0.0
 10
-1.465635001796523
 20
1.552465755988679
 30
0.0
 10
-1.465741590168919
 20
1.533912059450809
 30
0.0
 10
-1.465813974917674
 20
1.525001995604323
 30
0.0
  0
LINE
  5
49
330
1F
100
AcDbEntity
  8
0
  6
Continuous
 62
     7
370
    15
100
AcDbLine
 10
-1.4658139749
 20
1.4213123569
 30
0.0
 11
-1.4658139749
 21
1.5250019956
 31
0.0
  0
ARC
  5
4A
330
1F
100
AcDbEntity
  8
0
  6
Continuous
 62
     7
370
    15
100
AcDbCircle
 10
-1.5845799932
 20
1.4213123569
 30
0.0
 40
0.1187660182837942
100
AcDbArc
 50
277.2565942009
 51
0.0
  0
ARC
  5
4B
330
1F
100
AcDbEntity
  8
0
  6
Continuous
 62
     7
370
    15
100
AcDbCircle
 10
-1.538
 20
1.0555
 30
0.0
 40
0.25
100
AcDbArc
 50
97.2565942009
 51
147.3842003137
  0
ARC
  5
4C
330
1F
100
AcDbEntity
  8
0
  6
Continuous
 62
     7
370
    15
100
AcDbCircle
 10
-1.8486130168
 20
1.2542660183
 30
0.0
 40
0.1187660182837942
100
AcDbArc
 50
270.0
 51
327.3842003137
  0
LINE
  5
4D
330
1F
100
AcDbEntity
  8
0
  6
Continuous
 62
     7
370
    15
100
AcDbLine
 10
-1.8486130168
 20
1.1355
 30
0.0
 11
-1.9064641864
 21
1.1355
 31
0.0
  0
ARC
  5
4E
330
1F
100
AcDbEntity
  8
0
  6
Continuous
 62
     7
370
    15
100
AcDbCircle
 10
-1.9064641864
 20
1.2355
 30
0.0
 40
0.1000000000000001
100
AcDbArc
 50
180.0
 51
270.0
  0
LINE
  5
4F
330
1F
100
AcDbEntity
  8
0
  6
Continuous
 62
     7
370
    15
100
AcDbLine
 10
-2.0064641864
 20
1.2355
 30
0.0
 11
-2.0064641864
 21
1.5250019956
 31
0.0
  0
CIRCLE
  5
50
330
1F
100
AcDbEntity
  8
0
  6
Continuous
 62
     7
370
    15
100
AcDbCircle
 10
-1.538
 20
1.0555
 30
0.0
 40
0.1200000000000001
  0
SPLINE
  5
51
330
1F
100
AcDbEntity
  8
0
  6
Continuous
 62
     7
370
    15
100
AcDbSpline
210
0.0
220
0.0
230
1.0
 70
     8
 71
     3
 72
    22
 73
    18
 74
     0
 42
0.00000001
 43
0.00000001
 40
0.2547935708383184
 40
0.2547935708383184
 40
0.2547935708383184
 40
0.2547935708383184
 40
0.2780812717496211
 40
0.3013689726609236
 40
0.3479443744835287
 40
0.3945197763061338
 40
0.4410951781287389
 40
0.487670579951344
 40
0.5342459817739491
 40
0.5808213835965541
 40
0.6273967854191592
 40
0.7205475890643694
 40
0.7671229908869746
 40
0.8136983927095797
 40
0.8602737945321848
 40
0.9068491963547899
 40
0.9357834243651291
 40
0.9357834243651291
 40
0.9357834243651291
 40
0.9357834243651291
 10
-2.00646418638783
 20
0.5859980043956868
 30
0.0
 10
-2.006536571136578
 20
0.5770879405492015
 30
0.0
 10
-2.006643159508973
 20
0.5585342440113324
 30
0.0
 10
-2.006730060455891
 20
0.5272923302188559
 30
0.0
 10
-2.00682614669814
 20
0.4937797809016464
 30
0.0
 10
-2.00760081260779
 20
0.4593977609169829
 30
0.0
 10
-2.010226242887862
 20
0.4252683603997109
 30
0.0
 10
-2.017252459660309
 20
0.3881351769389881
 30
0.0
 10
-2.030190313775532
 20
0.3519700427609851
 30
0.0
 10
-2.045052976146169
 20
0.3221980980795108
 30
0.0
 10
-2.070627278807687
 20
0.280102303831765
 30
0.0
 10
-2.10581841650944
 20
0.2365774609402787
 30
0.0
 10
-2.152092125960268
 20
0.1943930288403108
 30
0.0
 10
-2.192682289998066
 20
0.1644996232479264
 30
0.0
 10
-2.238763501961131
 20
0.1374624636748052
 30
0.0
 10
-2.285074100393802
 20
0.1171481155788261
 30
0.0
 10
-2.31134577660441
 20
0.1077780547475135
 30
0.0
 10
-2.3210289339474
 20
0.1044600346499604
 30
0.0
  0
LINE
  5
52
330
1F
100
AcDbEntity
  8
0
  6
Continuous
 62
     7
370
    15
100
AcDbLine
 10
-2.0064641864
 20
0.5859980044
 30
0.0
 11
-2.0064641864
 21
0.8755
 31
0.0
  0
ARC
  5
53
330
1F
100
AcDbEntity
  8
0
  6
Continuous
 62
     7
370
    15
100
AcDbCircle
 10
-1.9064641864
 20
0.8755
 30
0.0
 40
0.0999999999999999
100
AcDbArc
 50
90.0
 51
180.0
  0
LINE
  5
54
330
1F
100
AcDbEntity
  8
0
  6
Continuous
 62
     7
370
    15
100
AcDbLine
 10
-1.8486130168
 20
0.9755
 30
0.0
 11
-1.9064641864
 21
0.9755
 31
0.0
  0
ARC
  5
55
330
1F
100
AcDbEntity
  8
0
  6
Continuous
 62
     7
370
    15
100
AcDbCircle
 10
-1.8486130168
 20
0.8567339817
 30
0.0
 40
0.1187660182837943
100
AcDbArc
 50
32.6157996863
 51
90.0
  0
ARC
  5
56
330
1F
100
AcDbEntity
  8
0
  6
Continuous
 62
     7
370
    15
100
AcDbCircle
 10
-1.538
 20
1.0555
 30
0.0
 40
0.2500000000000001
100
AcDbArc
 50
212.6157996863
 51
262.7434057991
  0
ARC
  5
57
330
1F
100
AcDbEntity
  8
0
  6
Continuous
 62
     7
370
    15
100
AcDbCircle
 10
-1.5845799932
 20
0.6896876431
 30
0.0
 40
0.1187660182837942
100
AcDbArc
 50
0.0
 51
82.7434057991
  0
LINE
  5
58
330
1F
100
AcDbEntity
  8
0
  6
Continuous
 62
     7
370
    15
100
AcDbLine
 10
-1.4658139749
 20
0.5859980044
 30
0.0
 11
-1.4658139749
 21
0.6896876431
 31
0.0
  0
SPLINE
  5
59
330
1F
100
AcDbEntity
  8
0
  6
Continuous
 62
     7
370
    15
100
AcDbSpline
210
0.0
220
0.0
230
1.0
 70
     8
 71
     3
 72
    22
 73
    18
 74
     0
 42
0.00000001
 43
0.00000001
 40
0.3190101464731988
 40
0.3190101464731988
 40
0.3190101464731988
 40
0.3190101464731988
 40
0.347944374483534
 40
0.3945197763061387
 40
0.4410951781287434
 40
0.4876705799513482
 40
0.5342459817739529
 40
0.6273967854191623
 40
0.673972187241767
 40
0.7205475890643718
 40
0.7671229908869764
 40
0.8136983927095811
 40
0.8602737945321859
 40
0.9068491963547906
 40
0.9534245981773952
 40
0.9767122990886976
 40
1.0
 40
1.0
 40
1.0
 40
1.0
 10
-1.151249227358102
 20
0.1044600346499602
 30
0.0
 10
-1.160932384701091
 20
0.107778054747513
 30
0.0
 10
-1.187204060911698
 20
0.1171481155788253
 30
0.0
 10
-1.23351465934437
 20
0.1374624636748026
 30
0.0
 10
-1.279595871307434
 20
0.1644996232479241
 30
0.0
 10
-1.320186035345229
 20
0.1943930288403078
 30
0.0
 10
-1.366459744796059
 20
0.2365774609402732
 30
0.0
 10
-1.401650882497813
 20
0.2801023038317595
 30
0.0
 10
-1.427225185159329
 20
0.3221980980795045
 30
0.0
 10
-1.442087847529966
 20
0.3519700427609784
 30
0.0
 10
-1.455025701645191
 20
0.3881351769389809
 30
0.0
 10
-1.462051918417639
 20
0.4252683603997021
 30
0.0
 10
-1.464677348697712
 20
0.459397760916975
 30
0.0
 10
-1.465452014607361
 20
0.4937797809016366
 30
0.0
 10
-1.465548100849609
 20
0.527292330218847
 30
0.0
 10
-1.465635001796531
 20
0.5585342440113239
 30
0.0
 10
-1.465741590168925
 20
0.5770879405491921
 30
0.0
 10
-1.465813974917674
 20
0.5859980043956774
 30
0.0
  0
ARC
  5
5A
330
1F
100
AcDbEntity
  8
0
  6
Continuous
 62
     7
370
    15
100
AcDbCircle
 10
-1.1544907925
 20
0.095
 30
0.0
 40
0.0100000000000005
100
AcDbArc
 50
270.0
 51
71.0855196415
  0
LINE
  5
5B
330
1F
100
AcDbEntity
  8
0
  6
Continuous
 62
     7
370
    15
100
AcDbLine
 10
-2.3177873688
 20
0.085
 30
0.0
 11
-1.1544907925
 21
0.085
 31
0.0
  0
ARC
  5
5C
330
1F
100
AcDbEntity
  8
0
  6
Continuous
 62
     7
370
    15
100
AcDbCircle
 10
-2.3177873688
 20
0.095
 30
0.0
 40
0.0100000000000003
100
AcDbArc
 50
108.9144803585
 51
270.0
  0
LINE
  5
5D
330
1F
100
AcDbEntity
  8
0
  6
Continuous
 62
     7
370
    15
100
AcDbLine
 10
-0.6676955843
 20
0.0
 30
0.0
 11
-0.6676955843
 21
-0.025
 31
0.0
  0
SPLINE
  5
5E
330
1F
100
AcDbEntity
  8
0
  6
Continuous
 62
     7
370
    15
100
AcDbSpline
210
0.0
220
0.0
230
1.0
 70
     8
 71
     3
 72
    13
 73
     9
 74
     0
 42
0.00000001
 43
0.00000001
 40
0.0
 40
0.0
 40
0.0
 40
0.0
 40
0.1610690965286825
 40
0.1994228400156483
 40
0.3630802576636563
 40
0.4148179648061214
 40
0.6963427342342987
 40
1.0
 40
1.0
 40
1.0
 40
1.0
 10
-0.667695584336998
 20
0.0000000000000003
 30
0.0
 10
-0.6676643818325144
 20
0.0752971042372536
 30
0.0
 10
-0.8798314570922154
 20
0.1081160760444778
 30
0.0
 10
-1.101190037757399
 20
0.1852019255344296
 30
0.0
 10
-1.115448846463053
 20
0.1905821520302397
 30
0.0
 10
-1.26141820124693
 20
0.2582909586834989
 30
0.0
 10
-1.340310429478791
 20
0.3754030934448114
 30
0.0
 10
-1.337703103861553
 20
0.4243399832483848
 30
0.0
 10
-1.339700095612176
 20
0.5501621580275403
 30
0.0
  0
LINE
  5
5F
330
1F
100
AcDbEntity
  8
0
  6
Continuous
 62
     7
370
    15
100
AcDbLine
 10
-1.3397000956
 20
0.867198176
 30
0.0
 11
-1.3397000956
 21
0.550162158
 31
0.0
  0
ARC
  5
60
330
1F
100
AcDbEntity
  8
0
  6
Continuous
 62
     7
370
    15
100
AcDbCircle
 10
-1.2209340773
 20
0.867198176
 30
0.0
 40
0.1187660182837944
100
AcDbArc
 50
149.294408209
 51
180.0
  0
ARC
  5
61
330
1F
100
AcDbEntity
  8
0
  6
Continuous
 62
     7
370
    15
100
AcDbCircle
 10
-1.538
 20
1.0555
 30
0.0
 40
0.25
100
AcDbArc
 50
329.294408209
 51
30.705591791
  0
ARC
  5
62
330
1F
100
AcDbEntity
  8
0
  6
Continuous
 62
     7
370
    15
100
AcDbCircle
 10
-1.2209340773
 20
1.243801824
 30
0.0
 40
0.1187660182837944
100
AcDbArc
 50
180.0
 51
210.705591791
  0
LINE
  5
63
330
1F
100
AcDbEntity
  8
0
  6
Continuous
 62
     7
370
    15
100
AcDbLine
 10
-1.3397000956
 20
1.560837842
 30
0.0
 11
-1.3397000956
 21
1.243801824
 31
0.0
  0
SPLINE
  5
64
330
1F
100
AcDbEntity
  8
0
  6
Continuous
 62
     7
370
    15
100
AcDbSpline
210
0.0
220
0.0
230
1.0
 70
     8
 71
     3
 72
    13
 73
     9
 74
     0
 42
0.00000001
 43
0.00000001
 40
0.0
 40
0.0
 40
0.0
 40
0.0
 40
0.1610690965286825
 40
0.1994228400156483
 40
0.3630802576636563
 40
0.4148179648061214
 40
0.6963427342342987
 40
1.0
 40
1.0
 40
1.0
 40
1.0
 10
-0.667695584336998
 20
2.111
 30
0.0
 10
-0.6676643818325142
 20
2.035702895762747
 30
0.0
 10
-0.8798314570922156
 20
2.002883923955523
 30
0.0
 10
-1.101190037757399
 20
1.925798074465571
 30
0.0
 10
-1.115448846463053
 20
1.920417847969761
 30
0.0
 10
-1.26141820124693
 20
1.852709041316501
 30
0.0
 10
-1.340310429478791
 20
1.73559690655519
 30
0.0
 10
-1.337703103861553
 20
1.686660016751615
 30
0.0
 10
-1.339700095612176
 20
1.56083784197246
 30
0.0
  0
LINE
  5
65
330
1F
100
AcDbEntity
  8
0
  6
Continuous
 62
     7
370
    15
100
AcDbLine
 10
-0.6676955843
 20
2.111
 30
0.0
 11
-0.6676955843
 21
2.136
 31
0.0
  0
LINE
  5
66
330
1F
100
AcDbEntity
  8
0
  6
Continuous
 62
     7
370
    15
100
AcDbLine
 10
-0.7218674465
 20
2.136
 30
0.0
 11
-0.6676955843
 21
2.136
 31
0.0
  0
LINE
  5
67
330
1F
100
AcDbEntity
  8
0
  6
Continuous
 62
     7
370
    15
100
AcDbLine
 10
-0.7218674465
 20
2.1030916418
 30
0.0
 11
-0.7218674465
 21
2.136
 31
0.0
  0
LINE
  5
68
330
1F
100
AcDbEntity
  8
0
  6
Continuous
 62
     7
370
    15
100
AcDbLine
 10
-0.7218674465
 20
2.1030916418
 30
0.0
 11
-0.7843674465
 21
2.1030916418
 31
0.0
  0
LINE
  5
69
330
1F
100
AcDbEntity
  8
0
  6
Continuous
 62
     7
370
    15
100
AcDbLine
 10
-0.7843674465
 20
2.1030916418
 30
0.0
 11
-0.7843674465
 21
2.136
 31
0.0
  0
LINE
  5
6A
330
1F
100
AcDbEntity
  8
0
  6
Continuous
 62
     7
370
    15
100
AcDbLine
 10
-0.7843674465
 20
2.136
 30
0.0
 11
-0.8643674465
 21
2.107310344
 31
0.0
  0
LINE
  5
6B
330
1F
100
AcDbEntity
  8
0
  6
Continuous
 62
     7
370
    15
100
AcDbLine
 10
-2.2043674465
 20
2.107310344
 30
0.0
 11
-0.8643674465
 21
2.107310344
 31
0.0
  0
LINE
  5
6C
330
1F
100
AcDbEntity
  8
0
  6
Continuous
 62
     7
370
    15
100
AcDbLine
 10
-2.2843674465
 20
2.136
 30
0.0
 11
-2.2043674465
 21
2.107310344
 31
0.0
  0
LINE
  5
6D
330
1F
100
AcDbEntity
  8
0
  6
Continuous
 62
     7
370
    15
100
AcDbLine
 10
-2.2843674465
 20
2.107310344
 30
0.0
 11
-2.2843674465
 21
2.136
 31
0.0
  0
LINE
  5
6E
330
1F
100
AcDbEntity
  8
0
  6
Continuous
 62
     7
370
    15
100
AcDbLine
 10
-2.3468674465
 20
2.107310344
 30
0.0
 11
-2.2843674465
 21
2.107310344
 31
0.0
  0
LINE
  5
6F
330
1F
100
AcDbEntity
  8
0
  6
Continuous
 62
     7
370
    15
100
AcDbLine
 10
-2.3468674465
 20
2.107310344
 30
0.0
 11
-2.3468674465
 21
2.136
 31
0.0
  0
LINE
  5
70
330
1F
100
AcDbEntity
  8
0
  6
Continuous
 62
     7
370
    15
100
AcDbLine
 10
-2.6145111628
 20
2.136
 30
0.0
 11
-2.3468674465
 21
2.136
 31
0.0
  0
LINE
  5
71
330
1F
100
AcDbEntity
  8
0
  6
Continuous
 62
     7
370
    15
100
AcDbLine
 10
-2.6145111628
 20
2.111
 30
0.0
 11
-2.6145111628
 21
2.136
 31
0.0
  0
SPLINE
  5
72
330
1F
100
AcDbEntity
  8
0
  6
Continuous
 62
     7
370
    15
100
AcDbSpline
210
0.0
220
0.0
230
1.0
 70
     8
 71
     3
 72
    11
 73
     7
 74
     0
 42
0.00000001
 43
0.00000001
 40
0.0
 40
0.0
 40
0.0
 40
0.0
 40
0.3645650196742759
 40
0.4161821179284055
 40
0.6970506079937154
 40
1.0
 40
1.0
 40
1.0
 40
1.0
 10
-2.614511162805758
 20
2.111
 30
0.0
 10
-2.556068287571684
 20
1.954662567786571
 30
0.0
 10
-2.405252474098853
 20
1.94561796230957
 30
0.0
 10
-2.218792922652567
 20
1.854393619070857
 30
0.0
 10
-2.128203993860189
 20
1.734927491631673
 30
0.0
 10
-2.134570402136087
 20
1.686366705094374
 30
0.0
 10
-2.132578065693329
 20
1.56083784197246
 30
0.0
  0
LINE
  5
73
330
1F
100
AcDbEntity
  8
0
  6
Continuous
 62
     7
370
    15
100
AcDbLine
 10
-2.1325780657
 20
0.550162158
 30
0.0
 11
-2.1325780657
 21
1.560837842
 31
0.0
  0
SPLINE
  5
74
330
1F
100
AcDbEntity
  8
0
  6
Continuous
 62
     7
370
    15
100
AcDbSpline
210
0.0
220
0.0
230
1.0
 70
     8
 71
     3
 72
    11
 73
     7
 74
     0
 42
0.00000001
 43
0.00000001
 40
0.0
 40
0.0
 40
0.0
 40
0.0
 40
0.3645650196742759
 40
0.4161821179284055
 40
0.6970506079937154
 40
1.0
 40
1.0
 40
1.0
 40
1.0
 10
-2.614511162805758
 20
0.0000000000000003
 30
0.0
 10
-2.556068287571683
 20
0.1563374322134299
 30
0.0
 10
-2.405252474098853
 20
0.1653820376904309
 30
0.0
 10
-2.218792922652568
 20
0.2566063809291442
 30
0.0
 10
-2.128203993860189
 20
0.3760725083683268
 30
0.0
 10
-2.134570402136087
 20
0.4246332949056261
 30
0.0
 10
-2.132578065693329
 20
0.5501621580275411
 30
0.0
  0
LINE
  5
75
330
1F
100
AcDbEntity
  8
0
  6
Continuous
 62
     7
370
    15
100
AcDbLine
 10
-2.6145111628
 20
0.0
 30
0.0
 11
-2.6145111628
 21
-0.025
 31
0.0
  0
LINE
  5
76
330
1F
100
AcDbEntity
  8
0
  6
Continuous
 62
     7
370
    15
100
AcDbLine
 10
-2.6145111628
 20
-0.025
 30
0.0
 11
-2.3468674465
 21
-0.025
 31
0.0
  0
LINE
  5
77
330
1F
100
AcDbEntity
  8
0
  6
Continuous
 62
     7
370
    15
100
AcDbLine
 10
-2.3468674465
 20
-0.025
 30
0.0
 11
-2.3468674465
 21
0.003689656
 31
0.0
  0
LINE
  5
78
330
1F
100
AcDbEntity
  8
0
  6
Continuous
 62
     7
370
    15
100
AcDbLine
 10
-2.2843674465
 20
0.003689656
 30
0.0
 11
-2.3468674465
 21
0.003689656
 31
0.0
  0
LINE
  5
79
330
1F
100
AcDbEntity
  8
0
  6
Continuous
 62
     7
370
    15
100
AcDbLine
 10
-2.2843674465
 20
0.003689656
 30
0.0
 11
-2.2843674465
 21
-0.025
 31
0.0
  0
LINE
  5
7A
330
1F
100
AcDbEntity
  8
0
  6
Continuous
 62
     7
370
    15
100
AcDbLine
 10
-2.2843674465
 20
-0.025
 30
0.0
 11
-2.2043674465
 21
0.003689656
 31
0.0
  0
LINE
  5
7B
330
1F
100
AcDbEntity
  8
0
  6
Continuous
 62
     7
370
    15
100
AcDbLine
 10
-0.8643674465
 20
0.003689656
 30
0.0
 11
-2.2043674465
 21
0.003689656
 31
0.0
  0
LINE
  5
7C
330
1F
100
AcDbEntity
  8
0
  6
Continuous
 62
     7
370
    15
100
AcDbLine
 10
-0.7843674465
 20
-0.025
 30
0.0
 11
-0.8643674465
 21
0.003689656
 31
0.0
  0
LINE
  5
7D
330
1F
100
AcDbEntity
  8
0
  6
Continuous
 62
     7
370
    15
100
AcDbLine
 10
-0.7843674465
 20
0.0079083582
 30
0.0
 11
-0.7843674465
 21
-0.025
 31
0.0
  0
LINE
  5
7E
330
1F
100
AcDbEntity
  8
0
  6
Continuous
 62
     7
370
    15
100
AcDbLine
 10
-0.7218674465
 20
0.0079083582
 30
0.0
 11
-0.7843674465
 21
0.0079083582
 31
0.0
  0
LINE
  5
7F
330
1F
100
AcDbEntity
  8
0
  6
Continuous
 62
     7
370
    15
100
AcDbLine
 10
-0.7218674465
 20
0.0079083582
 30
0.0
 11
-0.7218674465
 21
-0.025
 31
0.0
  0
LINE
  5
80
330
1F
100
AcDbEntity
  8
0
  6
Continuous
 62
     7
370
    15
100
AcDbLine
 10
-0.7218674465
 20
-0.025
 30
0.0
 11
-0.6676955843
 21
-0.025
 31
0.0
  0
ENDSEC
  0
SECTION
  2
OBJECTS
  0
DICTIONARY
  5
C
330
0
100
AcDbDictionary
281
     1
  3
ACAD_GROUP
350
D
  3
ACAD_LAYOUT
350
1A
  3
ACAD_MLINESTYLE
350
17
  3
ACAD_PLOTSETTINGS
350
19
  3
ACAD_PLOTSTYLENAME
350
E
  0
DICTIONARY
  5
D
102
{ACAD_REACTORS
330
C
102
}
330
C
100
AcDbDictionary
281
     1
  0
DICTIONARY
  5
1A
102
{ACAD_REACTORS
330
C
102
}
330
C
100
AcDbDictionary
281
     1
  3
Layout1
350
1E
  3
Layout2
350
26
  3
Model
350
22
  0
DICTIONARY
  5
17
102
{ACAD_REACTORS
330
C
102
}
330
C
100
AcDbDictionary
281
     1
  3
Standard
350
18
  0
DICTIONARY
  5
19
102
{ACAD_REACTORS
330
C
102
}
330
C
100
AcDbDictionary
281
     1
  0
ACDBDICTIONARYWDFLT
  5
E
102
{ACAD_REACTORS
330
C
102
}
330
C
100
AcDbDictionary
281
     1
  3
Normal
350
F
100
AcDbDictionaryWithDefault
340
F
  0
LAYOUT
  5
1E
102
{ACAD_REACTORS
330
1A
102
}
330
1A
100
AcDbPlotSettings
  1

  2
none_device
  4

  6

 40
0.0
 41
0.0
 42
0.0
 43
0.0
 44
0.0
 45
0.0
 46
0.0
 47
0.0
 48
0.0
 49
0.0
140
0.0
141
0.0
142
1.0
143
1.0
 70
   688
 72
     0
 73
     0
 74
     5
  7

 75
    16
147
1.0
148
0.0
149
0.0
100
AcDbLayout
  1
Layout1
 70
     1
 71
     1
 10
0.0
 20
0.0
 11
12.0
 21
9.0
 12
0.0
 22
0.0
 32
0.0
 14
1.0000000000E+20
 24
1.0000000000E+20
 34
1.0000000000E+20
 15
-1.0000000000E+20
 25
-1.0000000000E+20
 35
-1.0000000000E+20
146
0.0
 13
0.0
 23
0.0
 33
0.0
 16
1.0
 26
0.0
 36
0.0
 17
0.0
 27
1.0
 37
0.0
 76
     0
330
1B
  0
LAYOUT
  5
26
102
{ACAD_REACTORS
330
1A
102
}
330
1A
100
AcDbPlotSettings
  1

  2
none_device
  4

  6

 40
0.0
 41
0.0
 42
0.0
 43
0.0
 44
0.0
 45
0.0
 46
0.0
 47
0.0
 48
0.0
 49
0.0
140
0.0
141
0.0
142
1.0
143
1.0
 70
   688
 72
     0
 73
     0
 74
     5
  7

 75
    16
147
1.0
148
0.0
149
0.0
100
AcDbLayout
  1
Layout2
 70
     1
 71
     2
 10
0.0
 20
0.0
 11
0.0
 21
0.0
 12
0.0
 22
0.0
 32
0.0
 14
0.0
 24
0.0
 34
0.0
 15
0.0
 25
0.0
 35
0.0
146
0.0
 13
0.0
 23
0.0
 33
0.0
 16
1.0
 26
0.0
 36
0.0
 17
0.0
 27
1.0
 37
0.0
 76
     0
330
23
  0
LAYOUT
  5
22
102
{ACAD_REACTORS
330
1A
102
}
330
1A
100
AcDbPlotSettings
  1

  2
none_device
  4
ANSI_A_(11.00_x_8.50_Inches)
  6

 40
6.35
 41
19.05
 42
6.35000508
 43
19.05000254
 44
279.4
 45
215.9
 46
295.668866581
 47
-15.4977918762
 48
0.0
 49
0.0
140
0.0
141
0.0
142
3.8940305414
143
1.0
 70
  1696
 72
     0
 73
     0
 74
     0
  7

 75
     0
147
0.5913241897
148
0.0
149
0.0
100
AcDbLayout
  1
Model
 70
     1
 71
     0
 10
0.0
 20
0.0
 11
12.0
 21
9.0
 12
0.0
 22
0.0
 32
0.0
 14
-2.6145111628
 24
-0.025
 34
0.0
 15
-0.6676955843
 25
2.136
 35
0.0
146
0.0
 13
0.0
 23
0.0
 33
0.0
 16
1.0
 26
0.0
 36
0.0
 17
0.0
 27
1.0
 37
0.0
 76
     0
330
1F
331
29
  0
MLINESTYLE
  5
18
102
{ACAD_REACTORS
330
17
102
}
330
17
100
AcDbMlineStyle
  2
Standard
 70
     0
  3

 62
   256
 51
90.0
 52
90.0
 71
     2
 49
0.5
 62
   256
  6
BYLAYER
 49
-0.5
 62
   256
  6
BYLAYER
  0
ACDBPLACEHOLDER
  5
F
102
{ACAD_REACTORS
330
E
102
}
330
E
  0
ENDSEC
  0
EOF
