<?xml version="1.0" encoding="UTF-8" standalone="no"?>
<!-- Created with Inkscape (http://www.inkscape.org/) -->

<svg
   xmlns:dc="http://purl.org/dc/elements/1.1/"
   xmlns:cc="http://creativecommons.org/ns#"
   xmlns:rdf="http://www.w3.org/1999/02/22-rdf-syntax-ns#"
   xmlns:svg="http://www.w3.org/2000/svg"
   xmlns="http://www.w3.org/2000/svg"
   xmlns:sodipodi="http://sodipodi.sourceforge.net/DTD/sodipodi-0.dtd"
   xmlns:inkscape="http://www.inkscape.org/namespaces/inkscape"
   id="svg2985"
   version="1.1"
   inkscape:version="0.48.2 r9819"
   width="211.325"
   height="211.325"
   xml:space="preserve"
   sodipodi:docname="Plane-top.AI"><metadata
     id="metadata2991"><rdf:RDF><cc:Work
         rdf:about=""><dc:format>image/svg+xml</dc:format><dc:type
           rdf:resource="http://purl.org/dc/dcmitype/StillImage" /><dc:title></dc:title></cc:Work></rdf:RDF></metadata><defs
     id="defs2989" /><sodipodi:namedview
     pagecolor="#ffffff"
     bordercolor="#666666"
     borderopacity="1"
     objecttolerance="10"
     gridtolerance="10"
     guidetolerance="10"
     inkscape:pageopacity="0"
     inkscape:pageshadow="2"
     inkscape:window-width="2560"
     inkscape:window-height="1538"
     id="namedview2987"
     showgrid="false"
     fit-margin-top="0"
     fit-margin-left="0"
     fit-margin-right="0"
     fit-margin-bottom="0"
     inkscape:zoom="2.1010101"
     inkscape:cx="46.754361"
     inkscape:cy="130.48911"
     inkscape:window-x="1192"
     inkscape:window-y="1042"
     inkscape:window-maximized="1"
     inkscape:current-layer="g2993" /><g
     id="g2993"
     inkscape:groupmode="layer"
     inkscape:label="Plane-top"
     transform="matrix(1.25,0,0,-1.25,-363.775,611.725)"><path
       inkscape:connector-curvature="0"
       id="path3205"
       style="fill:none;stroke:#000000;stroke-width:0.16;stroke-linecap:round;stroke-linejoin:round;stroke-miterlimit:10;stroke-opacity:1;stroke-dasharray:none"
       d="m 394.4,418.7 12.4,0 m 0,0.4 -12.4,0 m -50.1,-0.4 12.4,0 m 0,0.4 -12.4,0 m 21.1,43.3 -8.7,0 m 37.7,0 -8.7,0 m -7.9,-61.5 0,0.4 m -4.5,0 0,-0.4 m 9.4,0 0,0.4 m -14.3,0 0,-0.4 m 12.5,-1.8 -0.1,0 m -0.3,-0.5 0,-0.1 m -9.9,0 0,0.1 m -0.4,0.5 0,0 m 12.9,-2.2 -0.9,0.6 m -10.6,-3.1 0,-0.8 m 7.9,0 0,0.8 m -4.6,1.6 0,-0.1 m 1.3,0 0,0.1 m -3.5,-3.4 0,-0.1 m 1.2,0 0,0.1 m 3.3,0 0,-0.1 m 1.2,0 0,0.1 m -9.5,4.9 -0.9,-0.6 m 8.3,4.4 -0.1,0.2 m -1.3,0 -0.1,-0.2 m 1.4,0.2 0,0.1 -0.1,0 -0.1,0 -0.1,0 -0.1,0.1 -0.1,0 m -0.3,0 -0.1,0 -0.1,-0.1 -0.1,0 -0.1,0 -0.1,0 0,-0.1 m -4.2,-0.2 0,0.2 m -1.4,0 0,-0.2 m 1.4,0.2 -0.1,0.1 -0.1,0 -0.1,0 -0.1,0 0,0.1 -0.1,0 -0.1,0 m -0.3,0 0,0 -0.1,0 -0.1,-0.1 -0.1,0 -0.1,0 -0.1,-0.1 m 12.5,-0.2 0,0.2 m -1.4,0 0,-0.2 m 1.4,0.2 -0.1,0.1 -0.1,0 -0.1,0 -0.1,0.1 -0.1,0 -0.1,0 m -0.2,0 -0.1,0 -0.1,0 0,-0.1 -0.1,0 -0.1,0 -0.1,0 -0.1,-0.1 m -10,-2.2 0,0 m 0.4,-0.7 0,0 m 9.9,0.7 0,0 m -0.4,-0.7 -0.1,-0.1 m 16.2,82 -1,0.1 -0.7,0 -0.5,0 m -7.1,0.9 -0.6,0 -1.6,0.2 -1.4,0.1 -1.5,0 -0.5,-0.1 -0.5,0 -0.3,0 -0.3,0 -0.4,-0.1 -0.4,0 -0.7,0 -0.8,-0.1 -1,-0.1 -0.3,0 m 0.2,-1.5 0.3,0 0.6,0 0.4,0 0.4,0 0.5,-0.1 0.7,-0.1 m 4.7,-0.5 1.4,0.1 1.2,0.1 1.1,0.1 1.1,0.1 1.1,0.1 0.9,0 0.8,0 0.6,0.1 0.3,0 0.3,0 0.5,-0.1 0.8,0 0.9,-0.1 1.1,-0.2 m -42.3,0 1.1,0.2 0.9,0.1 0.8,0 0.5,0.1 0.3,0 0.3,0 0.3,0 0.4,-0.1 1.6,0 1.1,-0.1 1.1,-0.1 1.1,-0.1 1.2,-0.1 1.4,-0.1 m 4.7,0.5 0.7,0.1 0.4,0.1 m 0.2,0 0.3,0 0.4,0 0.6,0 0.3,0 m -0.1,1.5 -0.6,0.1 -0.7,0.1 -0.8,0 -0.5,0 -0.3,0 -0.4,0.1 -0.5,0 -0.8,0 -0.9,0.1 -1.7,-0.1 -1.8,-0.1 -1.3,-0.2 -1.4,-0.2 -1.6,-0.2 -1.3,-0.1 -0.7,-0.1 -0.6,-0.1 -0.5,0 -0.8,-0.1 -0.9,0 -1.2,-0.1 m 22.3,-1.1 0,0.5 m -3,0 0,-0.5 m 0,2 0,-0.1 m -0.1,4.7 0,-0.3 m 3.3,0 0,0.3 m -3.3,-2.4 0,-0.3 m 3.3,0 0,0.3 m -0.2,2.4 -0.1,0.8 -0.1,0.7 -0.2,0.6 -0.2,0.3 -0.3,0.4 -0.6,0.5 m 0,0 -0.5,-0.5 -0.3,-0.4 -0.2,-0.3 -0.2,-0.6 -0.1,-0.7 -0.1,-0.8 m 0.3,-2.7 0,-1.1 m 2.3,0 0,1.1 m -2.1,0.3 0,0 m 1.8,0 0,0 m -2,2 -0.1,0 -0.8,0.1 -0.6,0.1 -0.7,0 -0.5,0.1 -0.3,0 -0.4,0 -0.4,0 -0.8,0.1 -0.9,0 -1.7,-0.1 -1.7,-0.1 -1.2,-0.1 m -6.9,-0.8 -0.1,0 -0.9,-0.1 -1.2,0 m -0.6,-1.2 1.3,0.3 1.2,0.1 1.2,0 1.6,0 1.4,-0.1 1.5,-0.2 1.3,-0.1 0.7,0 0.8,-0.1 0.8,-0.1 m 4.7,0.5 0.6,0.1 0.8,0.1 0.9,0 0.6,0 m 10.7,-0.7 1.1,0.1 0.9,0.1 0.8,0 1.1,0.1 1.2,0.2 1.4,0.1 1.6,0 1.2,0 1.2,-0.1 1.3,-0.3 m -19.5,0.5 0.5,0 0.8,0 0.9,0 0.8,-0.2 m -3,1.6 0,0.2 m 0,-2.1 0,0.5 m -3,0 0,-0.5 m 21.9,1.2 -1,0 -0.7,0 -0.6,0.1 -0.4,0 -0.5,0.1 -1.1,0.1 -1.1,0.1 -1.4,0.2 -1.5,0.2 -1.6,0.2 -1.5,0.1 -1.4,0.1 -1.4,0 -0.5,0 -0.5,-0.1 -0.4,0 -0.2,0 -0.3,0 -0.5,-0.1 -0.7,0 -0.7,-0.1 -0.7,0 m -0.1,0 -0.1,0 m -2.7,-61.2 0,-0.4 m 2.5,0 0,0.4 m -2.5,-10 0,-0.4 m 2.5,0 0,0.4 m 2.2,36.5 -0.4,0 m -6.8,-30.8 0.3,0 m 0,1.4 -0.3,0 m 7.9,1.4 -0.4,0 m 0,-5.2 0.4,0 m -0.4,3.8 -0.3,0 m 0,-1.4 0.3,0 m 0.4,3.8 -0.4,0 m 0.2,24.3 0.4,0 m -8.7,0 0.4,0 m 3.1,-93.4 -10.9,-13.5 m 1,0.4 9.9,12.4 m 11.6,-12.4 -1.5,0 m -0.4,0 -5.6,0 m -0.4,0 -2,0 m -1.7,0 -2.2,0 m -0.3,0 -5.7,0 m -0.3,0 -1.4,0 m -1,-0.4 2.4,0 m 0.3,0 5.7,0 m 0.3,0 2.2,0 m 4.3,0 5.4,0 m 0.4,0 2.5,0 m 0,0 -10.9,13.5 m 0,-0.7 9.9,-12.4 m -19.8,0.1 -0.3,0 m 12.6,0 -0.4,0 m 6.4,0 -0.4,0 m -11.9,0 -0.3,0 m 87.8,120.5 -53.2,0 m -62.5,0 -53.2,0 m 62,-5.1 0,1 m -4.1,0 0,-1 m 3.9,-2.7 0,2.2 m -3.7,0 0,-2.2 m 3.2,2.2 0,0.5 m -2.8,0 0,-0.5 m 4.5,-3.7 0,1.5 m -6.1,0 0,-1.2 m 54.1,3.9 0,1 m -4.1,0 0,-1 m 3.9,-2.7 0,2.2 m -3.7,0 0,-2.2 m 3.3,2.2 0,0.5 m -2.8,0 0,-0.5 m -1.7,-2.2 0,-1.2 m 6.1,-0.3 0,1.5 m -56.7,-3.7 -0.4,0 m 0,-2.2 0.2,0 m 0,-0.8 0.6,0 m 32,-28.1 0.2,0 m 0,2.2 -0.3,0 m 0,-2.9 0.1,0 m -6.4,2.9 -0.3,0 m 0,-2.2 0.2,0 m 0,-0.7 0.1,0 m 32.5,29.6 0.2,0 m 0,2.2 -0.8,0 m 0,-3 0.6,0 m -58.9,2.8 -1.7,0 m 8.9,0 -0.8,0 m 45.2,0 -0.1,0 m -0.4,0 -2.7,0 m -8.7,0 -4.2,0 m -2.4,0 -0.1,0 m -0.4,0 -0.1,0 m -9,0 -4.1,0 m -8.7,0 -2.8,0 m -0.3,0 -0.1,0 m 45.2,0 -0.8,0 m 8.9,0 -1.7,0 m 0,-1.8 1.7,0 m -8.9,0 0.8,0 m -45.2,0 0.1,0 m 0.3,0 2.8,0 m 8.7,0 5.8,0 m 0.4,0 0.1,0 m 7.7,0 0.1,0 m 0.4,0 5.8,0 m 8.7,0 2.7,0 m 0.4,0 0.1,0 m -45.2,0 0.8,0 m -8.9,0 1.7,0 m 32.8,27.5 0,2.2 m -6.6,0 0,-2.2 m 0.5,-4.1 0.9,-0.6 m 3.9,0 0.9,0.6 m 0.4,6.3 -1.3,0.8 m -3.9,0 -1.4,-0.8 m 7,-3.2 0,0.3 m -7.3,0 0,-0.3 m 4.6,6 0,0.8 m -1.9,0 0,-0.8 m 1.8,-10 0,0.3 m -1.7,0 0,-0.3 m -2,-1.8 0,5.8 m 0,0.3 0,0.7 m -0.5,0 0,-0.7 m 0,-0.3 0,-5.8 m 6.7,0 0,5.8 m 0,0.3 0,0.7 m -0.5,0 0,-0.7 m 0,-0.3 0,-5.8 m -2,-129.9 0,1 m 0,0.7 0,48.2 m 0,11.7 0,12.8 m 0,10.4 0,1.8 m 0,43.3 0,2.1 m -1.7,0 0,-2.1 m 0,-43.3 0,-1.8 m 0,-10.4 0,-12.8 m 0,-11.7 0,-49.9 m -18,74.7 8.7,0 m -8.7,0 0,12.1 0,12.1 0,4 0,4 0,4.1 0,3 0,3 0,1.5 0,1.5 0,0.8 0,0.8 0,0.7 0,0.2 0,0.2 m 8.7,-48 0,12.1 0,12.1 0,4 0,4 0,4.1 0,3 0,3 0,1.5 0,1.5 0,0.8 0,0.8 0,0.7 0,0.2 0,0.2 m 20.3,-48 8.7,0 m -8.7,0 0,12.1 0,12.1 0,4 0,4 0,4.1 0,3 0,3 0,1.5 0,1.5 0,0.8 0,0.8 0,0.7 0,0.2 0,0.2 m 8.7,-48 0,12.1 0,12.1 0,4 0,4 0,4.1 0,3 0,3 0,1.5 0,1.5 0,0.8 0,0.8 0,0.7 0,0.2 0,0.2 m -17.8,-61.5 0,0.4 m -2.1,0 0,-0.4 m 2.1,0.4 -2.1,0 m 2.1,-0.4 -2.1,0 m 2.1,0.4 0.3,0 0.2,0 0.3,0 0.1,0 0.2,0 0.1,0 m -4.5,0 0,0 0.1,0 0.1,0 0.2,0 0.3,0 0.2,0 0.3,0 m 7.3,-0.4 0,0.4 m -4,0 4,0 m -3.6,-0.4 3.1,0 m -12,0.4 0,-0.4 m 0,0.4 4,0 m -3.5,-0.4 3.1,0 m 8.9,0.4 0.2,0 0.3,0 0.1,0 0.2,0 0.1,0 m -14.3,0 0.1,0 0.2,0 0.1,0 0.3,0 0.2,0 m 11.5,-2.2 0.1,0 0,-0.1 0,-0.1 -0.1,-0.1 -0.1,-0.1 -0.1,-0.1 -0.1,-0.1 0,0.1 -0.1,0.1 0.1,0.1 0,0.1 0.1,0.1 0.1,0.1 0.1,0 m -5.3,-0.6 0,-0.1 0.1,-0.2 0,-0.1 0.1,-0.2 0,-0.1 0,-0.2 0.1,-0.1 0,-0.1 m 0.4,0.5 0,0 0,0.2 -0.1,0.2 -0.1,0.1 -0.3,0.1 -0.2,0 m 0.1,-1 -0.3,1.1 m 0.3,-1.2 0,0.1 -0.1,0.1 0,0.1 -0.1,0.2 0,0.1 0,0.2 -0.1,0.1 0,0.2 m 0,0.1 0,-0.1 m 0,0 -0.2,-0.1 -0.2,-0.2 0,-0.2 0,-0.1 m 0.4,0.7 0,0 0.1,0 0.1,0 m 0.8,-0.5 0,0 -0.1,0.2 -0.1,0.2 -0.2,0.1 -0.3,0.1 -0.2,0 -0.2,-0.1 -0.2,-0.2 -0.1,-0.1 -0.1,-0.2 m 0.7,0.4 0,0.1 m -4.8,0 -0.1,0 0,-0.1 -0.1,0.1 -0.1,0 -0.1,0.1 0,0.1 -0.1,0.1 0,0.1 0,0.1 0.1,0 0.1,0 0,-0.1 0.1,0 0.1,-0.2 0,-0.1 0.1,-0.1 m 4.5,-8.7 0.1,0.1 0,0.1 0.1,0.2 0,0.1 m -0.5,-0.1 0,-0.1 0.1,-0.2 0.2,-0.1 m 0.2,0 0,0 -0.1,0 0,0.1 m 0.1,-0.1 0,0 m 0,0 0.3,0 0.2,0 0.2,0.2 0.1,0.2 m -0.5,0.1 0,-0.1 -0.1,-0.1 0,-0.1 -0.1,-0.1 -0.1,-0.1 m 0.2,0.5 -0.2,-0.5 m 6.3,5.4 0.2,0.4 0.1,0.5 0,0.4 0,0.4 0,0.2 m -0.9,-1.9 0.6,0 m -0.6,-1.3 -0.7,0 m -0.9,-1.9 0.2,0.2 0.4,0.4 0.3,0.4 0.4,0.4 0.3,0.5 m -2.1,2.7 -0.2,-0.1 0,-0.1 m 2.3,-2.5 0.3,-0.3 m 0.7,1.3 -0.1,-0.1 -0.1,-0.2 0,-0.1 -0.1,-0.2 -0.1,-0.2 -0.1,-0.1 -0.1,-0.2 -0.1,-0.2 m 0.3,1.6 0.4,-0.3 m 1,1.9 0.2,-0.1 0.1,-0.3 0.1,-0.2 0,-0.4 0,-0.4 -0.1,-0.4 -0.1,-0.5 -0.2,-0.5 -0.2,-0.5 -0.3,-0.5 -0.3,-0.4 -0.3,-0.5 -0.4,-0.4 -0.3,-0.4 -0.4,-0.4 -0.4,-0.3 -0.4,-0.2 -0.3,-0.2 m 2.1,4.7 0,0 m 0.2,0 -0.2,0 m -0.6,-1.2 0,0 m 0,0 0.1,0.1 m 0.5,1 -0.1,-0.1 0,-0.2 -0.1,-0.1 -0.1,-0.1 0,-0.1 -0.1,-0.2 -0.1,-0.1 0,-0.1 m 0.5,1 0,0.1 m -1.3,-1 0,0 m 0,0 0.5,0 m 0,0 0.2,-0.2 m -0.2,1.3 -0.5,-1.1 m 1,1.1 -0.5,0 m 0,-1.1 0.5,1.1 m 0,0 0.3,-0.1 m -0.8,0.2 0.2,-0.1 m 0.6,-0.1 -0.1,0 m 0.1,0 0,0 m -0.1,0 0.1,0 m -2.2,-4.7 -0.1,0 -0.1,0 -0.2,0.1 -0.1,0 -0.2,0 m 0.8,-0.1 0,0 -0.1,0 m -0.7,0.1 -0.3,0.1 m 0,0 0.2,-0.1 0.2,0 0.2,-0.1 0.2,0 m 0.2,0 -0.2,0 m -0.4,0 -0.2,0 -0.3,0.1 m 0.5,-0.1 0.1,0 0,0.1 m -0.6,0 0.1,-0.1 0.1,0 0.1,0 m 0.2,0 -0.2,0 m 3.7,7.2 0.1,-0.1 0.1,-0.1 0.1,-0.1 0.1,-0.1 0,-0.1 m 0,0 0,0 0.1,-0.1 m -0.5,0.6 -0.2,0.3 m -7.2,-0.8 -0.5,0 m 0.1,0.5 0,-0.1 0,-0.1 0,-0.1 -0.1,-0.1 0,-0.1 m 0.1,0.5 0,0.6 m 0,0 0,0 m 0.4,-1.1 -0.1,0.1 -0.1,0.2 0,0.3 0,0.2 0,0.1 m 1.1,0 0,-0.1 0,-0.2 0,-0.3 -0.1,-0.2 -0.1,-0.1 m -0.7,0 0.1,-0.1 0.1,0 0.1,0 0.1,0 0.1,0 0.1,0 0.1,0.1 m 0.4,1.1 0,0 m 0,-0.6 0,0.6 m 0.1,-1.1 0,0.1 -0.1,0.1 0,0.1 0,0.1 0,0.1 m 0.1,-0.5 -0.5,0 m -1.2,0 0,0 0,-0.1 -0.1,0 m 0,0 0,1 m 0,0 0,0 0.1,0.1 0.1,0 0,0.1 0,0.1 m 1.5,0 0,-0.1 0,-0.1 0.1,0 0.1,-0.1 m 0,0 0,-1 m 0,0 0,0 -0.1,0 0,0.1 m -4.5,-3.4 0.1,-0.4 0.1,-0.5 0.2,-0.5 0.3,-0.4 0.3,-0.3 0.5,-0.4 0.4,-0.2 0.5,-0.2 0.6,-0.1 0.5,-0.1 0.6,0 0.5,0.1 0.5,0.2 0.5,0.2 0.5,0.3 0.3,0.3 0.4,0.4 0.2,0.5 0.2,0.4 0.1,0.5 0,0.5 -0.1,0.4 -0.2,0.5 -0.2,0.4 -0.4,0.4 -0.3,0.4 -0.5,0.3 -0.5,0.2 -0.5,0.2 -0.5,0.1 -0.6,0 -0.5,-0.1 -0.6,-0.1 -0.5,-0.2 -0.4,-0.3 -0.5,-0.3 -0.3,-0.4 -0.3,-0.4 -0.2,-0.4 -0.1,-0.5 -0.1,-0.5 m 3.3,-3.3 0.1,0 0.1,0.1 0.1,0 0.1,0 0.1,0 0.1,-0.1 0.1,0 m -0.7,0 -0.5,0 m -0.1,0 0,0 0.1,0 m -0.1,6.6 -0.6,-0.1 -0.5,-0.3 -0.4,-0.2 -0.5,-0.4 -0.3,-0.4 -0.3,-0.4 -0.2,-0.5 -0.1,-0.5 -0.1,-0.5 0.1,-0.5 0.1,-0.4 0.2,-0.5 0.3,-0.4 0.3,-0.4 0.5,-0.4 0.4,-0.3 0.5,-0.2 0.6,-0.2 m 1.9,0 0.6,0.2 0.5,0.2 0.4,0.3 0.5,0.4 0.3,0.4 0.3,0.4 0.2,0.5 0.1,0.4 0.1,0.5 -0.1,0.5 -0.1,0.5 -0.2,0.5 -0.3,0.4 -0.3,0.4 -0.5,0.4 -0.4,0.2 -0.5,0.3 -0.6,0.1 m -0.1,-6.6 0,0 0.1,0 m -0.1,0 -0.5,0 m -4.2,4.7 0,-0.1 -0.1,-0.2 0,-0.1 0,-0.2 m 0.1,0.9 0,-0.3 m 0,0.3 0.1,0.4 0.3,0.5 0.3,0.4 0.3,0.4 0.4,0.3 0.5,0.3 0.5,0.2 0.5,0.1 m 1.9,0 0.5,-0.1 0.5,-0.2 0.5,-0.3 0.4,-0.3 0.3,-0.4 0.3,-0.4 0.3,-0.5 0.1,-0.4 m 0,0 0,-0.3 m 0.1,-0.6 0,0.2 -0.1,0.1 0,0.2 0,0.1 m -0.2,-1.3 0,-0.2 -0.1,-0.4 -0.2,-0.5 -0.2,-0.4 -0.4,-0.4 -0.3,-0.4 -0.5,-0.3 -0.5,-0.2 -0.5,-0.2 -0.5,-0.1 -0.6,0 -0.5,0.1 -0.6,0.1 -0.5,0.2 -0.4,0.3 -0.5,0.3 -0.3,0.4 -0.3,0.4 -0.2,0.4 -0.1,0.5 -0.1,0.4 m 4,2.7 -0.3,0 -0.2,0 -0.2,-0.1 -0.2,-0.1 -0.1,-0.2 0,-0.2 0.1,-0.2 0.1,-0.1 0.2,-0.1 0.3,-0.1 0.2,0.1 0.2,0.1 0.1,0.1 0.1,0.2 0,0.2 -0.2,0.2 -0.1,0.2 m 0,0.1 -0.3,0.1 -0.2,0 -0.2,-0.1 -0.2,-0.2 -0.1,-0.1 0,-0.2 m 1.3,0 0,0.2 -0.2,0.2 -0.1,0.1 m -2,-3.9 0,0.1 -0.1,0.2 -0.1,0.2 -0.2,0.1 -0.3,0 -0.2,-0.1 -0.2,-0.1 -0.1,-0.2 0,-0.2 m 5.7,0 0,0.1 0,0.2 -0.2,0.1 -0.2,0.1 -0.2,0.1 -0.2,0 -0.2,-0.1 -0.2,-0.2 0,-0.2 0,-0.1 m -0.9,5.9 0,0 0,0.1 -0.1,0 -0.1,0.1 -0.1,0 m -0.9,0 0,0 -0.1,0 -0.1,0 0,-0.1 -0.1,0 0,-0.1 m 1.2,0.2 -0.9,0 m 1.2,-0.2 0,-0.4 m -1.5,0.4 0,-0.4 m 0,0.7 0,0 0,0.1 0.1,0 0,0.1 0.1,0 0.1,0 m 0,0 0,-0.3 m -0.3,-0.2 0,0.3 m 1.2,-0.1 0,0.3 m -0.9,0 0.9,0 m 0,0 0,0 0.1,0 0.1,-0.1 0.1,0 0,-0.1 m 0,0 0,-0.3 m -3.6,-6 0,-0.2 0.1,-0.2 0.2,-0.1 0.2,0 0.3,0 0.2,0.1 0.1,0.1 0.1,0.2 0,0.2 -0.1,0.2 -0.1,0.1 -0.2,0.1 -0.3,0 -0.2,0 -0.2,-0.1 -0.1,-0.2 0,-0.2 m 5.4,-0.5 0.2,0.2 0.1,0.1 0,0.2 0,0.2 -0.2,0.2 -0.2,0.1 -0.2,0 -0.2,0 -0.2,-0.1 -0.2,-0.1 0,-0.2 0,-0.2 0.1,-0.2 0.1,-0.2 0.3,0 0.2,0 0.2,0 m -3.3,-1.8 0,-0.1 0.1,0 0,-0.1 0.1,0 0.1,-0.1 m 0.9,0 0,0 0.1,0.1 0.1,0 0,0.1 0.1,0 0,0.1 m -0.3,-0.3 -0.1,0 m -0.6,0 -0.1,0 m 0,0 -0.1,0 m 1.2,0.3 0,0.1 m -1.5,-0.1 0,0.1 m -4.8,3.7 0.3,-0.5 0.4,-0.4 0.3,-0.4 0.4,-0.4 0.2,-0.2 m -0.9,1.9 -0.7,0 m -0.6,1.3 0.6,0 m -0.9,1.9 -0.1,-0.2 0.1,-0.4 0,-0.4 0.1,-0.5 0.2,-0.4 m 2.9,1.2 0,0.1 -0.2,0.1 m -2.7,-1.4 -0.4,-0.3 m 0.7,-1.3 -0.1,0.2 -0.1,0.2 -0.1,0.1 -0.1,0.2 -0.1,0.2 0,0.1 -0.1,0.2 -0.1,0.1 m 1,-1 -0.3,-0.3 m 1.6,-3.4 -0.3,0.2 -0.4,0.2 -0.4,0.3 -0.4,0.4 -0.3,0.4 -0.4,0.4 -0.3,0.5 -0.3,0.4 -0.3,0.5 -0.2,0.5 -0.2,0.5 -0.1,0.5 -0.1,0.4 0,0.4 0,0.4 0.1,0.2 0.1,0.3 0.2,0.1 m 1.8,-3.1 0,0 m -0.8,1.2 0.2,0 m 0,0 0,0 m 0,0 0,-0.1 m 0.5,-1 0,0.1 -0.1,0.1 -0.1,0.2 0,0.1 -0.1,0.1 -0.1,0.1 0,0.2 -0.1,0.1 m 0.5,-1 0.1,-0.1 m 0.2,0.2 -0.2,-0.2 m 0.2,0.2 0.5,0 m 0,0 0,0 m 0,0 -0.5,1.1 m -0.5,0 0.5,-1.1 m 0,1.1 -0.5,0 m 0,0 -0.3,-0.1 m 0.8,0.2 -0.2,-0.1 m -0.6,-0.1 0.1,0 m -0.1,0 0,0 m 0.1,0 -0.1,0 m 2.9,-4.6 -0.2,0 -0.1,0 -0.2,-0.1 -0.1,0 -0.1,0 m 0,0 0,0 -0.1,0 m 0.8,0.1 0.3,0.1 m -0.8,-0.2 0.2,0 0.2,0.1 0.2,0 0.2,0.1 m -1,-0.2 0.2,0 m 0.9,0.1 -0.3,-0.1 -0.2,0 m 0,0 -0.1,0 0,0.1 m 0.3,-0.1 0.1,0 0.1,0 0.1,0.1 m -0.5,-0.1 0.2,0 m -4.1,6.7 0,0.1 0.1,0.1 0.1,0.1 0.1,0.1 0.1,0.1 m -0.5,-0.6 0,0 0.1,0.1 m 0.4,0.5 0.2,0.3 m 4.2,2.5 0,0.1 0,0.1 0,0.1 0,0.1 0,0.1 0,0.1 m 5.3,0 -5.3,0 m 5.3,0 0,0 0,-0.1 0,-0.1 0,-0.1 0,-0.1 0,-0.1 0,-0.1 m 0,0 -5.3,0 m 5.3,0 0,-3.1 m 0,-6.1 0,-1.3 m 0,0 -5.3,0 m 0,0 0,1.3 m 0,6.1 0,3.1 m 0.2,-10.7 0,0.1 -0.1,0 -0.1,0.1 m 5.3,0 -0.1,-0.1 -0.1,-0.1 m 0,0 -4.9,0 m 5.3,0.2 5.2,10.5 m -5.4,-10.3 0.2,-0.2 m -0.2,0.2 5.2,10.4 m 0,0 0.2,-0.1 m -3,-0.2 -1.8,-3.6 m 1,-0.1 -0.2,-0.1 -0.3,-0.2 -0.1,-0.2 m 0.3,-2.3 0,0.1 0.3,0.3 0.2,0.3 0.3,0.4 0.1,0.4 0.1,0.3 0.1,0.3 0,0.3 -0.1,0.2 -0.1,0.2 -0.1,0.1 -0.2,0 -0.3,-0.1 m -1.8,-6.8 0.1,0.1 0.2,0 0.1,0.1 m -0.2,0.1 0,0.1 m -5.5,-0.2 0.2,-0.1 0.1,-0.1 0.1,0 m -0.2,0.4 -0.2,-0.2 m 0.2,0.2 0,-0.1 m -5.2,10.5 5.2,-10.4 m -0.6,6.5 -1.8,3.6 m 0.5,-3.6 0.2,-0.1 0.2,-0.1 0.3,-0.1 0.2,-0.3 m -0.3,-2.3 -0.2,0.3 -0.3,0.3 -0.2,0.4 -0.2,0.3 -0.1,0.4 -0.1,0.3 0,0.3 0,0.3 0.1,0.1 0.2,0.1 0.2,0.1 m -3.5,3.8 5.2,-10.5 m -5,10.6 -0.2,-0.1 m 3.1,-4 0.2,0.1 0.2,-0.1 0.3,-0.1 0.2,-0.2 0.3,-0.2 0,-0.1 m 9.8,5 1.7,0 m -1.7,0.2 0,-0.2 m 0,0.2 1.7,0 m 0,-0.2 0,0.2 m -4.1,-5.2 0.1,0.1 0.3,0.2 0.2,0.2 0.3,0.1 0.2,0.1 0.2,-0.1 m -11,4.6 0,-0.2 m 0,0.2 0.3,0 m 2.3,0 0,-0.2 m -2.6,0 2.6,0 m -4.3,0.2 1.7,0 m -1.7,-0.2 0,0.2 m 0,-0.2 1.7,0 m 9.5,0.2 0,-0.2 m 2.3,0.2 0.3,0 m -2.6,-0.2 2.6,0 m 2,-0.4 0,0.1 0,0.1 0,0.1 0,0.1 -0.1,0.1 -0.1,0.1 -0.1,0 m 0.1,-0.5 0,0 0,0.1 0,0.1 -0.1,0 0,0.1 m -15.5,0.2 -0.1,0 -0.1,-0.1 -0.1,-0.1 0,-0.1 0,-0.1 0,-0.1 0,-0.1 m 0.3,0.4 0,0 -0.1,-0.1 0,-0.1 0,-0.1 m 12,47.1 0,0.2 0,0.1 0,0.2 -0.1,0.1 -0.1,0.1 -0.1,0.1 0,0.1 m 0.3,-0.9 0,-1.3 m -8.4,0 0.1,0 0,-0.1 0,-0.1 0.1,0 0,-0.1 0.1,0 0.1,0 m -0.4,0.3 0,1.3 m 0.4,0.9 0,-0.1 -0.1,-0.1 -0.1,-0.1 -0.1,-0.1 0,-0.2 0,-0.1 -0.1,-0.2 m 8.1,-1.6 0.1,0 0.1,0 0,0.1 0.1,0 0,0.1 0,0.1 m -10.5,-3.8 -0.1,0.2 m 0,0 0.1,0.3 m 0,-13.4 -0.1,0.2 m 0,0 0.1,0.2 m 12.7,12.8 0,0.1 m 0,-0.1 0,0 0,-0.3 m 0,0 0,0 m 0,0.1 0,0.1 0,0.1 m 0,-12.9 0.1,-0.1 m 0,0 -0.1,-0.2 m -13.4,-0.5 0.7,0 m -1,0.3 0,-0.1 0,-0.1 0.1,-0.1 0.1,0 0.1,0 m -0.3,0.7 0,-0.4 m 0,1.7 0,0 m 0,-0.4 0,0 m -0.2,0.9 0,-0.5 m 0.2,9.3 0,-8.3 m 0,9.3 -0.2,0 m 0.2,0.4 0,0 m 0,-0.4 0,0 m 0,1.4 0,-0.1 -0.1,-0.1 0,-0.1 0,-0.1 0,-0.1 -0.1,-0.1 m 0.2,1 0,-0.4 m 0.3,0.7 -0.1,-0.1 -0.1,0 -0.1,0 0,-0.1 0,-0.1 m 1,0.3 -0.7,0 m 0.7,0 0,0 m 0,-1.2 0,0 -0.1,0 -0.1,0 -0.1,0 -0.1,-0.1 0,-0.1 m -0.8,0.1 0,-0.4 m 0,-10.7 0.2,0 m -0.2,10.3 0,-0.5 m 0.2,-10.2 -0.2,0 m 0,11.1 0.2,0 m -0.2,-11.5 0.1,-0.1 0,-0.1 0,-0.1 0,-0.1 0.1,-0.1 m -0.2,11.1 0.1,0 0,-0.1 0,-0.1 0,-0.1 0,-0.1 0.1,0 0,-0.1 m -0.2,-9.7 0,-0.4 m 0.2,1.8 0,-0.1 -0.1,0 0,-0.1 0,-0.1 0,-0.1 -0.1,-0.1 m 14.9,10.2 0.2,0 m -0.2,-0.4 0,0 m 0,0.4 0,0 m 0.2,-0.9 0,0.5 m -0.2,-9.3 0,8.3 m 0.2,-9.3 0,0.5 m -0.2,-0.9 0,0 m 0,0.4 0,0 m 0,-1.7 0,0.4 m -0.3,-0.7 0.1,0 0.1,0 0.1,0.1 0,0.1 0,0.1 m -1,-0.3 0.7,0 m -0.7,14.4 0,0 m 0.7,0 -0.7,0 m 1,-0.3 0,0 0,0.1 0,0.1 -0.1,0 -0.1,0 -0.1,0.1 m 0.3,-0.7 0,0.4 m -0.6,-1.1 0,0 0,0.1 -0.1,0.1 -0.1,0 -0.1,0 -0.1,0 m 1,-12.5 0,0 0.1,0.1 0,0.1 0,0.1 0,0.1 0.1,0.1 m 0,11.5 0,0.4 m -0.2,-11.1 0.2,0 m 0,10.3 -0.2,0 m 0.2,-11.1 0,0.4 m 0,11.5 -0.1,0.1 0,0.1 0,0.1 0,0.1 -0.1,0.1 0,0.1 m 0.2,-11.2 -0.1,0.1 0,0.1 0,0.1 0,0.1 -0.1,0 0,0.1 m 0.2,-1.4 -0.2,0 m 0,9.7 0,0.1 0.1,0 0,0.1 0,0.1 0,0.1 0,0.1 0.1,0 m -7.8,-39.4 0,0 -0.1,0 -0.1,0 m 0.2,0 0,0.1 m 0,0 0.2,0 0.3,0 0.2,0 0.1,0 0.1,0 m -1.3,0 0,0 0.1,0 0.1,0 m 0,0 0,0 0,-0.1 m 0.6,0.3 -0.1,0 -0.1,-0.1 -0.1,0 -0.1,-0.1 m -0.2,0 0.1,0.1 0.1,0 0.1,0.1 0.1,0 m -5.8,-0.3 0,0 -0.1,0 -0.1,0 m 0.2,0 0,0.1 m 0,0 0.3,0 0.2,0 0.2,0 0.2,0 0.1,0 m -1.4,0 0,0 0.1,0 0.1,0 m 0,0 0,0 0,-0.1 m 0.6,0.3 0,0 -0.1,0 -0.1,-0.1 -0.1,0 -0.1,-0.1 m -0.2,0 0.1,0.1 0.1,0 0.1,0.1 0.1,0 0.1,0 m 10.9,-0.3 -0.1,0 -0.1,0 m 0.2,0 0,0.1 m 0,0 0.2,0 0.2,0 0.3,0 0.1,0 0.1,0 m -1.4,0 0,0 0.1,0 0.2,0 m 0,0 0,0 0,-0.1 m 0.5,0.3 0,0 -0.1,0 -0.1,-0.1 -0.1,-0.1 m -0.2,0 0.1,0.1 0.1,0.1 0.1,0 0.1,0 m -11.9,25.4 -0.6,0 m 0,0 0,1.9 m 0,14.4 0,1.7 m 0,0 1.1,0 m -0.8,-17.5 0,0 0.1,-0.1 0,-0.1 0,-0.1 -0.1,0 -0.1,0 -0.1,0 0,0.1 0,0.1 0.1,0.1 0.1,0 m 0,0.6 0,0 0.1,-0.1 0,-0.1 0,-0.1 -0.1,0 -0.1,0 -0.1,0 0,0.1 0,0.1 0.1,0.1 0.1,0 m 0,0.6 0,0 0.1,-0.1 0,-0.1 0,-0.1 -0.1,0 -0.1,0 -0.1,0 0,0.1 0,0.1 0.1,0.1 0.1,0 m 0,15 0,0 0.1,-0.1 0,-0.1 0,-0.1 -0.1,0 -0.1,0 -0.1,0 0,0.1 0,0.1 0.1,0.1 0.1,0 m 0,0.6 0,0 0.1,-0.1 0,-0.1 0,-0.1 -0.1,0 -0.1,0 -0.1,0 0,0.1 0,0.1 0.1,0.1 0.1,0 m 0,0.6 0,0 0.1,-0.1 0,-0.1 0,-0.1 -0.1,0 -0.1,0 -0.1,0 0,0.1 0,0.1 0.1,0.1 0.1,0 m 13.6,-17.9 -0.6,0 m -0.5,18 1.1,0 m 0,0 0,-1.7 m 0,-14.4 0,-1.9 m -0.3,0.5 0.1,0 0,-0.1 0.1,0 0,-0.1 -0.1,-0.1 -0.1,0 -0.1,0 0,0.1 -0.1,0 0.1,0.1 0,0.1 0.1,0 m 0,0.6 0.1,0 0,-0.1 0.1,0 0,-0.1 -0.1,-0.1 -0.1,0 -0.1,0 0,0.1 -0.1,0 0.1,0.1 0,0.1 0.1,0 m 0,0.6 0.1,0 0,-0.1 0.1,0 0,-0.1 -0.1,-0.1 -0.1,0 -0.1,0 0,0.1 -0.1,0 0.1,0.1 0,0.1 0.1,0 m 0,15 0.1,0 0,-0.1 0.1,0 0,-0.1 -0.1,-0.1 -0.1,0 -0.1,0 0,0.1 -0.1,0 0.1,0.1 0,0.1 0.1,0 m 0,0.6 0.1,0 0,-0.1 0.1,0 0,-0.1 -0.1,-0.1 -0.1,0 -0.1,0 0,0.1 -0.1,0 0.1,0.1 0,0.1 0.1,0 m 0,0.6 0.1,0 0,-0.1 0.1,0 0,-0.1 -0.1,-0.1 -0.1,0 -0.1,0 0,0.1 -0.1,0 0.1,0.1 0,0.1 0.1,0 m -12.7,-46.5 0.6,-0.7 m -0.6,0.7 0.4,0.3 m 0.3,-0.3 0,0 -0.3,0.3 m 0.5,-0.7 -0.2,0.4 m -0.1,-0.7 0.3,0.3 m -0.2,1 0,-0.1 0,-0.1 0,-0.1 0.1,-0.1 0,-0.1 0.1,-0.1 0.1,0 0.1,0 m -0.1,0.6 0,0.1 -0.1,0.1 -0.1,0 0,0.1 -0.1,0 -0.1,0 -0.1,0 m 0.9,-0.9 -0.1,0.1 0,0.1 0,0.1 -0.1,0.1 0,0.1 -0.1,0.1 -0.1,0 m 0.2,-1 0.1,0.1 0.1,0 0,0.1 0,0.1 0,0.1 m -0.7,0 0.1,-0.1 0.1,-0.1 0.1,-0.1 0.1,0 0.1,0 0,-0.1 m -0.8,1 0,-0.1 0.1,-0.1 0,-0.1 0.1,-0.1 0,-0.1 0.1,-0.1 m -0.2,0.9 0,0 -0.1,0 0,-0.1 0,-0.1 0,-0.1 m 0,-0.3 0,0 0,0.3 m 0.8,-1 0,0 -0.3,0 m -1,1 0.4,0.3 m 0.1,-0.3 0,0.1 -0.1,0.2 m -0.4,-0.3 0.1,-0.6 m 1.4,-0.4 -0.2,0 m -0.2,-0.2 0.4,0.2 m -0.8,-0.3 0.4,0.1 m -0.7,1.5 0.2,0 m 0.9,-1.3 0,0.1 0,0.3 m -0.7,0.9 0.1,-0.1 m -0.3,0.1 0.1,0 0.1,0 m 0.3,-0.3 0.1,0 0.2,-0.3 m 0.1,-0.3 -0.1,0.1 0,0.2 m -0.2,1.9 0,-0.6 m -0.4,0 0,0 0.4,0 m -0.8,0 0.4,0 m -0.4,0.6 0,-0.6 m -0.3,0 0,0 0.3,0 m 0.4,0 -0.1,0 -0.1,0 -0.1,0 -0.1,0 -0.1,0 -0.1,0 -0.1,0 m 1.1,0 0.1,0 m 0,0 0,0 -0.1,0 -0.1,0 -0.1,0 -0.1,0 -0.1,0 m -1.1,0 0.1,0 0.3,0 m -0.4,0.6 0,-0.6 m 1.7,0.6 0,-0.6 m -0.1,0 0,0 0.1,0 m -1.5,0 0,0 -0.2,0 m 0.4,0 -0.1,0 -0.1,0 -0.1,0 0.1,0 m 11.9,-2.1 0.5,0.7 m -0.5,-0.7 -0.4,0.3 m 0.2,0.4 0,-0.1 -0.2,-0.3 m 0.5,0.7 -0.3,-0.3 m 0.7,0 -0.4,0.3 m -0.7,-0.5 0.1,0.1 0.1,0.1 0.1,0.1 0,0.1 0,0.1 0,0.1 m -0.4,-0.6 0.1,0 m 0.4,0.2 0.1,0.1 0,0.1 0.1,0.1 0,0.1 0,0.1 0,0.1 m -0.7,-1.1 0.1,0 0.1,0.1 0.1,0.1 0.1,0.1 0.1,0.1 0,0.1 m -0.8,-0.4 0,0 0.1,-0.1 0.1,-0.1 0,0.1 0.1,0 m -0.1,0.7 0,-0.1 -0.1,0 0,-0.1 0,-0.1 -0.1,-0.1 0,-0.1 0,-0.1 m 0.7,1.1 -0.1,0 0,-0.1 -0.1,0 -0.1,-0.1 -0.1,-0.1 0,-0.1 -0.1,-0.1 m 0.8,0.4 0,0 0,0.1 -0.1,0 -0.1,0 -0.1,0 m -0.4,-1.2 0.1,0 0.2,0.1 m 0.4,1 0,0 0.1,-0.3 m -0.6,-1.2 -0.4,0.2 m 0,0 0.1,0.1 0.1,0.1 m 0.7,-0.2 -0.5,-0.2 m 0.5,1.7 0,-0.2 m 0.4,-0.1 -0.4,0.3 m 0.5,-0.8 -0.1,0.5 m -1.3,-1.2 -0.1,0.3 m 0.7,1.1 0.1,0 0.2,0.1 m -0.4,-0.2 0.1,0.1 m -0.7,-1.1 0,0 0,0.2 m 1.5,2.2 0,-0.6 m -0.4,0 0,0 0.4,0 m -0.8,0 0.4,0 m -0.4,0.6 0,-0.6 m -0.3,0 0.1,0 0.2,0 m 0.4,0 -0.1,0 -0.1,0 -0.1,0 -0.1,0 -0.1,0 -0.1,0 -0.1,0 m 1.1,0 0.1,0 m 0,0 0,0 -0.1,0 -0.1,0 -0.1,0 -0.1,0 -0.1,0 m -1,0 0.1,0 0.2,0 m -0.3,0.6 0,-0.6 m 1.7,0.6 0,-0.6 m -0.2,0 0,0 0.2,0 m -1.6,0 0,0 -0.1,0 m 0.3,0 -0.1,0 -0.1,0 m 2.3,41.6 0,0.3 m 0,-0.7 -0.2,-0.5 m 0,-9.3 0,9.3 m 0.2,-9.8 -0.2,0.5 m -14.1,-0.5 0.2,0.5 m 0,0 0,9.3 m -0.2,0.5 0.2,-0.5 m -0.2,0.9 0,0.3 m 0.7,0 -0.7,0 m 0.9,-0.1 0,0.1 -0.1,0 -0.1,0 m 0.2,-0.1 0.4,-0.2 m 0.3,-0.4 0.1,-0.1 0.2,-0.5 0.2,-0.5 0.2,-0.4 0.3,-0.3 0.3,-0.2 0.2,-0.1 0.2,-0.1 m 10,2.8 -0.3,-0.2 m -0.3,-0.4 -0.1,-0.1 -0.2,-0.5 -0.2,-0.5 -0.2,-0.4 -0.3,-0.3 -0.3,-0.2 -0.2,-0.1 -0.2,-0.1 m 2.6,2.9 0,0 -0.1,0 -0.1,0 -0.1,-0.1 m 0.3,0.1 0.7,0 m -1.2,-8.8 -0.3,0.6 -0.4,0.5 -0.4,0.4 -0.3,0.2 -0.5,0.2 -0.2,0 m 2.2,-1.9 0,0 -0.1,0 m 0.1,7 0,-7 m -0.1,7 0,0.1 0.1,0 0,-0.1 m -2.2,-1.8 0.2,0 0.4,0.1 0.4,0.2 0.4,0.4 0.4,0.5 0.3,0.6 m -11.9,-7 0,0 -0.1,0 m 0.1,0 0.3,0.6 0.4,0.5 0.4,0.4 0.3,0.2 0.5,0.2 0.2,0 m 0,3.3 -0.2,0 -0.4,0.1 -0.4,0.2 -0.4,0.4 -0.4,0.5 -0.3,0.6 m -0.1,0 0,0 0,0.1 0.1,0 0,-0.1 m -0.1,0 0,-7 m 12.4,-2.9 0.8,0 m -13.5,0 -0.8,0 m 14.3,0.3 0,-0.3 m -0.8,0 -0.1,0 -0.2,0.1 -0.1,0.2 m -0.1,0.4 -0.1,0.1 -0.1,0.4 -0.1,0.6 -0.2,0.4 -0.1,0.3 -0.1,0.2 -0.1,0.3 -0.1,0.3 -0.2,0.2 -0.4,0.3 -0.3,0.2 -0.2,0 m -11,-3.7 0,-0.3 m 0.8,0 0.1,0 0.1,0.1 0.2,0.2 m 0.1,0.4 0.1,0.1 0.1,0.4 0.1,0.6 0.2,0.4 0.1,0.3 0.1,0.2 0.1,0.3 0.1,0.3 0.2,0.2 0.4,0.3 0.3,0.2 0.2,0 m 7.4,-1.5 0,-0.1 0.1,-0.1 0.1,-0.1 0.1,0 0.1,0 0.1,0.1 0,0.1 0.1,0.1 -0.1,0.1 0,0.1 -0.1,0 -0.1,0.1 -0.1,-0.1 -0.1,0 -0.1,-0.1 0,-0.1 m 0.7,0 -0.1,0.1 0,0.1 -0.2,0.1 -0.1,0.1 -0.2,-0.1 -0.1,-0.1 -0.1,-0.1 0,-0.1 0,-0.2 0.1,-0.1 0.1,-0.1 0.2,0 0.1,0 0.2,0.1 0,0.1 0.1,0.2 m -1.1,0.6 0,-1.4 m 1.3,1.6 -0.6,0 m 0.6,-1.6 0,1.6 m -1.3,-1.6 1.3,0 m -9.9,12.4 1.3,0 m 0,1 -1.3,0 m 1.3,-0.7 0,0.7 m -1.3,0 0,-1 m 9.7,0 1.1,0 m 0,1 -1.3,0 m 1.3,-1 0,1 m -1.3,0 0,-0.7 m 0.8,-14.1 0,0 m -1,0 0,-0.3 0.1,-0.3 0.2,-0.2 0.3,-0.2 0.3,-0.1 0.2,0 0.3,0.1 0.3,0.2 0.2,0.2 0.1,0.3 0,0.3 m -0.1,0.4 0,0.1 -0.2,0.3 -0.3,0.1 -0.3,0.1 -0.2,0 -0.3,-0.1 -0.3,-0.1 -0.2,-0.3 0,-0.1 m -0.1,-0.4 0,0 m -8.5,0 0,0 m -1.1,0 0.1,-0.3 0.1,-0.3 0.2,-0.2 0.3,-0.2 0.2,-0.1 0.3,0 0.3,0.1 0.3,0.2 0.2,0.2 0.1,0.3 0,0.3 m -0.1,0.4 0,0.1 -0.2,0.3 -0.3,0.1 -0.3,0.1 -0.3,0 -0.2,-0.1 -0.3,-0.1 -0.2,-0.3 0,-0.1 m -0.1,-0.4 -0.1,0 m 10.6,12.3 0,0 m -0.6,-0.9 0.2,-0.1 0.3,0 0.2,0 0.3,0 0.3,0.2 0.2,0.2 0.1,0.3 0,0.3 0,0.3 -0.1,0.2 -0.2,0.3 -0.3,0.1 -0.3,0.1 -0.2,0 -0.3,-0.1 -0.2,0 m -8.9,-0.9 0,0 m -1.1,0 0.1,-0.3 0.1,-0.3 0.2,-0.2 0.3,-0.2 0.2,0 0.3,0 0.3,0 0.1,0.1 m 0,1.8 -0.1,0 -0.3,0.1 -0.3,0 -0.2,-0.1 -0.3,-0.1 -0.2,-0.3 -0.1,-0.2 -0.1,-0.3 m 1.6,1.9 0.3,0 m 0,0.6 -0.3,0 m 9.8,-0.6 0,0.6 m -0.3,-0.6 0.3,0 m 0,0.6 -0.3,0 m -1.5,-0.6 0.2,0 m 0,0.6 -0.2,0 m -9.6,-0.6 0.3,0 m -0.3,0.6 0,-0.6 m 0.3,0.6 -0.3,0 m 2.9,-12.5 -0.9,0 m 0.9,-0.6 0,0.6 m -0.9,0 0,-0.6 m 0,0 0.9,0 m 3.2,-4.2 0,0.1 -0.1,0.2 -0.1,0 -0.2,0.1 -0.1,-0.1 -0.1,0 -0.1,-0.2 -0.1,-0.1 0.1,-0.2 0.1,-0.1 0.1,-0.1 0.1,0 0.2,0 0.1,0.1 0.1,0.1 0,0.2 m -6.2,17.4 0,-0.5 m 11.7,0.5 -2,0 m -7.7,0 -2,0 m 11.7,-0.5 0,0.5 m 0.2,-0.7 0,0 -0.1,0 0,0.1 -0.1,0.1 m 0.5,-0.2 -0.3,0 m 0.3,-15.7 0,1.2 m 0,11.7 0,2.8 m -4.3,-15.7 4.3,0 m -4.6,-0.3 0,0.1 0.1,0.1 m -3.7,0 0,0 0.1,-0.1 0,-0.1 m -4.6,0.3 4.2,0 m -4.2,15.7 0,-2.8 m 0,-11.7 0,-1.2 m 0.3,15.7 -0.3,0 m 0.5,0.2 0,0 -0.1,-0.1 0,-0.1 -0.1,0 m 4.3,-17.8 3.5,0 m -3.5,1.8 0,-1.8 m 3.5,0 0,1.8 m -6.9,-0.8 0,-2.2 m 3.1,2.2 -3.1,0 m 3.1,-2.2 0,2.2 m -3.1,-2.2 3.1,0 m 4.1,0 0,2.2 m 0,0 3.1,0 m 0,0 0,-2.2 m 0,0 -3.1,0 m -4.1,0.5 4.1,0 m -8.4,0 1.2,0 m -1.2,2.8 0,-2.8 m 12.7,0 0,2.8 m -1.2,-2.8 1.2,0 m -6.1,1.4 -0.1,0.1 -0.2,0 -0.1,0 -0.1,-0.1 m 0.1,-0.7 0.1,0 0.2,0 m -3.6,7.9 7.1,0 m -7.8,9.8 0,-3 m 0,-0.4 0,-0.9 m 1.5,8.9 6.3,0 m 0.6,-4.6 0,-3 m 0,-0.4 0,-0.9 m -5.9,-3.4 5.3,0 m 0,0 0,-2.1 m -6.3,9.8 -1.5,0 m 1.5,4.6 0,-4.6 m 1,-4.3 0,-3.4 m 5.3,12.3 0,-4.6 m -7.1,-4.3 -0.7,0 m 8.4,0 -5.9,0 m -1.8,0 0,-5.5 m 7.7,9.8 -0.6,0 m -5.8,-10.6 0,-3.1 m 0,-0.4 0,-1.6 m 4.2,0 0,1.6 m 0,0.4 0,3.1 m -4.2,-5.1 4.2,0 m 0,5.1 -4.2,0 m -1.7,16.2 0,-5.6 m 7.7,5.6 -7.7,0 m 7.7,-5.6 0,5.6 m -7.7,-16.9 1.7,0 m -1.7,7 0,-7 m 7.7,0 0,7 m -1.8,-7 1.8,0 m -3.4,47.8 1.9,0.1 1.8,0.2 1.9,0.2 1.9,0 1.9,-0.1 2,-0.2 2.2,-0.3 2.3,-0.2 2.3,-0.3 2.2,-0.1 m 0.2,-0.5 -0.1,0.3 -0.1,0.1 0,0.1 m 0.2,-0.5 -3.7,0.3 -3.7,0.3 -3.7,0.1 -3,0 -2.9,-0.3 -2.8,-0.5 m 0,0 -0.4,0.5 -0.2,0.4 -0.2,0.4 m 20.4,-0.7 0,0 0,0.1 0.1,-0.1 0,-0.2 0.1,-0.1 0,-0.1 m -20.6,1.1 0.2,0.1 0.2,0 0.4,0.1 m 19.9,-2 0,0 0,0.2 -0.1,0.2 0,0.2 m -17,-0.2 0.9,-0.2 1.2,-0.2 1.3,-0.1 1.7,-0.1 1.6,0.1 1.7,0.1 1.5,0.1 1.4,0.2 1.5,0 1.4,0 1.5,-0.1 1.4,-0.2 m -19.7,0.5 0,0 -0.2,0 m -2.5,0 -1.2,0.1 -1.2,-0.2 -1.3,-0.2 -1.2,-0.2 -1.3,-0.1 -1.7,-0.1 -1.6,0.1 -1.7,0.1 -1.5,0.1 -1.4,0.2 -1.5,0 -1.4,0 -1.5,-0.1 -1.4,-0.2 m 0.1,0.7 -0.1,-0.4 0,-0.2 0,-0.1 m 19.8,1.7 -1.5,-0.1 -1.6,-0.1 -1.5,0 -1.6,0 -1.6,-0.1 -1.6,-0.1 -1.6,0 -2.2,-0.2 -2.2,-0.1 -2.1,-0.2 -2.2,-0.1 m 19.7,1 0,-0.4 0.1,-0.1 0,-0.1 0,-0.2 0,-0.2 0,-0.2 m -19.9,-0.5 0,0 m 19.9,0.5 0,0 -0.2,0 m 22.5,0.2 0.1,-0.4 0,-0.2 0,-0.1 m -42,1.1 0,0 0,0.1 m 0,-0.1 -0.1,0 0,-0.2 -0.1,-0.1 0,-0.1 m 2.4,0.5 -2.2,-0.1 m 19.4,0.8 0,-0.1 0.1,-0.1 m -0.2,0.3 0,0 0.1,0 0.1,0 0.2,0 0.3,0 0.3,0 0.4,0 0.3,0 0.4,0 0.3,0 0.3,0 0.2,0 0.1,0 m 0.1,4.3 0.1,0 m -3.3,0 0.1,0 0.1,0 0.2,0 0.3,0 0.3,0 0.4,0 0.3,0 0.4,0 0.3,0 0.3,0 0.3,0 0.2,0 m 0,0.3 0.1,0 m -3.3,0 0.1,0 0.1,0 0.2,0 0.3,0 0.3,0 0.4,0 0.3,0 0.4,0 0.3,0 0.3,0 0.3,0 0.2,0 m 0,-2.4 0.1,0 m -3.3,0 0.1,0 0.1,0 0.2,0 0.3,0 0.3,0 0.4,0 0.3,0 0.4,0 0.3,0 0.3,0 0.3,0 0.2,0 m 0,-0.3 0.1,0 m -3.3,0 0.1,0 0.1,0 0.2,0 0.3,0 0.3,0 0.4,0 0.3,0 0.4,0 0.3,0 0.3,0 0.3,0 0.2,0 m -0.4,-1.1 0,0 m -2.3,0 0,0 0.1,0 0.3,0 0.2,0 0.3,0 0.3,0 0.4,0 0.2,0 0.3,0 0.1,0 0.1,0 m -21.8,2 3.6,0.4 3.7,0.2 3.7,0.2 2.9,-0.1 2.8,-0.3 2.9,-0.5 m -19.6,0.1 0.2,0.4 0.1,0.1 0,0.1 m 20.1,0.7 -1.8,0.1 -1.8,0.2 -1.9,0.1 -1.8,0 -1.9,-0.1 -1.9,-0.1 -2.2,-0.3 -2.3,-0.3 -2.2,-0.2 -2.3,-0.1 m 20.1,0.7 0,-0.1 -0.2,-0.4 -0.3,-0.5 -0.3,-0.4 m -19.3,0.7 0,0 -0.1,-0.1 -0.1,-0.2 -0.2,-0.2 m 19.6,1.3 0.1,0 0.2,-0.1 0.3,0 0.1,0 0.2,0 m -3.9,-1.5 -0.8,-0.2 -1.3,-0.2 -1.2,-0.1 -1.7,-0.1 -1.7,0.1 -1.6,0.1 -1.5,0.2 -1.5,0.1 -1.4,0.1 -1.4,0 -1.4,-0.1 -1.3,-0.3 m 0,0 0,0 0,0.1 0.1,0 0,0.1 0.2,0.4 m 19.6,-0.1 -0.3,0 -0.1,0 -0.1,0 0.1,0 m -19.3,0.2 -0.1,-0.4 -0.1,-0.2 0,-0.1 m 22.4,1.7 1.4,-0.1 1.5,0 1.5,-0.1 1.6,0 1.6,-0.1 1.5,0 1.6,-0.1 2.2,-0.1 2.1,-0.2 2.2,-0.1 2.1,-0.2 m 0,0 0.1,-0.4 0.1,-0.2 0,-0.1 m -19.6,0.5 1.2,0.1 1.2,-0.1 1.2,-0.3 1.3,-0.2 1.2,-0.1 1.7,-0.1 1.7,0.1 1.6,0.1 1.5,0.2 1.5,0.1 1.4,0.1 1.4,0 1.4,-0.1 1.3,-0.3 m -19.6,0.5 0,0 0,0.1 0,0.4 0,0.1 0,0.2 0.1,0.4 m 0,-1.2 0,0 -0.1,0 m -2.9,-0.5 0.1,0 0.1,0 0.1,0 0.3,0 0.3,0 0.3,0 0.4,0 0.3,0 0.4,0 0.3,0 0.2,0 0.2,0 m 0,1.7 0,0.2 m 16.7,-0.6 2.2,-0.1 m 0,0 0.1,-0.1 0.1,-0.2 0.2,-0.2 m -23.5,-15.1 0,-7.7 m 0,-0.4 0,-9.6 m 0,0 5.5,0 m 0,0 0,9.6 m 0,0.4 0,7.7 m -5.2,-18.3 0,0.1 0,0.2 0.1,0.1 0.1,0.1 0.1,0 0.1,0.1 0.1,0 0.1,0 m -0.6,-1.2 0,0.6 m -1.5,-1.2 0,1 m 0,0.4 0,0.4 m 0,0 0,0 m 0.1,-1.8 -0.1,0 m 7.9,19.5 0,-7.7 m 0,-0.4 0,-10 m -1.2,0 0,10 m 0,0.4 0,7.7 m 0.8,-18.1 -0.8,0 m -6.7,0 0,10 m 0,0.4 0,7.7 m 1.2,0 0,-7.7 m 0,-0.4 0,-10 m 0,0 -0.9,0 m 6.3,-0.8 0,0.1 0,0.1 0,0.2 0,0.1 0,0.1 0,0.1 0,0.1 0,0.1 m 0.3,-0.3 0,0 0,-0.1 0,-0.1 0,-0.1 0,-0.1 0,-0.1 0,-0.1 m 0,0.8 0,-0.2 m -2.2,-26.8 0,0.4 m -1.5,-0.4 0,0.4 m 0,0 1.5,0 m -2,0 0,0 0.1,0 0.1,0 0.1,0 0.2,0 m 1.5,0 0.2,0 0.1,0 0.1,0 0.1,0 m -2,-10.4 1.5,0 m 0,0 0,0.4 m -1.5,-0.4 0,0.4 m -0.5,-0.4 0,0 0.1,0 0.1,0 0.1,0 0.2,0 m 1.5,0 0.2,0 0.1,0 0.1,0 0.1,0 m 2.2,36.8 -0.4,0 m 0.4,-0.6 0,0.6 m -0.4,-0.6 0,0.6 m 0.4,0 0,0 0,0.1 m -0.4,-0.1 0,0 0,0.1 m -6.8,-30.7 -0.4,0 m 0,0.6 0.4,0 m -0.4,-0.6 0,0 0,0.1 0,0.1 0,0.1 0,0.1 0,0.1 0,0.1 m 0.4,0 0,-0.1 0,-0.1 0,-0.1 0,-0.1 0,-0.1 0,-0.1 m 0,0.7 -0.4,0 m 0,0 0,-0.1 m 0.4,0.1 0,-0.1 m -0.4,0.7 0.4,0 m -0.4,-0.6 0,0.1 0,0.1 0,0.1 0,0.1 0,0.1 0,0.1 m 0.4,0 0,0 0,-0.1 0,-0.1 0,-0.1 0,-0.1 0,-0.1 0,-0.1 m -0.4,-0.7 0.4,0 m -0.4,0 0,0 m 0.4,0 0,0 m 0,-2.8 -0.4,0 m 0,0.6 0.4,0 m -0.4,-0.6 0,0 0,0.1 0,0.1 0,0.1 0,0.1 0,0.1 0,0.1 m 0.4,0 0,-0.1 0,-0.1 0,-0.1 0,-0.1 0,-0.1 0,-0.1 m -0.4,2.8 0,-2.2 m 0.4,2.2 0,-2.2 m 0,5.7 -0.4,0 m 0,0 0,-2.2 m 0.4,2.2 0,-2.2 m -0.4,2.7 0.4,0 m -0.4,-0.5 0,0.1 0,0.1 0,0.1 0,0.1 0,0.1 m 0.4,0 0,0 0,-0.1 0,-0.1 0,-0.1 0,-0.1 0,-0.1 m -0.4,-6.3 0.4,0 m -0.4,0 0,0 m 0.4,0 0,0 m 7.5,5.1 0.4,0 m 0,-0.8 -0.4,0 m 0.4,0.8 0,-0.1 0,-0.2 0,-0.1 0,-0.1 0,-0.1 0,-0.1 0,-0.1 m -0.4,0 0,0 0,0.1 0,0.1 0,0.1 0,0.1 0,0.1 0,0.2 0,0.1 m 0.4,0.1 -0.4,0 m 0.4,-0.1 0,0.1 m -0.4,-0.1 0,0.1 m 0.4,0.3 0,0 0,-0.1 0,-0.1 0,-0.1 m -0.4,0 0,0.1 0,0.1 0,0.1 m 0,-2.3 0.4,0 m 0,0 0,1.1 m -0.4,-1.1 0,1.1 m 0,-3 0.4,0 m 0,-0.8 -0.4,0 m 0.4,0.8 0,-0.1 0,-0.1 0,-0.2 0,-0.1 0,-0.1 0,-0.1 0,-0.1 m -0.4,0 0,0 0,0.1 0,0.1 0,0.1 0,0.1 0,0.2 0,0.1 0,0.1 m 0.4,0 0,1.9 m -0.4,-1.9 0,1.9 m 0,-2.8 0.4,0 m 0,0 0,0.1 m -0.4,-0.1 0,0.1 m 0.4,-0.1 0,0 0,-0.1 m -0.4,0 0,0 0,0.1 m 0.4,5.8 -0.4,0 m 0.4,-0.7 0,0.7 m -0.4,-0.7 0,0.7 m 0.4,0.3 0,0 0,-0.1 0,-0.1 0,-0.1 m -0.4,0 0,0.1 0,0.1 0,0.1 m -6.9,-9.5 6.3,0 m -6.3,9.6 0,-9.6 m 6.3,9.6 -6.3,0 m 6.3,-9.6 0,9.6 m -3.2,-61.8 0,-0.5 0,-0.6 0,-0.9 0,-1.1 0,-1.2 0,-1.2 0,-1.3 0,-1.2 0,-1.1 0,-2.3 0,-2.2 0,-2.4 0,-0.4 m 0,16.4 0.1,0 m 0,-16.4 0,0.4 0,2 0,2 0,2 0,2 0,1.2 0,1.3 0,1.2 0,1.2 0,1.1 0,0.9 0,0.6 0,0.5 m -0.1,-16.4 0.1,0 m 0.6,15.8 0,-0.3 0,-0.4 0,-0.5 0,-0.6 0,-1 0,-1.3 0,-0.8 0,-0.8 0,-1.9 0,-1.9 0,-2 0,-1.9 0,-2 0,-1.7 0,-2.3 m 0,0 0,0 -0.1,0 -0.1,0 -0.1,0 -0.2,0 -0.1,0 m 0,0 0,0.1 0.1,2.2 0,1 -0.1,0.2 0,0.1 m 0.6,15.8 0,0.1 0,0.1 -0.1,0.1 -0.1,0.1 0,0.1 -0.1,0 -0.2,0.1 -0.1,0 m -0.1,-16.4 0,0 -0.1,-0.1 0,-0.2 0,-1 0.1,-2.2 0,-0.1 m 0,0 -0.1,0 -0.2,0 -0.1,0 -0.1,0 -0.1,0 m 0,0 0,4 0,1.9 0,2 0,2 0,1.9 0,1.2 0,1.2 0,1.1 0,1.2 0,1.1 0,0.7 0,0.6 0,0.5 m 0.6,0.6 -0.1,0 -0.2,-0.1 -0.1,0 -0.1,-0.1 0,-0.1 -0.1,-0.1 0,-0.1 0,-0.1 m 0.6,-19.4 0.1,0 m 0.6,24.7 0,-5.3 m -1.3,0 0,5.3 m 4.6,103.1 0.4,0 m 0,0 0,-0.1 0,-0.1 0,-0.1 0,-0.1 0,-0.1 m -0.4,0.5 0,-0.1 0,-0.1 0,-0.1 0,-0.1 0,-0.1 m 0,-0.7 0.4,0 m 0,0 0,-0.1 0,-0.1 0,-0.1 m 0,0 -0.4,0 m 0.4,0.6 0,-0.3 m -0.4,-4.3 0.4,0 m 0,0 0,4 m 0,-4.3 -0.4,0 m 0.4,0.3 0,0 0,-0.1 0,-0.1 0,-0.1 m -0.4,-14.5 0.4,0 m 0,0 0,0.9 m 0,0.4 0,10 m 0,0.4 0,2.8 m -0.4,-14.5 0,0.9 m 0.4,-2.4 0,0 0,0.1 0,0.2 0,0.2 0,0.3 0,0.3 0,0.4 m -0.4,-1.5 0,0 0,0.1 0,0.2 0,0.2 0,0.3 0,0.3 0,0.4 m -8.3,20.3 0,-0.1 0,-0.1 0,-0.1 0,-0.1 0,-0.1 m 0,0.5 0.4,0 m 0,0 0,-0.1 0,-0.1 0,-0.1 0,-0.1 0,-0.1 m -0.4,-0.7 0.4,0 m 0,-0.3 -0.4,0 m 0,0 0,0.1 0,0.1 0,0.1 m 0,0.3 0,-0.3 m 0,-4.3 0.4,0 m -0.4,0 0,4 m 0.4,-4.3 -0.4,0 m 0,0 0,0.1 0,0.1 0,0.1 m 0,-14.8 0,0.9 m 0,0.4 0,10 m 0,0.4 0,2.8 m 0.4,-16 0,0 0,0.1 0,0.2 0,0.2 0,0.3 0,0.3 0,0.3 m -0.4,-1.4 0,0 0,0.1 0,0.2 0,0.2 0,0.3 0,0.3 0,0.4 m 17.2,-108.1 0,-1.7 m -5.1,6.9 4.4,-5.2 m -24.8,-1.7 1,0.9 m 2.4,0 0,-1.2 m -2.9,2 4.4,5.2 m -1.5,-7.2 0.2,0 m 39,7.2 -22.2,0 m -16.8,-6 0,-1.2 m 18,1.2 -5.6,0 m 5.6,0 0,-1.2 m -21.9,2 0,-1.7 m 16.2,-0.3 -0.3,0 m -15.6,0.3 -0.3,0 m 16.2,0.8 0,-1.1 m -15.4,2 -0.8,0 m 25.5,-1.7 0.3,0 m -16.4,-2.6 0,-0.5 m -0.1,4 -5.4,0 m 18.3,0 0,-1.2 m -10.8,1.2 -1.5,0 m 0,0 0,-1.2 m -4.7,7.2 -22.3,0 m 20.8,-6 -2.4,0 m 41.6,-18 0,24 m -18.3,-6 -2.4,0 m 2.9,0.8 0.7,0 m -16.1,-4.8 -0.3,0 m 16.1,3.1 -0.9,0.9 m -8.7,-0.4 0,-0.8 m -1.5,1 0,-1.4 m -4.7,0.4 0.2,0 m -27,7.2 0,-24 m 39.3,16.8 -0.3,0 m -39,-16.8 29.4,0 m 1.3,0 29.3,0 m -33.2,14.5 0,-0.5 m 1.7,1.9 0.9,0 m 1.3,0 0.5,0 m -2.7,2.1 0,-2.1 m -9.2,3 0,0 -0.1,0 -0.1,0 -0.1,-0.1 -0.1,-0.1 -0.1,0 -0.1,0 -0.1,-0.1 -0.1,0 0,-0.1 -0.1,0 -0.1,0 m 22.5,0.4 0,0 0.1,0 0.1,0 0,-0.1 0.1,0 0.1,-0.1 0.1,0 0.1,0 0.1,-0.1 0.1,-0.1 0.1,0 0.1,0 m -10,-0.4 0,0.1 0.1,0 0.1,0 0,-0.1 0,-0.1 -0.1,0 0,0.1 -0.1,0 m 1.1,0 0,0.1 0.1,0 0.1,0 0,-0.1 -0.1,-0.1 -0.1,0.1 m 0.6,0 -2.8,-3.5 m 0,3.9 2.8,0 m -0.9,-0.7 -1.9,-2.5 m 0,2.5 1.9,0 m -0.2,0.3 0,0.1 0.1,0 0.1,0 0,-0.1 -0.1,0 0,-0.1 -0.1,0 0,0.1 m 1.1,0.4 0,-0.4 m -6.7,-0.4 -0.4,0 m 0.4,0 0,-3.2 m -0.4,3.2 0,-3.2 m 0,3.5 0,-0.3 m 0.4,0.3 0,-0.3 m 0,0.3 -0.4,0 m -5.4,1 -0.3,0 m 0.3,0 0,-0.1 0,-0.1 0,-0.1 0,-0.1 0,-0.1 0,-0.1 0,-0.1 m 0,0 -0.3,0 m 0,0.7 0,-0.1 0,-0.1 0,-0.1 0,-0.1 0,-0.1 0,-0.1 0,-0.1 m 0.3,0.7 0,0 m -0.3,0 0,0 m 0.3,-2.2 -0.3,0 m 0.3,1.5 0,-1.5 m -0.3,1.5 0,-1.5 m 9,2 0,-0.3 m -0.1,0.9 0,0 0,-0.1 0,-0.1 0,-0.1 0,-0.1 0,-0.1 0.1,0 0,-0.1 m 0.2,0.5 0,0.1 m 0.3,0 0,0 0,-0.1 m 0.1,-0.5 0.1,0.1 0.1,0 0,0.1 0,0.1 0,0.1 0,0.1 0,0.1 m -0.2,-0.9 0,0.3 m 3,0.2 -0.4,0 m 0,0 0,-0.1 0,-0.1 0,-0.1 0,-0.1 0,-0.1 m 0.4,0.5 0,-0.1 0,-0.1 0,-0.1 0,-0.1 0,-0.1 m -0.4,0.5 0,0 m 0.4,0 0,0 m 0,-2.2 -0.4,0 m 0,1.4 0,-0.1 m 0,-0.7 0,-0.6 m 0.4,1.1 0,-1.1 m 6,2.2 -0.4,0 m 0.4,0 0,-0.1 0,-0.1 0,-0.1 0,-0.1 0,-0.1 0,-0.1 0,-0.1 m 0,0 -0.4,0 m 0,0.7 0,-0.1 0,-0.1 0,-0.1 0,-0.1 0,-0.1 0,-0.1 0,-0.1 m 0.4,0.7 0,0 m -0.4,0 0,0 m 0.4,-2.2 -0.4,0 m 0.4,1.5 0,-1.5 m -0.4,1.5 0,-1.5 m -11.9,2.2 -0.3,0 m 0.3,0 0,-0.1 0,-0.1 0,-0.1 0,-0.1 0,-0.1 0,-0.1 0,-0.1 m 0,0 -0.3,0 m 0,0.7 0,-0.1 0,-0.1 0,-0.1 0,-0.1 0,-0.1 0,-0.1 0,-0.1 m 0,0.7 0,0 m 0.3,0 0,0 m 0,-2.2 -0.2,0 m -0.1,1.5 0,-0.3 m 0.3,0.3 0,-1.5 m 2.4,-19.3 1.3,0 m -1.3,21 0,-21 m 0,21 1.3,0 m 0,0 0,-21 m 30.6,94 53.2,0 m -53.2,0 0,12.1 0,12.1 0,4 0,4 0,4.1 0,3 0,3 0,1.5 0,1.5 0,0.8 0,0.8 0,0.7 0,0.2 0,0.2 m 53.2,-48 0,12.1 0,12.1 0,4 0,4 0,4.1 0,3 0,3 0,1.5 0,1.5 0,0.8 0,0.8 0,0.7 0,0.2 0,0.2 m -168.9,-48 53.2,0 m 0,0 0,12.1 0,12.1 0,4 0,4 0,4.1 0,3 0,3 0,1.5 0,1.5 0,0.8 0,0.8 0,0.7 0,0.2 0,0.2 m -53.2,-48 0,12.1 0,12.1 0,4 0,4 0,4.1 0,3 0,3 0,1.5 0,1.5 0,0.8 0,0.8 0,0.7 0,0.2 0,0.2 m 56,-12 -0.3,0 m 0,0.9 0.3,0 m -0.3,-0.9 0,0.9 m 0.3,-0.9 0,0.9 m 0,-3.3 -0.3,0 m 0,2.4 0,-0.4 0,-0.3 0,-0.3 0,-0.4 0,-0.3 0,-0.2 0,-0.3 0,-0.2 m 0.3,2.4 0,-0.4 0,-0.3 0,-0.3 0,-0.4 0,-0.3 0,-0.2 0,-0.3 0,-0.2 m -0.3,4 0,-0.7 m 0.3,0 0,0.7 m 0,-6.3 -0.3,0 m 0.3,-2.4 -0.3,0 m 0,0 0,2.4 m 0.3,-2.4 0,2.4 m -0.3,2.3 0,-2.3 m 0.3,2.3 0,-2.3 m 6.8,4.7 -0.3,0 m 0.3,-2.4 -0.3,0 m 0,2.4 0,-0.4 0,-0.3 0,-0.3 0,-0.4 0,-0.3 0,-0.2 0,-0.3 0,-0.2 m 0.3,2.4 0,-0.4 0,-0.3 0,-0.3 0,-0.4 0,-0.3 0,-0.2 0,-0.3 0,-0.2 m 0,4 -0.3,0 m 0,-1.6 0,1.6 m 0.3,-1.6 0,1.6 m 0,-8.1 -0.3,0 m 0,4.1 0,-4.1 m 0.3,4.1 0,-4.1 m 0,-0.6 -0.3,0 m 0,0.6 0,-0.1 0,-0.1 0,-0.1 0,-0.1 0,-0.1 0,-0.1 m 0.3,0.6 0,-0.1 0,-0.1 0,-0.1 0,-0.1 0,-0.1 0,-0.1 m -7.7,8.7 9.7,0 m -9.7,0.4 9.7,0 m -9.7,-0.4 0,0.4 m 9.7,-0.4 0,0.4 m -9.6,0.7 0,-0.4 m 9.5,0.4 0,-0.4 m -9.5,0 9.5,0 m -9.5,0.4 9.5,0 m -1.8,-0.7 0,0.3 m -6.1,-0.3 0,0.3 m -0.3,0.7 0,-0.3 m 0,0.3 0.7,0 m 0,0 0,-0.3 m 0.7,4.2 0.1,0 0.1,0 0.2,0 0.3,0 0.3,0 0.4,0 0.4,0 0.5,0 0.4,0 0.4,0 0.3,0 0.3,0 0.2,0 0.1,0 0.1,0 m -4.1,1 0.1,0 0.1,0 0.2,0 0.3,0 0.3,0 0.4,0 0.4,0 0.5,0 0.4,0 0.4,0 0.3,0 0.3,0 0.2,0 0.1,0 0.1,0 m -4,-3.7 0,-1.5 m 3.9,1.5 0,-1.5 m -3.9,1.5 3.9,0 m 1.9,-2.2 0,0.3 m 0.7,-0.3 0,0.3 m -6.4,4.1 0,0 0.1,0 0.2,0 0.3,0 0.4,0 0.3,0 0.4,0 0.4,0 0.4,0 0.4,0 0.3,0 0.3,0 0.1,0 0.1,0 m 2.2,-3.3 0,-0.4 m 0,0.4 0.3,0 m 0,0 0,-0.4 m -9,-2.3 0,1.2 m 0,0.4 0,0.3 m 0.4,-1.9 -0.4,0 m 1,0.1 0,1.1 m 0,0.4 0,0.3 m 1.1,1.9 0,-1.5 m 0,1.5 0.6,0 m 4.5,0 0,-1.5 m -0.6,1.5 0.6,0 m 0,0 0.2,0 0.1,0 0.1,0 0.1,0 m -6.1,0 0.1,0 0.1,0 0.1,0 0.2,0 m 6.2,-2.9 0,0.3 m 0,0.4 0,0.3 m 0,-1 -0.8,0 m -0.3,0 -1,0 m 0,0 0,0.3 m -4.9,1.5 0,-0.1 m -0.3,0.1 0,-0.4 m 0,0.4 0.3,0 m 0,-1.1 0,0.3 m 57.1,0.4 0,-0.4 m -9.5,0.4 0,-0.4 m 0,0.4 9.5,0 m -9.5,-0.4 9.5,0 m -1.8,-0.3 0,0.3 m -6,-0.3 0,0.3 m -0.4,0.7 0.7,0 m 0,0 0,-0.3 m -0.7,0.3 0,-0.3 m 1.4,4.2 0.1,0 0.1,0 0.2,0 0.3,0 0.4,0 0.3,0 0.4,0 0.5,0 0.4,0 0.4,0 0.3,0 0.3,0 0.2,0 0.1,0 0.1,0 m -4.1,1 0.1,0 0.1,0 0.2,0 0.3,0 0.4,0 0.3,0 0.4,0 0.5,0 0.4,0 0.4,0 0.3,0 0.3,0 0.2,0 0.1,0 0.1,0 m -4,-3.7 0,-1.5 m 0,1.5 3.9,0 m 0,0 0,-1.5 m 1.9,-0.7 0,0.3 m 0.7,-0.3 0,0.3 m -6.4,4.1 0,0 0.1,0 0.3,0 0.2,0 0.4,0 0.4,0 0.4,0 0.4,0 0.4,0 0.3,0 0.3,0 0.3,0 0.1,0 0.1,0 m 2.2,-3.3 0,-0.4 m 0,0.4 0.3,0 m 0,0 0,-0.4 m -8,-2.3 0,1.2 m 0,0.4 0,0.3 m -1,-1.9 0,1.2 m 0,0.4 0,0.3 m 1,-1.9 -1,0 m 7.2,3.8 0,-1.5 m -0.6,1.5 0.6,0 m -5.1,0 0,-1.5 m 0,1.5 0.6,0 m -1.1,0 0.1,0 0.1,0 0.1,0 0.2,0 m 5.1,0 0.2,0 0.1,0 0.1,0 0.1,0 m 0.7,-2.9 0,0.3 m 0,0.4 0,0.3 m 0,-1 -0.4,0 m -0.5,0 -1.3,0 m 0,0 0,0.3 m -5.2,1.5 0,-0.4 m 0.3,0.4 0,-0.1 m -0.3,0.1 0.3,0 m 0,-1.1 0,0.3 m -44.3,-7.3 0,5.5 m 0,-5.5 -4.2,0 m 0,-0.9 0,0.9 m -0.5,-0.9 0.5,0 m -0.5,0 0,0.9 m -0.6,0 0.6,0 m -0.6,5.5 0.6,0 m 0,0 0,1.1 m 0,0 0.5,0 m 0,-1.1 0,1.1 m 4.2,-1.1 -4.2,0 m -1.4,-2 -0.6,0 m -0.2,0.9 0,0.3 0,0.3 0,0.2 0,0.2 0,0.1 m 0,-2.2 0,0 0,0.1 0,0.2 0,0.2 0,0.3 0,0.3 m 0.2,-1.9 0,0 0,0.1 0,0.2 0,0.2 0,0.3 0,0.2 m 32.6,-28.9 -0.1,0 m 0.3,2 0,0 0,-0.1 0,-0.2 0,-0.2 0,-0.3 0,-0.3 0,-0.3 0,-0.3 0,-0.2 0,-0.2 0,-0.1 m -0.2,0.2 0,-0.2 0,-0.3 0,-0.2 0,-0.1 0,-0.1 m -6.4,0.9 -0.1,0 m -0.2,0.9 0,0.3 0,0.3 0,0.2 0,0.2 0,0.1 m 0,-2.2 0,0 0,0.1 0,0.2 0,0.2 0,0.3 0,0.3 m 0.2,-1.8 0,0 0,0.1 0,0.1 0,0.2 0,0.3 0,0.2 m 26.4,30.9 0,-5.5 m 0,5.5 4.2,0 m 0,1.1 0,-1.1 m 0.5,1.1 -0.5,0 m 0.5,0 0,-1.1 m 0.6,0 -0.6,0 m 0.6,-5.5 -0.6,0 m 0,0 0,-0.9 m 0,0 -0.5,0 m 0,0.9 0,-0.9 m -4.2,0.9 4.2,0 m 2,3.5 -0.6,0 m 0.8,2 0,0 0,-0.1 0,-0.2 0,-0.2 0,-0.3 0,-0.3 0,-0.3 0,-0.3 0,-0.2 0,-0.2 0,-0.1 m -0.2,0.2 0,-0.2 0,-0.3 0,-0.2 0,-0.2 0,-0.1 m -7.9,-0.5 0,-0.4 m 0,0.4 0.1,0 m 0.4,0 1.2,0 m 5.6,0 0.2,0 m 0,0 0,-0.4 m -7.5,0 0.1,0 m 0.4,0 1.2,0 m 5.6,0 0.2,0 m -50.4,0 -0.2,0 m -0.3,0 -1.2,0 m -5.6,0 -0.2,0 m 0,0 0,0.4 m 7.5,0 -0.2,0 m -0.3,0 -1.2,0 m -5.6,0 -0.2,0 m 7.5,-0.4 0,0.4 m 43.4,4.6 -0.4,0 m 0.4,-1.6 -0.4,0 m 0.4,0 0,1.6 m -0.4,-1.6 0,1.6 m 0.4,-4 -0.4,0 m 0.4,2.4 0,-0.4 0,-0.3 0,-0.3 0,-0.4 0,-0.3 0,-0.2 0,-0.3 0,-0.2 m -0.4,2.4 0,-0.4 0,-0.3 0,-0.3 0,-0.4 0,-0.3 0,-0.2 0,-0.3 0,-0.2 m 0.4,-2.3 -0.4,0 m 0.4,2.3 0,-2.3 m -0.4,2.3 0,-2.3 m 0.4,-2.4 -0.4,0 m 0.4,2.4 0,-2.4 m -0.4,2.4 0,-2.4 m 7.8,8.7 0,0.4 m -9.7,-0.4 9.7,0 m -9.7,0 0,0.4 m 0,0 9.7,0 m -0.6,-2 -0.3,0 m 0,0 0,0.9 m 0,0 0.3,0 m 0,-0.9 0,0.9 m 0,-0.9 0,-0.4 0,-0.3 0,-0.3 0,-0.4 0,-0.3 0,-0.2 0,-0.3 0,-0.2 m 0,0 -0.3,0 m 0,2.4 0,-0.4 0,-0.3 0,-0.3 0,-0.4 0,-0.3 0,-0.2 0,-0.3 0,-0.2 m 0.3,3.3 0,0.7 m -0.3,0 0,-0.7 m 0.3,-6.8 -0.3,0 m 0.3,3.5 0,-3.5 m -0.3,3.5 0,-3.5 m 0.3,-1.2 -0.3,0 m 0.3,0 0,1.2 m -0.3,-1.2 0,1.2 m -6.1,4.4 0,0 -0.1,0 -0.1,0 -0.1,0 m 0.3,1.8 0,0 -0.1,0 -0.1,0 -0.1,0 m -44.1,-1.8 0,0 -0.1,0 -0.1,0 -0.1,0 m 0.3,1.8 0,0 -0.1,0 -0.1,0 -0.1,0 m 22.3,-108.4 -0.1,-0.1 -0.1,0 0,-0.1 0,-0.1 0.1,-0.1 0.1,0 0.1,-0.1 0,0.1 0.1,0 0.1,0.1 0,0.1 0,0.1 -0.1,0.1 -0.1,0 -0.1,0 m 1.7,133.4 0,-0.3 m 1.2,-2.8 -0.3,0 -0.3,0 -0.4,0 -0.5,0 -0.5,0 -0.5,0 -0.6,0 -0.5,0 -0.5,0 -0.5,0 -0.4,0 -0.4,0 -0.3,0 m 6.1,6 0,0 -0.1,0 -0.3,0 -0.3,0 -0.3,0 -0.4,0 -0.5,0 -0.5,0 -0.5,0 -0.6,0 -0.5,0 -0.5,0 -0.5,0 -0.4,0 -0.4,0 -0.3,0 -0.2,0 -0.2,0 -0.1,0 m 1.7,-2.9 0,-0.3 m 3.6,-3.7 0,0 -0.1,0 -0.1,0 -0.3,0 -0.2,0 -0.4,0 -0.4,0 -0.4,0 -0.4,0 -0.3,0 -0.4,0 -0.3,0 -0.3,0 -0.1,0 -0.1,0 -0.1,0 m 3.9,7.7 0,0 -0.1,0 -0.1,0 -0.3,0 -0.2,0 -0.4,0 -0.4,0 -0.4,0 -0.4,0 -0.3,0 -0.4,0 -0.3,0 -0.3,0 -0.1,0 -0.1,0 -0.1,0 m 5.6,-4 0,0 -0.1,0 -0.2,0 -0.3,0 -0.3,0 -0.3,0 -0.2,0 m 0,0.3 0,-0.3 m 1.4,0.3 0,0 -0.1,0 -0.2,0 -0.3,0 -0.3,0 -0.3,0 -0.2,0 m -4.5,0 0,-0.3 m 0,0.3 -0.2,0 -0.3,0 -0.3,0 -0.3,0 -0.2,0 -0.1,0 m 1.4,-0.3 -0.2,0 -0.3,0 -0.3,0 -0.3,0 -0.2,0 -0.1,0 m 5.3,0 0.6,0 m -0.6,0.3 0.6,0 m -3.9,0 -0.6,0 m 0.6,-0.3 -0.6,0 m 3.1,-4 0,0 -0.1,0 -0.2,0 -0.3,0 -0.2,0 -0.3,0 -0.2,0 -0.2,0 -0.1,0 -0.1,0 m -2,5 0,0 m -0.5,0 0,0 0.1,0 0.1,0 0.1,0 0.1,0 0.1,0 m 5.7,0 0,0 0.1,0 0.1,0 0.1,0 0.1,0 0.1,0 m -8.2,-6.8 0,-0.4 m 0.5,0.4 -0.1,0 -0.1,0 -0.1,0 -0.1,0 -0.1,0 m 0.5,0 0,-0.4 m 0,0 -0.1,0 -0.1,0 -0.1,0 -0.1,0 -0.1,0 m 0.5,0.4 8.7,0 m 0,0 0,-0.4 m -8.7,0 8.7,0 m 0,0.4 0.1,0 0.1,0 0.1,0 0.1,0 m 0,0 0,-0.4 m -0.4,0 0.1,0 0.1,0 0.1,0 0.1,0 m -8.8,-7.7 0,-0.4 m 0,0.4 8.1,0 m 0,0 0,-0.4 m -8.1,0 8.1,0 m 1.2,0.4 0,-0.4 m -1.2,0.4 0.2,0 0.2,0 0.2,0 0.2,0 0.2,0 0.1,0 0.1,0 m -1.2,-0.4 0.2,0 0.2,0 0.2,0 0.2,0 0.2,0 0.1,0 0.1,0 m -10.5,0.4 0,-0.4 m 0,0.4 0.1,0 0.1,0 0.2,0 0.1,0 0.3,0 0.2,0 0.2,0 m -1.2,-0.4 0.1,0 0.1,0 0.2,0 0.1,0 0.3,0 0.2,0 0.2,0 m -1.2,-19.4 0,-0.4 m 0,0.4 10.5,0 m 0,0 0,-0.4 m -10.5,0 10.5,0 m -12.4,0.4 0,-0.4 m 1.9,0.4 -0.4,0 -0.3,0 -0.3,0 -0.3,0 -0.3,0 -0.1,0 -0.2,0 m 1.9,-0.4 -0.4,0 -0.3,0 -0.3,0 -0.3,0 -0.3,0 -0.1,0 -0.2,0 m 12.4,0.4 0.4,0 0.3,0 0.3,0 0.3,0 0.3,0 0.1,0 0.2,0 m 0,0 0,-0.4 m -1.9,0 0.4,0 0.3,0 0.3,0 0.3,0 0.3,0 0.1,0 0.2,0 m -15,0.4 0,-0.4 m 0,0 0,0 0.1,0 0.1,0 0.2,0 0.1,0 0.2,0 m -0.7,0.4 0,0 0.1,0 0.1,0 0.2,0 0.1,0 0.2,0 m 15,0 0,-0.4 m 0,0 0,0 -0.1,0 -0.1,0 -0.2,0 -0.1,0 -0.2,0 m 0.7,0.4 0,0 -0.1,0 -0.1,0 -0.2,0 -0.1,0 -0.2,0 m -15.3,0 0,-0.4 m 0.3,0 -0.3,0 m 0.3,0.4 -0.3,0 m 16.2,0 0,-0.4 m -0.2,0 0.2,0 m -0.2,0.4 0.2,0 m -15.2,-10.7 0,-0.4 m 1.9,0.4 -0.4,0 -0.3,0 -0.3,0 -0.3,0 -0.3,0 -0.1,0 -0.2,0 m 1.9,0 0,-0.4 m 0,0 -0.4,0 -0.3,0 -0.3,0 -0.3,0 -0.3,0 -0.1,0 -0.2,0 m 12.4,0.4 0,-0.4 m 1.9,0.4 0,-0.4 m -1.9,0.4 0.4,0 0.3,0 0.3,0 0.3,0 0.3,0 0.1,0 0.2,0 m -1.9,-0.4 0.4,0 0.3,0 0.3,0 0.3,0 0.3,0 0.1,0 0.2,0 m -12.4,0.4 10.5,0 m -10.5,-0.4 10.5,0 m -13.1,0.4 0,-0.4 m 0,0.4 0,0 0.1,0 0.1,0 0.2,0 0.1,0 0.2,0 m -0.7,-0.4 0,0 0.1,0 0.1,0 0.2,0 0.1,0 0.2,0 m 15,0.4 0,-0.4 m 0,0.4 0,0 -0.1,0 -0.1,0 -0.2,0 -0.1,0 -0.2,0 m 0.7,-0.4 0,0 -0.1,0 -0.1,0 -0.2,0 -0.1,0 -0.2,0 m -15.3,0.4 0,-0.4 m 0.3,0.4 -0.3,0 m 0.3,-0.4 -0.3,0 m 16.2,0.4 0,-0.4 m -0.2,0.4 0.2,0 m -0.2,-0.4 0.2,0 m -4,20.5 0,-0.4 m -0.5,0 0,0.4 m 0,0 0.5,0 m -0.5,-0.4 0.5,0 m 1.9,0.4 0,-0.4 m -1.9,0.4 0.4,0 0.3,0 0.4,0 0.3,0 0.2,0 0.2,0 0.1,0 m -1.9,-0.4 0.4,0 0.3,0 0.4,0 0.3,0 0.2,0 0.2,0 0.1,0 m -12,0.4 0,-0.4 m 2,0.4 0,-0.4 m 0,0.4 -0.4,0 -0.3,0 -0.4,0 -0.3,0 -0.2,0 -0.2,0 -0.1,0 -0.1,0 m 2,-0.4 -0.4,0 -0.3,0 -0.4,0 -0.3,0 -0.2,0 -0.2,0 -0.1,0 -0.1,0 m 2.4,0 0,0.4 m -0.4,0 0.4,0 m -0.4,-0.4 0.4,0 m 7.2,0 -0.1,0 m -4.3,-111 0,0 0.1,0 0.1,0 m 1.3,0 0.1,0 0.1,0 m -1.7,132 0,0 m 1.7,0 0,0 m 2.5,-80.8 0.9,-0.6 m -0.8,0.1 -0.2,0.2 m 3.5,7.1 0.3,-0.2 m -11.3,-7.2 0.9,0.6 m 0.1,-0.3 -0.2,-0.2 m -3.6,7.1 0.3,0.2 m 9.4,-7.7 0,0 m 3.8,10.4 1.4,0 m -10.5,-10.4 0,0 m -5.2,10.4 1.4,0 m 9.1,50.8 0.1,0 m 0.2,-0.1 0,-0.1 0,-0.1 m -5.4,0.3 5.1,0 m 0,0 0,0.3 m -2.6,-89.2 0,5.3 m -0.1,0 0,-5.3 m -4.3,87.5 0.4,0" /></g></svg>