solid optotrakMountFoamTrapazoid
   facet normal 0.000000e+000 0.000000e+000 -1.000000e+000
      outer loop
         vertex 6.368738e-001 2.954278e-001 0.000000e+000
         vertex 6.220604e-001 2.744005e-001 0.000000e+000
         vertex 2.365979e-001 1.000000e-001 0.000000e+000
      endloop
   endfacet
   facet normal 0.000000e+000 0.000000e+000 -1.000000e+000
      outer loop
         vertex 2.365979e-001 1.000000e-001 0.000000e+000
         vertex 6.220604e-001 2.744005e-001 0.000000e+000
         vertex 6.111112e-001 2.511262e-001 0.000000e+000
      endloop
   endfacet
   facet normal 0.000000e+000 0.000000e+000 -1.000000e+000
      outer loop
         vertex 2.365979e-001 1.000000e-001 0.000000e+000
         vertex 6.111112e-001 2.511262e-001 0.000000e+000
         vertex 6.043569e-001 2.263076e-001 0.000000e+000
      endloop
   endfacet
   facet normal 0.000000e+000 0.000000e+000 -1.000000e+000
      outer loop
         vertex 2.049015e-001 1.548998e-001 0.000000e+000
         vertex 6.995261e-001 3.391272e-001 0.000000e+000
         vertex 1.732051e-001 1.000000e-001 0.000000e+000
      endloop
   endfacet
   facet normal 0.000000e+000 0.000000e+000 -1.000000e+000
      outer loop
         vertex 1.732051e-001 1.000000e-001 0.000000e+000
         vertex 6.995261e-001 3.391272e-001 0.000000e+000
         vertex 6.762006e-001 3.282873e-001 0.000000e+000
      endloop
   endfacet
   facet normal 0.000000e+000 0.000000e+000 -1.000000e+000
      outer loop
         vertex 1.732051e-001 1.000000e-001 0.000000e+000
         vertex 6.762006e-001 3.282873e-001 0.000000e+000
         vertex 2.365979e-001 1.000000e-001 0.000000e+000
      endloop
   endfacet
   facet normal 0.000000e+000 0.000000e+000 -1.000000e+000
      outer loop
         vertex 2.365979e-001 1.000000e-001 0.000000e+000
         vertex 6.762006e-001 3.282873e-001 0.000000e+000
         vertex 6.551040e-001 3.135727e-001 0.000000e+000
      endloop
   endfacet
   facet normal 0.000000e+000 0.000000e+000 -1.000000e+000
      outer loop
         vertex 2.365979e-001 1.000000e-001 0.000000e+000
         vertex 6.551040e-001 3.135727e-001 0.000000e+000
         vertex 6.368738e-001 2.954278e-001 0.000000e+000
      endloop
   endfacet
   facet normal 0.000000e+000 0.000000e+000 -1.000000e+000
      outer loop
         vertex 6.750000e-001 7.241081e-002 0.000000e+000
         vertex 6.750000e-001 1.024443e-016 0.000000e+000
         vertex 6.540425e-001 8.732276e-002 0.000000e+000
      endloop
   endfacet
   facet normal 0.000000e+000 0.000000e+000 -1.000000e+000
      outer loop
         vertex 6.540425e-001 8.732276e-002 0.000000e+000
         vertex 6.750000e-001 1.024443e-016 0.000000e+000
         vertex 2.365979e-001 2.131787e-016 0.000000e+000
      endloop
   endfacet
   facet normal 0.000000e+000 0.000000e+000 -1.000000e+000
      outer loop
         vertex 6.540425e-001 8.732276e-002 0.000000e+000
         vertex 2.365979e-001 2.131787e-016 0.000000e+000
         vertex 6.359833e-001 1.056380e-001 0.000000e+000
      endloop
   endfacet
   facet normal 0.000000e+000 0.000000e+000 -1.000000e+000
      outer loop
         vertex 6.359833e-001 1.056380e-001 0.000000e+000
         vertex 2.365979e-001 2.131787e-016 0.000000e+000
         vertex 6.213678e-001 1.268033e-001 0.000000e+000
      endloop
   endfacet
   facet normal 0.000000e+000 0.000000e+000 -1.000000e+000
      outer loop
         vertex 8.250000e-001 1.024443e-016 0.000000e+000
         vertex 8.250000e-001 7.241081e-002 0.000000e+000
         vertex 1.384530e+000 1.450094e-016 0.000000e+000
      endloop
   endfacet
   facet normal 0.000000e+000 0.000000e+000 -1.000000e+000
      outer loop
         vertex 1.384530e+000 1.450094e-016 0.000000e+000
         vertex 8.250000e-001 7.241081e-002 0.000000e+000
         vertex 8.459575e-001 8.732276e-002 0.000000e+000
      endloop
   endfacet
   facet normal 0.000000e+000 0.000000e+000 -1.000000e+000
      outer loop
         vertex 1.384530e+000 1.450094e-016 0.000000e+000
         vertex 8.459575e-001 8.732276e-002 0.000000e+000
         vertex 8.640167e-001 1.056380e-001 0.000000e+000
      endloop
   endfacet
   facet normal 0.000000e+000 0.000000e+000 -1.000000e+000
      outer loop
         vertex 6.043569e-001 2.263076e-001 0.000000e+000
         vertex 6.020016e-001 2.006944e-001 0.000000e+000
         vertex 2.365979e-001 1.000000e-001 0.000000e+000
      endloop
   endfacet
   facet normal 0.000000e+000 0.000000e+000 -1.000000e+000
      outer loop
         vertex 2.365979e-001 1.000000e-001 0.000000e+000
         vertex 6.020016e-001 2.006944e-001 0.000000e+000
         vertex 6.041165e-001 1.750602e-001 0.000000e+000
      endloop
   endfacet
   facet normal 0.000000e+000 0.000000e+000 -1.000000e+000
      outer loop
         vertex 2.365979e-001 1.000000e-001 0.000000e+000
         vertex 6.041165e-001 1.750602e-001 0.000000e+000
         vertex 2.365979e-001 2.131787e-016 0.000000e+000
      endloop
   endfacet
   facet normal 0.000000e+000 0.000000e+000 -1.000000e+000
      outer loop
         vertex 2.365979e-001 2.131787e-016 0.000000e+000
         vertex 6.041165e-001 1.750602e-001 0.000000e+000
         vertex 6.106375e-001 1.501794e-001 0.000000e+000
      endloop
   endfacet
   facet normal 0.000000e+000 0.000000e+000 -1.000000e+000
      outer loop
         vertex 2.365979e-001 2.131787e-016 0.000000e+000
         vertex 6.106375e-001 1.501794e-001 0.000000e+000
         vertex 6.213678e-001 1.268033e-001 0.000000e+000
      endloop
   endfacet
   facet normal 0.000000e+000 0.000000e+000 -1.000000e+000
      outer loop
         vertex 1.295099e+000 1.548998e-001 0.000000e+000
         vertex 8.779397e-001 2.744005e-001 0.000000e+000
         vertex 1.381701e+000 2.048998e-001 0.000000e+000
      endloop
   endfacet
   facet normal 0.000000e+000 0.000000e+000 -1.000000e+000
      outer loop
         vertex 1.381701e+000 2.048998e-001 0.000000e+000
         vertex 8.779397e-001 2.744005e-001 0.000000e+000
         vertex 8.631262e-001 2.954278e-001 0.000000e+000
      endloop
   endfacet
   facet normal 0.000000e+000 0.000000e+000 -1.000000e+000
      outer loop
         vertex 1.381701e+000 2.048998e-001 0.000000e+000
         vertex 8.631262e-001 2.954278e-001 0.000000e+000
         vertex 7.500000e-001 1.299038e+000 0.000000e+000
      endloop
   endfacet
   facet normal 0.000000e+000 0.000000e+000 -1.000000e+000
      outer loop
         vertex 7.500000e-001 1.299038e+000 0.000000e+000
         vertex 8.631262e-001 2.954278e-001 0.000000e+000
         vertex 8.448959e-001 3.135727e-001 0.000000e+000
      endloop
   endfacet
   facet normal 0.000000e+000 0.000000e+000 -1.000000e+000
      outer loop
         vertex 7.500000e-001 1.299038e+000 0.000000e+000
         vertex 8.448959e-001 3.135727e-001 0.000000e+000
         vertex 8.237995e-001 3.282873e-001 0.000000e+000
      endloop
   endfacet
   facet normal 0.000000e+000 0.000000e+000 -1.000000e+000
      outer loop
         vertex 8.237995e-001 3.282873e-001 0.000000e+000
         vertex 8.004740e-001 3.391272e-001 0.000000e+000
         vertex 7.500000e-001 1.299038e+000 0.000000e+000
      endloop
   endfacet
   facet normal 0.000000e+000 0.000000e+000 -1.000000e+000
      outer loop
         vertex 7.500000e-001 1.299038e+000 0.000000e+000
         vertex 8.004740e-001 3.391272e-001 0.000000e+000
         vertex 7.756239e-001 3.457649e-001 0.000000e+000
      endloop
   endfacet
   facet normal 0.000000e+000 0.000000e+000 -1.000000e+000
      outer loop
         vertex 7.500000e-001 1.299038e+000 0.000000e+000
         vertex 7.756239e-001 3.457649e-001 0.000000e+000
         vertex 7.500000e-001 3.480000e-001 0.000000e+000
      endloop
   endfacet
   facet normal 0.000000e+000 0.000000e+000 -1.000000e+000
      outer loop
         vertex 8.979984e-001 2.006944e-001 0.000000e+000
         vertex 8.956431e-001 2.263076e-001 0.000000e+000
         vertex 1.295099e+000 1.548998e-001 0.000000e+000
      endloop
   endfacet
   facet normal 0.000000e+000 0.000000e+000 -1.000000e+000
      outer loop
         vertex 1.295099e+000 1.548998e-001 0.000000e+000
         vertex 8.956431e-001 2.263076e-001 0.000000e+000
         vertex 8.888889e-001 2.511262e-001 0.000000e+000
      endloop
   endfacet
   facet normal 0.000000e+000 0.000000e+000 -1.000000e+000
      outer loop
         vertex 1.295099e+000 1.548998e-001 0.000000e+000
         vertex 8.888889e-001 2.511262e-001 0.000000e+000
         vertex 8.779397e-001 2.744005e-001 0.000000e+000
      endloop
   endfacet
   facet normal 0.000000e+000 0.000000e+000 -1.000000e+000
      outer loop
         vertex 8.640167e-001 1.056380e-001 0.000000e+000
         vertex 8.786322e-001 1.268033e-001 0.000000e+000
         vertex 1.384530e+000 1.450094e-016 0.000000e+000
      endloop
   endfacet
   facet normal 0.000000e+000 0.000000e+000 -1.000000e+000
      outer loop
         vertex 1.384530e+000 1.450094e-016 0.000000e+000
         vertex 8.786322e-001 1.268033e-001 0.000000e+000
         vertex 8.893625e-001 1.501794e-001 0.000000e+000
      endloop
   endfacet
   facet normal 0.000000e+000 0.000000e+000 -1.000000e+000
      outer loop
         vertex 1.384530e+000 1.450094e-016 0.000000e+000
         vertex 8.893625e-001 1.501794e-001 0.000000e+000
         vertex 1.295099e+000 1.548998e-001 0.000000e+000
      endloop
   endfacet
   facet normal 0.000000e+000 0.000000e+000 -1.000000e+000
      outer loop
         vertex 1.295099e+000 1.548998e-001 0.000000e+000
         vertex 8.893625e-001 1.501794e-001 0.000000e+000
         vertex 8.958836e-001 1.750602e-001 0.000000e+000
      endloop
   endfacet
   facet normal 0.000000e+000 0.000000e+000 -1.000000e+000
      outer loop
         vertex 1.295099e+000 1.548998e-001 0.000000e+000
         vertex 8.958836e-001 1.750602e-001 0.000000e+000
         vertex 8.979984e-001 2.006944e-001 0.000000e+000
      endloop
   endfacet
   facet normal 0.000000e+000 0.000000e+000 -1.000000e+000
      outer loop
         vertex 2.049015e-001 1.548998e-001 0.000000e+000
         vertex 1.182990e-001 2.048998e-001 0.000000e+000
         vertex 6.995261e-001 3.391272e-001 0.000000e+000
      endloop
   endfacet
   facet normal 0.000000e+000 0.000000e+000 -1.000000e+000
      outer loop
         vertex 6.995261e-001 3.391272e-001 0.000000e+000
         vertex 1.182990e-001 2.048998e-001 0.000000e+000
         vertex 7.500000e-001 1.299038e+000 0.000000e+000
      endloop
   endfacet
   facet normal 0.000000e+000 0.000000e+000 -1.000000e+000
      outer loop
         vertex 6.995261e-001 3.391272e-001 0.000000e+000
         vertex 7.500000e-001 1.299038e+000 0.000000e+000
         vertex 7.243760e-001 3.457649e-001 0.000000e+000
      endloop
   endfacet
   facet normal 0.000000e+000 0.000000e+000 -1.000000e+000
      outer loop
         vertex 7.243760e-001 3.457649e-001 0.000000e+000
         vertex 7.500000e-001 1.299038e+000 0.000000e+000
         vertex 7.500000e-001 3.480000e-001 0.000000e+000
      endloop
   endfacet
   facet normal 1.832463e-017 -1.000000e+000 0.000000e+000
      outer loop
         vertex 2.365979e-001 1.067799e-016 0.000000e+000
         vertex 6.750000e-001 1.148134e-016 0.000000e+000
         vertex 5.634636e-001 1.127696e-016 3.268656e-001
      endloop
   endfacet
   facet normal 1.832463e-017 -1.000000e+000 0.000000e+000
      outer loop
         vertex 5.634636e-001 1.127696e-016 3.268656e-001
         vertex 6.750000e-001 1.148134e-016 0.000000e+000
         vertex 6.750000e-001 1.148134e-016 1.500000e+000
      endloop
   endfacet
   facet normal 1.832463e-017 -1.000000e+000 0.000000e+000
      outer loop
         vertex 5.634636e-001 1.127696e-016 3.268656e-001
         vertex 6.750000e-001 1.148134e-016 1.500000e+000
         vertex 3.268656e-001 1.084340e-016 5.634636e-001
      endloop
   endfacet
   facet normal 1.832463e-017 -1.000000e+000 0.000000e+000
      outer loop
         vertex 3.268656e-001 1.084340e-016 5.634636e-001
         vertex 6.750000e-001 1.148134e-016 1.500000e+000
         vertex 6.829620e-017 1.024443e-016 1.500000e+000
      endloop
   endfacet
   facet normal 1.832463e-017 -1.000000e+000 0.000000e+000
      outer loop
         vertex 3.268656e-001 1.084340e-016 5.634636e-001
         vertex 6.829620e-017 1.024443e-016 1.500000e+000
         vertex 5.292955e-016 1.024443e-016 2.365979e-001
      endloop
   endfacet
   facet normal 3.535534e-001 6.123725e-001 -7.071068e-001
      outer loop
         vertex 1.634328e-001 2.830739e-001 5.634636e-001
         vertex 2.500354e-001 2.330739e-001 5.634636e-001
         vertex 6.146658e-016 2.475737e-016 2.365979e-001
      endloop
   endfacet
   facet normal 3.535534e-001 6.123725e-001 -7.071068e-001
      outer loop
         vertex 6.146658e-016 2.475737e-016 2.365979e-001
         vertex 2.500354e-001 2.330739e-001 5.634636e-001
         vertex 1.732051e-001 1.000000e-001 4.098031e-001
      endloop
   endfacet
   facet normal -8.660254e-001 5.000000e-001 -2.775558e-017
      outer loop
         vertex 1.732051e-001 1.000000e-001 0.000000e+000
         vertex 1.732051e-001 1.000000e-001 4.098031e-001
         vertex 2.049015e-001 1.548998e-001 0.000000e+000
      endloop
   endfacet
   facet normal -8.660254e-001 5.000000e-001 -2.775558e-017
      outer loop
         vertex 2.049015e-001 1.548998e-001 0.000000e+000
         vertex 1.732051e-001 1.000000e-001 4.098031e-001
         vertex 2.500354e-001 2.330739e-001 5.634636e-001
      endloop
   endfacet
   facet normal -8.660254e-001 5.000000e-001 -2.775558e-017
      outer loop
         vertex 2.049015e-001 1.548998e-001 0.000000e+000
         vertex 2.500354e-001 2.330739e-001 5.634636e-001
         vertex 3.683344e-001 4.379738e-001 3.268656e-001
      endloop
   endfacet
   facet normal 8.660254e-001 5.000000e-001 0.000000e+000
      outer loop
         vertex 7.500000e-001 1.299038e+000 0.000000e+000
         vertex 7.500000e-001 1.299038e+000 1.263402e+000
         vertex 9.134328e-001 1.015964e+000 9.365364e-001
      endloop
   endfacet
   facet normal 8.660254e-001 5.000000e-001 0.000000e+000
      outer loop
         vertex 1.500000e+000 4.458054e-016 1.263402e+000
         vertex 1.500000e+000 -2.427992e-017 2.365979e-001
         vertex 1.442265e+000 1.000000e-001 1.205667e+000
      endloop
   endfacet
   facet normal 8.660254e-001 5.000000e-001 0.000000e+000
      outer loop
         vertex 1.442265e+000 1.000000e-001 1.205667e+000
         vertex 1.500000e+000 -2.427992e-017 2.365979e-001
         vertex 1.336567e+000 2.830739e-001 5.634636e-001
      endloop
   endfacet
   facet normal 8.660254e-001 5.000000e-001 0.000000e+000
      outer loop
         vertex 1.442265e+000 1.000000e-001 1.205667e+000
         vertex 1.336567e+000 2.830739e-001 5.634636e-001
         vertex 1.218268e+000 4.879737e-001 3.268656e-001
      endloop
   endfacet
   facet normal 8.660254e-001 5.000000e-001 0.000000e+000
      outer loop
         vertex 8.682989e-001 1.094138e+000 1.500000e+000
         vertex 1.442265e+000 1.000000e-001 1.500000e+000
         vertex 1.031732e+000 8.110644e-001 1.173134e+000
      endloop
   endfacet
   facet normal 8.660254e-001 5.000000e-001 0.000000e+000
      outer loop
         vertex 1.031732e+000 8.110644e-001 1.173134e+000
         vertex 1.442265e+000 1.000000e-001 1.500000e+000
         vertex 1.442265e+000 1.000000e-001 1.205667e+000
      endloop
   endfacet
   facet normal 8.660254e-001 5.000000e-001 0.000000e+000
      outer loop
         vertex 1.031732e+000 8.110644e-001 1.173134e+000
         vertex 1.442265e+000 1.000000e-001 1.205667e+000
         vertex 9.134328e-001 1.015964e+000 9.365364e-001
      endloop
   endfacet
   facet normal 8.660254e-001 5.000000e-001 0.000000e+000
      outer loop
         vertex 9.134328e-001 1.015964e+000 9.365364e-001
         vertex 1.442265e+000 1.000000e-001 1.205667e+000
         vertex 1.218268e+000 4.879737e-001 3.268656e-001
      endloop
   endfacet
   facet normal 8.660254e-001 5.000000e-001 0.000000e+000
      outer loop
         vertex 9.134328e-001 1.015964e+000 9.365364e-001
         vertex 1.218268e+000 4.879737e-001 3.268656e-001
         vertex 7.500000e-001 1.299038e+000 0.000000e+000
      endloop
   endfacet
   facet normal 8.660254e-001 5.000000e-001 0.000000e+000
      outer loop
         vertex 7.500000e-001 1.299038e+000 0.000000e+000
         vertex 1.218268e+000 4.879737e-001 3.268656e-001
         vertex 1.381701e+000 2.048998e-001 0.000000e+000
      endloop
   endfacet
   facet normal 1.832463e-017 -1.000000e+000 0.000000e+000
      outer loop
         vertex 1.500000e+000 1.299312e-016 2.365979e-001
         vertex 1.500000e+000 1.299312e-016 1.263402e+000
         vertex 1.384530e+000 1.278153e-016 2.943330e-001
      endloop
   endfacet
   facet normal 1.832463e-017 -1.000000e+000 0.000000e+000
      outer loop
         vertex 1.384530e+000 1.278153e-016 2.943330e-001
         vertex 1.500000e+000 1.299312e-016 1.263402e+000
         vertex 1.173134e+000 1.239416e-016 9.365364e-001
      endloop
   endfacet
   facet normal 1.832463e-017 -1.000000e+000 0.000000e+000
      outer loop
         vertex 1.384530e+000 1.278153e-016 2.943330e-001
         vertex 1.173134e+000 1.239416e-016 9.365364e-001
         vertex 9.365364e-001 1.196060e-016 1.173134e+000
      endloop
   endfacet
   facet normal 1.832463e-017 -1.000000e+000 0.000000e+000
      outer loop
         vertex 1.384530e+000 1.278153e-016 0.000000e+000
         vertex 1.384530e+000 1.278153e-016 2.943330e-001
         vertex 8.250000e-001 1.175621e-016 0.000000e+000
      endloop
   endfacet
   facet normal 1.832463e-017 -1.000000e+000 0.000000e+000
      outer loop
         vertex 8.250000e-001 1.175621e-016 0.000000e+000
         vertex 1.384530e+000 1.278153e-016 2.943330e-001
         vertex 9.365364e-001 1.196060e-016 1.173134e+000
      endloop
   endfacet
   facet normal 1.832463e-017 -1.000000e+000 0.000000e+000
      outer loop
         vertex 8.250000e-001 1.175621e-016 0.000000e+000
         vertex 9.365364e-001 1.196060e-016 1.173134e+000
         vertex 8.250000e-001 1.175621e-016 1.500000e+000
      endloop
   endfacet
   facet normal 1.832463e-017 -1.000000e+000 0.000000e+000
      outer loop
         vertex 8.250000e-001 1.175621e-016 1.500000e+000
         vertex 9.365364e-001 1.196060e-016 1.173134e+000
         vertex 1.263402e+000 1.255957e-016 1.500000e+000
      endloop
   endfacet
   facet normal 0.000000e+000 0.000000e+000 1.000000e+000
      outer loop
         vertex 7.183036e-001 1.044138e+000 1.500000e+000
         vertex 6.317011e-001 1.094138e+000 1.500000e+000
         vertex 1.263402e+000 1.000000e-001 1.500000e+000
      endloop
   endfacet
   facet normal 0.000000e+000 0.000000e+000 1.000000e+000
      outer loop
         vertex 7.500000e-001 1.099038e+000 1.500000e+000
         vertex 7.183036e-001 1.044138e+000 1.500000e+000
         vertex 7.816964e-001 1.044138e+000 1.500000e+000
      endloop
   endfacet
   facet normal 0.000000e+000 0.000000e+000 1.000000e+000
      outer loop
         vertex 7.816964e-001 1.044138e+000 1.500000e+000
         vertex 7.183036e-001 1.044138e+000 1.500000e+000
         vertex 1.263402e+000 1.000000e-001 1.500000e+000
      endloop
   endfacet
   facet normal 0.000000e+000 0.000000e+000 1.000000e+000
      outer loop
         vertex 7.816964e-001 1.044138e+000 1.500000e+000
         vertex 1.263402e+000 1.000000e-001 1.500000e+000
         vertex 8.682989e-001 1.094138e+000 1.500000e+000
      endloop
   endfacet
   facet normal 0.000000e+000 0.000000e+000 1.000000e+000
      outer loop
         vertex 8.682989e-001 1.094138e+000 1.500000e+000
         vertex 1.263402e+000 1.000000e-001 1.500000e+000
         vertex 1.442265e+000 1.000000e-001 1.500000e+000
      endloop
   endfacet
   facet normal 0.000000e+000 0.000000e+000 1.000000e+000
      outer loop
         vertex 6.750000e-001 1.024443e-016 1.500000e+000
         vertex 6.750000e-001 7.241081e-002 1.500000e+000
         vertex 6.829620e-017 1.024443e-016 1.500000e+000
      endloop
   endfacet
   facet normal 0.000000e+000 0.000000e+000 1.000000e+000
      outer loop
         vertex 6.829620e-017 1.024443e-016 1.500000e+000
         vertex 6.750000e-001 7.241081e-002 1.500000e+000
         vertex 6.540425e-001 8.732276e-002 1.500000e+000
      endloop
   endfacet
   facet normal 0.000000e+000 0.000000e+000 1.000000e+000
      outer loop
         vertex 6.540425e-001 8.732276e-002 1.500000e+000
         vertex 6.359833e-001 1.056380e-001 1.500000e+000
         vertex 6.829620e-017 1.024443e-016 1.500000e+000
      endloop
   endfacet
   facet normal 0.000000e+000 0.000000e+000 1.000000e+000
      outer loop
         vertex 6.829620e-017 1.024443e-016 1.500000e+000
         vertex 6.359833e-001 1.056380e-001 1.500000e+000
         vertex 6.213678e-001 1.268033e-001 1.500000e+000
      endloop
   endfacet
   facet normal 0.000000e+000 0.000000e+000 1.000000e+000
      outer loop
         vertex 6.829620e-017 1.024443e-016 1.500000e+000
         vertex 6.213678e-001 1.268033e-001 1.500000e+000
         vertex 6.106375e-001 1.501794e-001 1.500000e+000
      endloop
   endfacet
   facet normal 0.000000e+000 0.000000e+000 1.000000e+000
      outer loop
         vertex 6.106375e-001 1.501794e-001 1.500000e+000
         vertex 6.041165e-001 1.750602e-001 1.500000e+000
         vertex 6.829620e-017 1.024443e-016 1.500000e+000
      endloop
   endfacet
   facet normal 0.000000e+000 0.000000e+000 1.000000e+000
      outer loop
         vertex 6.829620e-017 1.024443e-016 1.500000e+000
         vertex 6.041165e-001 1.750602e-001 1.500000e+000
         vertex 6.020016e-001 2.006944e-001 1.500000e+000
      endloop
   endfacet
   facet normal 0.000000e+000 0.000000e+000 1.000000e+000
      outer loop
         vertex 6.829620e-017 1.024443e-016 1.500000e+000
         vertex 6.020016e-001 2.006944e-001 1.500000e+000
         vertex 6.043569e-001 2.263076e-001 1.500000e+000
      endloop
   endfacet
   facet normal 0.000000e+000 0.000000e+000 1.000000e+000
      outer loop
         vertex 6.043569e-001 2.263076e-001 1.500000e+000
         vertex 6.111112e-001 2.511262e-001 1.500000e+000
         vertex 6.829620e-017 1.024443e-016 1.500000e+000
      endloop
   endfacet
   facet normal 0.000000e+000 0.000000e+000 1.000000e+000
      outer loop
         vertex 6.829620e-017 1.024443e-016 1.500000e+000
         vertex 6.111112e-001 2.511262e-001 1.500000e+000
         vertex 6.220604e-001 2.744005e-001 1.500000e+000
      endloop
   endfacet
   facet normal 0.000000e+000 0.000000e+000 1.000000e+000
      outer loop
         vertex 6.829620e-017 1.024443e-016 1.500000e+000
         vertex 6.220604e-001 2.744005e-001 1.500000e+000
         vertex 6.317011e-001 1.094138e+000 1.500000e+000
      endloop
   endfacet
   facet normal 0.000000e+000 0.000000e+000 1.000000e+000
      outer loop
         vertex 6.317011e-001 1.094138e+000 1.500000e+000
         vertex 6.220604e-001 2.744005e-001 1.500000e+000
         vertex 6.368738e-001 2.954278e-001 1.500000e+000
      endloop
   endfacet
   facet normal 0.000000e+000 0.000000e+000 1.000000e+000
      outer loop
         vertex 7.756239e-001 3.457649e-001 1.500000e+000
         vertex 8.004740e-001 3.391272e-001 1.500000e+000
         vertex 6.317011e-001 1.094138e+000 1.500000e+000
      endloop
   endfacet
   facet normal 0.000000e+000 0.000000e+000 1.000000e+000
      outer loop
         vertex 6.317011e-001 1.094138e+000 1.500000e+000
         vertex 8.004740e-001 3.391272e-001 1.500000e+000
         vertex 8.237995e-001 3.282873e-001 1.500000e+000
      endloop
   endfacet
   facet normal 0.000000e+000 0.000000e+000 1.000000e+000
      outer loop
         vertex 1.263402e+000 1.000000e-001 1.500000e+000
         vertex 8.888889e-001 2.511262e-001 1.500000e+000
         vertex 8.956431e-001 2.263076e-001 1.500000e+000
      endloop
   endfacet
   facet normal 0.000000e+000 0.000000e+000 1.000000e+000
      outer loop
         vertex 8.250000e-001 7.241081e-002 1.500000e+000
         vertex 8.250000e-001 1.024443e-016 1.500000e+000
         vertex 8.459575e-001 8.732276e-002 1.500000e+000
      endloop
   endfacet
   facet normal 0.000000e+000 0.000000e+000 1.000000e+000
      outer loop
         vertex 8.459575e-001 8.732276e-002 1.500000e+000
         vertex 8.250000e-001 1.024443e-016 1.500000e+000
         vertex 1.263402e+000 5.906134e-016 1.500000e+000
      endloop
   endfacet
   facet normal 0.000000e+000 0.000000e+000 1.000000e+000
      outer loop
         vertex 8.459575e-001 8.732276e-002 1.500000e+000
         vertex 1.263402e+000 5.906134e-016 1.500000e+000
         vertex 8.640167e-001 1.056380e-001 1.500000e+000
      endloop
   endfacet
   facet normal 0.000000e+000 0.000000e+000 1.000000e+000
      outer loop
         vertex 8.640167e-001 1.056380e-001 1.500000e+000
         vertex 1.263402e+000 5.906134e-016 1.500000e+000
         vertex 8.786322e-001 1.268033e-001 1.500000e+000
      endloop
   endfacet
   facet normal 0.000000e+000 0.000000e+000 1.000000e+000
      outer loop
         vertex 8.237995e-001 3.282873e-001 1.500000e+000
         vertex 8.448959e-001 3.135727e-001 1.500000e+000
         vertex 6.317011e-001 1.094138e+000 1.500000e+000
      endloop
   endfacet
   facet normal 0.000000e+000 0.000000e+000 1.000000e+000
      outer loop
         vertex 6.317011e-001 1.094138e+000 1.500000e+000
         vertex 8.448959e-001 3.135727e-001 1.500000e+000
         vertex 8.631262e-001 2.954278e-001 1.500000e+000
      endloop
   endfacet
   facet normal 0.000000e+000 0.000000e+000 1.000000e+000
      outer loop
         vertex 6.317011e-001 1.094138e+000 1.500000e+000
         vertex 8.631262e-001 2.954278e-001 1.500000e+000
         vertex 1.263402e+000 1.000000e-001 1.500000e+000
      endloop
   endfacet
   facet normal 0.000000e+000 0.000000e+000 1.000000e+000
      outer loop
         vertex 1.263402e+000 1.000000e-001 1.500000e+000
         vertex 8.631262e-001 2.954278e-001 1.500000e+000
         vertex 8.779397e-001 2.744005e-001 1.500000e+000
      endloop
   endfacet
   facet normal 0.000000e+000 0.000000e+000 1.000000e+000
      outer loop
         vertex 1.263402e+000 1.000000e-001 1.500000e+000
         vertex 8.779397e-001 2.744005e-001 1.500000e+000
         vertex 8.888889e-001 2.511262e-001 1.500000e+000
      endloop
   endfacet
   facet normal 0.000000e+000 0.000000e+000 1.000000e+000
      outer loop
         vertex 8.956431e-001 2.263076e-001 1.500000e+000
         vertex 8.979984e-001 2.006944e-001 1.500000e+000
         vertex 1.263402e+000 1.000000e-001 1.500000e+000
      endloop
   endfacet
   facet normal 0.000000e+000 0.000000e+000 1.000000e+000
      outer loop
         vertex 1.263402e+000 1.000000e-001 1.500000e+000
         vertex 8.979984e-001 2.006944e-001 1.500000e+000
         vertex 8.958836e-001 1.750602e-001 1.500000e+000
      endloop
   endfacet
   facet normal 0.000000e+000 0.000000e+000 1.000000e+000
      outer loop
         vertex 1.263402e+000 1.000000e-001 1.500000e+000
         vertex 8.958836e-001 1.750602e-001 1.500000e+000
         vertex 1.263402e+000 5.906134e-016 1.500000e+000
      endloop
   endfacet
   facet normal 0.000000e+000 0.000000e+000 1.000000e+000
      outer loop
         vertex 1.263402e+000 5.906134e-016 1.500000e+000
         vertex 8.958836e-001 1.750602e-001 1.500000e+000
         vertex 8.893625e-001 1.501794e-001 1.500000e+000
      endloop
   endfacet
   facet normal 0.000000e+000 0.000000e+000 1.000000e+000
      outer loop
         vertex 1.263402e+000 5.906134e-016 1.500000e+000
         vertex 8.893625e-001 1.501794e-001 1.500000e+000
         vertex 8.786322e-001 1.268033e-001 1.500000e+000
      endloop
   endfacet
   facet normal 0.000000e+000 0.000000e+000 1.000000e+000
      outer loop
         vertex 6.368738e-001 2.954278e-001 1.500000e+000
         vertex 6.551040e-001 3.135727e-001 1.500000e+000
         vertex 6.317011e-001 1.094138e+000 1.500000e+000
      endloop
   endfacet
   facet normal 0.000000e+000 0.000000e+000 1.000000e+000
      outer loop
         vertex 6.317011e-001 1.094138e+000 1.500000e+000
         vertex 6.551040e-001 3.135727e-001 1.500000e+000
         vertex 6.762006e-001 3.282873e-001 1.500000e+000
      endloop
   endfacet
   facet normal 0.000000e+000 0.000000e+000 1.000000e+000
      outer loop
         vertex 6.317011e-001 1.094138e+000 1.500000e+000
         vertex 6.762006e-001 3.282873e-001 1.500000e+000
         vertex 6.995261e-001 3.391272e-001 1.500000e+000
      endloop
   endfacet
   facet normal 0.000000e+000 0.000000e+000 1.000000e+000
      outer loop
         vertex 6.995261e-001 3.391272e-001 1.500000e+000
         vertex 7.243760e-001 3.457649e-001 1.500000e+000
         vertex 6.317011e-001 1.094138e+000 1.500000e+000
      endloop
   endfacet
   facet normal 0.000000e+000 0.000000e+000 1.000000e+000
      outer loop
         vertex 6.317011e-001 1.094138e+000 1.500000e+000
         vertex 7.243760e-001 3.457649e-001 1.500000e+000
         vertex 7.500000e-001 3.480000e-001 1.500000e+000
      endloop
   endfacet
   facet normal 0.000000e+000 0.000000e+000 1.000000e+000
      outer loop
         vertex 6.317011e-001 1.094138e+000 1.500000e+000
         vertex 7.500000e-001 3.480000e-001 1.500000e+000
         vertex 7.756239e-001 3.457649e-001 1.500000e+000
      endloop
   endfacet
   facet normal -3.535534e-001 -6.123725e-001 7.071068e-001
      outer loop
         vertex 5.865672e-001 1.015964e+000 9.365364e-001
         vertex 6.731697e-001 9.659642e-001 9.365364e-001
         vertex 7.500000e-001 1.299038e+000 1.263402e+000
      endloop
   endfacet
   facet normal -3.535534e-001 -6.123725e-001 7.071068e-001
      outer loop
         vertex 7.500000e-001 1.299038e+000 1.263402e+000
         vertex 6.731697e-001 9.659642e-001 9.365364e-001
         vertex 7.500000e-001 1.099038e+000 1.090197e+000
      endloop
   endfacet
   facet normal -8.660254e-001 5.000000e-001 0.000000e+000
      outer loop
         vertex 5.865672e-001 1.015964e+000 9.365364e-001
         vertex 7.500000e-001 1.299038e+000 1.263402e+000
         vertex 7.500000e-001 1.299038e+000 0.000000e+000
      endloop
   endfacet
   facet normal -8.660254e-001 5.000000e-001 0.000000e+000
      outer loop
         vertex 7.500000e-001 1.299038e+000 0.000000e+000
         vertex 1.182990e-001 2.048998e-001 0.000000e+000
         vertex 2.817318e-001 4.879737e-001 3.268656e-001
      endloop
   endfacet
   facet normal -8.660254e-001 5.000000e-001 0.000000e+000
      outer loop
         vertex 1.634328e-001 2.830739e-001 5.634636e-001
         vertex 1.853966e-016 3.052681e-016 2.365979e-001
         vertex 6.829620e-017 1.024443e-016 1.500000e+000
      endloop
   endfacet
   facet normal -8.660254e-001 5.000000e-001 0.000000e+000
      outer loop
         vertex 7.500000e-001 1.299038e+000 0.000000e+000
         vertex 2.817318e-001 4.879737e-001 3.268656e-001
         vertex 5.865672e-001 1.015964e+000 9.365364e-001
      endloop
   endfacet
   facet normal -8.660254e-001 5.000000e-001 0.000000e+000
      outer loop
         vertex 5.865672e-001 1.015964e+000 9.365364e-001
         vertex 2.817318e-001 4.879737e-001 3.268656e-001
         vertex 1.634328e-001 2.830739e-001 5.634636e-001
      endloop
   endfacet
   facet normal -8.660254e-001 5.000000e-001 0.000000e+000
      outer loop
         vertex 5.865672e-001 1.015964e+000 9.365364e-001
         vertex 1.634328e-001 2.830739e-001 5.634636e-001
         vertex 4.682682e-001 8.110644e-001 1.173134e+000
      endloop
   endfacet
   facet normal -8.660254e-001 5.000000e-001 0.000000e+000
      outer loop
         vertex 4.682682e-001 8.110644e-001 1.173134e+000
         vertex 1.634328e-001 2.830739e-001 5.634636e-001
         vertex 6.829620e-017 1.024443e-016 1.500000e+000
      endloop
   endfacet
   facet normal -8.660254e-001 5.000000e-001 0.000000e+000
      outer loop
         vertex 4.682682e-001 8.110644e-001 1.173134e+000
         vertex 6.829620e-017 1.024443e-016 1.500000e+000
         vertex 6.317011e-001 1.094138e+000 1.500000e+000
      endloop
   endfacet
   facet normal -1.000000e+000 0.000000e+000 0.000000e+000
      outer loop
         vertex 8.250000e-001 1.024443e-016 1.500000e+000
         vertex 8.250000e-001 7.241081e-002 1.500000e+000
         vertex 8.250000e-001 1.024443e-016 0.000000e+000
      endloop
   endfacet
   facet normal -1.000000e+000 0.000000e+000 0.000000e+000
      outer loop
         vertex 8.250000e-001 1.024443e-016 0.000000e+000
         vertex 8.250000e-001 7.241081e-002 1.500000e+000
         vertex 8.250000e-001 7.241081e-002 0.000000e+000
      endloop
   endfacet
   facet normal 5.558268e-001 8.312981e-001 0.000000e+000
      outer loop
         vertex 6.750000e-001 7.241081e-002 1.500000e+000
         vertex 6.750000e-001 7.241081e-002 0.000000e+000
         vertex 6.540425e-001 8.732276e-002 0.000000e+000
      endloop
   endfacet
   facet normal 6.031876e-001 7.975994e-001 0.000000e+000
      outer loop
         vertex 6.750000e-001 7.241081e-002 1.500000e+000
         vertex 6.540425e-001 8.732276e-002 0.000000e+000
         vertex 6.540425e-001 8.732276e-002 1.500000e+000
      endloop
   endfacet
   facet normal 6.913593e-001 7.225111e-001 0.000000e+000
      outer loop
         vertex 6.540425e-001 8.732276e-002 1.500000e+000
         vertex 6.540425e-001 8.732276e-002 0.000000e+000
         vertex 6.359833e-001 1.056380e-001 0.000000e+000
      endloop
   endfacet
   facet normal 7.321705e-001 6.811215e-001 0.000000e+000
      outer loop
         vertex 6.540425e-001 8.732276e-002 1.500000e+000
         vertex 6.359833e-001 1.056380e-001 0.000000e+000
         vertex 6.359833e-001 1.056380e-001 1.500000e+000
      endloop
   endfacet
   facet normal 8.060103e-001 5.919014e-001 0.000000e+000
      outer loop
         vertex 6.359833e-001 1.056380e-001 1.500000e+000
         vertex 6.359833e-001 1.056380e-001 0.000000e+000
         vertex 6.213678e-001 1.268033e-001 0.000000e+000
      endloop
   endfacet
   facet normal 8.390391e-001 5.440711e-001 0.000000e+000
      outer loop
         vertex 6.359833e-001 1.056380e-001 1.500000e+000
         vertex 6.213678e-001 1.268033e-001 0.000000e+000
         vertex 6.213678e-001 1.268033e-001 1.500000e+000
      endloop
   endfacet
   facet normal 8.963168e-001 4.434142e-001 0.000000e+000
      outer loop
         vertex 6.213678e-001 1.268033e-001 1.500000e+000
         vertex 6.213678e-001 1.268033e-001 0.000000e+000
         vertex 6.106375e-001 1.501794e-001 0.000000e+000
      endloop
   endfacet
   facet normal 9.205657e-001 3.905878e-001 0.000000e+000
      outer loop
         vertex 6.213678e-001 1.268033e-001 1.500000e+000
         vertex 6.106375e-001 1.501794e-001 0.000000e+000
         vertex 6.106375e-001 1.501794e-001 1.500000e+000
      endloop
   endfacet
   facet normal 9.595512e-001 2.815343e-001 0.000000e+000
      outer loop
         vertex 6.106375e-001 1.501794e-001 1.500000e+000
         vertex 6.106375e-001 1.501794e-001 0.000000e+000
         vertex 6.041165e-001 1.750602e-001 0.000000e+000
      endloop
   endfacet
   facet normal 9.742877e-001 2.253073e-001 0.000000e+000
      outer loop
         vertex 6.106375e-001 1.501794e-001 1.500000e+000
         vertex 6.041165e-001 1.750602e-001 0.000000e+000
         vertex 6.041165e-001 1.750602e-001 1.500000e+000
      endloop
   endfacet
   facet normal 9.938036e-001 1.111509e-001 0.000000e+000
      outer loop
         vertex 6.041165e-001 1.750602e-001 1.500000e+000
         vertex 6.041165e-001 1.750602e-001 0.000000e+000
         vertex 6.020016e-001 2.006944e-001 0.000000e+000
      endloop
   endfacet
   facet normal 9.985827e-001 5.322164e-002 0.000000e+000
      outer loop
         vertex 6.041165e-001 1.750602e-001 1.500000e+000
         vertex 6.020016e-001 2.006944e-001 0.000000e+000
         vertex 6.020016e-001 2.006944e-001 1.500000e+000
      endloop
   endfacet
   facet normal 9.980393e-001 -6.258957e-002 0.000000e+000
      outer loop
         vertex 6.020016e-001 2.006944e-001 1.500000e+000
         vertex 6.020016e-001 2.006944e-001 0.000000e+000
         vertex 6.043569e-001 2.263076e-001 0.000000e+000
      endloop
   endfacet
   facet normal 9.927168e-001 -1.204715e-001 0.000000e+000
      outer loop
         vertex 6.020016e-001 2.006944e-001 1.500000e+000
         vertex 6.043569e-001 2.263076e-001 0.000000e+000
         vertex 6.043569e-001 2.263076e-001 1.500000e+000
      endloop
   endfacet
   facet normal 9.721307e-001 -2.344397e-001 0.000000e+000
      outer loop
         vertex 6.043569e-001 2.263076e-001 1.500000e+000
         vertex 6.043569e-001 2.263076e-001 0.000000e+000
         vertex 6.111112e-001 2.511262e-001 0.000000e+000
      endloop
   endfacet
   facet normal 9.568671e-001 -2.905259e-001 0.000000e+000
      outer loop
         vertex 6.043569e-001 2.263076e-001 1.500000e+000
         vertex 6.111112e-001 2.511262e-001 0.000000e+000
         vertex 6.111112e-001 2.511262e-001 1.500000e+000
      endloop
   endfacet
   facet normal 9.168600e-001 -3.992088e-001 0.000000e+000
      outer loop
         vertex 6.111112e-001 2.511262e-001 1.500000e+000
         vertex 6.111112e-001 2.511262e-001 0.000000e+000
         vertex 6.220604e-001 2.744005e-001 0.000000e+000
      endloop
   endfacet
   facet normal 8.921165e-001 -4.518054e-001 0.000000e+000
      outer loop
         vertex 6.111112e-001 2.511262e-001 1.500000e+000
         vertex 6.220604e-001 2.744005e-001 0.000000e+000
         vertex 6.220604e-001 2.744005e-001 1.500000e+000
      endloop
   endfacet
   facet normal 8.338969e-001 -5.519204e-001 0.000000e+000
      outer loop
         vertex 6.220604e-001 2.744005e-001 1.500000e+000
         vertex 6.220604e-001 2.744005e-001 0.000000e+000
         vertex 6.368738e-001 2.954278e-001 0.000000e+000
      endloop
   endfacet
   facet normal 8.004207e-001 -5.994387e-001 0.000000e+000
      outer loop
         vertex 6.220604e-001 2.744005e-001 1.500000e+000
         vertex 6.368738e-001 2.954278e-001 0.000000e+000
         vertex 6.368738e-001 2.954278e-001 1.500000e+000
      endloop
   endfacet
   facet normal 7.257469e-001 -6.879618e-001 0.000000e+000
      outer loop
         vertex 6.368738e-001 2.954278e-001 1.500000e+000
         vertex 6.368738e-001 2.954278e-001 0.000000e+000
         vertex 6.551040e-001 3.135727e-001 0.000000e+000
      endloop
   endfacet
   facet normal 6.845492e-001 -7.289667e-001 0.000000e+000
      outer loop
         vertex 6.368738e-001 2.954278e-001 1.500000e+000
         vertex 6.551040e-001 3.135727e-001 0.000000e+000
         vertex 6.551040e-001 3.135727e-001 1.500000e+000
      endloop
   endfacet
   facet normal 5.956767e-001 -8.032244e-001 0.000000e+000
      outer loop
         vertex 6.551040e-001 3.135727e-001 1.500000e+000
         vertex 6.551040e-001 3.135727e-001 0.000000e+000
         vertex 6.762006e-001 3.282873e-001 0.000000e+000
      endloop
   endfacet
   facet normal 5.480017e-001 -8.364772e-001 0.000000e+000
      outer loop
         vertex 6.551040e-001 3.135727e-001 1.500000e+000
         vertex 6.762006e-001 3.282873e-001 0.000000e+000
         vertex 6.762006e-001 3.282873e-001 1.500000e+000
      endloop
   endfacet
   facet normal 4.476148e-001 -8.942264e-001 0.000000e+000
      outer loop
         vertex 6.762006e-001 3.282873e-001 1.500000e+000
         vertex 6.762006e-001 3.282873e-001 0.000000e+000
         vertex 6.995261e-001 3.391272e-001 0.000000e+000
      endloop
   endfacet
   facet normal 3.949026e-001 -9.187230e-001 0.000000e+000
      outer loop
         vertex 6.762006e-001 3.282873e-001 1.500000e+000
         vertex 6.995261e-001 3.391272e-001 0.000000e+000
         vertex 6.995261e-001 3.391272e-001 1.500000e+000
      endloop
   endfacet
   facet normal 2.860332e-001 -9.582197e-001 0.000000e+000
      outer loop
         vertex 6.995261e-001 3.391272e-001 1.500000e+000
         vertex 6.995261e-001 3.391272e-001 0.000000e+000
         vertex 7.243760e-001 3.457649e-001 0.000000e+000
      endloop
   endfacet
   facet normal 2.298760e-001 -9.732199e-001 0.000000e+000
      outer loop
         vertex 6.995261e-001 3.391272e-001 1.500000e+000
         vertex 7.243760e-001 3.457649e-001 0.000000e+000
         vertex 7.243760e-001 3.457649e-001 1.500000e+000
      endloop
   endfacet
   facet normal 1.158125e-001 -9.932711e-001 0.000000e+000
      outer loop
         vertex 7.243760e-001 3.457649e-001 1.500000e+000
         vertex 7.243760e-001 3.457649e-001 0.000000e+000
         vertex 7.500000e-001 3.480000e-001 0.000000e+000
      endloop
   endfacet
   facet normal 5.790625e-002 -9.983220e-001 0.000000e+000
      outer loop
         vertex 7.243760e-001 3.457649e-001 1.500000e+000
         vertex 7.500000e-001 3.480000e-001 0.000000e+000
         vertex 7.500000e-001 3.480000e-001 1.500000e+000
      endloop
   endfacet
   facet normal -5.790625e-002 -9.983220e-001 0.000000e+000
      outer loop
         vertex 7.500000e-001 3.480000e-001 1.500000e+000
         vertex 7.500000e-001 3.480000e-001 0.000000e+000
         vertex 7.756239e-001 3.457649e-001 0.000000e+000
      endloop
   endfacet
   facet normal -1.158125e-001 -9.932711e-001 0.000000e+000
      outer loop
         vertex 7.500000e-001 3.480000e-001 1.500000e+000
         vertex 7.756239e-001 3.457649e-001 0.000000e+000
         vertex 7.756239e-001 3.457649e-001 1.500000e+000
      endloop
   endfacet
   facet normal -2.298760e-001 -9.732199e-001 0.000000e+000
      outer loop
         vertex 7.756239e-001 3.457649e-001 1.500000e+000
         vertex 7.756239e-001 3.457649e-001 0.000000e+000
         vertex 8.004740e-001 3.391272e-001 0.000000e+000
      endloop
   endfacet
   facet normal -2.860332e-001 -9.582197e-001 0.000000e+000
      outer loop
         vertex 7.756239e-001 3.457649e-001 1.500000e+000
         vertex 8.004740e-001 3.391272e-001 0.000000e+000
         vertex 8.004740e-001 3.391272e-001 1.500000e+000
      endloop
   endfacet
   facet normal -3.949026e-001 -9.187230e-001 0.000000e+000
      outer loop
         vertex 8.004740e-001 3.391272e-001 1.500000e+000
         vertex 8.004740e-001 3.391272e-001 0.000000e+000
         vertex 8.237995e-001 3.282873e-001 0.000000e+000
      endloop
   endfacet
   facet normal -4.476148e-001 -8.942264e-001 0.000000e+000
      outer loop
         vertex 8.004740e-001 3.391272e-001 1.500000e+000
         vertex 8.237995e-001 3.282873e-001 0.000000e+000
         vertex 8.237995e-001 3.282873e-001 1.500000e+000
      endloop
   endfacet
   facet normal -5.480017e-001 -8.364772e-001 0.000000e+000
      outer loop
         vertex 8.237995e-001 3.282873e-001 1.500000e+000
         vertex 8.237995e-001 3.282873e-001 0.000000e+000
         vertex 8.448959e-001 3.135727e-001 0.000000e+000
      endloop
   endfacet
   facet normal -5.956767e-001 -8.032244e-001 0.000000e+000
      outer loop
         vertex 8.237995e-001 3.282873e-001 1.500000e+000
         vertex 8.448959e-001 3.135727e-001 0.000000e+000
         vertex 8.448959e-001 3.135727e-001 1.500000e+000
      endloop
   endfacet
   facet normal -6.845492e-001 -7.289667e-001 0.000000e+000
      outer loop
         vertex 8.448959e-001 3.135727e-001 1.500000e+000
         vertex 8.448959e-001 3.135727e-001 0.000000e+000
         vertex 8.631262e-001 2.954278e-001 0.000000e+000
      endloop
   endfacet
   facet normal -7.257469e-001 -6.879619e-001 0.000000e+000
      outer loop
         vertex 8.448959e-001 3.135727e-001 1.500000e+000
         vertex 8.631262e-001 2.954278e-001 0.000000e+000
         vertex 8.631262e-001 2.954278e-001 1.500000e+000
      endloop
   endfacet
   facet normal -8.004207e-001 -5.994387e-001 0.000000e+000
      outer loop
         vertex 8.631262e-001 2.954278e-001 1.500000e+000
         vertex 8.631262e-001 2.954278e-001 0.000000e+000
         vertex 8.779397e-001 2.744005e-001 0.000000e+000
      endloop
   endfacet
   facet normal -8.338968e-001 -5.519204e-001 0.000000e+000
      outer loop
         vertex 8.631262e-001 2.954278e-001 1.500000e+000
         vertex 8.779397e-001 2.744005e-001 0.000000e+000
         vertex 8.779397e-001 2.744005e-001 1.500000e+000
      endloop
   endfacet
   facet normal -8.921165e-001 -4.518054e-001 0.000000e+000
      outer loop
         vertex 8.779397e-001 2.744005e-001 1.500000e+000
         vertex 8.779397e-001 2.744005e-001 0.000000e+000
         vertex 8.888889e-001 2.511262e-001 0.000000e+000
      endloop
   endfacet
   facet normal -9.168600e-001 -3.992088e-001 0.000000e+000
      outer loop
         vertex 8.779397e-001 2.744005e-001 1.500000e+000
         vertex 8.888889e-001 2.511262e-001 0.000000e+000
         vertex 8.888889e-001 2.511262e-001 1.500000e+000
      endloop
   endfacet
   facet normal -9.568671e-001 -2.905259e-001 0.000000e+000
      outer loop
         vertex 8.888889e-001 2.511262e-001 1.500000e+000
         vertex 8.888889e-001 2.511262e-001 0.000000e+000
         vertex 8.956431e-001 2.263076e-001 0.000000e+000
      endloop
   endfacet
   facet normal -9.721307e-001 -2.344397e-001 0.000000e+000
      outer loop
         vertex 8.888889e-001 2.511262e-001 1.500000e+000
         vertex 8.956431e-001 2.263076e-001 0.000000e+000
         vertex 8.956431e-001 2.263076e-001 1.500000e+000
      endloop
   endfacet
   facet normal -9.927168e-001 -1.204715e-001 0.000000e+000
      outer loop
         vertex 8.956431e-001 2.263076e-001 1.500000e+000
         vertex 8.956431e-001 2.263076e-001 0.000000e+000
         vertex 8.979984e-001 2.006944e-001 0.000000e+000
      endloop
   endfacet
   facet normal -9.980393e-001 -6.258957e-002 0.000000e+000
      outer loop
         vertex 8.956431e-001 2.263076e-001 1.500000e+000
         vertex 8.979984e-001 2.006944e-001 0.000000e+000
         vertex 8.979984e-001 2.006944e-001 1.500000e+000
      endloop
   endfacet
   facet normal -9.985827e-001 5.322164e-002 0.000000e+000
      outer loop
         vertex 8.979984e-001 2.006944e-001 1.500000e+000
         vertex 8.979984e-001 2.006944e-001 0.000000e+000
         vertex 8.958836e-001 1.750602e-001 0.000000e+000
      endloop
   endfacet
   facet normal -9.938036e-001 1.111509e-001 0.000000e+000
      outer loop
         vertex 8.979984e-001 2.006944e-001 1.500000e+000
         vertex 8.958836e-001 1.750602e-001 0.000000e+000
         vertex 8.958836e-001 1.750602e-001 1.500000e+000
      endloop
   endfacet
   facet normal -9.742877e-001 2.253073e-001 0.000000e+000
      outer loop
         vertex 8.958836e-001 1.750602e-001 1.500000e+000
         vertex 8.958836e-001 1.750602e-001 0.000000e+000
         vertex 8.893625e-001 1.501794e-001 0.000000e+000
      endloop
   endfacet
   facet normal -9.595512e-001 2.815343e-001 0.000000e+000
      outer loop
         vertex 8.958836e-001 1.750602e-001 1.500000e+000
         vertex 8.893625e-001 1.501794e-001 0.000000e+000
         vertex 8.893625e-001 1.501794e-001 1.500000e+000
      endloop
   endfacet
   facet normal -9.205657e-001 3.905878e-001 0.000000e+000
      outer loop
         vertex 8.893625e-001 1.501794e-001 1.500000e+000
         vertex 8.893625e-001 1.501794e-001 0.000000e+000
         vertex 8.786322e-001 1.268033e-001 0.000000e+000
      endloop
   endfacet
   facet normal -8.963168e-001 4.434142e-001 0.000000e+000
      outer loop
         vertex 8.893625e-001 1.501794e-001 1.500000e+000
         vertex 8.786322e-001 1.268033e-001 0.000000e+000
         vertex 8.786322e-001 1.268033e-001 1.500000e+000
      endloop
   endfacet
   facet normal -8.390391e-001 5.440711e-001 0.000000e+000
      outer loop
         vertex 8.786322e-001 1.268033e-001 1.500000e+000
         vertex 8.786322e-001 1.268033e-001 0.000000e+000
         vertex 8.640167e-001 1.056380e-001 0.000000e+000
      endloop
   endfacet
   facet normal -8.060103e-001 5.919014e-001 0.000000e+000
      outer loop
         vertex 8.786322e-001 1.268033e-001 1.500000e+000
         vertex 8.640167e-001 1.056380e-001 0.000000e+000
         vertex 8.640167e-001 1.056380e-001 1.500000e+000
      endloop
   endfacet
   facet normal -7.321705e-001 6.811215e-001 0.000000e+000
      outer loop
         vertex 8.640167e-001 1.056380e-001 1.500000e+000
         vertex 8.640167e-001 1.056380e-001 0.000000e+000
         vertex 8.459575e-001 8.732276e-002 0.000000e+000
      endloop
   endfacet
   facet normal -6.913593e-001 7.225111e-001 0.000000e+000
      outer loop
         vertex 8.640167e-001 1.056380e-001 1.500000e+000
         vertex 8.459575e-001 8.732276e-002 0.000000e+000
         vertex 8.459575e-001 8.732276e-002 1.500000e+000
      endloop
   endfacet
   facet normal -6.031876e-001 7.975994e-001 0.000000e+000
      outer loop
         vertex 8.459575e-001 8.732276e-002 1.500000e+000
         vertex 8.459575e-001 8.732276e-002 0.000000e+000
         vertex 8.250000e-001 7.241081e-002 0.000000e+000
      endloop
   endfacet
   facet normal -5.558268e-001 8.312981e-001 0.000000e+000
      outer loop
         vertex 8.459575e-001 8.732276e-002 1.500000e+000
         vertex 8.250000e-001 7.241081e-002 0.000000e+000
         vertex 8.250000e-001 7.241081e-002 1.500000e+000
      endloop
   endfacet
   facet normal 1.000000e+000 0.000000e+000 0.000000e+000
      outer loop
         vertex 6.750000e-001 7.241081e-002 1.500000e+000
         vertex 6.750000e-001 1.024443e-016 1.500000e+000
         vertex 6.750000e-001 7.241081e-002 0.000000e+000
      endloop
   endfacet
   facet normal 1.000000e+000 0.000000e+000 0.000000e+000
      outer loop
         vertex 6.750000e-001 7.241081e-002 0.000000e+000
         vertex 6.750000e-001 1.024443e-016 1.500000e+000
         vertex 6.750000e-001 1.024443e-016 0.000000e+000
      endloop
   endfacet
   facet normal 3.535534e-001 6.123725e-001 -7.071068e-001
      outer loop
         vertex 5.548708e-001 7.610644e-001 1.173134e+000
         vertex 4.682682e-001 8.110644e-001 1.173134e+000
         vertex 7.183036e-001 1.044138e+000 1.500000e+000
      endloop
   endfacet
   facet normal 3.535534e-001 6.123725e-001 -7.071068e-001
      outer loop
         vertex 7.183036e-001 1.044138e+000 1.500000e+000
         vertex 4.682682e-001 8.110644e-001 1.173134e+000
         vertex 6.317011e-001 1.094138e+000 1.500000e+000
      endloop
   endfacet
   facet normal 3.535534e-001 6.123725e-001 7.071068e-001
      outer loop
         vertex 5.548708e-001 7.610644e-001 1.173134e+000
         vertex 6.731697e-001 9.659642e-001 9.365364e-001
         vertex 4.682682e-001 8.110644e-001 1.173134e+000
      endloop
   endfacet
   facet normal 3.535534e-001 6.123725e-001 7.071068e-001
      outer loop
         vertex 4.682682e-001 8.110644e-001 1.173134e+000
         vertex 6.731697e-001 9.659642e-001 9.365364e-001
         vertex 5.865672e-001 1.015964e+000 9.365364e-001
      endloop
   endfacet
   facet normal -8.660254e-001 5.000000e-001 -1.387779e-016
      outer loop
         vertex 7.500000e-001 1.099038e+000 1.500000e+000
         vertex 7.500000e-001 1.099038e+000 1.090197e+000
         vertex 7.183036e-001 1.044138e+000 1.500000e+000
      endloop
   endfacet
   facet normal -8.660254e-001 5.000000e-001 -1.387779e-016
      outer loop
         vertex 7.183036e-001 1.044138e+000 1.500000e+000
         vertex 7.500000e-001 1.099038e+000 1.090197e+000
         vertex 6.731697e-001 9.659642e-001 9.365364e-001
      endloop
   endfacet
   facet normal -8.660254e-001 5.000000e-001 -1.387779e-016
      outer loop
         vertex 7.183036e-001 1.044138e+000 1.500000e+000
         vertex 6.731697e-001 9.659642e-001 9.365364e-001
         vertex 5.548708e-001 7.610644e-001 1.173134e+000
      endloop
   endfacet
   facet normal -3.535534e-001 -6.123725e-001 7.071068e-001
      outer loop
         vertex 2.817318e-001 4.879737e-001 3.268656e-001
         vertex 1.182990e-001 2.048998e-001 0.000000e+000
         vertex 3.683344e-001 4.379738e-001 3.268656e-001
      endloop
   endfacet
   facet normal -3.535534e-001 -6.123725e-001 7.071068e-001
      outer loop
         vertex 3.683344e-001 4.379738e-001 3.268656e-001
         vertex 1.182990e-001 2.048998e-001 0.000000e+000
         vertex 2.049015e-001 1.548998e-001 0.000000e+000
      endloop
   endfacet
   facet normal -3.535534e-001 -6.123725e-001 -7.071068e-001
      outer loop
         vertex 3.683344e-001 4.379738e-001 3.268656e-001
         vertex 2.500354e-001 2.330739e-001 5.634636e-001
         vertex 2.817318e-001 4.879737e-001 3.268656e-001
      endloop
   endfacet
   facet normal -3.535534e-001 -6.123725e-001 -7.071068e-001
      outer loop
         vertex 2.817318e-001 4.879737e-001 3.268656e-001
         vertex 2.500354e-001 2.330739e-001 5.634636e-001
         vertex 1.634328e-001 2.830739e-001 5.634636e-001
      endloop
   endfacet
   facet normal 3.535534e-001 -6.123725e-001 7.071068e-001
      outer loop
         vertex 8.268303e-001 9.659642e-001 9.365364e-001
         vertex 9.134328e-001 1.015964e+000 9.365364e-001
         vertex 7.500000e-001 1.099038e+000 1.090197e+000
      endloop
   endfacet
   facet normal 3.535534e-001 -6.123725e-001 7.071068e-001
      outer loop
         vertex 7.500000e-001 1.099038e+000 1.090197e+000
         vertex 9.134328e-001 1.015964e+000 9.365364e-001
         vertex 7.500000e-001 1.299038e+000 1.263402e+000
      endloop
   endfacet
   facet normal -3.535534e-001 6.123725e-001 7.071068e-001
      outer loop
         vertex 8.268303e-001 9.659642e-001 9.365364e-001
         vertex 9.451293e-001 7.610644e-001 1.173134e+000
         vertex 9.134328e-001 1.015964e+000 9.365364e-001
      endloop
   endfacet
   facet normal -3.535534e-001 6.123725e-001 7.071068e-001
      outer loop
         vertex 9.134328e-001 1.015964e+000 9.365364e-001
         vertex 9.451293e-001 7.610644e-001 1.173134e+000
         vertex 1.031732e+000 8.110644e-001 1.173134e+000
      endloop
   endfacet
   facet normal -3.535534e-001 6.123725e-001 -7.071068e-001
      outer loop
         vertex 9.451293e-001 7.610644e-001 1.173134e+000
         vertex 7.816964e-001 1.044138e+000 1.500000e+000
         vertex 1.031732e+000 8.110644e-001 1.173134e+000
      endloop
   endfacet
   facet normal -3.535534e-001 6.123725e-001 -7.071068e-001
      outer loop
         vertex 1.031732e+000 8.110644e-001 1.173134e+000
         vertex 7.816964e-001 1.044138e+000 1.500000e+000
         vertex 8.682989e-001 1.094138e+000 1.500000e+000
      endloop
   endfacet
   facet normal 8.660254e-001 5.000000e-001 -1.387779e-016
      outer loop
         vertex 9.451293e-001 7.610644e-001 1.173134e+000
         vertex 8.268303e-001 9.659642e-001 9.365364e-001
         vertex 7.816964e-001 1.044138e+000 1.500000e+000
      endloop
   endfacet
   facet normal 8.660254e-001 5.000000e-001 -1.387779e-016
      outer loop
         vertex 7.816964e-001 1.044138e+000 1.500000e+000
         vertex 8.268303e-001 9.659642e-001 9.365364e-001
         vertex 7.500000e-001 1.099038e+000 1.090197e+000
      endloop
   endfacet
   facet normal 8.660254e-001 5.000000e-001 -1.387779e-016
      outer loop
         vertex 7.816964e-001 1.044138e+000 1.500000e+000
         vertex 7.500000e-001 1.099038e+000 1.090197e+000
         vertex 7.500000e-001 1.099038e+000 1.500000e+000
      endloop
   endfacet
   facet normal 3.535534e-001 -6.123725e-001 7.071068e-001
      outer loop
         vertex 1.218268e+000 4.879737e-001 3.268656e-001
         vertex 1.131666e+000 4.379738e-001 3.268656e-001
         vertex 1.381701e+000 2.048998e-001 0.000000e+000
      endloop
   endfacet
   facet normal 3.535534e-001 -6.123725e-001 7.071068e-001
      outer loop
         vertex 1.381701e+000 2.048998e-001 0.000000e+000
         vertex 1.131666e+000 4.379738e-001 3.268656e-001
         vertex 1.295099e+000 1.548998e-001 0.000000e+000
      endloop
   endfacet
   facet normal -3.535534e-001 6.123725e-001 -7.071068e-001
      outer loop
         vertex 1.336567e+000 2.830739e-001 5.634636e-001
         vertex 1.500000e+000 7.256471e-017 2.365979e-001
         vertex 1.249965e+000 2.330739e-001 5.634636e-001
      endloop
   endfacet
   facet normal -3.535534e-001 6.123725e-001 -7.071068e-001
      outer loop
         vertex 1.249965e+000 2.330739e-001 5.634636e-001
         vertex 1.500000e+000 7.256471e-017 2.365979e-001
         vertex 1.384530e+000 4.268513e-017 2.943330e-001
      endloop
   endfacet
   facet normal 3.535534e-001 -6.123725e-001 -7.071068e-001
      outer loop
         vertex 1.249965e+000 2.330739e-001 5.634636e-001
         vertex 1.131666e+000 4.379738e-001 3.268656e-001
         vertex 1.336567e+000 2.830739e-001 5.634636e-001
      endloop
   endfacet
   facet normal 3.535534e-001 -6.123725e-001 -7.071068e-001
      outer loop
         vertex 1.336567e+000 2.830739e-001 5.634636e-001
         vertex 1.131666e+000 4.379738e-001 3.268656e-001
         vertex 1.218268e+000 4.879737e-001 3.268656e-001
      endloop
   endfacet
   facet normal 8.660254e-001 5.000000e-001 -2.775558e-017
      outer loop
         vertex 1.131666e+000 4.379738e-001 3.268656e-001
         vertex 1.249965e+000 2.330739e-001 5.634636e-001
         vertex 1.295099e+000 1.548998e-001 0.000000e+000
      endloop
   endfacet
   facet normal 8.660254e-001 5.000000e-001 -2.775558e-017
      outer loop
         vertex 1.295099e+000 1.548998e-001 0.000000e+000
         vertex 1.249965e+000 2.330739e-001 5.634636e-001
         vertex 1.384530e+000 6.456126e-017 2.943330e-001
      endloop
   endfacet
   facet normal 8.660254e-001 5.000000e-001 -2.775558e-017
      outer loop
         vertex 1.295099e+000 1.548998e-001 0.000000e+000
         vertex 1.384530e+000 6.456126e-017 2.943330e-001
         vertex 1.384530e+000 1.629209e-016 0.000000e+000
      endloop
   endfacet
   facet normal -7.071068e-001 -2.747662e-016 7.071068e-001
      outer loop
         vertex 1.173134e+000 5.805177e-016 9.365364e-001
         vertex 1.500000e+000 7.171101e-016 1.263402e+000
         vertex 1.173134e+000 1.000000e-001 9.365364e-001
      endloop
   endfacet
   facet normal -7.071068e-001 -2.747662e-016 7.071068e-001
      outer loop
         vertex 1.173134e+000 1.000000e-001 9.365364e-001
         vertex 1.500000e+000 7.171101e-016 1.263402e+000
         vertex 1.442265e+000 1.000000e-001 1.205667e+000
      endloop
   endfacet
   facet normal 7.071068e-001 2.747662e-016 7.071068e-001
      outer loop
         vertex 1.173134e+000 1.000000e-001 9.365364e-001
         vertex 9.365364e-001 1.000000e-001 1.173134e+000
         vertex 1.173134e+000 5.805177e-016 9.365364e-001
      endloop
   endfacet
   facet normal 7.071068e-001 2.747662e-016 7.071068e-001
      outer loop
         vertex 1.173134e+000 5.805177e-016 9.365364e-001
         vertex 9.365364e-001 1.000000e-001 1.173134e+000
         vertex 9.365364e-001 5.805177e-016 1.173134e+000
      endloop
   endfacet
   facet normal 7.071068e-001 2.747662e-016 -7.071068e-001
      outer loop
         vertex 9.365364e-001 1.000000e-001 1.173134e+000
         vertex 1.263402e+000 1.000000e-001 1.500000e+000
         vertex 9.365364e-001 5.805177e-016 1.173134e+000
      endloop
   endfacet
   facet normal 7.071068e-001 2.747662e-016 -7.071068e-001
      outer loop
         vertex 9.365364e-001 5.805177e-016 1.173134e+000
         vertex 1.263402e+000 1.000000e-001 1.500000e+000
         vertex 1.263402e+000 5.975917e-016 1.500000e+000
      endloop
   endfacet
   facet normal 5.551115e-016 -1.000000e+000 -1.387779e-016
      outer loop
         vertex 9.365364e-001 1.000000e-001 1.173134e+000
         vertex 1.173134e+000 1.000000e-001 9.365364e-001
         vertex 1.263402e+000 1.000000e-001 1.500000e+000
      endloop
   endfacet
   facet normal 5.551115e-016 -1.000000e+000 -1.387779e-016
      outer loop
         vertex 1.263402e+000 1.000000e-001 1.500000e+000
         vertex 1.173134e+000 1.000000e-001 9.365364e-001
         vertex 1.442265e+000 1.000000e-001 1.205667e+000
      endloop
   endfacet
   facet normal 5.551115e-016 -1.000000e+000 -1.387779e-016
      outer loop
         vertex 1.263402e+000 1.000000e-001 1.500000e+000
         vertex 1.442265e+000 1.000000e-001 1.205667e+000
         vertex 1.442265e+000 1.000000e-001 1.500000e+000
      endloop
   endfacet
   facet normal -7.071068e-001 -2.747662e-016 7.071068e-001
      outer loop
         vertex 5.634636e-001 3.756291e-016 3.268656e-001
         vertex 5.634636e-001 1.000000e-001 3.268656e-001
         vertex 2.365979e-001 2.390367e-016 0.000000e+000
      endloop
   endfacet
   facet normal -7.071068e-001 -2.747662e-016 7.071068e-001
      outer loop
         vertex 2.365979e-001 2.390367e-016 0.000000e+000
         vertex 5.634636e-001 1.000000e-001 3.268656e-001
         vertex 2.365979e-001 1.000000e-001 0.000000e+000
      endloop
   endfacet
   facet normal 7.071068e-001 2.747662e-016 -7.071068e-001
      outer loop
         vertex 3.268656e-001 1.000000e-001 5.634636e-001
         vertex 3.268656e-001 2.048886e-016 5.634636e-001
         vertex 1.732051e-001 1.000000e-001 4.098031e-001
      endloop
   endfacet
   facet normal 7.071068e-001 2.747662e-016 -7.071068e-001
      outer loop
         vertex 1.732051e-001 1.000000e-001 4.098031e-001
         vertex 3.268656e-001 2.048886e-016 5.634636e-001
         vertex 5.657985e-016 6.829620e-017 2.365979e-001
      endloop
   endfacet
   facet normal 3.885781e-016 -1.000000e+000 -2.775558e-017
      outer loop
         vertex 5.634636e-001 1.000000e-001 3.268656e-001
         vertex 3.268656e-001 1.000000e-001 5.634636e-001
         vertex 2.365979e-001 1.000000e-001 0.000000e+000
      endloop
   endfacet
   facet normal 3.885781e-016 -1.000000e+000 -2.775558e-017
      outer loop
         vertex 2.365979e-001 1.000000e-001 0.000000e+000
         vertex 3.268656e-001 1.000000e-001 5.634636e-001
         vertex 1.732051e-001 1.000000e-001 4.098031e-001
      endloop
   endfacet
   facet normal 3.885781e-016 -1.000000e+000 -2.775558e-017
      outer loop
         vertex 2.365979e-001 1.000000e-001 0.000000e+000
         vertex 1.732051e-001 1.000000e-001 4.098031e-001
         vertex 1.732051e-001 1.000000e-001 0.000000e+000
      endloop
   endfacet
   facet normal -7.071068e-001 -2.747662e-016 -7.071068e-001
      outer loop
         vertex 3.268656e-001 1.000000e-001 5.634636e-001
         vertex 5.634636e-001 1.000000e-001 3.268656e-001
         vertex 3.268656e-001 2.390367e-016 5.634636e-001
      endloop
   endfacet
   facet normal -7.071068e-001 -2.747662e-016 -7.071068e-001
      outer loop
         vertex 3.268656e-001 2.390367e-016 5.634636e-001
         vertex 5.634636e-001 1.000000e-001 3.268656e-001
         vertex 5.634636e-001 3.414810e-016 3.268656e-001
      endloop
   endfacet
endsolid