  0
SECTION
  2
HEADER
  9
$ACADVER
  1
AC1015
  9
$ACADMAINTVER
 70
     6
  9
$DWGCODEPAGE
  3
ANSI_1252
  9
$INSBASE
 10
0.0
 20
0.0
 30
0.0
  9
$EXTMIN
 10
-2.6145111628
 20
-0.1329083582
 30
0.0
  9
$EXTMAX
 10
-0.6676955843
 20
2.2439083582
 30
0.0
  9
$LIMMIN
 10
0.0
 20
0.0
  9
$LIMMAX
 10
12.0
 20
9.0
  9
$ORTHOMODE
 70
     0
  9
$REGENMODE
 70
     1
  9
$FILLMODE
 70
     1
  9
$QTEXTMODE
 70
     0
  9
$MIRRTEXT
 70
     1
  9
$LTSCALE
 40
1.0
  9
$ATTMODE
 70
     1
  9
$TEXTSIZE
 40
0.125
  9
$TRACEWID
 40
0.05
  9
$TEXTSTYLE
  7
Standard
  9
$CLAYER
  8
0
  9
$CELTYPE
  6
ByLayer
  9
$CECOLOR
 62
   256
  9
$CELTSCALE
 40
1.0
  9
$DISPSILH
 70
     0
  9
$DIMSCALE
 40
1.0
  9
$DIMASZ
 40
0.13
  9
$DIMEXO
 40
0.05
  9
$DIMDLI
 40
0.38
  9
$DIMRND
 40
0.0
  9
$DIMDLE
 40
0.0
  9
$DIMEXE
 40
0.125
  9
$DIMTP
 40
0.0
  9
$DIMTM
 40
0.0
  9
$DIMTXT
 40
0.125
  9
$DIMCEN
 40
0.09
  9
$DIMTSZ
 40
0.0
  9
$DIMTOL
 70
     0
  9
$DIMLIM
 70
     0
  9
$DIMTIH
 70
     1
  9
$DIMTOH
 70
     1
  9
$DIMSE1
 70
     0
  9
$DIMSE2
 70
     0
  9
$DIMTAD
 70
     0
  9
$DIMZIN
 70
     0
  9
$DIMBLK
  1

  9
$DIMASO
 70
     1
  9
$DIMSHO
 70
     1
  9
$DIMPOST
  1

  9
$DIMAPOST
  1

  9
$DIMALT
 70
     0
  9
$DIMALTD
 70
     2
  9
$DIMALTF
 40
25.4
  9
$DIMLFAC
 40
1.0
  9
$DIMTOFL
 70
     0
  9
$DIMTVP
 40
0.0
  9
$DIMTIX
 70
     0
  9
$DIMSOXD
 70
     0
  9
$DIMSAH
 70
     0
  9
$DIMBLK1
  1

  9
$DIMBLK2
  1

  9
$DIMSTYLE
  2
Standard
  9
$DIMCLRD
 70
     0
  9
$DIMCLRE
 70
     0
  9
$DIMCLRT
 70
     0
  9
$DIMTFAC
 40
1.0
  9
$DIMGAP
 40
0.06
  9
$DIMJUST
 70
     0
  9
$DIMSD1
 70
     0
  9
$DIMSD2
 70
     0
  9
$DIMTOLJ
 70
     1
  9
$DIMTZIN
 70
     0
  9
$DIMALTZ
 70
     0
  9
$DIMALTTZ
 70
     0
  9
$DIMUPT
 70
     0
  9
$DIMDEC
 70
     3
  9
$DIMTDEC
 70
     3
  9
$DIMALTU
 70
     2
  9
$DIMALTTD
 70
     2
  9
$DIMTXSTY
  7
Standard
  9
$DIMAUNIT
 70
     0
  9
$DIMADEC
 70
     2
  9
$DIMALTRND
 40
0.0
  9
$DIMAZIN
 70
     0
  9
$DIMDSEP
 70
    46
  9
$DIMATFIT
 70
     3
  9
$DIMFRAC
 70
     0
  9
$DIMLDRBLK
  1

  9
$DIMLUNIT
 70
     2
  9
$DIMLWD
 70
    -2
  9
$DIMLWE
 70
    -2
  9
$DIMTMOVE
 70
     0
  9
$LUNITS
 70
     2
  9
$LUPREC
 70
     2
  9
$SKETCHINC
 40
0.1
  9
$FILLETRAD
 40
0.5
  9
$AUNITS
 70
     0
  9
$AUPREC
 70
     2
  9
$MENU
  1
.
  9
$ELEVATION
 40
0.0
  9
$PELEVATION
 40
0.0
  9
$THICKNESS
 40
0.0
  9
$LIMCHECK
 70
     0
  9
$CHAMFERA
 40
0.5
  9
$CHAMFERB
 40
0.5
  9
$CHAMFERC
 40
1.0
  9
$CHAMFERD
 40
0.0
  9
$SKPOLY
 70
     0
  9
$TDCREATE
 40
2456002.369525868
  9
$TDUCREATE
 40
2456002.536192534
  9
$TDUPDATE
 40
2456002.36952588
  9
$TDUUPDATE
 40
2456002.536192546
  9
$TDINDWG
 40
0.0000000116
  9
$TDUSRTIMER
 40
0.0000000116
  9
$USRTIMER
 70
     1
  9
$ANGBASE
 50
0.0
  9
$ANGDIR
 70
     0
  9
$PDMODE
 70
     0
  9
$PDSIZE
 40
-1.0
  9
$PLINEWID
 40
0.0
  9
$SPLFRAME
 70
     0
  9
$SPLINETYPE
 70
     6
  9
$SPLINESEGS
 70
     8
  9
$HANDSEED
  5
B7
  9
$SURFTAB1
 70
     6
  9
$SURFTAB2
 70
     6
  9
$SURFTYPE
 70
     6
  9
$SURFU
 70
     6
  9
$SURFV
 70
     6
  9
$UCSBASE
  2

  9
$UCSNAME
  2

  9
$UCSORG
 10
0.0
 20
0.0
 30
0.0
  9
$UCSXDIR
 10
1.0
 20
0.0
 30
0.0
  9
$UCSYDIR
 10
0.0
 20
1.0
 30
0.0
  9
$UCSORTHOREF
  2

  9
$UCSORTHOVIEW
 70
     0
  9
$UCSORGTOP
 10
0.0
 20
0.0
 30
0.0
  9
$UCSORGBOTTOM
 10
0.0
 20
0.0
 30
0.0
  9
$UCSORGLEFT
 10
0.0
 20
0.0
 30
0.0
  9
$UCSORGRIGHT
 10
0.0
 20
0.0
 30
0.0
  9
$UCSORGFRONT
 10
0.0
 20
0.0
 30
0.0
  9
$UCSORGBACK
 10
0.0
 20
0.0
 30
0.0
  9
$PUCSBASE
  2

  9
$PUCSNAME
  2

  9
$PUCSORG
 10
0.0
 20
0.0
 30
0.0
  9
$PUCSXDIR
 10
1.0
 20
0.0
 30
0.0
  9
$PUCSYDIR
 10
0.0
 20
1.0
 30
0.0
  9
$PUCSORTHOREF
  2

  9
$PUCSORTHOVIEW
 70
     0
  9
$PUCSORGTOP
 10
0.0
 20
0.0
 30
0.0
  9
$PUCSORGBOTTOM
 10
0.0
 20
0.0
 30
0.0
  9
$PUCSORGLEFT
 10
0.0
 20
0.0
 30
0.0
  9
$PUCSORGRIGHT
 10
0.0
 20
0.0
 30
0.0
  9
$PUCSORGFRONT
 10
0.0
 20
0.0
 30
0.0
  9
$PUCSORGBACK
 10
0.0
 20
0.0
 30
0.0
  9
$USERI1
 70
     0
  9
$USERI2
 70
     0
  9
$USERI3
 70
     0
  9
$USERI4
 70
     0
  9
$USERI5
 70
     0
  9
$USERR1
 40
0.0
  9
$USERR2
 40
0.0
  9
$USERR3
 40
0.0
  9
$USERR4
 40
0.0
  9
$USERR5
 40
0.0
  9
$WORLDVIEW
 70
     1
  9
$SHADEDGE
 70
     3
  9
$SHADEDIF
 70
    70
  9
$TILEMODE
 70
     1
  9
$MAXACTVP
 70
    64
  9
$PINSBASE
 10
0.0
 20
0.0
 30
0.0
  9
$PLIMCHECK
 70
     0
  9
$PEXTMIN
 10
1.0000000000E+20
 20
1.0000000000E+20
 30
1.0000000000E+20
  9
$PEXTMAX
 10
-1.0000000000E+20
 20
-1.0000000000E+20
 30
-1.0000000000E+20
  9
$PLIMMIN
 10
0.0
 20
0.0
  9
$PLIMMAX
 10
12.0
 20
9.0
  9
$UNITMODE
 70
     0
  9
$VISRETAIN
 70
     1
  9
$PLINEGEN
 70
     0
  9
$PSLTSCALE
 70
     1
  9
$TREEDEPTH
 70
  3020
  9
$CMLSTYLE
  2
Standard
  9
$CMLJUST
 70
     0
  9
$CMLSCALE
 40
1.0
  9
$PROXYGRAPHICS
 70
     1
  9
$MEASUREMENT
 70
     0
  9
$CELWEIGHT
370
    -1
  9
$ENDCAPS
280
     0
  9
$JOINSTYLE
280
     0
  9
$LWDISPLAY
290
     1
  9
$INSUNITS
 70
     1
  9
$HYPERLINKBASE
  1

  9
$STYLESHEET
  1

  9
$XEDIT
290
     1
  9
$CEPSNTYPE
380
     0
  9
$PSTYLEMODE
290
     1
  9
$FINGERPRINTGUID
  2
{D8CF3285-FFCD-4332-B3D1-81013737FDE8}
  9
$VERSIONGUID
  2
{FAEB1C32-E019-11D5-929B-00C0DF256EC4}
  9
$EXTNAMES
290
     1
  9
$PSVPSCALE
 40
0.0
  9
$OLESTARTUP
290
     0
  0
ENDSEC
  0
SECTION
  2
CLASSES
  0
CLASS
  1
ACDBDICTIONARYWDFLT
  2
AcDbDictionaryWithDefault
  3
ObjectDBX Classes
 90
        0
280
     0
281
     0
  0
CLASS
  1
VISUALSTYLE
  2
AcDbVisualStyle
  3
ObjectDBX Classes
 90
     4095
280
     0
281
     0
  0
CLASS
  1
MATERIAL
  2
AcDbMaterial
  3
ObjectDBX Classes
 90
     1153
280
     0
281
     0
  0
CLASS
  1
ACDBPLACEHOLDER
  2
AcDbPlaceHolder
  3
ObjectDBX Classes
 90
        0
280
     0
281
     0
  0
CLASS
  1
LAYOUT
  2
AcDbLayout
  3
ObjectDBX Classes
 90
        0
280
     0
281
     0
  0
ENDSEC
  0
SECTION
  2
TABLES
  0
TABLE
  2
VPORT
  5
8
330
0
100
AcDbSymbolTable
 70
     1
  0
VPORT
  5
29
330
8
100
AcDbSymbolTableRecord
100
AcDbViewportTableRecord
  2
*Active
 70
     0
 10
0.0
 20
0.0
 11
1.0
 21
1.0
 12
-1.6411033736
 22
1.0555
 13
0.0
 23
0.0
 14
0.5
 24
0.5
 15
0.5
 25
0.5
 16
0.0
 26
0.0
 36
1.0
 17
0.0
 27
0.0
 37
0.0
 40
2.4243530507
 41
0.819085277
 42
50.0
 43
0.0
 44
0.0
 50
0.0
 51
0.0
 71
     0
 72
   100
 73
     1
 74
     3
 75
     0
 76
     0
 77
     0
 78
     0
281
     0
 65
     1
110
0.0
120
0.0
130
0.0
111
1.0
121
0.0
131
0.0
112
0.0
122
1.0
132
0.0
 79
     0
146
0.0
  0
ENDTAB
  0
TABLE
  2
LTYPE
  5
5
330
0
100
AcDbSymbolTable
 70
     6
  0
LTYPE
  5
14
330
5
100
AcDbSymbolTableRecord
100
AcDbLinetypeTableRecord
  2
ByBlock
 70
     0
  3

 72
    65
 73
     0
 40
0.0
  0
LTYPE
  5
15
330
5
100
AcDbSymbolTableRecord
100
AcDbLinetypeTableRecord
  2
ByLayer
 70
     0
  3

 72
    65
 73
     0
 40
0.0
  0
LTYPE
  5
16
330
5
100
AcDbSymbolTableRecord
100
AcDbLinetypeTableRecord
  2
Continuous
 70
     0
  3
Solid line
 72
    65
 73
     0
 40
0.0
  0
LTYPE
  5
3F
330
5
100
AcDbSymbolTableRecord
100
AcDbLinetypeTableRecord
  2
HIDDEN
 70
     0
  3
Hidden __ __ __ __ __ __ __ __ __ __ __ __ __ __
 72
    65
 73
     2
 40
0.075
 49
0.05
 74
     0
 49
-0.025
 74
     0
  0
LTYPE
  5
40
330
5
100
AcDbSymbolTableRecord
100
AcDbLinetypeTableRecord
  2
PHANTOM
 70
     0
  3
Phantom ______  __  __  ______  __  __  ______
 72
    65
 73
     6
 40
0.5
 49
0.25
 74
     0
 49
-0.05
 74
     0
 49
0.05
 74
     0
 49
-0.05
 74
     0
 49
0.05
 74
     0
 49
-0.05
 74
     0
  0
LTYPE
  5
41
330
5
100
AcDbSymbolTableRecord
100
AcDbLinetypeTableRecord
  2
CENTER
 70
     0
  3
Center ____ _ ____ _ ____ _ ____ _ ____ _ ____
 72
    65
 73
     4
 40
0.4
 49
0.25
 74
     0
 49
-0.05
 74
     0
 49
0.05
 74
     0
 49
-0.05
 74
     0
  0
LTYPE
  5
42
330
5
100
AcDbSymbolTableRecord
100
AcDbLinetypeTableRecord
  2
CENTERX2
 70
     0
  3
Center (2x) ________  __  ________  __  _____
 72
    65
 73
     4
 40
0.8
 49
0.5
 74
     0
 49
-0.1
 74
     0
 49
0.1
 74
     0
 49
-0.1
 74
     0
  0
LTYPE
  5
43
330
5
100
AcDbSymbolTableRecord
100
AcDbLinetypeTableRecord
  2
DOT2
 70
     0
  3
Dot (.5x) ........................................
 72
    65
 73
     2
 40
0.025
 49
0.0
 74
     0
 49
-0.025
 74
     0
  0
ENDTAB
  0
TABLE
  2
LAYER
  5
2
330
0
100
AcDbSymbolTable
 70
     1
  0
LAYER
  5
10
330
2
100
AcDbSymbolTableRecord
100
AcDbLayerTableRecord
  2
0
 70
     0
 62
     7
  6
Continuous
370
    -3
390
F
  0
ENDTAB
  0
TABLE
  2
STYLE
  5
3
330
0
100
AcDbSymbolTable
 70
     1
  0
STYLE
  5
11
330
3
100
AcDbSymbolTableRecord
100
AcDbTextStyleTableRecord
  2
Standard
 70
     0
 40
0.0
 41
1.0
 50
0.0
 71
     0
 42
0.2
  3
txt
  4

  0
ENDTAB
  0
TABLE
  2
VIEW
  5
6
330
0
100
AcDbSymbolTable
 70
     0
  0
ENDTAB
  0
TABLE
  2
UCS
  5
7
330
0
100
AcDbSymbolTable
 70
     0
  0
ENDTAB
  0
TABLE
  2
APPID
  5
9
330
0
100
AcDbSymbolTable
 70
     1
  0
APPID
  5
12
330
9
100
AcDbSymbolTableRecord
100
AcDbRegAppTableRecord
  2
ACAD
 70
     0
  0
ENDTAB
  0
TABLE
  2
DIMSTYLE
  5
A
330
0
100
AcDbSymbolTable
 70
     1
100
AcDbDimStyleTable
  0
DIMSTYLE
105
27
330
A
100
AcDbSymbolTableRecord
100
AcDbDimStyleTableRecord
  2
Standard
 70
     0
178
     0
340
11
  0
ENDTAB
  0
TABLE
  2
BLOCK_RECORD
  5
1
330
0
100
AcDbSymbolTable
 70
     1
  0
BLOCK_RECORD
  5
1F
330
1
100
AcDbSymbolTableRecord
100
AcDbBlockTableRecord
  2
*Model_Space
340
22
  0
BLOCK_RECORD
  5
1B
330
1
100
AcDbSymbolTableRecord
100
AcDbBlockTableRecord
  2
*Paper_Space
340
1E
  0
BLOCK_RECORD
  5
23
330
1
100
AcDbSymbolTableRecord
100
AcDbBlockTableRecord
  2
*Paper_Space0
340
26
  0
ENDTAB
  0
ENDSEC
  0
SECTION
  2
BLOCKS
  0
BLOCK
  5
20
330
1F
100
AcDbEntity
  8
0
100
AcDbBlockBegin
  2
*Model_Space
 70
     0
 10
0.0
 20
0.0
 30
0.0
  3
*Model_Space
  1

  0
ENDBLK
  5
21
330
1F
100
AcDbEntity
  8
0
100
AcDbBlockEnd
  0
BLOCK
  5
1C
330
1B
100
AcDbEntity
 67
     1
  8
0
100
AcDbBlockBegin
  2
*Paper_Space
 70
     0
 10
0.0
 20
0.0
 30
0.0
  3
*Paper_Space
  1

  0
ENDBLK
  5
1D
330
1B
100
AcDbEntity
 67
     1
  8
0
100
AcDbBlockEnd
  0
BLOCK
  5
24
330
23
100
AcDbEntity
  8
0
100
AcDbBlockBegin
  2
*Paper_Space0
 70
     0
 10
0.0
 20
0.0
 30
0.0
  3
*Paper_Space0
  1

  0
ENDBLK
  5
25
330
23
100
AcDbEntity
  8
0
100
AcDbBlockEnd
  0
ENDSEC
  0
SECTION
  2
ENTITIES
  0
SPLINE
  5
4B
330
1F
100
AcDbEntity
  8
0
  6
Continuous
 62
     7
370
    15
100
AcDbSpline
210
0.0
220
0.0
230
1.0
 70
     8
 71
     3
 72
    23
 73
    19
 74
     0
 42
0.00000001
 43
0.00000001
 40
0.4114574128826055
 40
0.4114574128826055
 40
0.4114574128826055
 40
0.4114574128826055
 40
0.430157025798509
 40
0.4869705639114333
 40
0.5437841020243578
 40
0.6005976401372821
 40
0.6574111782502066
 40
0.6858179473066688
 40
0.714224716363131
 40
0.7710382544760555
 40
0.8278517925889799
 40
0.8562585616454421
 40
0.8846653307019043
 40
0.9130720997583666
 40
0.9414788688148288
 40
0.969885637871291
 40
0.9840890223995221
 40
0.9982924069277532
 40
0.9982924069277532
 40
0.9982924069277532
 40
0.9982924069277532
 10
-1.089142721448813
 20
1.996776729166758
 30
0.0
 10
-1.092788294551656
 20
1.991986153308851
 30
0.0
 10
-1.106384622000756
 20
1.972955338663001
 30
0.0
 10
-1.122094829637748
 20
1.943804256110933
 30
0.0
 10
-1.132306820782213
 20
1.924343087188356
 30
0.0
 10
-1.134556282291476
 20
1.922133100398807
 30
0.0
 10
-1.134378668225812
 20
1.921866254447012
 30
0.0
 10
-1.141136700178362
 20
1.917466670137027
 30
0.0
 10
-1.159002425563733
 20
1.908514876779338
 30
0.0
 10
-1.1939099875535
 20
1.894152647758387
 30
0.0
 10
-1.236778490122486
 20
1.877256511435808
 30
0.0
 10
-1.27298795841672
 20
1.861026578782725
 30
0.0
 10
-1.300954913347652
 20
1.846645511380786
 30
0.0
 10
-1.329981900140104
 20
1.828349530578793
 30
0.0
 10
-1.360620705240246
 20
1.802673529316335
 30
0.0
 10
-1.38675363782801
 20
1.768078707929124
 30
0.0
 10
-1.401486191972701
 20
1.728924867657751
 30
0.0
 10
-1.40469200575764
 20
1.706185848609848
 30
0.0
 10
-1.40499074262583
 20
1.695062219299308
 30
0.0
  0
SPLINE
  5
4F
330
1F
100
AcDbEntity
  8
0
  6
Continuous
 62
     7
370
    15
100
AcDbSpline
210
0.0
220
0.0
230
1.0
 70
     8
 71
     3
 72
    20
 73
    16
 74
     0
 42
0.00000001
 43
0.00000001
 40
0.2547935708383067
 40
0.2547935708383067
 40
0.2547935708383067
 40
0.2547935708383067
 40
0.2780812717496096
 40
0.3013689726609126
 40
0.3479443744835183
 40
0.3945197763061241
 40
0.44109517812873
 40
0.4876705799513359
 40
0.5342459817739417
 40
0.5808213835965474
 40
0.6273967854191533
 40
0.720547589064365
 40
0.7671229908869708
 40
0.8136983927095767
 40
0.8225436097276286
 40
0.8225436097276286
 40
0.8225436097276286
 40
0.8225436097276286
 10
-1.997845979151109
 20
1.561424063511123
 30
0.0
 10
-1.997952311392232
 20
1.570333786893741
 30
0.0
 10
-1.99812958997934
 20
1.58888694265235
 30
0.0
 10
-1.998335524352138
 20
1.620128298580438
 30
0.0
 10
-1.998559295246838
 20
1.653640238555487
 30
0.0
 10
-1.999464953632626
 20
1.688019057447147
 30
0.0
 10
-2.002220400456015
 20
1.722138207152659
 30
0.0
 10
-2.009388046469679
 20
1.759244350669388
 30
0.0
 10
-2.022463598576248
 20
1.795359928144044
 30
0.0
 10
-2.037439586431301
 20
1.825075028861103
 30
0.0
 10
-2.063174091628038
 20
1.867073077533038
 30
0.0
 10
-2.098530806846029
 20
1.910463523606643
 30
0.0
 10
-2.144964906305166
 20
1.95247134318058
 30
0.0
 10
-2.174677458070359
 20
1.97417960059704
 30
0.0
 10
-2.192115297164615
 20
1.985296058481848
 30
0.0
 10
-2.194932973488431
 20
1.987051898499367
 30
0.0
  0
CIRCLE
  5
50
330
1F
100
AcDbEntity
  8
0
  6
Continuous
 62
     7
370
    15
100
AcDbCircle
 10
-1.538
 20
1.0555
 30
0.0
 40
0.1200000000000006
  0
SPLINE
  5
55
330
1F
100
AcDbEntity
  8
0
  6
Continuous
 62
     7
370
    15
100
AcDbSpline
210
0.0
220
0.0
230
1.0
 70
     8
 71
     3
 72
    18
 73
    14
 74
     0
 42
0.00000001
 43
0.00000001
 40
0.1192897227085702
 40
0.1192897227085702
 40
0.1192897227085702
 40
0.1192897227085702
 40
0.1271022227086284
 40
0.1875
 40
0.25
 40
0.3125
 40
0.375
 40
0.5
 40
0.625
 40
0.75
 40
0.8115839305012037
 40
0.8272089305012037
 40
0.8428339305015077
 40
0.8428339305015077
 40
0.8428339305015077
 40
0.8428339305015077
 10
-1.439153808042438
 20
0.7409641387873411
 30
0.0
 10
-1.437235853005424
 20
0.7364684040623962
 30
0.0
 10
-1.419829061645292
 20
0.6979284336573702
 30
0.0
 10
-1.377176975526227
 20
0.6353212628701572
 30
0.0
 10
-1.313334668321789
 20
0.5655692542188253
 30
0.0
 10
-1.249636136458417
 20
0.5048071878305271
 30
0.0
 10
-1.164689855919254
 20
0.4330664530071713
 30
0.0
 10
-1.063434798697095
 20
0.357566598947833
 30
0.0
 10
-0.9588065920925413
 20
0.2770668327849719
 30
0.0
 10
-0.891457737539429
 20
0.210705076199551
 30
0.0
 10
-0.8571605253770387
 20
0.1636747284936812
 30
0.0
 10
-0.8430154041314638
 20
0.1406672921105209
 30
0.0
 10
-0.8384687373650189
 20
0.1326976550636305
 30
0.0
 10
-0.8362485822724189
 20
0.128649303045843
 30
0.0
  0
SPLINE
  5
5A
330
1F
100
AcDbEntity
  8
0
  6
Continuous
 62
     7
370
    15
100
AcDbSpline
210
0.0
220
0.0
230
1.0
 70
     8
 71
     3
 72
     9
 73
     5
 74
     0
 42
0.00000001
 43
0.00000001
 40
0.0
 40
0.0
 40
0.0
 40
0.0
 40
0.7405468785111928
 40
1.0
 40
1.0
 40
1.0
 40
1.0
 10
-1.908370324535908
 20
0.9755000000000003
 30
0.0
 10
-2.027563299572166
 20
0.9755000000000003
 30
0.0
 10
-2.230876540774396
 20
0.5330707033811953
 30
0.0
 10
-2.372036447404423
 20
0.5264948338289502
 30
0.0
 10
-2.372036447404422
 20
0.3759896598324062
 30
0.0
  0
SPLINE
  5
67
330
1F
100
AcDbEntity
  8
0
  6
Continuous
 62
     7
370
    15
100
AcDbSpline
210
0.0
220
0.0
230
1.0
 70
     8
 71
     3
 72
    10
 73
     6
 74
     0
 42
0.00000001
 43
0.00000001
 40
0.0
 40
0.0
 40
0.0
 40
0.0
 40
0.2807759124344555
 40
0.6716320777859611
 40
1.0
 40
1.0
 40
1.0
 40
1.0
 10
-0.667695584336998
 20
2.111000000000001
 30
0.0
 10
-0.667695584336998
 20
2.078145054947537
 30
0.0
 10
-1.0600656507896
 20
1.965961263149084
 30
0.0
 10
-0.9697939712842889
 20
1.81323025460371
 30
0.0
 10
-1.285045469011194
 20
1.746867188368364
 30
0.0
 10
-1.285045469011193
 20
1.69097715340906
 30
0.0
  0
SPLINE
  5
6A
330
1F
100
AcDbEntity
  8
0
  6
Continuous
 62
     7
370
    15
100
AcDbSpline
210
0.0
220
0.0
230
1.0
 70
     8
 71
     3
 72
     9
 73
     5
 74
     0
 42
0.00000001
 43
0.00000001
 40
0.0
 40
0.0
 40
0.0
 40
0.0
 40
0.2370263486756461
 40
0.9931779281100636
 40
0.9931779281100636
 40
0.9931779281100636
 40
0.9931779281100636
 10
-1.323049389754501
 20
0.9278432917740419
 30
0.0
 10
-1.378910199701975
 20
0.8337838776321395
 30
0.0
 10
-1.095884678169493
 20
0.4394130513557618
 30
0.0
 10
-0.7342518429560441
 20
0.3562782308274926
 30
0.0
 10
-0.6693993165302861
 20
0.0094567463542835
 30
0.0
  0
SPLINE
  5
7B
330
1F
100
AcDbEntity
  8
0
  6
Continuous
 62
     7
370
    15
100
AcDbSpline
210
0.0
220
0.0
230
1.0
 70
     8
 71
     3
 72
    25
 73
    21
 74
     0
 42
0.00000001
 43
0.00000001
 40
0.3898020605171982
 40
0.3898020605171982
 40
0.3898020605171982
 40
0.3898020605171982
 40
0.4054270605172507
 40
0.4375
 40
0.5
 40
0.5625
 40
0.625
 40
0.65625
 40
0.6875
 40
0.71875
 40
0.75
 40
0.78125
 40
0.8125
 40
0.84375
 40
0.875
 40
0.90625
 40
0.9375
 40
0.96875
 40
0.984375
 40
1.0
 40
1.0
 40
1.0
 40
1.0
 10
-2.210801356164347
 20
0.8555079567842873
 30
0.0
 10
-2.213713481935882
 20
0.8514266128106024
 30
0.0
 10
-2.222561902459258
 20
0.838980496822078
 30
0.0
 10
-2.242691438376347
 20
0.8104332501873035
 30
0.0
 10
-2.270454469534236
 20
0.770972335372861
 30
0.0
 10
-2.301766062753694
 20
0.7279843490371362
 30
0.0
 10
-2.325644656872503
 20
0.6976955202674906
 30
0.0
 10
-2.342647851171308
 20
0.6782116016962856
 30
0.0
 10
-2.353793752986867
 20
0.6665126404579707
 30
0.0
 10
-2.363452795275194
 20
0.6576861235630385
 30
0.0
 10
-2.36816858914667
 20
0.6539187858047693
 30
0.0
 10
-2.378972808149248
 20
0.6466244853720458
 30
0.0
 10
-2.400114431721121
 20
0.6322940619485701
 30
0.0
 10
-2.42866164899519
 20
0.6071969840548841
 30
0.0
 10
-2.455712284405281
 20
0.5704353972864654
 30
0.0
 10
-2.474260792472419
 20
0.5278250212979702
 30
0.0
 10
-2.485144002141109
 20
0.4829432891949207
 30
0.0
 10
-2.48990060484847
 20
0.441997134394901
 30
0.0
 10
-2.491737747128556
 20
0.4060202100577136
 30
0.0
 10
-2.492036447404422
 20
0.3858163940666874
 30
0.0
 10
-2.492036447404422
 20
0.3759896598324057
 30
0.0
  0
SPLINE
  5
7E
330
1F
100
AcDbEntity
  8
0
  6
Continuous
 62
     7
370
    15
100
AcDbSpline
210
0.0
220
0.0
230
1.0
 70
     8
 71
     3
 72
    11
 73
     7
 74
     0
 42
0.00000001
 43
0.00000001
 40
0.0179686119051334
 40
0.0179686119051334
 40
0.0179686119051334
 40
0.0179686119051334
 40
0.3645650196742759
 40
0.4161821179284055
 40
0.6970506079937154
 40
1.0
 40
1.0
 40
1.0
 40
1.0
 10
-2.605345164961719
 20
2.088943092388252
 30
0.0
 10
-2.543118987435661
 20
1.953796898639946
 30
0.0
 10
-2.400445908725384
 20
1.943266375780326
 30
0.0
 10
-2.218792922652561
 20
1.854393619070859
 30
0.0
 10
-2.128203993860192
 20
1.734927491631638
 30
0.0
 10
-2.134570402136087
 20
1.686366705094451
 30
0.0
 10
-2.132578065693329
 20
1.56083784197246
 30
0.0
  0
LINE
  5
82
330
1F
100
AcDbEntity
  8
0
  6
Continuous
 62
     7
370
    15
100
AcDbLine
 10
-1.9978459792
 20
1.2355
 30
0.0
 11
-1.9978459792
 21
1.5614240635
 31
0.0
  0
LINE
  5
83
330
1F
100
AcDbEntity
  8
0
  6
Continuous
 62
     7
370
    15
100
AcDbLine
 10
-1.8486130168
 20
1.1355
 30
0.0
 11
-1.8978459792
 21
1.1355
 31
0.0
  0
LINE
  5
84
330
1F
100
AcDbEntity
  8
0
  6
Continuous
 62
     7
370
    15
100
AcDbLine
 10
-1.4049907426
 20
1.6950622193
 30
0.0
 11
-1.4049907426
 21
1.4039399359
 31
0.0
  0
LINE
  5
85
330
1F
100
AcDbEntity
  8
0
  6
Continuous
 62
     7
370
    15
100
AcDbLine
 10
-2.1737781536
 20
2.061
 30
0.0
 11
-1.1209740449
 21
2.061
 31
0.0
  0
LINE
  5
86
330
1F
100
AcDbEntity
  8
0
  6
Continuous
 62
     7
370
    15
100
AcDbLine
 10
-2.3720364474
 20
0.3759896598
 30
0.0
 11
-2.3720364474
 21
0.15
 31
0.0
  0
LINE
  5
87
330
1F
100
AcDbEntity
  8
0
  6
Continuous
 62
     7
370
    15
100
AcDbLine
 10
-2.2720364474
 20
0.05
 30
0.0
 11
-0.8828165225
 21
0.05
 31
0.0
  0
LINE
  5
88
330
1F
100
AcDbEntity
  8
0
  6
Continuous
 62
     7
370
    15
100
AcDbLine
 10
-1.8486130168
 20
0.9755
 30
0.0
 11
-1.9083703245
 21
0.9755
 31
0.0
  0
LINE
  5
89
330
1F
100
AcDbEntity
  8
0
  6
Continuous
 62
     7
370
    15
100
AcDbLine
 10
-2.5603393006
 20
2.2439083582
 30
0.0
 11
-2.6145111628
 21
2.2439083582
 31
0.0
  0
LINE
  5
8A
330
1F
100
AcDbEntity
  8
0
  6
Continuous
 62
     7
370
    15
100
AcDbLine
 10
-2.5603393006
 20
2.211
 30
0.0
 11
-2.5603393006
 21
2.2439083582
 31
0.0
  0
LINE
  5
8B
330
1F
100
AcDbEntity
  8
0
  6
Continuous
 62
     7
370
    15
100
AcDbLine
 10
-2.5603393006
 20
2.211
 30
0.0
 11
-2.4978393006
 21
2.211
 31
0.0
  0
LINE
  5
8C
330
1F
100
AcDbEntity
  8
0
  6
Continuous
 62
     7
370
    15
100
AcDbLine
 10
-2.4978393006
 20
2.211
 30
0.0
 11
-2.4978393006
 21
2.2439083582
 31
0.0
  0
LINE
  5
8D
330
1F
100
AcDbEntity
  8
0
  6
Continuous
 62
     7
370
    15
100
AcDbLine
 10
-2.4978393006
 20
2.2439083582
 30
0.0
 11
-2.4178393006
 21
2.211
 31
0.0
  0
LINE
  5
8E
330
1F
100
AcDbEntity
  8
0
  6
Continuous
 62
     7
370
    15
100
AcDbLine
 10
-0.8643674465
 20
2.211
 30
0.0
 11
-2.4178393006
 21
2.211
 31
0.0
  0
LINE
  5
8F
330
1F
100
AcDbEntity
  8
0
  6
Continuous
 62
     7
370
    15
100
AcDbLine
 10
-0.7843674465
 20
2.2439083582
 30
0.0
 11
-0.8643674465
 21
2.211
 31
0.0
  0
LINE
  5
90
330
1F
100
AcDbEntity
  8
0
  6
Continuous
 62
     7
370
    15
100
AcDbLine
 10
-0.7843674465
 20
2.211
 30
0.0
 11
-0.7843674465
 21
2.2439083582
 31
0.0
  0
LINE
  5
91
330
1F
100
AcDbEntity
  8
0
  6
Continuous
 62
     7
370
    15
100
AcDbLine
 10
-0.7218674465
 20
2.211
 30
0.0
 11
-0.7843674465
 21
2.211
 31
0.0
  0
LINE
  5
92
330
1F
100
AcDbEntity
  8
0
  6
Continuous
 62
     7
370
    15
100
AcDbLine
 10
-0.7218674465
 20
2.211
 30
0.0
 11
-0.7218674465
 21
2.2439083582
 31
0.0
  0
LINE
  5
93
330
1F
100
AcDbEntity
  8
0
  6
Continuous
 62
     7
370
    15
100
AcDbLine
 10
-0.7218674465
 20
2.2439083582
 30
0.0
 11
-0.6676955843
 21
2.2439083582
 31
0.0
  0
LINE
  5
94
330
1F
100
AcDbEntity
  8
0
  6
Continuous
 62
     7
370
    15
100
AcDbLine
 10
-0.6676955843
 20
2.111
 30
0.0
 11
-0.6676955843
 21
2.2439083582
 31
0.0
  0
LINE
  5
95
330
1F
100
AcDbEntity
  8
0
  6
Continuous
 62
     7
370
    15
100
AcDbLine
 10
-1.285045469
 20
1.6909771534
 30
0.0
 11
-1.285045469
 21
1.0555
 31
0.0
  0
LINE
  5
96
330
1F
100
AcDbEntity
  8
0
  6
Continuous
 62
     7
370
    15
100
AcDbLine
 10
-0.6676955843
 20
-0.0089237796
 30
0.0
 11
-0.6676955843
 21
-0.1329083582
 31
0.0
  0
LINE
  5
97
330
1F
100
AcDbEntity
  8
0
  6
Continuous
 62
     7
370
    15
100
AcDbLine
 10
-0.7218674465
 20
-0.1329083582
 30
0.0
 11
-0.6676955843
 21
-0.1329083582
 31
0.0
  0
LINE
  5
98
330
1F
100
AcDbEntity
  8
0
  6
Continuous
 62
     7
370
    15
100
AcDbLine
 10
-0.7218674465
 20
-0.1
 30
0.0
 11
-0.7218674465
 21
-0.1329083582
 31
0.0
  0
LINE
  5
99
330
1F
100
AcDbEntity
  8
0
  6
Continuous
 62
     7
370
    15
100
AcDbLine
 10
-0.7218674465
 20
-0.1
 30
0.0
 11
-0.7843674465
 21
-0.1
 31
0.0
  0
LINE
  5
9A
330
1F
100
AcDbEntity
  8
0
  6
Continuous
 62
     7
370
    15
100
AcDbLine
 10
-0.7843674465
 20
-0.1
 30
0.0
 11
-0.7843674465
 21
-0.1329083582
 31
0.0
  0
LINE
  5
9B
330
1F
100
AcDbEntity
  8
0
  6
Continuous
 62
     7
370
    15
100
AcDbLine
 10
-0.7843674465
 20
-0.1329083582
 30
0.0
 11
-0.8643674465
 21
-0.1
 31
0.0
  0
LINE
  5
9C
330
1F
100
AcDbEntity
  8
0
  6
Continuous
 62
     7
370
    15
100
AcDbLine
 10
-0.8643674465
 20
-0.1
 30
0.0
 11
-2.4178393006
 21
-0.1
 31
0.0
  0
LINE
  5
9D
330
1F
100
AcDbEntity
  8
0
  6
Continuous
 62
     7
370
    15
100
AcDbLine
 10
-2.4978393006
 20
-0.1329083582
 30
0.0
 11
-2.4178393006
 21
-0.1
 31
0.0
  0
LINE
  5
9E
330
1F
100
AcDbEntity
  8
0
  6
Continuous
 62
     7
370
    15
100
AcDbLine
 10
-2.4978393006
 20
-0.1
 30
0.0
 11
-2.4978393006
 21
-0.1329083582
 31
0.0
  0
LINE
  5
9F
330
1F
100
AcDbEntity
  8
0
  6
Continuous
 62
     7
370
    15
100
AcDbLine
 10
-2.5603393006
 20
-0.1
 30
0.0
 11
-2.4978393006
 21
-0.1
 31
0.0
  0
LINE
  5
A0
330
1F
100
AcDbEntity
  8
0
  6
Continuous
 62
     7
370
    15
100
AcDbLine
 10
-2.5603393006
 20
-0.1
 30
0.0
 11
-2.5603393006
 21
-0.1329083582
 31
0.0
  0
LINE
  5
A1
330
1F
100
AcDbEntity
  8
0
  6
Continuous
 62
     7
370
    15
100
AcDbLine
 10
-2.5603393006
 20
-0.1329083582
 30
0.0
 11
-2.6145111628
 21
-0.1329083582
 31
0.0
  0
LINE
  5
A2
330
1F
100
AcDbEntity
  8
0
  6
Continuous
 62
     7
370
    15
100
AcDbLine
 10
-2.6145111628
 20
-0.06418769
 30
0.0
 11
-2.6145111628
 21
-0.1329083582
 31
0.0
  0
LINE
  5
A3
330
1F
100
AcDbEntity
  8
0
  6
Continuous
 62
     7
370
    15
100
AcDbLine
 10
-2.4920364474
 20
0.3759896598
 30
0.0
 11
-2.4920364474
 21
0.1201756205
 31
0.0
  0
LINE
  5
A4
330
1F
100
AcDbEntity
  8
0
  6
Continuous
 62
     7
370
    15
100
AcDbLine
 10
-2.1325780657
 20
1.560837842
 30
0.0
 11
-2.1325780657
 21
1.0998138182
 31
0.0
  0
LINE
  5
A5
330
1F
100
AcDbEntity
  8
0
  6
Continuous
 62
     7
370
    15
100
AcDbLine
 10
-2.6145111628
 20
2.1307663401
 30
0.0
 11
-2.6145111628
 21
2.2439083582
 31
0.0
  0
ARC
  5
A6
330
1F
100
AcDbEntity
  8
0
  6
Continuous
 62
     7
370
    15
100
AcDbCircle
 10
-1.8978459792
 20
1.2355
 30
0.0
 40
0.1000000000000001
100
AcDbArc
 50
180.0
 51
270.0
  0
ARC
  5
A7
330
1F
100
AcDbEntity
  8
0
  6
Continuous
 62
     7
370
    15
100
AcDbCircle
 10
-1.8486130168
 20
1.2542660183
 30
0.0
 40
0.1187660182837948
100
AcDbArc
 50
270.0
 51
327.3842003137
  0
ARC
  5
A8
330
1F
100
AcDbEntity
  8
0
  6
Continuous
 62
     7
370
    15
100
AcDbCircle
 10
-1.538
 20
1.0555
 30
0.0
 40
0.2500000000000008
100
AcDbArc
 50
84.5882680406
 51
147.3842003137
  0
ARC
  5
A9
330
1F
100
AcDbEntity
  8
0
  6
Continuous
 62
     7
370
    15
100
AcDbCircle
 10
-1.5049907426
 20
1.4039399359
 30
0.0
 40
0.1000000000000003
100
AcDbArc
 50
264.5882680406
 51
0.0
  0
ARC
  5
AA
330
1F
100
AcDbEntity
  8
0
  6
Continuous
 62
     7
370
    15
100
AcDbCircle
 10
-1.1209740449
 20
2.021
 30
0.0
 40
0.0400000000000003
100
AcDbArc
 50
322.7292827066
 51
90.0
  0
ARC
  5
AB
330
1F
100
AcDbEntity
  8
0
  6
Continuous
 62
     7
370
    15
100
AcDbCircle
 10
-2.1737781536
 20
2.021
 30
0.0
 40
0.0400000000000005
100
AcDbArc
 50
90.0
 51
238.0708294025
  0
ARC
  5
AC
330
1F
100
AcDbEntity
  8
0
  6
Continuous
 62
     7
370
    15
100
AcDbCircle
 10
-2.2720364474
 20
0.15
 30
0.0
 40
0.1000000000000005
100
AcDbArc
 50
180.0
 51
270.0
  0
ARC
  5
AD
330
1F
100
AcDbEntity
  8
0
  6
Continuous
 62
     7
370
    15
100
AcDbCircle
 10
-0.8828165225
 20
0.1031109978
 30
0.0
 40
0.0531109978044181
100
AcDbArc
 50
270.0
 51
28.7407863295
  0
ARC
  5
AE
330
1F
100
AcDbEntity
  8
0
  6
Continuous
 62
     7
370
    15
100
AcDbCircle
 10
-1.536852003
 20
0.6992844676
 30
0.0
 40
0.1062173822825493
100
AcDbArc
 50
23.1038997161
 51
90.184649873
  0
ARC
  5
AF
330
1F
100
AcDbEntity
  8
0
  6
Continuous
 62
     7
370
    15
100
AcDbCircle
 10
-1.538
 20
1.0555
 30
0.0
 40
0.2499999999999999
100
AcDbArc
 50
212.6157996863
 51
270.184649873
  0
ARC
  5
B0
330
1F
100
AcDbEntity
  8
0
  6
Continuous
 62
     7
370
    15
100
AcDbCircle
 10
-1.8486130168
 20
0.8567339817
 30
0.0
 40
0.1187660182837941
100
AcDbArc
 50
32.6157996863
 51
90.0
  0
ARC
  5
B1
330
1F
100
AcDbEntity
  8
0
  6
Continuous
 62
     7
370
    15
100
AcDbCircle
 10
-1.5349969284
 20
1.0604262502
 30
0.0
 40
0.2500000000000068
100
AcDbArc
 50
327.9721217751
 51
358.8709135514
  0
ARC
  5
B2
330
1F
100
AcDbEntity
  8
0
  6
Continuous
 62
     7
370
    15
100
AcDbCircle
 10
-2.5145111628
 20
-0.06418769
 30
0.0
 40
0.0999999999999979
100
AcDbArc
 50
112.8068889038
 51
180.0
  0
ARC
  5
B3
330
1F
100
AcDbEntity
  8
0
  6
Continuous
 62
     7
370
    15
100
AcDbCircle
 10
-2.5920364474
 20
0.1201756205
 30
0.0
 40
0.1000000000000001
100
AcDbArc
 50
292.8068889038
 51
0.0
  0
ARC
  5
B4
330
1F
100
AcDbEntity
  8
0
  6
Continuous
 62
     7
370
    15
100
AcDbCircle
 10
-2.5531959962
 20
1.0998138182
 30
0.0
 40
0.4206179305560848
100
AcDbArc
 50
324.4913346855
 51
0.0
  0
ARC
  5
B5
330
1F
100
AcDbEntity
  8
0
  6
Continuous
 62
     7
370
    15
100
AcDbCircle
 10
-2.5145111628
 20
2.1307663401
 30
0.0
 40
0.099999999999851
100
AcDbArc
 50
180.0
 51
204.7230466027
  0
ARC
  5
B6
330
1F
100
AcDbEntity
  8
0
  6
Continuous
 62
     7
370
    15
100
AcDbCircle
 10
-0.7676955843
 20
-0.0089237796
 30
0.0
 40
0.0999999999990707
100
AcDbArc
 50
360.0
 51
10.5914844135
  0
ENDSEC
  0
SECTION
  2
OBJECTS
  0
DICTIONARY
  5
C
330
0
100
AcDbDictionary
281
     1
  3
ACAD_GROUP
350
D
  3
ACAD_LAYOUT
350
1A
  3
ACAD_MLINESTYLE
350
17
  3
ACAD_PLOTSETTINGS
350
19
  3
ACAD_PLOTSTYLENAME
350
E
  0
DICTIONARY
  5
D
102
{ACAD_REACTORS
330
C
102
}
330
C
100
AcDbDictionary
281
     1
  0
DICTIONARY
  5
1A
102
{ACAD_REACTORS
330
C
102
}
330
C
100
AcDbDictionary
281
     1
  3
Layout1
350
1E
  3
Layout2
350
26
  3
Model
350
22
  0
DICTIONARY
  5
17
102
{ACAD_REACTORS
330
C
102
}
330
C
100
AcDbDictionary
281
     1
  3
Standard
350
18
  0
DICTIONARY
  5
19
102
{ACAD_REACTORS
330
C
102
}
330
C
100
AcDbDictionary
281
     1
  0
ACDBDICTIONARYWDFLT
  5
E
102
{ACAD_REACTORS
330
C
102
}
330
C
100
AcDbDictionary
281
     1
  3
Normal
350
F
100
AcDbDictionaryWithDefault
340
F
  0
LAYOUT
  5
1E
102
{ACAD_REACTORS
330
1A
102
}
330
1A
100
AcDbPlotSettings
  1

  2
none_device
  4

  6

 40
0.0
 41
0.0
 42
0.0
 43
0.0
 44
0.0
 45
0.0
 46
0.0
 47
0.0
 48
0.0
 49
0.0
140
0.0
141
0.0
142
1.0
143
1.0
 70
   688
 72
     0
 73
     0
 74
     5
  7

 75
    16
147
1.0
148
0.0
149
0.0
100
AcDbLayout
  1
Layout1
 70
     1
 71
     1
 10
0.0
 20
0.0
 11
12.0
 21
9.0
 12
0.0
 22
0.0
 32
0.0
 14
1.0000000000E+20
 24
1.0000000000E+20
 34
1.0000000000E+20
 15
-1.0000000000E+20
 25
-1.0000000000E+20
 35
-1.0000000000E+20
146
0.0
 13
0.0
 23
0.0
 33
0.0
 16
1.0
 26
0.0
 36
0.0
 17
0.0
 27
1.0
 37
0.0
 76
     0
330
1B
  0
LAYOUT
  5
26
102
{ACAD_REACTORS
330
1A
102
}
330
1A
100
AcDbPlotSettings
  1

  2
none_device
  4

  6

 40
0.0
 41
0.0
 42
0.0
 43
0.0
 44
0.0
 45
0.0
 46
0.0
 47
0.0
 48
0.0
 49
0.0
140
0.0
141
0.0
142
1.0
143
1.0
 70
   688
 72
     0
 73
     0
 74
     5
  7

 75
    16
147
1.0
148
0.0
149
0.0
100
AcDbLayout
  1
Layout2
 70
     1
 71
     2
 10
0.0
 20
0.0
 11
0.0
 21
0.0
 12
0.0
 22
0.0
 32
0.0
 14
0.0
 24
0.0
 34
0.0
 15
0.0
 25
0.0
 35
0.0
146
0.0
 13
0.0
 23
0.0
 33
0.0
 16
1.0
 26
0.0
 36
0.0
 17
0.0
 27
1.0
 37
0.0
 76
     0
330
23
  0
LAYOUT
  5
22
102
{ACAD_REACTORS
330
1A
102
}
330
1A
100
AcDbPlotSettings
  1

  2
none_device
  4
ANSI_A_(11.00_x_8.50_Inches)
  6

 40
6.35
 41
19.05
 42
6.35000508
 43
19.05000254
 44
279.4
 45
215.9
 46
280.9301931699
 47
-6.0183952483
 48
0.0
 49
0.0
140
0.0
141
0.0
142
3.5404496872
143
1.0
 70
  1696
 72
     0
 73
     0
 74
     0
  7

 75
     0
147
0.5913241897
148
0.0
149
0.0
100
AcDbLayout
  1
Model
 70
     1
 71
     0
 10
0.0
 20
0.0
 11
12.0
 21
9.0
 12
0.0
 22
0.0
 32
0.0
 14
-2.6145111628
 24
-0.1329083582
 34
0.0
 15
-0.6676955843
 25
2.2439083582
 35
0.0
146
0.0
 13
0.0
 23
0.0
 33
0.0
 16
1.0
 26
0.0
 36
0.0
 17
0.0
 27
1.0
 37
0.0
 76
     0
330
1F
331
29
  0
MLINESTYLE
  5
18
102
{ACAD_REACTORS
330
17
102
}
330
17
100
AcDbMlineStyle
  2
Standard
 70
     0
  3

 62
   256
 51
90.0
 52
90.0
 71
     2
 49
0.5
 62
   256
  6
BYLAYER
 49
-0.5
 62
   256
  6
BYLAYER
  0
ACDBPLACEHOLDER
  5
F
102
{ACAD_REACTORS
330
E
102
}
330
E
  0
ENDSEC
  0
EOF
