<?xml version="1.0" encoding="UTF-8" standalone="no"?>
<!-- Created with Inkscape (http://www.inkscape.org/) -->

<svg
   xmlns:dc="http://purl.org/dc/elements/1.1/"
   xmlns:cc="http://creativecommons.org/ns#"
   xmlns:rdf="http://www.w3.org/1999/02/22-rdf-syntax-ns#"
   xmlns:svg="http://www.w3.org/2000/svg"
   xmlns="http://www.w3.org/2000/svg"
   xmlns:sodipodi="http://sodipodi.sourceforge.net/DTD/sodipodi-0.dtd"
   xmlns:inkscape="http://www.inkscape.org/namespaces/inkscape"
   id="svg4048"
   version="1.1"
   inkscape:version="0.48.2 r9819"
   width="804.71765"
   height="413.75668"
   xml:space="preserve"
   sodipodi:docname="knifeEdgeCourse.AI"><metadata
     id="metadata4054"><rdf:RDF><cc:Work
         rdf:about=""><dc:format>image/svg+xml</dc:format><dc:type
           rdf:resource="http://purl.org/dc/dcmitype/StillImage" /><dc:title></dc:title></cc:Work></rdf:RDF></metadata><defs
     id="defs4052" /><sodipodi:namedview
     pagecolor="#ffffff"
     bordercolor="#666666"
     borderopacity="1"
     objecttolerance="10"
     gridtolerance="10"
     guidetolerance="10"
     inkscape:pageopacity="0"
     inkscape:pageshadow="2"
     inkscape:window-width="2560"
     inkscape:window-height="1538"
     id="namedview4050"
     showgrid="false"
     fit-margin-top="0"
     fit-margin-left="0"
     fit-margin-right="0"
     fit-margin-bottom="0"
     inkscape:zoom="1.745121"
     inkscape:cx="349.72065"
     inkscape:cy="125.54766"
     inkscape:window-x="1192"
     inkscape:window-y="1042"
     inkscape:window-maximized="1"
     inkscape:current-layer="g4056" /><g
     id="g4056"
     inkscape:groupmode="layer"
     inkscape:label="knifeEdgeCourse"
     transform="matrix(1.25,0,0,-1.25,-53.025,697.59714)"><text
       transform="matrix(1.000301,0,0,-1,659.9322,431.3758)"
       id="text4058"><tspan
         style="font-size:12px;font-variant:normal;font-weight:normal;font-stretch:normal;writing-mode:lr-tb;fill:#808080;fill-opacity:1;fill-rule:nonzero;stroke:none;font-family:Century Gothic;-inkscape-font-specification:CenturyGothic"
         x="0 6.650001 13.300002 16.625002 23.275003"
         y="0"
         sodipodi:role="line"
         id="tspan4060">27.5 </tspan></text>
<g
       id="g4062"
       transform="translate(666.9,338.9)"><path
         d="M 0,0 0,0.5 -0.1,1 -0.2,1.4 -0.4,1.9 -0.7,2.3 -1,2.7 -1.3,3 -1.7,3.3 -2.1,3.5 -2.6,3.7 -3,3.9 -3.5,4 -4,4 -4.5,4 -4.9,3.9 -5.4,3.7 -5.8,3.5 -6.3,3.3 -6.6,3 -7,2.7 -7.3,2.3 -7.5,1.9 -7.7,1.4 -7.9,1 -8,0.5 -8,0 l 0,-0.5 0.1,-0.5 0.2,-0.4 0.2,-0.5 0.2,-0.4 0.3,-0.4 0.4,-0.3 0.3,-0.3 0.5,-0.2 0.4,-0.2 0.5,-0.2 0.4,-0.1 0.5,0 0.5,0 0.5,0.1 0.4,0.2 0.5,0.2 0.4,0.2 0.4,0.3 0.3,0.3 0.3,0.4 0.3,0.4 0.2,0.5 L -0.1,-1 0,-0.5 0,0 m -6.3,-5.7 4.6,11.4"
         style="fill:none;stroke:#808080;stroke-width:0.50999999;stroke-linecap:butt;stroke-linejoin:miter;stroke-miterlimit:10;stroke-opacity:1;stroke-dasharray:none"
         id="path4064"
         inkscape:connector-curvature="0" /></g><text
       transform="matrix(1.000301,0,0,-1,669.5641,334.5501)"
       id="text4066"><tspan
         style="font-size:12px;font-variant:normal;font-weight:normal;font-stretch:normal;writing-mode:lr-tb;fill:#808080;fill-opacity:1;fill-rule:nonzero;stroke:none;font-family:Century Gothic;-inkscape-font-specification:CenturyGothic"
         x="0 6.650001 9.9750013 16.625002"
         y="0"
         sodipodi:role="line"
         id="tspan4068">2.8 </tspan></text>
<text
       transform="matrix(1.000301,0,0,-1,370.8851,506.6781)"
       id="text4070"><tspan
         style="font-size:12px;font-variant:normal;font-weight:normal;font-stretch:normal;writing-mode:lr-tb;fill:#808080;fill-opacity:1;fill-rule:nonzero;stroke:none;font-family:Century Gothic;-inkscape-font-specification:CenturyGothic"
         x="0 6.650001 13.300002 19.950003 23.275003 29.925005"
         y="0"
         sodipodi:role="line"
         id="tspan4072">108.3 </tspan></text>
<text
       transform="matrix(1,0,0,-1,513.2881,550.4781)"
       id="text4074"><tspan
         style="font-size:12px;font-variant:normal;font-weight:normal;font-stretch:normal;writing-mode:lr-tb;fill:#000000;fill-opacity:1;fill-rule:nonzero;stroke:none;font-family:Courier New;-inkscape-font-specification:CourierNew"
         x="0 7.1999998 14.4 21.6 28.799999 36 43.200001 50.400002 57.599998 64.800003 72 79.199997 86.400002 93.599998 100.8 108 115.2 122.4"
         y="0"
         sodipodi:role="line"
         id="tspan4076">Vertical obstacles</tspan><tspan
         style="font-size:12px;font-variant:normal;font-weight:normal;font-stretch:normal;writing-mode:lr-tb;fill:#000000;fill-opacity:1;fill-rule:nonzero;stroke:none;font-family:Courier New;-inkscape-font-specification:CourierNew"
         x="-207.504 -200.304 -193.104 -185.90401 -178.70399 -171.504 -164.304 -157.104 -149.90401 -142.70399 -135.504 -128.304 -121.104 -113.904 -106.704 -99.503998 -92.304001 -85.103996 -77.903999 -70.704002 -63.504002 -56.304001"
         y="321.14401"
         sodipodi:role="line"
         id="tspan4078">Motion capture cameras</tspan></text>
<g
       id="g4284"
       transform="translate(630.1,373.5)"><path
         d="M 0,0 0.2,9.4 3,8.9 0,0 m 1.2,122.7 3,9 2.6,-1.3 -5.6,-7.7 m -317.2,-242.3 -6.8,-6.5 -1.7,2.3 8.5,4.2 m 144.6,0 8.2,-4.7 -1.8,-2.2 -6.4,6.9 m -144.6,0 -6.8,-6.5 -1.7,2.3 8.5,4.2"
         style="fill:none;stroke:#000000;stroke-width:0.50999999;stroke-linecap:butt;stroke-linejoin:miter;stroke-miterlimit:10;stroke-opacity:1;stroke-dasharray:none"
         id="path4286"
         inkscape:connector-curvature="0" /></g><g
       id="g4288"
       transform="translate(671.5,492)"><path
         d="m 0,0 1.5,-9.4 -2.9,0 L 0,0 m 0,-123.8 -1.4,9.4 2.9,0 -1.5,-9.4 m -43.1,-6 1,-9.4 2.8,0.8 -3.8,8.6 m -1.3,123.6 -1,-9.4 2.9,0.1 -1.9,9.3 m -0.3,25.4 -9.4,-1.5 0,2.9 9.4,-1.4 m -487.2,0 9.3,1.4 0,-2.9 -9.3,1.5"
         style="fill:none;stroke:#808080;stroke-width:0.50999999;stroke-linecap:butt;stroke-linejoin:miter;stroke-miterlimit:10;stroke-opacity:1;stroke-dasharray:none"
         id="path4290"
         inkscape:connector-curvature="0" /></g><g
       id="g4292"
       transform="translate(644.2,555.4)"><path
         d="m 0,0 18,0 m 0,0 -32.1,-181.9 M 0,0 18,0 m 0,0 -30.9,-59.2 m -327,-261.9 -18,0 m 0,0 27.8,19.6 m 151.4,-19.7 18,0 m 0,0 -24.8,19.7 m -154.4,-19.6 -18,0 m 0,0 27.8,19.6"
         style="fill:none;stroke:#000000;stroke-width:0.50999999;stroke-linecap:round;stroke-linejoin:round;stroke-miterlimit:10;stroke-opacity:1;stroke-dasharray:none"
         id="path4294"
         inkscape:connector-curvature="0" /></g><path
       inkscape:connector-curvature="0"
       id="path4302"
       style="fill:none;stroke:#000000;stroke-width:0.50999999;stroke-linecap:round;stroke-linejoin:round;stroke-miterlimit:10;stroke-opacity:1;stroke-dasharray:43.2, 3.6, 3.6, 3.6;stroke-dashoffset:-4.313"
       d="m 283.7022,355.356 30.409,-101.363" /><path
       inkscape:connector-curvature="0"
       id="path4306"
       style="fill:none;stroke:#000000;stroke-width:0.50999999;stroke-linecap:round;stroke-linejoin:round;stroke-miterlimit:10;stroke-opacity:1;stroke-dasharray:43.2, 3.6, 3.6, 3.6;stroke-dashoffset:-4.313"
       d="m 314.1108,253.9928 30.409,101.363" /><path
       inkscape:connector-curvature="0"
       id="path4310"
       style="fill:none;stroke:#000000;stroke-width:0.50999999;stroke-linecap:round;stroke-linejoin:round;stroke-miterlimit:10;stroke-opacity:1;stroke-dasharray:43.2, 3.6, 3.6, 3.6;stroke-dashoffset:-4.313"
       d="m 428.3347,355.3555 30.41,-101.363" /><path
       inkscape:connector-curvature="0"
       id="path4314"
       style="fill:none;stroke:#000000;stroke-width:0.50999999;stroke-linecap:round;stroke-linejoin:round;stroke-miterlimit:10;stroke-opacity:1;stroke-dasharray:43.2, 3.6, 3.6, 3.6;stroke-dashoffset:-4.313"
       d="m 458.745,253.9928 30.41,101.363" /><g
       id="g4316"
       transform="translate(630.4,492)"><path
         d="M 0,0 50.1,0 M 0,-123.8 l 50.1,0 m -9,123.8 0,-49 m 0,-74.8 0,60.5 M -2,-129.8 4.2,-153 m 0,0 18,0 m -18,0 -7.5,146.8 m -0.3,9.8 0,24.6 m -487.2,-48.3 0,48.3 m 487.2,-9 -222.7,0 m -264.5,0 227.9,0"
         style="fill:none;stroke:#808080;stroke-width:0.50999999;stroke-linecap:round;stroke-linejoin:round;stroke-miterlimit:10;stroke-opacity:1;stroke-dasharray:none"
         id="path4318"
         inkscape:connector-curvature="0" /></g><g
       id="g4320"
       transform="translate(630.1,373.5)"><path
         d="M 0,0 0.2,9.4 3,8.9 m -1.8,113.8 3,9 2.6,-1.3 m -322.8,-250 -6.8,-6.5 -1.7,2.3 m 153.1,4.2 8.2,-4.7 -1.8,-2.2 m -151,6.9 -6.8,-6.5 -1.7,2.3"
         style="fill:#000000;fill-opacity:1;fill-rule:nonzero;stroke:none"
         id="path4322"
         inkscape:connector-curvature="0" /></g><g
       id="g4324"
       transform="translate(671.5,492)"><path
         d="m 0,0 1.5,-9.4 -2.9,0 m 1.4,-114.4 -1.4,9.4 2.9,0 m -44.6,-15.4 1,-9.4 2.8,0.8 m -5.1,132.2 -1,-9.4 2.9,0.1 m -2.2,34.7 -9.4,-1.5 0,2.9 m -477.8,-1.4 9.3,1.4 0,-2.9"
         style="fill:#808080;fill-opacity:1;fill-rule:nonzero;stroke:none"
         id="path4326"
         inkscape:connector-curvature="0" /></g><path
       inkscape:connector-curvature="0"
       id="path4330"
       style="fill:none;stroke:#000000;stroke-width:0.16;stroke-linecap:round;stroke-linejoin:round;stroke-miterlimit:10;stroke-opacity:1;stroke-dasharray:none"
       d="m 116.3,453.5 0,-9.3 m 0.3,0 0,9.3 m -0.3,-37.5 0,-9.3 m 0.3,0 0,9.3 m 32.4,21.7 0,6.5 m 0,-28.2 0,6.5 m -46.1,5.9 0.3,0 m 0,3.4 -0.3,0 m 0,-7 0.3,0 m 0,10.6 -0.3,0 m -1.8,-1.6 0,0 m 0.5,0.3 -0.1,0 m 0,-8 0.1,0 m -0.5,0.3 0,0 m -1.2,-2 0.5,0.7 m -2.4,7.9 -0.5,0 m 0,-5.8 0.5,0 m 1.2,3.4 -0.1,0 m 0,-1 0.1,0 m -2.5,2.7 -0.1,0 m 0,-1 0.1,0 m 0,-2.4 -0.1,0 m 0,-1 0.1,0 m 3.7,7.2 -0.5,0.7 m 3.3,-10.4 0.2,0 m 0,1 -0.2,0.1 m 0.2,-1.1 0,0.1 0,0.1 0.1,0.1 0,0.1 m 0,0.2 0,0.1 0,0.1 -0.1,0 0,0.1 0,0.1 m -0.2,7.3 0.2,0.1 m 0,1 -0.2,0 m 0.2,-1 0,0 0,0.1 0,0.1 0.1,0 0,0.1 0,0.1 m 0,0.2 0,0 0,0.1 -0.1,0.1 0,0.1 0,0.1 m -0.2,-5.2 0.2,0 m 0,1 -0.2,0 m 0.2,-1 0,0 0,0.1 0,0.1 0.1,0 0,0.1 0,0.1 m 0,0.2 0,0.1 0,0.1 -0.1,0 0,0.1 0,0.1 m -1.7,3.4 0,0 m -0.5,-0.4 0,0 m 0.5,-7.4 0,0 m -0.5,0.4 -0.1,0 m 61.5,-12.2 0.1,0.8 0,0.6 0,0.3 m 0.6,5.3 0.1,0.5 0.1,1.2 0,1.1 0.1,1 -0.1,0.4 0,0.4 0,0.3 0,0.2 0,0.2 -0.1,0.4 0,0.5 0,0.6 -0.1,0.7 0,0.3 m -1.2,-0.2 0.1,-0.2 0,-0.5 0,-0.3 -0.1,-0.2 0,-0.4 -0.1,-0.6 m -0.4,-3.5 0.1,-1.1 0.1,-0.9 0,-0.8 0.1,-0.8 0.1,-0.8 0,-0.7 0,-0.6 0,-0.4 0.1,-0.2 0,-0.3 -0.1,-0.4 0,-0.5 -0.1,-0.7 -0.1,-0.9 m 0,31.8 0.1,-0.9 0.1,-0.7 0,-0.5 0.1,-0.4 0,-0.3 -0.1,-0.2 0,-0.2 0,-0.3 0,-1.2 -0.1,-0.8 -0.1,-0.8 0,-0.8 -0.1,-1 -0.1,-1 m 0.4,-3.5 0.1,-0.6 0,-0.3 m 0,-0.1 0.1,-0.2 0,-0.3 0,-0.5 -0.1,-0.2 m 1.2,0 0.1,0.5 0,0.6 0,0.5 0.1,0.4 0,0.3 0,0.3 0,0.3 0,0.6 0.1,0.7 -0.1,1.3 -0.1,1.3 -0.1,1 -0.1,1.1 -0.2,1.1 -0.1,1 -0.1,0.5 0,0.5 0,0.4 -0.1,0.5 0,0.8 -0.1,0.9 m -0.8,-16.8 0.3,0 m 0,2.2 -0.3,0 m 1.5,0 -0.1,0 m 1.7,0.1 -0.2,0 m 0,-2.4 0.2,0 m 1.8,2.4 -0.2,0 m 0,-2.4 0.2,0 m 0,0.1 0.6,0.1 0.5,0.1 0.5,0.1 0.3,0.2 0.2,0.2 0.4,0.4 m 0,0 -0.4,0.4 -0.2,0.2 -0.3,0.2 -0.5,0.1 -0.5,0.1 -0.6,0.1 m -2,-0.2 -0.8,0 m 0,-1.8 0.8,0 m 0.2,1.6 0,0 m 0,-1.4 0,0 m 1.5,1.5 0.1,0.1 0,0.6 0.1,0.5 0,0.5 0,0.4 0,0.2 0,0.3 0.1,0.3 0,0.6 0,0.7 0,1.3 -0.1,1.3 -0.1,0.8 m -0.6,5.2 0,0.1 -0.1,0.7 0,0.9 m -0.8,0.4 0.1,-1 0.1,-0.9 0,-0.8 0,-1.2 -0.1,-1.1 -0.1,-1.1 -0.1,-1 0,-0.5 0,-0.6 -0.1,-0.7 m 0.4,-3.4 0.1,-0.5 0,-0.6 0,-0.7 0,-0.5 m -0.5,-7.9 0.1,-0.9 0,-0.6 0.1,-0.7 0,-0.8 0.1,-0.9 0.1,-1.1 0,-1.2 0,-0.8 -0.1,-0.9 -0.1,-1 m 0.3,14.6 0,-0.3 0,-0.7 0,-0.6 -0.1,-0.7 m 1.1,2.3 0.2,0 m -1.6,0 0.4,0 m 0,2.2 -0.4,0 m 0.9,-16.4 0,0.8 0.1,0.5 0,0.4 0,0.4 0,0.4 0.1,0.7 0.1,0.9 0.2,1.1 0.1,1.1 0.1,1.1 0.2,1.2 0,1.1 0,1 0,0.4 0,0.3 0,0.3 -0.1,0.2 0,0.2 0,0.4 0,0.5 -0.1,0.6 0,0.6 m -45.9,2 -0.3,0 m 0,-1.8 0.3,0 m -7.8,0 0.3,0 m 0,1.8 -0.3,0 m 27.7,-3.5 0,0.3 m -21.1,-0.8 0,0.3 m -3.8,0 0,-0.3 m 2.8,0.3 0,0.2 m -1,0 0,-0.2 m 2.8,-0.3 0,0.3 m -2.8,5.6 0,-0.2 m 1,0 0,0.2 m 20.1,0.4 0,-0.2 m 0,-6 0,-0.2 m -70.1,3.9 -10.2,8.1 m 0.4,-0.7 9.2,-7.4 m -9.2,-8.8 0,1.1 m 0,0.3 0,4.2 m 0,0.3 0,1.5 m 0,1.4 0,1.5 m 0,0.3 0,4.2 m 0,0.3 0,1.1 m -0.4,0.7 0,-1.8 m 0,-0.3 0,-4.2 m 0,-0.3 0,-1.5 m 0,-3.3 0,-4.1 m 0,-0.3 0,-1.8 m 0,0 10.2,8.1 m -0.6,0 -9.2,-7.4 m 0.1,5.6 0,0.3 m 0,4.4 0,0.3 m 0,4.2 0,0.3 m 0,-14 0,0.3 m 90.3,-56.7 0,40 m 0,46.8 0,40 m -3.8,-83.3 0.7,0 m 0,3 -0.7,0 m -2,-2.9 1.6,0 m 0,2.8 -1.6,0 m 1.6,-2.4 0.4,0 m 0,2.1 -0.4,0 m -1.6,1.2 -0.9,0 m -0.2,-4.5 1.1,0 m 2,37.5 0.7,0 m 0,3 -0.7,0 m -2,-2.9 1.6,0 m 0,2.8 -1.6,0 m 1.6,-2.5 0.4,0 m 0,2.1 -0.4,0 m -1.6,1.2 -0.9,0 m -0.2,-4.5 1.1,0 m -24.5,-13.7 0,0.2 m -1.6,0 0,-0.2 m -0.6,0 0,0 m 22.3,-24.4 0,-0.2 m 1.6,0 0,0.6 m -2.2,0 0,-0.4 m -21.1,19.6 0,-0.2 m 1.6,0 0,0.2 m -2.2,0 0,0 m 23.9,24.3 0,0.3 m -1.6,0 0,-0.2 m -0.6,0 0,-0.4 m 2,0.6 0,1.2 m 0,-6.6 0,0.5 m 0,-33.8 0,0 m 0,0.3 0,2.1 m 0,6.5 0,3.1 m 0,1.8 0,0.1 m 0,0.3 0,0 m 0,6.8 0,3.1 m 0,6.5 0,2.1 m 0,0.3 0,0 m 0,-33.8 0,0.5 m 0,-6.6 0,1.2 m -1.3,0 0,-1.2 m 0,6.6 0,-0.5 m 0,33.8 0,0 m 0,-0.3 0,-2.1 m 0,-6.5 0,-4.4 m 0,-0.2 0,-0.1 m 0,-5.8 0,-0.1 m 0,-0.2 0,-4.4 m 0,-6.5 0,-2.1 m 0,-0.3 0,0 m 0,33.8 0,-0.5 m 0,6.6 0,-1.2 m 20.7,-24.7 1.6,0 m 0,5 -1.6,0 m 1.6,-5 0.6,1.1 m 0,2.8 -0.6,1.1 m -4.8,-0.4 -0.4,-0.7 m 0,-2.8 0.4,-0.7 m 2.6,4.9 -0.2,0 m 0,-5.6 0.2,0 m 4.3,2.1 0.6,0 m 0,1.4 -0.6,0 m -7.5,-1.3 0.2,0 m 0,1.2 -0.2,0 m -1.4,1.5 4.4,0 m 0.2,0 0.6,0 m 0,0.4 -0.6,0 m -0.2,0 -4.4,0 m 0,-5 4.4,0 m 0.2,0 0.6,0 m 0,0.4 -0.6,0 m -0.2,0 -4.4,0 m -97.4,1.4 0.7,0 m 0.6,0 36.1,0 m 8.8,0 9.6,0 m 7.8,0 1.4,0 m 32.4,0 1.6,0 m 0,1.4 -1.6,0 m -32.4,0 -1.4,0 m -7.8,0 -9.6,0 m -8.8,0 -37.4,0 m 568.2,55.2 0.6,-0.1 0.6,-0.1 0.6,0 0.7,0 0.6,0.2 0.6,0.1 0.5,0.3 0.6,0.3 0.5,0.3 0.5,0.4 0.4,0.5 0.4,0.5 0.4,0.5 0.2,0.6 0.3,0.6 0.1,0.6 0.1,0.6 0.1,0.6 -0.1,0.6 0,0.7 -0.2,0.6 -0.2,0.6 -0.3,0.5 -0.3,0.6 -0.4,0.5 -0.4,0.4 -0.5,0.4 -0.5,0.4 -0.5,0.3 -0.6,0.3 -0.6,0.1 -0.6,0.2 -0.6,0 -0.7,0.1 -0.6,-0.1 -0.6,-0.1 -0.6,-0.2 -0.6,-0.2 -0.5,-0.3 -0.6,-0.4 -0.4,-0.4 -0.5,-0.4 -0.4,-0.5 -0.3,-0.6 -0.3,-0.5 -0.2,-0.6 -0.2,-0.6 -0.1,-0.6 0,-0.7 0,-0.6 0.1,-0.6 0.2,-0.6 0.2,-0.6 0.2,-0.6 0.4,-0.5 0.3,-0.5 0.5,-0.5 0.4,-0.4 0.5,-0.3 0.6,-0.4 0.6,-0.2 0.6,-0.2 m 7.8,-117.8 -0.1,0.6 -0.1,0.7 -0.1,0.6 -0.2,0.6 -0.3,0.5 -0.3,0.6 -0.4,0.5 -0.5,0.4 -0.4,0.4 -0.5,0.4 -0.6,0.3 -0.6,0.2 -0.6,0.2 -0.6,0.1 -0.6,0.1 -0.6,0 -0.7,-0.1 -0.6,-0.1 -0.6,-0.2 -0.5,-0.2 -0.6,-0.3 -0.5,-0.4 -0.5,-0.4 -0.4,-0.4 -0.4,-0.5 -0.3,-0.6 -0.3,-0.5 -0.2,-0.6 -0.2,-0.6 -0.1,-0.7 0,-0.6 0,-0.6 0.1,-0.6 0.2,-0.6 0.2,-0.6 0.3,-0.6 0.3,-0.5 0.4,-0.5 0.4,-0.5 0.5,-0.4 0.5,-0.3 0.6,-0.3 0.5,-0.3 0.6,-0.2 0.6,-0.1 0.7,-0.1 0.6,0 0.6,0.1 0.6,0.1 0.6,0.2 0.6,0.3 0.6,0.3 0.5,0.3 0.4,0.4 0.5,0.5 0.4,0.5 0.3,0.5 0.3,0.6 0.2,0.6 0.1,0.6 0.1,0.6 0.1,0.6 m -520,76 0,-6.5 m 0,0 9.1,0 9.1,0 3,0 3,0 3,0 2.3,0 2.3,0 1.1,0 1.1,0 0.6,0 0.6,0 0.5,0 0.2,0 0.1,0 m -36,6.5 9.1,0 9.1,0 3,0 3,0 3,0 2.3,0 2.3,0 1.1,0 1.1,0 0.6,0 0.6,0 0.5,0 0.2,0 0.1,0 m -36,-21.7 0,-6.5 m 0,6.5 9.1,0 9.1,0 3,0 3,0 3,0 2.3,0 2.3,0 1.1,0 1.1,0 0.6,0 0.6,0 0.5,0 0.2,0 0.1,0 m -36,-6.5 9.1,0 9.1,0 3,0 3,0 3,0 2.3,0 2.3,0 1.1,0 1.1,0 0.6,0 0.6,0 0.5,0 0.2,0 0.1,0 m -46.1,13.3 0.3,0 m 0,1.6 -0.3,0 m 0.3,-1.6 0,1.6 m -0.3,-1.6 0,1.6 m 0.3,-1.6 0,-0.2 0,-0.2 0,-0.2 0,-0.1 0,-0.1 0,-0.1 m 0,3.4 0,0 0,-0.1 0,-0.1 0,-0.1 0,-0.2 0,-0.2 0,-0.2 m -0.3,-5.5 0.3,0 m 0,3 0,-3 m -0.3,2.7 0,-2.3 m 0.3,9 -0.3,0 m 0.3,0 0,-3 m -0.3,2.6 0,-2.3 m 0.3,-6.7 0,-0.2 0,-0.1 0,-0.2 0,-0.1 m 0,10.6 0,0 0,-0.1 0,-0.2 0,-0.1 0,-0.2 m -2.1,-4.7 -0.1,0 -0.1,0 -0.1,-0.1 -0.1,0 -0.1,0 -0.1,0 -0.1,-0.1 -0.1,0 m 0.3,-0.3 0,0 0.2,0 0.1,0.1 0.2,0.1 0,0.2 0,0.1 m -0.8,0 0.8,0.2 m -0.8,-0.2 0,0 0.1,0 0.1,0.1 0.1,0 0.1,0 0.2,0 0.1,0.1 0.1,0 m 0,0 0,0 m 0,0 -0.1,0.1 -0.1,0.2 -0.2,0 -0.1,0 m 0.5,-0.3 0.1,0 0,-0.1 0,-0.1 m -0.4,-0.5 0,0 0.2,0 0.1,0.1 0.1,0.2 0,0.1 0,0.2 0,0.2 -0.1,0.1 -0.2,0.1 -0.1,0 m 0.3,-0.5 0.1,0 m 0,3.7 0,0 -0.1,0 0.1,0.1 0.1,0.1 0,0.1 0.1,0 0.1,0 0.1,0 0,-0.1 -0.1,-0.1 -0.1,0 0,-0.1 -0.1,0 -0.1,0 m -6.5,-3.5 0,0 0.1,0 0.1,-0.1 0.1,0 m 0,0.4 -0.1,0 -0.1,-0.1 -0.1,-0.2 m 0,-0.1 0,0 0,0.1 m 0,-0.1 -0.1,0 m 0,0 0,-0.2 0.1,-0.2 0.1,-0.1 0.1,-0.1 0.1,0 m 0,0.4 0,0 -0.1,0.1 -0.1,0 -0.1,0 -0.1,0.1 m 0.4,-0.2 -0.3,0.2 m 6.9,-4.1 -0.1,0 -0.1,0 -0.1,0.1 -0.1,0 0,0.1 -0.1,0 0,0.1 0.1,0 0.1,0 0.1,0 0.1,-0.1 0.1,-0.1 0,-0.1 m -2.9,-0.6 0.3,-0.1 0.4,-0.1 0.3,-0.1 0.2,0 0.2,0 m -1.4,0.7 0,-0.4 m -1,0.5 0,0.4 m -1.4,0.7 0.2,-0.1 0.2,-0.3 0.3,-0.3 0.4,-0.2 0.3,-0.2 m 2.1,1.5 -0.1,0.1 -0.1,0.1 m -1.9,-1.7 -0.2,-0.3 m 1,-0.5 -0.1,0.1 -0.1,0 -0.2,0.1 -0.1,0 -0.1,0.1 -0.1,0.1 -0.1,0 -0.2,0.1 m 1.2,-0.2 -0.2,-0.3 m 1.4,-0.8 -0.1,-0.1 -0.2,-0.1 -0.2,-0.1 -0.2,0 -0.3,0 -0.4,0.1 -0.3,0.1 -0.4,0.1 -0.3,0.2 -0.4,0.2 -0.4,0.2 -0.3,0.3 -0.4,0.2 -0.3,0.3 -0.2,0.3 -0.2,0.3 -0.2,0.3 -0.1,0.2 m 3.5,-1.6 0,0 -0.1,0 m 0.1,-0.1 0,0.1 m -0.9,0.5 0,0 m 0,0 0,-0.1 m 0.8,-0.3 -0.1,0 -0.1,0 -0.1,0.1 -0.1,0 -0.1,0.1 -0.1,0 -0.1,0.1 -0.1,0 m 0.8,-0.3 0,-0.1 m -0.7,1 0,0 m 0,0 0,-0.3 m 0,0 -0.1,-0.2 m 1,0.1 -0.9,0.4 m 0.9,-0.8 0,0.4 m -0.9,0.1 0.9,-0.5 m 0,0 -0.2,-0.2 m 0.3,0.7 -0.1,-0.2 m -0.1,-0.4 0,0 m 0,0 0,-0.1 m 0,0.1 0,0 m -3.5,1.6 0,0.1 0,0.1 0,0.1 0,0.1 0.1,0.1 m -0.1,-0.6 0,0 0,0.1 m 0.1,0.5 0,0.2 m 0,0 0,-0.1 -0.1,-0.2 0,-0.1 0,-0.1 m 0,-0.2 0,0.2 m 0,0.2 0,0.2 0,0.2 m 0,-0.4 0,0 m 0,0.4 0,-0.1 0,-0.1 m 0,-0.2 0,0.2 m 5.4,-2.8 -0.1,0 -0.1,-0.1 -0.1,-0.1 -0.1,-0.1 m 0,0 -0.1,0 m 0.5,0.3 0.2,0.2 m -0.6,5.4 0,0.3 m 0.4,-0.1 -0.1,0.1 -0.1,0 -0.1,0 -0.1,0 m 0.4,-0.1 0.4,0 m 0,0 0,0 m -0.8,-0.2 0.1,0 0.1,0.1 0.2,0 0.2,0 m 0,-0.8 0,0 -0.2,0 -0.2,0 -0.1,0.1 -0.1,0 m 0,0.6 -0.1,-0.1 0,-0.1 0,-0.1 0,-0.1 0,-0.1 0.1,-0.1 m 0.8,-0.3 0,0.1 m -0.4,-0.1 0.4,0 m -0.8,0 0,0 0.1,0 0.1,0 0.1,0 0.1,0 m -0.4,0 0,0.3 m 0,0.9 -0.1,0 0,0.1 m 0,0 0.8,0 m 0,0 0,0 0,-0.1 0.1,0 0.1,-0.1 m 0,-1.1 -0.1,0 -0.1,0 0,-0.1 m 0,0 -0.8,0 m 0,0 0,0 0.1,0.1 m -2.5,3.3 -0.4,0 -0.4,-0.1 -0.3,-0.2 -0.3,-0.2 -0.3,-0.2 -0.2,-0.4 -0.2,-0.3 -0.2,-0.4 -0.1,-0.4 0,-0.4 0,-0.4 0.1,-0.4 0.1,-0.4 0.2,-0.4 0.2,-0.3 0.3,-0.3 0.3,-0.2 0.3,-0.2 0.3,-0.1 0.4,-0.1 0.3,0 0.4,0.1 0.3,0.1 0.4,0.2 0.3,0.2 0.2,0.3 0.2,0.3 0.2,0.4 0.1,0.4 0.1,0.4 0,0.4 0,0.4 -0.1,0.4 -0.2,0.4 -0.2,0.3 -0.2,0.4 -0.3,0.2 -0.3,0.2 -0.3,0.2 -0.4,0.1 -0.3,0 m -2.5,-2.4 0,-0.1 0,-0.1 0,-0.1 0,-0.1 0,-0.1 0,-0.1 m 0,0.6 0,0.3 m 0,0.1 0,0 0,-0.1 m 4.9,0.1 -0.1,0.4 -0.2,0.4 -0.2,0.4 -0.2,0.3 -0.3,0.2 -0.4,0.3 -0.3,0.1 -0.4,0.1 -0.3,0 -0.4,0 -0.4,-0.1 -0.3,-0.1 -0.4,-0.3 -0.3,-0.2 -0.2,-0.3 -0.2,-0.4 -0.2,-0.4 -0.1,-0.4 m 0,-1.4 0.1,-0.4 0.2,-0.4 0.2,-0.4 0.2,-0.3 0.3,-0.2 0.4,-0.3 0.3,-0.1 0.4,-0.1 0.4,0 0.3,0 0.4,0.1 0.3,0.1 0.4,0.3 0.3,0.2 0.2,0.3 0.2,0.4 0.2,0.4 0.1,0.4 m -4.9,0.1 0,-0.1 m 0,0.1 0,0.3 m 3.5,3.2 -0.1,0 -0.1,0 -0.2,0 -0.1,0 m 0.7,0 -0.2,0 m 0.2,0 0.3,-0.1 0.4,-0.2 0.3,-0.2 0.2,-0.3 0.3,-0.3 0.2,-0.3 0.2,-0.4 0.1,-0.4 m 0,-1.4 -0.1,-0.4 -0.2,-0.4 -0.2,-0.3 -0.3,-0.3 -0.2,-0.3 -0.3,-0.2 -0.4,-0.2 -0.3,-0.1 m 0,0 -0.2,0 m -0.5,0 0.1,0 0.2,0 0.1,0 0.1,0 m -1,0.2 -0.1,0 -0.4,0.1 -0.3,0.1 -0.3,0.2 -0.3,0.2 -0.3,0.3 -0.2,0.3 -0.2,0.4 -0.1,0.4 -0.1,0.4 0,0.4 0,0.4 0.1,0.4 0.2,0.4 0.2,0.3 0.2,0.4 0.3,0.2 0.3,0.2 0.3,0.2 0.4,0.1 0.3,0 m 2,-2.9 0,0.1 0,0.2 0,0.2 -0.1,0.1 -0.2,0.1 -0.1,0 -0.2,-0.1 -0.1,-0.1 -0.1,-0.1 0,-0.2 0.1,-0.2 0,-0.1 0.2,-0.1 0.1,-0.1 0.2,0 0.1,0.1 0.1,0.2 m 0.1,0 0,0.1 0,0.2 0,0.2 -0.1,0.1 -0.2,0.1 -0.1,0 m 0,-1 0.2,0 0.1,0.1 0.1,0.2 m -2.9,1.4 0.1,0 0.1,0.1 0.1,0.1 0.1,0.2 0,0.1 0,0.2 -0.1,0.1 -0.1,0.1 -0.2,0.1 m 0,-4.4 0,0 0.2,0.1 0.1,0.1 0.1,0.1 0,0.2 0,0.2 -0.1,0.1 -0.1,0.1 -0.1,0.1 -0.1,0 m 4.6,0.9 0.2,0 m 0,0 0,-0.1 0,-0.1 -0.1,0 -0.1,0 0,-0.1 m -0.2,0 0,0.1 0.1,0 0.1,0.1 0,0.1 m 0,-0.3 -0.2,0 m 0.2,0.9 0,0.1 -0.1,0 0,0.1 -0.1,0 m 0.2,-0.8 0,0.6 m -0.2,-0.9 -0.3,0 m 0.3,1.1 -0.3,0 m 0.7,-0.2 -0.2,0 m 0.2,0 0,-0.6 m -0.2,0.8 0,0 0.1,0 0.1,-0.1 0,-0.1 m -0.4,0.2 0.2,0 m -4.7,1.7 -0.1,-0.1 -0.2,-0.1 -0.1,-0.1 0,-0.2 0,-0.1 0.1,-0.2 0.1,-0.1 0.1,-0.1 0.2,0 0.1,0.1 0.1,0.1 0.1,0.2 0,0.1 0,0.2 -0.1,0.1 -0.1,0.1 -0.2,0.1 m -0.4,-4.1 0.1,-0.2 0.2,0 0.1,-0.1 0.2,0.1 0.1,0.1 0.1,0.1 0,0.2 0,0.2 -0.1,0.1 -0.1,0.1 -0.1,0.1 -0.2,0 -0.1,-0.1 -0.1,-0.1 -0.1,-0.2 0,-0.2 0,-0.1 m -1.3,2.4 -0.1,0 -0.1,0 0,-0.1 0,-0.1 m 0,-0.6 0,-0.1 0,-0.1 0.1,0 0.1,-0.1 m -0.2,0.3 0,0 m 0,0.5 0,0 m 0,0.1 0,0 m 0.2,-0.9 0.1,0 m -0.1,1.1 0.1,0 m 2.7,3.6 -0.3,-0.2 -0.4,-0.2 -0.3,-0.3 -0.2,-0.3 -0.2,-0.1 m 1.4,0.7 0,0.4 m 1,0.5 0,-0.4 m 1.4,0.7 -0.2,0 -0.2,0 -0.3,-0.1 -0.4,-0.1 -0.3,-0.1 m 0.9,-2.2 0.1,0.1 0.1,0.1 m -1.1,2 -0.2,0.3 m -1,-0.5 0.2,0.1 0.1,0 0.1,0.1 0.1,0.1 0.1,0 0.2,0.1 0.1,0 0.1,0.1 m -0.8,-0.8 -0.2,0.3 m -2.5,-1.2 0.1,0.2 0.2,0.3 0.2,0.3 0.2,0.3 0.3,0.3 0.4,0.2 0.3,0.3 0.4,0.2 0.4,0.2 0.3,0.2 0.4,0.1 0.3,0.1 0.4,0.1 0.3,0 0.2,0 0.2,-0.1 0.2,-0.1 0.1,-0.1 m -2.3,-1.4 0,0 m 0.9,0.6 0,-0.1 m -0.1,0 0.1,0 m -0.1,0 0,-0.1 m -0.8,-0.3 0.1,0 0.1,0.1 0.1,0 0.1,0.1 0.1,0 0.1,0.1 0.1,0 0.1,0 m -0.8,-0.3 0,-0.1 m 0.1,-0.2 -0.1,0.2 m 0.1,-0.2 0,-0.3 m 0,0 0,0 m 0.9,0.8 -0.2,0.2 m 0.2,-0.2 -0.9,-0.5 m 0,-0.3 0.9,0.4 m 0,0 0,0.4 m 0.1,-0.5 -0.1,0.2 m -0.1,0.4 0,0 m 0,0.1 0,-0.1 m 0,0 0,0 m -3.4,-2.1 -0.1,0.1 0,0.1 0,0.1 0,0.1 0,0.1 m 0,0 0,0 0,0.1 m 0.1,-0.6 0,-0.2 m -0.1,0.5 0,-0.1 0,-0.1 0.1,-0.2 0,-0.1 m -0.1,0.7 0,-0.2 m 0,-0.6 0,0.2 0,0.2 m 0,0 0,0 m 0,-0.2 0,-0.1 0,-0.1 m 0,0.4 0,-0.2 m 5,3.1 0,0 0.1,-0.1 0.1,-0.1 0.1,-0.1 0.1,0 m -0.5,0.3 0,0 0.1,0 m 0.4,-0.3 0.2,-0.2 m 1.8,-3.1 0.1,0 0.1,0 0.1,0 0.1,0 0.1,0 m 0,-4 0,4 m 0,-4 0,0 -0.1,0 -0.1,0 -0.1,0 -0.1,0 -0.1,0 m 0,0 0,4 m 0,-4 -2.3,0 m -4.5,0 -1,0 m 0,0 0,4 m 0,0 1,0 m 4.5,0 2.3,0 m -8,-0.2 0.1,0.1 0.1,0.1 m 0,-4 -0.1,0.1 0,0.1 -0.1,0 m 0,0 0,3.6 m 0.2,-3.9 7.8,-3.9 m -7.7,4 -0.1,-0.1 m 0.1,0.1 7.8,-3.9 m 0,0 -0.1,-0.1 m -0.1,2.2 -2.7,1.3 m -0.1,-0.7 -0.1,0.2 -0.1,0.2 -0.1,0.1 m -1.8,-0.2 0.1,-0.1 0.2,-0.2 0.3,-0.2 0.2,-0.1 0.3,-0.2 0.3,0 0.2,-0.1 0.2,0 0.2,0.1 0.1,0 0.1,0.2 0,0.1 -0.1,0.2 m -5.1,1.4 0.1,-0.1 0,-0.1 0.1,-0.1 m 0.1,0.1 0,0 m -0.1,4.1 -0.1,-0.1 0,-0.1 -0.1,-0.1 m 0.3,0.2 -0.1,0.1 m 0.1,-0.1 0,0 m 7.7,4 -7.8,-3.9 m 7.9,3.8 -0.1,0.1 m 0.1,-0.1 -7.8,-3.9 m 4.9,0.5 2.7,1.3 m -2.7,-0.4 0,-0.1 -0.1,-0.2 -0.2,-0.2 -0.1,-0.2 m -1.8,0.2 0.2,0.2 0.3,0.2 0.3,0.2 0.2,0.1 0.3,0.1 0.2,0.1 0.3,0 0.1,0 0.2,-0.1 0.1,-0.1 0,-0.2 m -0.1,0.3 0,-0.1 0,-0.2 -0.1,-0.2 -0.1,-0.2 -0.2,-0.2 -0.1,0 m 3.9,-7.3 -0.2,0 m 0,-1.3 0.2,0 m -0.2,1.3 0,-1.3 m 0.2,1.3 0,-1.3 m -3.9,3 0.1,0 0.2,-0.2 0.1,-0.2 0.1,-0.2 0,-0.2 0,-0.1 m 3.4,8.2 -0.2,0 m 0,1.3 0,-1.3 m 0,1.3 0.2,0 m 0,0 0,-1.3 m 0,-1.9 -0.2,0 m 0,1.9 0,-1.9 m 0.2,1.9 0,-0.2 m 0,-6.9 -0.2,0 m 0,0 0,-1.9 m 0.2,0.2 0,-0.2 m -0.5,-1.5 0.1,-0.1 0.1,0 0.1,0 0,0.1 0.1,0 0.1,0.1 0,0.1 m -0.4,-0.1 0.1,0 0.1,0 0,0.1 m 0.2,11.6 0,0.1 -0.1,0.1 -0.1,0 0,0.1 -0.1,0 -0.1,0 -0.1,-0.1 m 0.3,-0.2 0,0 0,0.1 -0.1,0 -0.1,0 m 35.4,-9.1 0.1,0.1 0.1,0 0.1,0 0.1,0.1 0.1,0 0.1,0.1 m -0.6,-0.3 -1,0 m 0,6.3 0,0 -0.1,0 -0.1,0 0,-0.1 -0.1,-0.1 m 0.3,0.2 1,0 m 0.6,-0.2 0,0 -0.1,0.1 -0.1,0 -0.1,0.1 -0.1,0 -0.1,0 -0.1,0 m -1.3,-6 0,0 0.1,-0.1 0,-0.1 0.1,0 0.1,0 0,-0.1 m -12.4,8.1 0.2,-0.2 m -0.4,0 0.2,0.2 m 9.7,-9.7 0,0 -0.2,0 m 0,0 0,0 m 0.1,0 0.1,0 m 0,0 0.1,0 m -9.7,0 -0.1,0 m 0,0 -0.1,0 m 9.8,9.7 0.2,-0.2 m -0.4,0 0.2,0.2 m -10,0.6 -0.1,0 -0.1,0 0,-0.1 0,-0.1 m 1.2,0.3 -0.3,0 m 0.3,-0.1 0,0.1 m 0.3,-0.1 0,0 m -0.3,0 0,0 m 0.3,0.1 0,-0.1 m 0.3,0.1 -0.3,0 m 7,-0.1 -6.3,0 m 6.6,0.1 0,0 -0.1,0 -0.1,0 -0.1,-0.1 m 0.7,0.1 -0.4,0 m 0.7,-0.1 0,0 m -0.3,0 0,0 m 0.6,0.1 -0.3,0 m 1,-0.1 -0.3,0 m 0.5,-0.2 0,0.1 0,0.1 -0.1,0 -0.1,0 m 0.2,-0.7 0,0.5 m 0,-0.6 0,0.1 m -0.8,-0.1 0,0.1 0,0.1 0,0.1 -0.1,0 0,0.1 -0.1,0 m -9.2,0.4 -0.3,0 m 10,0 0,0 -0.1,0.1 -0.1,0 -0.1,0 -0.1,0 m -0.3,0 0,-0.1 m -0.3,0 0,0.1 m -7,-0.1 0,0 -0.1,0.1 -0.1,0 -0.1,0 -0.1,0 m -0.9,0 -0.1,0 -0.1,0 -0.1,0 -0.1,-0.1 m -0.5,-0.2 0,-0.6 m 9.5,-10.2 0,-0.1 m -0.3,0.1 0,0 m 0.3,0 0,0 m -0.3,-0.1 0,0.1 m -0.4,-0.1 0.4,0 m -0.7,0.1 0,0 0.1,-0.1 0.1,0 0.1,0 m -6.6,0.1 6.3,0 m -6.7,-0.1 0.1,0 0.1,0 0.1,0 0.1,0.1 m -0.7,-0.1 0.3,0 m -0.3,0.1 0,-0.1 m -0.3,0.1 0,0 m 0.3,0 0,0 m -0.3,-0.1 0,0.1 m -0.3,-0.1 0.3,0 m -0.7,0.1 0,0 0.1,-0.1 0.1,0 0.1,0 0.1,0 m -0.7,0.1 0.3,0 m -0.5,0.2 0,-0.1 0,-0.1 0.1,0 0.1,0 m 10.5,0.2 0,0.5 m -0.2,-0.7 0.1,0 0.1,0 0,0.1 0,0.1 m -0.5,-0.2 0.3,0 m -0.7,-0.1 0.1,0 0.1,0 0.1,0 0.1,0.1 m -0.7,-0.1 0.3,0 m -0.1,0.5 0,0 0.1,0 0,0.1 0.1,0 0,0.1 0,0.1 m 0.8,0 0,0 m -10.7,0 0,-0.5 m -20.7,1.3 0,0 0,0.1 0,0.1 m 0,-0.2 0,0 0.1,0 m 0,0 0,-0.2 0,-0.1 0,-0.2 0,-0.1 0,-0.1 m 0,1 0,0 0,-0.1 m 0,0 -0.1,0 m 0.2,-0.5 0,0 0,0.1 0,0.1 -0.1,0 0,0.1 m 0,0.2 0,-0.1 0.1,-0.1 0,-0.1 0,-0.1 m -0.2,8.6 0,0 0,0.1 m 0,-0.1 0,-0.1 0.1,0 m 0,0 0,-0.1 0,-0.2 0,-0.2 0,-0.1 m 0,1 0,0 0,-0.1 0,-0.1 m 0,0 -0.1,0 m 0.2,-0.4 0,0 0,0.1 -0.1,0.1 m 0,0.2 0,-0.1 0.1,0 0,-0.1 0,-0.1 m -0.2,-4 0,0 0,0.1 m 0,-0.1 0,0 0.1,0 m 0,0 0,-0.2 0,-0.2 0,-0.1 0,-0.1 0,-0.1 m 0,1 0,0 0,-0.1 0,-0.1 m 0,0 -0.1,0 m 0.2,-0.4 0,0 0,0.1 0,0.1 -0.1,0 0,0.1 m 0,0.1 0,0 0.1,-0.1 0,-0.1 0,-0.1 m 19.1,5.2 1.4,0 m 10.7,0 1.4,0 m -1,-0.2 0,0 -0.1,-0.1 -0.1,0 -0.1,0.1 0,0.1 0.1,0 0.1,0 0.1,0 0,-0.1 m 1,0.2 0,-0.8 m -0.1,0.6 0,0 -0.1,-0.1 -0.1,0 -0.1,0.1 0,0.1 0.1,0 0.1,0 0.1,0 0,-0.1 m -13.4,-0.3 0,0.5 m 12.9,-0.2 0,0 0,-0.1 -0.1,0 -0.1,0 0,0.1 0,0.1 0.1,0 0.1,0 0,-0.1 m -12.6,0 0,0 0,-0.1 -0.1,0 -0.1,0 0,0.1 0,0.1 0.1,0 0.1,0 0,-0.1 m 0.5,0 0,0 -0.1,-0.1 -0.1,0 -0.1,0.1 0,0.1 0.1,0 0.1,0 0.1,0 0,-0.1 m 0.4,0 0,0 0,-0.1 -0.1,0 -0.1,0 0,0.1 0,0.1 0.1,0 0.1,0 0,-0.1 m -1.2,-10.2 0,0.4 m 13.5,0.4 0,-0.8 m 0,0 -1.4,0 m -10.7,0 -1.4,0 m 0.8,0.2 0,0 -0.1,-0.1 -0.1,0 -0.1,0.1 0,0.1 0.1,0 0.1,0 0.1,0 0,-0.1 m 0.4,0 0,0 0,-0.1 -0.1,0 -0.1,0 0,0.1 0,0.1 0.1,0 0.1,0 0,-0.1 m 12.2,0 0,0 -0.1,-0.1 -0.1,0 -0.1,0.1 0,0.1 0.1,0 0.1,0 0.1,0 0,-0.1 m -0.9,0 0,0 -0.1,-0.1 -0.1,0 -0.1,0.1 0,0.1 0.1,0 0.1,0 0.1,0 0,-0.1 m -12.2,0 0,0 0,-0.1 -0.1,0 -0.1,0 0,0.1 0,0.1 0.1,0 0.1,0 0,-0.1 m 12.6,0 0,0 0,-0.1 -0.1,0 -0.1,0 0,0.1 0,0.1 0.1,0 0.1,0 0,-0.1 m -34.4,9.5 -0.5,-0.4 m 0.5,0.4 0.2,-0.3 m -0.2,-0.2 0,0 0.2,0.2 m -0.5,-0.4 0.3,0.2 m -0.5,0.1 0.2,-0.3 m 0.7,0.2 0,0 -0.1,0 -0.1,0 -0.1,-0.1 -0.1,-0.1 0,-0.1 m 0.5,0.1 0,0 0.1,0.1 0.1,0.1 0,0.1 m -0.7,-0.6 0,0 0.1,0 0.1,0.1 0.1,0 0.1,0.1 0.1,0.1 m -0.8,-0.2 0,0 0.1,0 0,-0.1 0.1,0 0.1,0 m 0,0.5 -0.1,-0.1 -0.1,-0.1 0,-0.1 -0.1,0 0,-0.1 m 0.8,0.6 -0.1,0 -0.1,0 -0.1,0 0,-0.1 -0.1,0 -0.1,-0.1 m 0.7,0.1 0,0.1 -0.1,0 -0.1,0 m -0.3,0 0.1,0 0.2,0 m -0.8,-0.6 0,0 0,0.2 m 0.8,0.8 0.2,-0.3 m -0.2,-0.1 0,0.1 0.2,0 m -0.2,0.3 -0.5,-0.1 m -0.3,-1 0,0.1 m -0.2,0.2 0.2,-0.3 m -0.2,0.6 0,-0.3 m 1.2,0.5 0,-0.2 m -1,-0.6 0.1,0 0.2,0 m 0.7,0.5 -0.1,-0.1 m 0.1,0.2 0,0 0,-0.1 m -0.2,-0.2 0,-0.1 -0.3,-0.1 m -0.2,-0.1 0.1,0 0.1,0.1 m 1.4,0.1 -0.4,0 m 0,0.3 0,0 0,-0.3 m 0,0.6 0,-0.3 m 0.4,0.3 -0.4,0 m 0,0.3 0,-0.1 0,-0.2 m 0,-0.3 0,0.1 0,0.1 0,0.1 0,0.1 0,0.1 0,0.1 m 0,-0.9 0,-0.1 m 0,0 0,0.1 0,0.1 0,0.1 0,0.1 m 0,0.8 0,-0.1 0,-0.1 m 0.4,0.2 -0.4,0 m 0.4,-1.3 -0.4,0 m 0,0.1 0,0 0,-0.1 m 0,1.2 0,0 0,0.1 m 0,-0.2 0,0 0,0.1 m 0.4,-9.3 -0.4,0 m 0,0.3 0,0 0,-0.3 m 0,0.6 0,-0.3 m 0.4,0.3 -0.4,0 m 0,0.2 0,0 0,-0.2 m 0,-0.3 0,0.1 0,0.1 0,0.1 0,0.1 0,0.1 m 0,-0.8 0,-0.1 m 0,0 0,0 0,0.1 0,0.1 0,0.1 0,0.1 m 0,0.8 0,-0.1 0,-0.2 m 0.4,0.3 -0.4,0 m 0.4,-1.3 -0.4,0 m 0,0.1 0,0 0,-0.1 m 0,1.2 0,0 0,0.1 m 0,-0.3 0,0.1 0,0.1 m -1.6,-0.7 0.6,-0.3 m -0.6,0.3 0.2,0.3 m 0.3,-0.1 0,0 -0.3,0.1 m 0.6,-0.3 -0.3,0.2 m 0.1,-0.5 0.2,0.3 m -0.4,0.5 0.1,-0.1 0.1,-0.1 0.1,0 0.1,0 m -0.4,0.3 0,-0.1 m 0.1,-0.3 0.1,0 0.1,-0.1 0.1,0 0.1,0 0.1,0 m -0.8,0.5 0,-0.1 0.1,-0.1 0.1,-0.1 0.1,-0.1 m -0.2,0.6 -0.1,0 0,-0.1 -0.1,0 0,-0.1 0.1,0 m 0.5,0.1 0,0 -0.1,0 -0.1,0 0,0.1 -0.1,0 -0.1,0 m 0.8,-0.5 0,0 -0.1,0.1 -0.1,0.1 -0.1,0.1 -0.1,0.1 m 0.3,-0.6 0,0 0.1,0 0,0.1 0,0.1 m -0.9,0.3 0,-0.1 0,-0.2 m 0.8,-0.2 0,0 -0.2,-0.1 m -0.9,0.4 0.2,0.3 m 0,0 0,0 0.1,-0.1 m -0.2,-0.6 -0.1,0.4 m 1.3,-0.4 -0.2,0.1 m 0,-0.3 0.2,0.2 m -0.6,-0.3 0.4,0.1 m -0.9,0.9 0.2,0.1 m 0.8,-0.5 0,-0.1 0.1,-0.2 m -0.2,0.4 0.1,-0.1 m -0.8,0.5 0,0 0.1,0 m 32.4,-1.8 0.2,0 m -0.5,0 -0.4,0.1 m -6.9,0 6.9,0 m -7.3,-0.1 0.4,0.1 m -0.7,-0.1 -0.2,0 m 0,0.5 0,-0.5 m 0,0.5 0,0.1 0,0.1 0.2,0.1 m 0.3,0.1 0,0.1 0.4,0.1 0.4,0.1 0.3,0.1 0.2,0 0.2,0.1 0.2,0.1 0.2,0.1 0.2,0.1 0.2,0.3 0.1,0.3 0.1,0.1 m -3,7.6 0,0 0,-0.1 0.2,-0.1 m 0.3,-0.1 0,-0.1 0.4,-0.1 0.4,-0.1 0.3,-0.1 0.2,-0.1 0.2,0 0.2,-0.1 0.2,-0.1 0.2,-0.2 0.2,-0.2 0.1,-0.3 0.1,-0.1 m 5.7,1.7 0,0.1 0,0.1 m 0,-0.2 -0.2,-0.2 m -0.3,-0.3 -0.1,0 -0.4,-0.2 -0.3,-0.1 -0.3,-0.2 -0.3,-0.2 -0.1,-0.2 -0.1,-0.2 0,-0.1 m 2.1,-7.6 -0.2,0.3 m -0.3,0.3 -0.1,0 -0.4,0.2 -0.3,0.1 -0.3,0.2 -0.3,0.2 -0.1,0.2 -0.1,0.2 0,0.1 m 2.1,-1.9 0,0 0,0.1 m 0,-0.1 0,-0.5 m -6.6,0.9 0.5,0.2 0.4,0.2 0.2,0.3 0.2,0.3 0.1,0.4 0,0.1 m -1.3,-1.6 -0.1,0 0,0.1 m 5.3,-0.1 -5.2,0 m 5.2,0.1 0,0 0,-0.1 m -1.4,1.6 0,-0.1 0.1,-0.3 0.2,-0.3 0.2,-0.3 0.4,-0.3 0.5,-0.2 m -5.3,8.8 0,0 0,0.1 0.1,0 m -0.1,-0.1 0.5,-0.2 0.4,-0.2 0.2,-0.3 0.2,-0.3 0.1,-0.4 0,-0.1 m 2.5,0 0,0.1 0.1,0.3 0.2,0.3 0.2,0.3 0.4,0.3 0.5,0.2 m 0,0.1 0,0 0,-0.1 m 0,0.1 -5.2,0 m -2,0.8 -0.2,0 m 8.5,0 0.2,0 m -8.2,0 0.4,-0.1 m 7.8,-0.4 0,0.5 m -7.8,-0.1 6.9,0 m 0.4,0.1 -0.4,-0.1 m -7.8,-0.5 0,0.6 m 1.8,-8 -0.1,0 -0.1,0 0,-0.1 0,-0.1 0,-0.1 0.1,-0.1 0.1,0 0.1,0 0.1,0.1 0,0.1 0,0.1 0,0.1 -0.1,0 -0.1,0 m 0,-0.5 0.1,0.1 0.1,0 0.1,0.1 0,0.1 0,0.1 -0.1,0.1 -0.1,0.1 -0.1,0 -0.1,0 -0.1,-0.1 -0.1,-0.1 0,-0.1 0,-0.1 0.1,-0.1 0.1,0 0.1,-0.1 m 0.5,0.8 -1.1,0 m 1.3,-1 0,0.5 m -1.3,-0.5 1.3,0 m -1.3,1 0,-1 m 9.4,7.5 0,-1 m 0.7,0 0,1 m 0,0 -0.7,0 m 0.2,-1 0.5,0 m -0.7,-6.3 0,-0.8 m 0,0 0.7,0 m 0,0 0,1 m 0,0 -0.5,0 m -1.4,-0.6 0,0 m -0.7,0.4 0,-0.1 -0.1,-0.2 0,-0.3 0.1,-0.2 0.1,-0.2 0.2,-0.1 0.2,-0.1 0.2,0 0.2,0 0.2,0.1 0.2,0.1 0.1,0.2 0.1,0.2 0,0.3 -0.1,0.2 -0.1,0.1 m -0.6,6.7 0,0 m 0,0.8 -0.2,-0.1 -0.2,-0.1 -0.2,-0.1 -0.1,-0.2 -0.1,-0.2 0,-0.2 0.1,-0.2 0,-0.1 m 1.4,0 0,0.1 0.1,0.2 0,0.2 -0.1,0.2 -0.1,0.2 -0.2,0.1 -0.2,0.1 -0.2,0.1 m -9.2,-7.9 0,0 m 0,0.7 -0.3,0 -0.2,-0.1 -0.1,-0.1 -0.2,-0.2 0,-0.2 0,-0.3 0,-0.2 0.2,-0.2 0.1,-0.1 0.2,-0.1 0.3,0 m 0.3,0.1 0.1,0 0.1,0.1 0.2,0.2 0,0.2 0,0.3 0,0.2 -0.2,0.2 -0.1,0.1 -0.1,0.1 m -0.3,0 0,0 m 0,6.4 0,0 m 0,0.8 -0.3,-0.1 -0.2,-0.1 -0.1,-0.1 -0.2,-0.2 0,-0.2 0,-0.2 0,-0.2 0.2,-0.2 0.1,-0.2 0.2,-0.1 0.3,0 m 0.3,0.1 0.1,0 0.1,0.2 0.2,0.2 0,0.2 0,0.2 0,0.2 -0.2,0.2 -0.1,0.1 -0.1,0.1 m -0.3,0.1 0,0 m 10.6,0 0,-0.2 m 0.5,0.2 -0.5,0 m 0.5,-0.2 0,0.2 m -0.5,-7.2 0,-0.1 m 0.5,0 0,0.1 m -0.5,-1.3 0.5,0 m -0.5,0.2 0,-0.2 m 0.5,0 0,0.2 m -0.5,7.1 0,-0.2 m 0.5,0 0,0.2 m -9.4,-0.3 -0.5,0 m 0,-0.6 0.5,0 m -0.5,0.6 0,-0.6 m 0.5,0 0,0.6 m -3.6,-3.1 0.1,0 0.1,0.1 0.1,0.1 0,0.1 0,0.1 -0.1,0.1 -0.1,0.1 -0.1,0 -0.1,0 -0.1,-0.1 -0.1,-0.1 0,-0.1 0,-0.1 0.1,-0.1 0.1,-0.1 0.1,0 m 13,4.7 -0.3,0 m 0.3,-8.8 0,1.5 m 0,5.8 0,1.5 m -0.5,-9 0,0.1 0.1,0 0,0.1 0.1,0 m -11.9,2.8 0,-3.2 m -0.3,3.5 0.1,0 0.1,-0.1 m -1.5,0.1 1.3,0 m -1.3,2.6 0,-2.6 m 1.3,2.6 -1.3,0 m 1.5,0.1 0,0 -0.1,-0.1 -0.1,0 m 12,3.4 -2.1,0 m -8.7,0 -0.9,0 m 11.7,-0.1 0,0.1 m 0.2,-0.3 -0.1,0 0,0.1 -0.1,0 0,0.1 m 0,-9.4 0,0.2 m -11.7,9.3 0,-3.1 m 11.9,-6 0.3,0 m -12.2,-0.4 0.9,0 m 8.7,0 2.1,0 m -12.6,6.3 0,2.3 m -1.6,-2.3 1.6,0 m 0,2.3 -1.6,0 m 0,0 0,-2.3 m 0,-3.1 1.6,0 m 0,-2.2 -1.6,0 m 0,0 0,2.2 m 1.6,0 0,-2.2 m -1.2,-1 2.1,0 m -1.1,4.6 0.1,0.1 0,0.1 0,0.1 -0.1,0.1 m -0.5,-0.1 0,-0.1 0,-0.1 m 1.6,4.8 -2.1,0 m 0,0 0,-0.9 m 0,-2.3 0,-3.1 m 0,-2.2 0,-1 m 6.4,7.4 0,-5.4 m 7.4,5.9 -2.3,0 m -0.3,0 -0.6,0 m 6.6,-1.1 0,-4.8 m -3.4,-0.4 -2.3,0 m -0.3,0 -0.6,0 m -2.6,4.4 0,-4 m 0,0 -1.6,0 m 4.2,-0.4 0,4.4 m 0,1.4 0,0.5 m 3.2,-6.3 0,0.4 m 3.4,4.8 -3.4,0 m 3.4,-4.8 -3.4,0 m -3.2,5.4 -4.2,0 m 4.2,-1.4 -2.6,0 m 5.8,0.8 0,1.1 m -11.8,-1.5 0,-3.2 m 3.8,0 0,3.2 m 0,0 -2.3,0 m -0.3,0 -1.2,0 m 0,-3.2 1.2,0 m 0.3,0 2.3,0 m 12.2,4.5 -4.2,0 m 4.2,-5.8 0,5.8 m -4.2,-5.8 4.2,0 m -12.7,5.8 0,-1.3 m 5.3,1.3 -5.3,0 m 0,-5.8 5.3,0 m -5.3,1.3 0,-1.3 m 35.9,2.5 0,-1.3 0.2,-1.4 0.1,-1.5 0,-1.4 -0.1,-1.4 -0.1,-1.5 -0.2,-1.7 -0.2,-1.7 -0.2,-1.7 -0.1,-1.6 m -0.4,-0.2 0.2,0.1 0.1,0 0.1,0 0,0.1 m -0.4,-0.2 0.3,2.8 0.2,2.8 0.1,2.8 -0.1,2.2 -0.2,2.1 -0.4,2.2 m 0,0 0.5,0.3 0.2,0.1 0.3,0.1 0.1,0 m -0.6,-15.2 0,0 0,-0.1 -0.2,0 0,-0.1 -0.1,0 m 0.9,15.4 0,-0.1 0,-0.2 0.1,-0.2 m -1.5,-15 0,0 0,0.1 0.1,0 0.2,0 0.1,0 m -0.1,12.8 -0.2,-0.7 -0.1,-0.9 -0.1,-1 -0.1,-1.2 0.1,-1.3 0.1,-1.2 0.1,-1.1 0.1,-1.1 0,-1.1 0,-1.1 0,-1.1 -0.2,-1.1 m 0.3,14.8 0.1,0 -0.1,0.2 m 0,1.8 0.1,0.9 -0.1,1 -0.2,0.9 -0.1,0.9 -0.1,1 -0.1,1.2 0.1,1.3 0.1,1.2 0.1,1.1 0.1,1.1 0,1.1 0,1.1 0,1.1 -0.2,1.1 m 0.5,-0.1 -0.3,0 -0.2,0 0,0.1 m 1.2,-14.9 0,1.2 -0.1,1.1 0,1.2 0,1.2 -0.1,1.2 0,1.2 -0.1,1.2 -0.1,1.6 -0.1,1.6 -0.1,1.7 -0.1,1.6 m 0.7,-14.8 -0.2,0 -0.1,0 -0.1,-0.1 -0.2,0 -0.1,0 -0.1,0 -0.1,0 m -0.3,15 0,0 m 0.3,-15 0,0 0,0.1 0,0.1 m 0.2,-16.9 -0.3,0 -0.2,-0.1 m 0.8,31.5 0,0 0,0.1 m 0,0 0,0 -0.2,0 0,0.1 -0.1,0 m 0.4,-1.8 -0.1,1.6 m 0.6,-14.5 -0.1,0 -0.1,-0.1 m 0.3,0.1 0,0 0,-0.1 0,-0.2 0,-0.2 0,-0.2 0,-0.3 0,-0.2 0,-0.3 0,-0.2 0,-0.2 0,-0.2 0,-0.1 m 1.6,-0.1 0,0 m 0,2.4 0,0 0,-0.1 0,-0.2 0,-0.2 0,-0.2 0,-0.3 0,-0.3 0,-0.2 0,-0.3 0,-0.2 0,-0.2 0,-0.1 0,-0.1 m -0.2,0 0,0 m 0,2.4 0,0 0,-0.1 0,-0.2 0,-0.2 0,-0.2 0,-0.3 0,-0.3 0,-0.2 0,-0.3 0,-0.2 0,-0.2 0,-0.1 0,-0.1 m 1.8,0 0,0 m 0,2.4 0,0 0,-0.1 0,-0.2 0,-0.2 0,-0.2 0,-0.3 0,-0.3 0,-0.2 0,-0.3 0,-0.2 0,-0.2 0,-0.1 0,-0.1 m 0.2,0 0,0 m 0,2.4 0,0 0,-0.1 0,-0.2 0,-0.2 0,-0.2 0,-0.3 0,-0.3 0,-0.2 0,-0.3 0,-0.2 0,-0.2 0,-0.1 0,-0.1 m -2.8,0.3 0,0 m 0,1.8 0,0 0,-0.1 0,-0.1 0,-0.1 0,-0.2 0,-0.2 0,-0.3 0,-0.2 0,-0.2 0,-0.2 0,-0.1 0,-0.1 m 1.5,16.4 0.2,-2.7 0.3,-2.8 0,-2.7 0,-2.2 -0.2,-2.2 -0.4,-2.1 m 0.1,14.7 0.3,-0.2 0.1,0 0,-0.1 m 0.5,-15 0.1,1.3 0.1,1.4 0.2,1.4 0,1.4 -0.1,1.4 -0.1,1.4 -0.2,1.7 -0.2,1.7 -0.2,1.7 -0.1,1.6 m 0.5,-15 0,0 -0.3,0.1 -0.4,0.3 -0.3,0.2 m 0.5,14.4 0,0 0,0.1 0,0.1 -0.2,0 -0.2,0.1 m 1,-14.7 0,0 0,-0.2 0,-0.2 -0.1,0 0,-0.2 m -1.1,2.9 -0.1,0.6 -0.2,1 -0.1,0.9 0,1.3 0.1,1.2 0.1,1.3 0.1,1.1 0.1,1.1 0,1 0,1.1 -0.1,1 -0.2,1 m 0,0 0,0 0.1,0 0.1,-0.1 0.3,-0.1 m -0.1,-14.7 0,0.2 0,0.1 m 0.1,14.4 -0.3,0.2 -0.1,0 -0.1,0 m 1.3,-16.8 -0.1,-1 0,-1.2 0,-1.1 -0.1,-1.2 0,-1.2 0,-1.1 -0.1,-1.2 -0.1,-1.7 -0.1,-1.6 -0.1,-1.6 -0.2,-1.5 m 0,0 -0.3,-0.2 -0.1,0 -0.1,0 m 0.4,14.7 0.1,-0.9 -0.1,-0.9 -0.2,-0.9 -0.2,-1 -0.1,-0.9 0,-1.3 0.1,-1.2 0.1,-1.3 0.1,-1.1 0.1,-1.1 0,-1 0,-1.1 -0.1,-1 -0.2,-1 m 0.4,14.7 0,0 0.1,0 0.3,0 0.1,0 0.1,0 0.3,-0.1 m -0.9,0 0,0 0,0.1 m 0.9,-0.1 0.1,0 m -1.4,2.2 0,0 0,-0.1 0,-0.1 0,-0.2 0,-0.2 0,-0.2 0,-0.3 0,-0.3 0,-0.2 0,-0.3 0,-0.1 0,-0.2 m 1,-12.5 -0.1,-1.6 m 0,-0.1 0,0 0,-0.1 -0.2,0 -0.2,-0.1 m -11.2,17.6 -5.9,0 m -0.2,0 -7.2,0 m 0,0 0,-4.2 m 0,0 7.2,0 m 0.2,0 5.9,0 m -13.8,3.9 0.1,0 0.1,0 0.1,0 0,-0.1 0.1,-0.1 0.1,-0.1 0,-0.1 m -0.9,0.4 0.4,0 m -0.9,1.1 0,0.1 m 1.4,0 0,0 m -1.4,0 0.7,0 m 0.3,0 0.4,0 m 13.3,-6 -5.9,0 m -0.2,0 -7.6,0 m 0,0.3 0,0.6 m 0,0 7.6,0 m 0.2,0 5.9,0 m -13.7,5.1 7.6,0 m 0.2,0 5.9,0 m 0,-0.9 -5.9,0 m -0.2,0 -7.6,0 m 0,0 0,0.6 m -0.5,-4.7 0.1,0 0.1,0 0.1,0 0.1,0 0.1,0 0.1,0 m -0.2,-0.3 0,0 -0.1,0 -0.1,0 -0.1,0 -0.1,0 m 0.5,0 -0.1,0 m -20.1,1.8 0.3,0 m -0.3,1 0.3,0 m 0,0 0,-1 m 0,1.4 0,0 0,-0.1 0,-0.1 0,-0.2 m 0,-1 0,-0.2 0,-0.1 0,-0.1 m -7.8,0.4 0.3,0 m -0.3,1 0,-1 m 0,1 0.3,0 m -0.3,-1 0,-0.2 0,-0.1 0,-0.1 m 0,1.8 0,0 0,-0.1 0,-0.1 0,-0.2 m 27.6,-3.1 0,0.3 m -0.4,-0.3 0.4,0 m -0.4,0.3 0.4,0 m 0,-0.3 0,0 0.1,0 m -0.1,0.3 0,0 0.1,0 m -21.4,-0.5 0,-0.3 m -0.6,0 0,0.3 m 0.6,-0.3 0,0 -0.1,0 -0.1,0 -0.1,0 -0.1,0 -0.1,0 -0.1,0 m 0,0.3 0.1,0 0.1,0 0.1,0 0.1,0 0.1,0 0.1,0 m 0.1,-0.3 0,0.3 m -0.1,-0.3 0.1,0 m -0.1,0.3 0.1,0 m 0.2,-0.3 0,0 -0.1,0 -0.1,0 m 0,0.3 0.1,0 0.1,0 m -1.7,0 0,-0.3 m 0,0 0.8,0 m -0.8,0.3 0.8,0 m -2.2,0 0,-0.3 m -0.6,0 0,0.3 m 0.6,-0.3 -0.1,0 -0.1,0 -0.1,0 -0.1,0 -0.1,0 -0.1,0 m 0,0.3 0.1,0 0.1,0 0.1,0 0.1,0 0.1,0 0.1,0 m 0,-0.3 1.4,0 m -1.4,0.3 1.4,0 m -2,0 0,-0.3 m 0,0 0,0 m 0,0.3 0,0 m 0,-0.3 -0.1,0 m 0,0.3 0,0 0.1,0 m 4.3,-0.3 0,0.3 m -0.6,-0.3 0.6,0 m -0.6,0.3 0.6,0 m 0.2,-0.3 0,0 -0.1,0 -0.1,0 m 0,0.3 0.1,0 0.1,0 m -2.7,5.6 0,0.3 m 0.4,0 0,-0.3 m -0.4,0.3 0,0 0.1,0 0.1,0 0.1,0 0.1,0 m 0,-0.3 -0.1,0 -0.1,0 -0.1,0 -0.1,0 m 0.5,0 0,0.3 m 0,0 -0.1,0 m 0.1,-0.3 -0.1,0 m 0.5,0.3 0,-0.3 m -0.4,0.3 0.1,0 0.1,0 0.1,0 0.1,0 m 0,-0.3 0,0 -0.1,0 -0.1,0 -0.1,0 -0.1,0 m -0.6,0.3 0,-0.3 m 0.1,0.3 -0.1,0 m 0.1,-0.3 -0.1,0 m -2.1,0 0,0.3 m 0.5,0 0,-0.3 m -0.5,0.3 0.1,0 0.1,0 0.1,0 0.1,0 0.1,0 m 0,-0.3 -0.1,0 -0.1,0 -0.1,0 -0.1,0 -0.1,0 m 2.1,0.3 -1.6,0 m 1.6,-0.3 -1.6,0 m 4.2,0 0,0.3 m 0,0 -1.6,0 m 1.6,-0.3 -1.6,0 m 2.1,0.3 0,-0.3 m -0.5,0.3 0.1,0 0.1,0 0.1,0 0.1,0 0.1,0 m 0,-0.3 0,0 -0.1,0 -0.1,0 -0.1,0 -0.1,0 -0.1,0 m -4.7,0.3 0,-0.3 m 0,0.3 0,0 m 0,-0.3 0,0 m 5,-0.4 -7.2,0 m 7.2,-4.8 0,4.8 m -7.2,-4.8 7.2,0 m -7.2,4.8 0,-4.8 m -39.6,1.9 -0.2,0 -0.3,0 -0.4,0 -0.5,0 -0.7,0 -0.9,0 -0.7,0 -0.6,0 -1.4,0 -1.4,0 -1.5,0 -1.5,0 -1.5,0 -1.2,0 -1.7,0 m 0,0 0,0 0,0.1 0,0.1 0,0.1 0,0.1 m 0,0 0,0 1.7,0 0.7,0 0.2,0 0.1,0 m 0,0 0.2,0 1.5,0 1.6,0 1.4,0 1.5,0 1,0 0.9,0 0.9,0 1,0 0.8,0 0.6,0 0.5,0 0.3,0 m -0.4,-0.4 0.1,0 0.1,0 0,0.1 0.1,0 0.1,0.1 0,0.1 0,0.1 m 0,0.2 -0.3,0 -0.5,0 -0.6,0 -0.8,0 -1,0 -0.9,0 -0.9,0 -1,0 -0.8,0 -1.7,0 -1.7,0 -1.8,0 -0.2,0 m 12.2,0 0,-0.2 m -12.2,0.2 0,-0.2 m 0,0.2 0,0 -0.1,0 -0.2,0 -0.7,0 -1.7,0 m 0,0 0,0 0,0.1 0,0.1 0,0.1 0,0.1 m 0,0 2.9,0 1.5,0 1.5,0 1.5,0 1.4,0 0.9,0 0.9,0 0.9,0 0.9,0 0.7,0 0.6,0 0.5,0 0.3,0 m 0.4,-0.4 0,0 0,0.1 0,0.1 -0.1,0.1 -0.1,0 0,0.1 -0.1,0 -0.1,0 M 59,430.2 59,430 m 18.5,-0.4 -4,0 m 0,1 4,0 m 76.4,2.7 0,-0.2 m -0.2,0 0,0.2 m 0,0 0,0 0.1,0 0.1,0 m 0.9,0 0,-0.2 m 0,0 0,0 -0.1,0 -0.1,0 -0.1,0 -0.1,0 m 0.4,0.2 0,0 -0.1,0 -0.1,0 -0.1,0 -0.1,0 m -0.2,0 -0.3,0 m -3.2,0 0,-0.2 m 0,0.2 3,0 m -3.2,-0.2 0,0.2 m 0,0 0,0 0.1,0 0.1,0 m -12.2,-0.2 0,0 0.1,0 0.2,0 0.2,0 0.3,0 0.2,0 m -1,0.2 0,0 0.1,0 0.2,0 0.2,0 0.3,0 0.3,0 m 0,0 0.6,0 m 0.3,0 7.6,0 m 0.2,0 2.2,0 m 4.3,-6.2 0,-0.2 m 0,0 0,0 -0.1,0 -0.1,0 -0.1,0 -0.1,0 m 0.4,0.2 0,0 -0.1,0 -0.1,0 -0.1,0 -0.1,0 m -0.5,0 0,-0.2 m 0.3,0 -0.3,0 m -0.2,0 0,0.2 m 0.2,-0.2 0,0 -0.1,0 -0.1,0 m -3,0.2 0,-0.2 m 0,0 3,0 m -3.2,0 0,0.2 m 0.2,-0.2 0,0 -0.1,0 -0.1,0 m -10.9,0.2 0,-0.2 m 0,0 0.6,0 m 0.3,0 7.6,0 m 0.2,0 2.2,0 m -10.9,0.2 0.6,0 m -1.7,-0.2 0,0 0.1,0 0.2,0 0.2,0 0.3,0 0.3,0 m -1.1,0.2 0,0 0.1,0 0.2,0 0.2,0 0.3,0 0.3,0 m -82.4,-6.5 0,-0.2 m 1.3,0 -1.3,0 m 1.3,0.6 0,-0.6 m 3.9,3.9 -3.9,-3.3 m 3.9,-13.4 0,16.7 m -18,-16.7 18,0 m -3.9,31.6 3.9,-3.3 m -3.9,3.3 0,0.6 m 0,0 -1.3,0 m 0,-0.3 0,0.3 m 0,-0.3 0.7,-0.7 m 0,-1.7 0,1.7 m 0,-1.7 -0.9,0 m 0,0 0,-0.3 m 0.9,0 -0.9,0 m 0.9,-4 0,4 m -2.6,-4 -0.4,0 m 0,-0.2 0,0.2 m 0.4,-0.2 -0.4,0 m 2.1,0 0,-0.3 m 0.9,0 -0.9,0 m 0.9,-1.1 0,1.1 m 0,-1.1 -1.6,0 m 0,0 0,-0.6 m 0,-1 0,-0.4 m 1.4,-0.2 -1,0 m 0.9,-1.2 -0.6,0 m 0,-0.2 0,0.2 m 0.8,-0.2 -0.8,0 m 0.9,-4.3 0,4.3 m 0,-4.3 -0.9,0 m 0,-0.2 0,0.2 m 0.9,-0.2 -0.9,0 m 0.9,-1.7 0,1.7 m -0.7,-2.5 0.7,0.8 m 4.5,31.2 -18,0 m 0,0 0,-22 m 0,-1 0,-22 m 18,28.3 0,16.7 m -3.8,-14.4 0,0 -0.1,0.1 0,0.1 0,0.1 -0.1,0 0,0.1 0,0.1 -0.1,0 0,0.1 0,0.1 -0.1,0 m 0.4,-16.9 0,0 0,-0.1 -0.1,0 0,-0.1 0,-0.1 -0.1,0 0,-0.1 0,-0.1 -0.1,0 0,-0.1 0,-0.1 -0.1,0 m -0.2,7.5 0,0 0.1,-0.1 0,-0.1 -0.1,0 -0.1,0.1 0.1,0 0,0.1 m 0.3,-1.3 -0.3,0 m 0,0 -2.7,2.1 m 3,0 0,-2.1 m -0.6,0.7 -1.8,1.4 m 2.1,-1.2 0,0 0.1,-0.1 0,-0.1 -0.1,0 -0.1,0.1 0.1,0 0,0.1 m 0,-0.4 0,-0.1 0.1,0 0,-0.1 -0.1,0 -0.1,0.1 0.1,0 0,0.1 m -0.3,1.6 0,-1.4 m 0,4.4 0,0.2 m 0.2,-0.2 -0.2,0 m 0.2,0.2 -0.2,0 m 0.2,-0.2 0,0.2 m -0.2,-0.2 -2.4,0 m 2.4,0.2 -2.4,0 m 3.3,-5.2 0,0.3 m 0,0 0,0 -0.1,0 -0.1,0 -0.1,0 m 0.3,-0.3 0,0 -0.1,0 -0.1,0 -0.1,0 m 0.4,0.3 0,0 -0.1,0 m 0.1,-0.3 0,0 -0.1,0 m -1.6,0 0,0.3 m 1,0 0,0 m -0.5,0 -0.5,0 m 0.8,-0.3 -0.8,0 m 1.6,4.7 0,0.3 m 0,-0.3 0,0 -0.1,0 -0.1,0 -0.1,0 -0.1,0 -0.1,0 m 0,0 0,0.3 m 0.5,0 0,0 -0.1,0 -0.1,0 -0.1,0 -0.1,0 -0.1,0 m 0.6,-0.3 0,0 -0.1,0 m 0.1,0.3 0,0 -0.1,0 m -1.6,-0.3 0,0.3 m 1.1,-0.3 -1.1,0 m 1.1,0.3 -0.2,0 m 0.7,4.2 0,0.3 m -0.5,-0.3 0,0.3 m 0.5,-0.3 0,0 -0.1,0 -0.1,0 -0.1,0 -0.1,0 -0.1,0 m 0.5,0.3 0,0 -0.1,0 -0.1,0 -0.1,0 -0.1,0 -0.1,0 m 0.6,-0.3 0,0 -0.1,0 m 0.1,0.3 0,0 -0.1,0 m -1.6,-0.3 0,0.3 m 1.1,-0.3 -1.1,0 m 1.1,0.3 -1.1,0 m 1.6,-14 0,0.3 m -0.5,-0.3 0,0.3 m 0.5,-0.3 0,0 -0.1,0 -0.1,0 -0.1,0 -0.1,0 -0.1,0 m 0.5,0.3 0,0 -0.1,0 -0.1,0 -0.1,0 -0.1,0 -0.1,0 m 0.6,-0.3 0,0 -0.1,0 m 0.1,0.3 0,0 -0.1,0 m -1.6,-0.3 0,0.3 m 1.1,-0.3 -1.1,0 m 1.1,0.3 -1.1,0 m 1.5,6.9 -0.2,0 m 0,-0.4 0.2,0 m 0,0 0.1,-0.1 0.1,0 0,-0.1 0.1,0 0.1,0.1 0.1,0 m -0.1,0.4 0,0 0.1,0 m 0,0.2 -0.1,0 -0.1,0.1 -0.1,0 0,-0.1 -0.1,0 -0.1,-0.1 m 0.5,-0.3 0,0 -0.1,0 m -16.4,0.6 0,-1 m 15.8,1 0,-1 m 0,0 -15.8,0 m 15.8,1 -15.8,0 m 70.5,-23.9 0,-40 m 0,0 9.1,0 9.1,0 3,0 3,0 3,0 2.3,0 2.3,0 1.1,0 1.1,0 0.6,0 0.6,0 0.5,0 0.2,0 0.1,0 m -36,40 9.1,0 9.1,0 3,0 3,0 3,0 2.3,0 2.3,0 1.1,0 1.1,0 0.6,0 0.6,0 0.5,0 0.2,0 0.1,0 m -36,86.8 0,-40 m 0,40 9.1,0 9.1,0 3,0 3,0 3,0 2.3,0 2.3,0 1.1,0 1.1,0 0.6,0 0.6,0 0.5,0 0.2,0 0.1,0 m -36,-40 9.1,0 9.1,0 3,0 3,0 3,0 2.3,0 2.3,0 1.1,0 1.1,0 0.6,0 0.6,0 0.5,0 0.2,0 0.1,0 m -9,-2.1 0,0.3 m -1.8,-0.3 0,0.3 m 1.8,0 -0.2,0 -0.3,0 -0.2,0 -0.3,0 -0.2,0 -0.2,0 -0.2,0 -0.2,0 m 1.8,-0.3 -0.2,0 -0.3,0 -0.2,0 -0.3,0 -0.2,0 -0.2,0 -0.2,0 -0.2,0 m 1.8,0.3 0.7,0 m -0.7,-0.3 0.7,0 m 0,0.3 0,-0.3 m 0.6,0.3 -0.6,0 m 0,-0.3 0.6,0 m -4.8,0 0,0.3 m -1.8,-0.3 0,0.3 m 0,0 1.8,0 m -1.8,-0.3 1.8,0 m 1.7,0.3 -1.7,0 m 1.7,-0.3 -1.7,0 m 4.8,-5.1 0,0.3 m -1.3,-0.3 1.3,0 m -1.3,0 0,0.3 m 0,0 1.3,0 m -3.1,-0.3 0,0.3 m 1.8,0 -0.2,0 -0.3,0 -0.2,0 -0.3,0 -0.2,0 -0.2,0 -0.2,0 -0.2,0 m 1.8,-0.3 -0.2,0 -0.3,0 -0.2,0 -0.3,0 -0.2,0 -0.2,0 -0.2,0 -0.2,0 m -3,0 0,0.3 m -0.5,-0.3 0,0.3 m 0.5,0 -0.1,0 -0.1,0 -0.1,0 -0.1,0 -0.1,0 m 0.5,-0.3 -0.1,0 -0.1,0 -0.1,0 -0.1,0 -0.1,0 m 3.5,0.3 -3,0 m 3,-0.3 -3,0 m 6.1,-1.5 0.2,0 m -0.2,7.3 0,-7.3 m 0,7.3 0.2,0 m 0,0 0,-7.3 m 0.6,-36.6 -0.3,0 m 0.3,7.1 -0.3,0 m 0,0 0,-7.1 m 0.3,7.1 0,-7.1 m -0.6,1.3 0.3,0 m -0.3,4.5 0.3,0 m 0.5,0.3 -0.2,0 m 0.2,0 0,-0.5 m 0,0 -0.2,0 m 3.8,-0.6 0,0 0,-0.1 0,-0.2 0,-0.2 0,-0.2 0,-0.3 0,-0.3 0,-0.3 0,-0.3 0,-0.3 0,-0.3 0,-0.2 0,-0.2 0,-0.1 m -0.7,3 0,0 0,-0.1 0,-0.2 0,-0.2 0,-0.2 0,-0.3 0,-0.3 0,-0.3 0,-0.3 0,-0.3 0,-0.3 0,-0.2 0,-0.2 0,-0.1 m -2,3 0,-3 m 0,0 -1.1,0 m 1.1,3 -1.1,0 m -0.6,-4.9 0.3,0 m -0.3,0.6 0.3,0 m 3,4.2 0,0 0,-0.1 0,-0.2 0,-0.2 0,-0.2 0,-0.3 0,-0.3 0,-0.3 0,-0.3 0,-0.3 0,-0.2 0,-0.2 0,-0.1 0,-0.1 m -2.5,-1.8 -0.2,0 m 0.2,0.2 0,-0.2 m 0,0.2 -0.2,0 m -1.8,5.7 1,0 m 0.2,0 0.3,0 m -1.5,0.8 1,0 m 0.2,0 0.3,0 m -1.5,-0.8 0,0.8 m 2.9,-1.6 -1.1,0 m 1.1,0 0,-0.4 m 0,-3.4 -1.1,0 m 1.1,0.4 0,-0.4 m 0,4.2 0,-0.1 0,-0.1 0,-0.2 m 0,-3.8 0,-0.1 0,-0.1 0,-0.1 m -2.2,-0.6 0,0.3 m 0,0.4 0,0.9 m 0,-1.6 0.3,0 m 0.2,0 0.3,0 m -0.8,1.6 0.3,0 m 1,3.7 0,0 m 0,0.2 0,-0.2 m 0,0.2 -0.2,0 m -0.6,-0.2 0.3,0 m 0.3,37.8 -0.3,0 m 0.3,-7.1 -0.3,0 m 0,7.1 0,-7.1 m 0.3,7.1 0,-7.1 m -0.6,5.9 0.3,0 m -0.3,-4.5 0.3,0 m 0.5,4.8 -0.2,0 m 0.2,0 0,-0.6 m 0,0 -0.2,0 m 3.1,-0.5 0,0 0,-0.1 0,-0.2 0,-0.2 0,-0.3 0,-0.3 0,-0.3 0,-0.3 0,-0.3 0,-0.3 0,-0.2 0,-0.2 0,-0.2 0,-0.1 m 0.7,3 0,0 0,-0.1 0,-0.2 0,-0.2 0,-0.3 0,-0.3 0,-0.3 0,-0.3 0,-0.3 0,-0.3 0,-0.2 0,-0.2 0,-0.2 0,-0.1 m -2.7,3 0,-3 m 0,0 -1.1,0 m 1.1,3 -1.1,0 m -0.6,-4.9 0.3,0 m -0.3,0.5 0.3,0 m 3,4.3 0,0 0,-0.1 0,-0.2 0,-0.2 0,-0.3 0,-0.2 0,-0.3 0,-0.4 0,-0.2 0,-0.3 0,-0.3 0,-0.1 0,-0.2 m -2.5,-1.7 -0.2,0 m 0.2,0 0,-0.2 m 0,0 -0.2,0 m -1.7,6 0.9,0 m 0.2,0 0.3,0 m -1.5,0.5 0,0.3 m 0,0 1,0 m 0.2,0 0.3,0 m 1.4,-5.4 -1.1,0 m 1.1,0.4 0,-0.4 m 0,3.8 -1.1,0 m 1.1,0 0,-0.4 m 0,0.7 0,0 0,-0.1 0,-0.1 0,-0.1 m 0,-3.8 0,-0.2 0,-0.1 0,-0.1 m -2.2,-0.5 0.3,0 m 0.2,0 0.3,0 m -0.8,0 0,0.6 m 0,0.3 0,0.7 m 0,0 0.3,0 m 1,3.9 0,-0.2 m 0,0.2 -0.2,0 m 0.2,-0.2 0,0 m -0.8,0 0.3,0 m -24.6,-18.5 0,0 m 0.7,0.2 0.2,0 0.3,0 0.1,0 0.2,0 m -1.6,0 0,0 0.1,0 0.1,0 0.2,0 0.2,0 0.2,0 m -1.4,-0.2 0,0 0.1,0 0.1,0 0.2,0 0.2,0 0.1,0 m 23.2,-19.7 -4.1,0 m 4.1,0 0,-3.2 m 0.8,0 -0.8,0 m 0.8,-0.4 0,0.4 m 0,-0.4 -0.8,0 m 0,-0.4 0,0.4 m -4.1,-0.4 0,0.4 m 0,0 -0.7,0 m 0,0 0,0.4 m 0.7,0 -0.7,0 m 0.7,3.2 0,-3.2 m 2.6,-1.5 0,0.4 m 1.5,-0.6 0,0 -0.1,0 -0.1,0 -0.2,0 -0.2,0 -0.2,0 -0.3,0 -0.2,0 -0.1,0 -0.2,0 m 0.1,0.2 -0.2,0 -0.2,0 -0.1,0 -0.1,0 -0.1,0 m -21,19.6 0,0 m 1.5,-0.2 0,0 -0.2,0 -0.1,0 -0.3,0 -0.2,0 -0.2,0 -0.2,0 -0.2,0 -0.1,0 -0.1,0 m 0.1,0.2 -0.1,0 -0.2,0 -0.2,0 -0.1,0 -0.1,0 m 19.8,19.7 4.1,0 m -4.1,0 0,3.2 m -0.7,0 0.7,0 m -0.7,0.4 0,-0.4 m 0,0.4 0.7,0 m 0,0.4 0,-0.4 m 4.1,0.4 0,-0.4 m 0,0 0.8,0 m 0,0 0,-0.4 m -0.8,0 0.8,0 m -0.8,-3.2 0,3.2 m -1.5,1.1 0,0.4 m 0.7,0.2 0.2,0 0.2,0 0.2,0 0.1,0 0.1,0 m -1.6,0 0,0 0.2,0 0.1,0 0.2,0 0.3,0 m -1.4,-0.2 0,0 0.1,0 0.1,0 0.1,0 0.2,0 0.2,0 m -1.4,-5.9 0.3,0 m -0.3,0 0,0.1 m 0,0.3 0,0.8 m 0,4.3 0,0.1 m 0,0 0.3,0 m 0,-5.6 0,0.1 m 0,0.3 0,0.8 m 0,4.3 0,0.1 m 0,-37.8 -0.3,0 m 0,0 0,-0.1 m 0,-0.3 0,-0.8 m 0,-4.3 0,-0.1 m 0.3,5.6 0,-0.1 m 0,-0.3 0,-0.8 m 0,-4.3 0,-0.1 m 0,0 -0.3,0 m 3.8,5.2 0,0.3 m -1.3,-0.3 1.3,0 m -1.3,0 0,0.3 m 0,0 1.3,0 m -1.3,-0.3 -0.2,0 -0.3,0 -0.2,0 -0.3,0 -0.2,0 -0.2,0 -0.2,0 -0.2,0 m 0,0 0,0.3 m 1.8,0 -0.2,0 -0.3,0 -0.2,0 -0.3,0 -0.2,0 -0.2,0 -0.2,0 -0.2,0 m -1.7,-0.3 0,0.3 m 1.7,-0.3 -1.7,0 m 1.7,0.3 -1.7,0 m -1.8,-0.3 0,0.3 m 1.8,-0.3 -1.8,0 m 1.8,0.3 -1.8,0 m 6.6,-5.8 0.2,0 m -0.2,7.3 0,-7.3 m 0,7.3 0.2,0 m 0,0 0,-7.3 m -1.5,0.4 0,0.3 m 0,0 0.7,0 m 0,0 0,-0.3 m -0.7,0 0.7,0 m -2.5,0 0,0.3 m 1.8,0 -0.2,0 -0.3,0 -0.2,0 -0.3,0 -0.2,0 -0.2,0 -0.2,0 -0.2,0 m 1.8,-0.3 -0.2,0 -0.3,0 -0.2,0 -0.3,0 -0.2,0 -0.2,0 -0.2,0 -0.2,0 m 3.1,0.3 -0.6,0 m 0,-0.3 0.6,0 m -5.7,0 0,0.3 m 2.6,0 -2.6,0 m 2.6,-0.3 -2.6,0 m -0.9,0 0,0.3 m 0,0 0.9,0 m -0.9,-0.3 0.9,0 m 3.3,4.8 0,0 0,0.1 0,0.1 0,0.1 m 1.3,-0.3 0,0 0,0.1 0,0.1 0,0.1 m -1.3,33 0,0 0,0.1 0,0.1 0,0.1 m 1.3,-0.3 0,0 0,0.1 0,0.1 0,0.1 M 59,430.2 l -0.1,0 0,0.1 -0.1,0 -0.1,0 0,-0.1 -0.1,0 0,-0.1 0,-0.1 0.1,0 0,-0.1 0.1,0 0.1,0 0,0.1 0.1,0 0,0.1 0,0.1 m 100,-1.3 -0.2,0 m -2.1,-0.9 0,0.2 0,0.2 0,0.3 0,0.4 0,0.4 0,0.3 0,0.4 0,0.4 0,0.4 0,0.4 0,0.3 0,0.3 0,0.2 m 4.5,-4.6 0,0 0,0.1 0,0.1 0,0.1 0,0.3 0,0.2 0,0.3 0,0.4 0,0.4 0,0.3 0,0.4 0,0.4 0,0.4 0,0.4 0,0.3 0,0.3 0,0.2 0,0.2 0,0.1 0,0.1 m -2.2,-1.3 -0.2,0 m 3,-2.6 0,0 0,0.1 0,0.2 0,0.2 0,0.2 0,0.3 0,0.3 0,0.3 0,0.3 0,0.3 0,0.2 0,0.2 0,0.1 0,0.1 m -5.8,-2.8 0,0 0,0.1 0,0.2 0,0.2 0,0.2 0,0.3 0,0.3 0,0.3 0,0.3 0,0.3 0,0.2 0,0.2 0,0.1 0,0.1 m 3,0.3 0,0.2 0,0.2 0,0.2 0,0.2 0,0.2 0,0.1 m 0,-1.1 -0.2,0 m 0,0 0,0.2 0,0.2 0,0.2 0,0.2 0,0.2 0,0.1 m 0.2,-4.5 -0.2,0 m 0,-1.1 0,0.1 0,0.2 0,0.2 0,0.2 0,0.2 0,0.2 m 0.2,-1.1 0,0.1 0,0.2 0,0.2 0,0.2 0,0.2 0,0.2 m 0,2.9 0,0.5 m -0.2,-0.5 0,0.5 m 0,-2.9 0,-0.5 m 0.2,0.5 0,-0.5 m -3.2,1.1 0,0 0,0.1 0,0.1 0,0.2 0,0.2 0,0.2 0,0.2 0,0.1 0,0.1 m 3.8,1.5 0,0 m 0,0.4 0,0 0,-0.1 0,-0.1 0,-0.1 0,-0.1 m 0,-4.2 0,0 0,-0.1 0,-0.1 0,-0.1 0,-0.1 m -5.2,-0.8 -0.2,0 m 0.2,0 0,0 0,-0.1 0,-0.1 0,-0.1 m 0,0 -0.2,0 m 0,0.3 0,0 0,-0.1 0,-0.1 0,-0.1 m 0.2,6.9 -0.2,0 m 0.2,0 0,-6.6 m -0.2,6.6 0,-6.6 m 0.2,6.9 -0.2,0 m 0.2,-0.3 0,0 0,0.1 0,0.1 0,0.1 m -0.2,-0.3 0,0 0,0.1 0,0.1 0,0.1 m -5.9,-0.6 -0.2,0 m 0.2,0 0,-6 m 0,0 -0.2,0 m 0,6 0,-6 m 0.2,6.9 -0.2,0 m 0.2,0 0,0 0,-0.1 0,-0.1 0,-0.2 0,-0.1 0,-0.2 0,-0.2 m -0.2,0.9 0,0 0,-0.1 0,-0.1 0,-0.2 0,-0.1 0,-0.2 0,-0.2 m 0.2,-6.9 -0.2,0 m 0.2,0.9 0,-0.2 0,-0.2 0,-0.1 0,-0.2 0,-0.1 0,-0.1 m -0.2,0.9 0,-0.2 0,-0.2 0,-0.1 0,-0.2 0,-0.1 0,-0.1 m -22.6,9.3 -0.3,0 m 0.3,-1.5 -0.3,0 m 0,0 0,0.3 0,0.3 0,0.2 0,0.2 0,0.2 0,0.1 0,0.1 0,0.1 m 0.3,-1.5 0,0.3 0,0.3 0,0.2 0,0.2 0,0.2 0,0.1 0,0.1 0,0.1 m 0,-9.3 -0.3,0 m 0.3,-1.5 -0.3,0 m 0,1.5 0,-0.3 0,-0.3 0,-0.2 0,-0.2 0,-0.2 0,-0.1 0,-0.1 0,-0.1 m 0.3,1.5 0,-0.3 0,-0.3 0,-0.2 0,-0.2 0,-0.2 0,-0.1 0,-0.1 0,-0.1 m -0.3,9.3 0,-7.8 m 0.3,7.8 0,-7.8 m 0,9.8 -0.3,0 m 0,0 0,0 0,-0.1 0,-0.1 0,-0.1 0,-0.1 0,-0.1 m 0.3,0.5 0,0 0,-0.1 0,-0.1 0,-0.1 0,-0.1 0,-0.1 m 0,-11.3 -0.3,0 m 0,0 0,0 0,0.1 0,0.1 0,0.1 0,0.1 0,0.1 m 0.3,-0.5 0,0 0,0.1 0,0.1 0,0.1 0,0.1 0,0.1 m 0,11.5 -0.3,0 m 0,-0.2 0,0.2 m 0.3,-0.2 0,0.2 m 0,-12.2 -0.3,0 m 0,0.2 0,-0.2 m 0.3,0.2 0,-0.2 m 8,11.5 -0.3,0 m 0.3,-1.5 0,0.3 0,0.3 0,0.2 0,0.2 0,0.2 0,0.1 0,0.1 0,0.1 m 0,-1.5 -0.3,0 m 0,0 0,0.3 0,0.3 0,0.2 0,0.2 0,0.2 0,0.1 0,0.1 0,0.1 m 0.3,-9.3 -0.3,0 m 0.3,-1.5 -0.3,0 m 0.3,1.5 0,-0.3 0,-0.3 0,-0.2 0,-0.2 0,-0.2 0,-0.1 0,-0.1 0,-0.1 m -0.3,1.5 0,-0.3 0,-0.3 0,-0.2 0,-0.2 0,-0.2 0,-0.1 0,-0.1 0,-0.1 m 0.3,9.3 0,-7.8 m -0.3,7.8 0,-7.8 m 0.3,9.8 -0.3,0 m 0.3,0 0,0 0,-0.1 0,-0.1 0,-0.1 0,-0.1 0,-0.1 m -0.3,0.5 0,0 0,-0.1 0,-0.1 0,-0.1 0,-0.1 0,-0.1 m 0.3,-11.3 -0.3,0 m 0.3,0 0,0 0,0.1 0,0.1 0,0.1 0,0.1 0,0.1 m -0.3,-0.5 0,0 0,0.1 0,0.1 0,0.1 0,0.1 0,0.1 m 0.3,11.5 -0.3,0 m 0.3,-0.2 0,0.2 m -0.3,-0.2 0,0.2 m 0.3,-12.2 -0.3,0 m 0.3,0.2 0,-0.2 m -0.3,0.2 0,-0.2 m 7.3,10.6 -0.3,0 m 0.3,-1.5 0,0.3 0,0.3 0,0.2 0,0.3 0,0.2 0,0.1 0,0.1 m 0,-1.5 -0.3,0 m 0,0 0,0.3 0,0.3 0,0.2 0,0.3 0,0.2 0,0.1 0,0.1 m 0.3,-7.5 -0.3,0 m 0,0.3 0,-0.3 m 0.3,0.3 0,-0.3 m -0.3,0.3 0.3,0 m 0,-0.3 0,-0.3 0,-0.3 0,-0.3 0,-0.2 0,-0.2 0,-0.1 0,-0.1 m 0,0 -0.3,0 m 0,1.5 0,-0.3 0,-0.3 0,-0.3 0,-0.2 0,-0.2 0,-0.1 0,-0.1 m 0.3,7.5 0,-0.3 m -0.3,0.3 0,-0.3 m 0,0 0.3,0 m -0.3,-5.4 0,0.1 m 0,0.3 0,0 m -83.2,3 0,-0.1 0,-0.1 m 0,-1 0,0 0,-0.1 0,-0.1 m 99,1.4 0,-0.1 m 0,-1.2 0,0 0,-0.1 M 95.4,427.6 95,426.9 m 0.1,0.6 0.1,0.2 m 5.3,-2.7 -0.1,-0.2 m -5.4,8.5 0.4,-0.7 m -0.2,-0.1 -0.1,0.2 m 5.3,2.7 0.1,-0.2 m -5.8,-7.1 0,0 m 7.8,-2.8 0,-1.1 m -7.8,7.9 0,0 m 7.8,3.9 0,-1.1 m 38.1,-6.8 0,-0.1 m -0.1,-0.1 0,0 -0.1,-0.1 m 0.2,4.1 0,-3.8 m 0,0 0.3,0 m -63,2.1 -4,0 m 0,-0.2 4,0 m 61.7,3.3 0,-0.2" /></g></svg>