<?xml version="1.0" encoding="UTF-8" standalone="no"?>
<!-- Created with Inkscape (http://www.inkscape.org/) -->

<svg
   xmlns:dc="http://purl.org/dc/elements/1.1/"
   xmlns:cc="http://creativecommons.org/ns#"
   xmlns:rdf="http://www.w3.org/1999/02/22-rdf-syntax-ns#"
   xmlns:svg="http://www.w3.org/2000/svg"
   xmlns="http://www.w3.org/2000/svg"
   xmlns:sodipodi="http://sodipodi.sourceforge.net/DTD/sodipodi-0.dtd"
   xmlns:inkscape="http://www.inkscape.org/namespaces/inkscape"
   id="svg4785"
   version="1.1"
   inkscape:version="0.48.2 r9819"
   width="560.85455"
   height="368.74164"
   xml:space="preserve"
   sodipodi:docname="knifeEdgeCourse.svg"><metadata
     id="metadata4791"><rdf:RDF><cc:Work
         rdf:about=""><dc:format>image/svg+xml</dc:format><dc:type
           rdf:resource="http://purl.org/dc/dcmitype/StillImage" /><dc:title></dc:title></cc:Work></rdf:RDF></metadata><defs
     id="defs4789" /><sodipodi:namedview
     pagecolor="#ffffff"
     bordercolor="#666666"
     borderopacity="1"
     objecttolerance="10"
     gridtolerance="10"
     guidetolerance="10"
     inkscape:pageopacity="0"
     inkscape:pageshadow="2"
     inkscape:window-width="2560"
     inkscape:window-height="1538"
     id="namedview4787"
     showgrid="false"
     inkscape:zoom="1.745121"
     inkscape:cx="-23.140757"
     inkscape:cy="195.46163"
     inkscape:window-x="1192"
     inkscape:window-y="1042"
     inkscape:window-maximized="1"
     inkscape:current-layer="g4793"
     fit-margin-top="0"
     fit-margin-left="0"
     fit-margin-right="0"
     fit-margin-bottom="0" /><g
     id="g4793"
     inkscape:groupmode="layer"
     inkscape:label="knifeEdgeCourse"
     transform="matrix(1.25,0,0,-1.25,-176.59128,630.60401)"><text
       transform="matrix(1.000301,0,0,-1,456.6558,426.8467)"
       id="text4795"><tspan
         style="font-size:12px;font-variant:normal;font-weight:normal;font-stretch:normal;writing-mode:lr-tb;fill:#808080;fill-opacity:1;fill-rule:nonzero;stroke:none;font-family:Century Gothic;-inkscape-font-specification:CenturyGothic"
         x="0 6.650001 13.300002 16.625002 23.275003"
         y="0"
         sodipodi:role="line"
         id="tspan4797">27.5 </tspan></text>
<g
       id="g4799"
       transform="translate(472.5,375.3)"><path
         d="M 0,0 -0.1,0.5 -0.2,0.9 -0.3,1.4 -0.5,1.8 -0.7,2.2 -1,2.6 -1.4,3 -1.8,3.3 -2.2,3.5 -2.6,3.7 -3.1,3.9 -3.6,3.9 -4,4 -4.5,3.9 -5,3.9 -5.5,3.7 -5.9,3.5 -6.3,3.3 -6.7,3 -7,2.6 -7.3,2.2 -7.6,1.8 -7.8,1.4 -7.9,0.9 -8,0.5 -8,0 l 0,-0.5 0.1,-0.5 0.1,-0.4 0.2,-0.5 0.3,-0.4 0.3,-0.4 0.3,-0.3 0.4,-0.3 0.4,-0.3 0.4,-0.2 0.5,-0.1 0.5,-0.1 0.5,0 0.4,0 0.5,0.1 0.5,0.1 0.4,0.2 0.4,0.3 0.4,0.3 0.4,0.3 0.3,0.4 0.2,0.4 0.2,0.5 0.1,0.4 0.1,0.5 L 0,0 m -6.3,-5.7 4.6,11.4"
         style="fill:none;stroke:#808080;stroke-width:0.50999999;stroke-linecap:butt;stroke-linejoin:miter;stroke-miterlimit:10;stroke-opacity:1;stroke-dasharray:none"
         id="path4801"
         inkscape:connector-curvature="0" /></g><text
       transform="matrix(1.000301,0,0,-1,475.1164,370.9196)"
       id="text4803"><tspan
         style="font-size:12px;font-variant:normal;font-weight:normal;font-stretch:normal;writing-mode:lr-tb;fill:#808080;fill-opacity:1;fill-rule:nonzero;stroke:none;font-family:Century Gothic;-inkscape-font-specification:CenturyGothic"
         x="0 6.650001 9.9750013 16.625002"
         y="0"
         sodipodi:role="line"
         id="tspan4805">2.8 </tspan></text>
<text
       transform="matrix(1.000301,0,0,-1,332.9534,471.8516)"
       id="text4807"><tspan
         style="font-size:12px;font-variant:normal;font-weight:normal;font-stretch:normal;writing-mode:lr-tb;fill:#808080;fill-opacity:1;fill-rule:nonzero;stroke:none;font-family:Century Gothic;-inkscape-font-specification:CenturyGothic"
         x="0 6.650001 13.300002 19.950003 23.275003 29.925005"
         y="0"
         sodipodi:role="line"
         id="tspan4809">108.3 </tspan></text>
<text
       transform="matrix(1,0,0,-1,461.5684,496.8836)"
       id="text4811"><tspan
         style="font-size:12px;font-variant:normal;font-weight:normal;font-stretch:normal;writing-mode:lr-tb;fill:#000000;fill-opacity:1;fill-rule:nonzero;stroke:none;font-family:Courier New;-inkscape-font-specification:CourierNew"
         x="0 7.1999998 14.4 21.6 28.799999 36 43.200001 50.400002 57.599998 64.800003 72 79.199997 86.400002 93.599998 100.8 108 115.2 122.4"
         y="0"
         sodipodi:role="line"
         id="tspan4813">Vertical obstacles</tspan><tspan
         style="font-size:12px;font-variant:normal;font-weight:normal;font-stretch:normal;writing-mode:lr-tb;fill:#000000;fill-opacity:1;fill-rule:nonzero;stroke:none;font-family:Courier New;-inkscape-font-specification:CourierNew"
         x="-320.436 -313.23599 -306.03601 -298.836 -291.63599 -284.436 -277.23599 -270.03601 -262.836 -255.636 -248.436 -241.23599 -234.036 -226.836 -219.636 -212.436 -205.23599 -198.036 -190.836 -183.636 -176.436 -169.23599"
         y="285.13199"
         sodipodi:role="line"
         id="tspan4815">Motion capture cameras</tspan></text>
<g
       id="g5021"
       transform="translate(411.5,416.3)"><path
         d="M 0,0 1.8,9.3 4.5,8.4 0,0 m 0.3,30.7 3.3,8.9 2.5,-1.4 -5.8,-7.5 m -77.2,-204.3 -3.6,-8.8 -2.4,1.5 6,7.3 m 91.9,0 -8.7,-3.6 -0.7,2.8 9.4,0.8"
         style="fill:none;stroke:#000000;stroke-width:0.50999999;stroke-linecap:butt;stroke-linejoin:miter;stroke-miterlimit:10;stroke-opacity:1;stroke-dasharray:none"
         id="path5023"
         inkscape:connector-curvature="0" /></g><g
       id="g5025"
       transform="translate(468.2,446.1)"><path
         d="M 0,0 -1.4,9.4 1.5,9.4 0,0 m 0,-30.9 1.5,-9.4 -2.9,0 1.4,9.4 m -56.7,-1.3 4.4,-8.4 2.3,1.8 -6.7,6.6 m -1,62.4 -9.3,-1.4 0,2.9 9.3,-1.5 m -121.8,0 9.4,1.5 0,-2.9 -9.4,1.4"
         style="fill:none;stroke:#808080;stroke-width:0.50999999;stroke-linecap:butt;stroke-linejoin:miter;stroke-miterlimit:10;stroke-opacity:1;stroke-dasharray:none"
         id="path5027"
         inkscape:connector-curvature="0" /></g><g
       id="g5029"
       transform="translate(460,501.9)"><path
         d="m 0,0 -18,0 m 0,0 -30.5,-85.6 M 0,0 -18,0 m 0,0 -30.2,-54.9 m -110.9,-230.5 18,0 m 0,0 15.7,26.2 m -33.7,-26.2 18,0 m 0,0 107.6,26.2"
         style="fill:none;stroke:#000000;stroke-width:0.50999999;stroke-linecap:round;stroke-linejoin:round;stroke-miterlimit:10;stroke-opacity:1;stroke-dasharray:none"
         id="path5031"
         inkscape:connector-curvature="0" /></g><path
       inkscape:connector-curvature="0"
       id="path5039"
       style="fill:none;stroke:#000000;stroke-width:0.50999999;stroke-linecap:round;stroke-linejoin:round;stroke-miterlimit:10;stroke-opacity:1;stroke-dasharray:43.2, 3.6, 3.6, 3.6;stroke-dashoffset:8.139"
       d="m 311.4,320.2656 23.253,-77.51" /><path
       inkscape:connector-curvature="0"
       id="path5043"
       style="fill:none;stroke:#000000;stroke-width:0.50999999;stroke-linecap:round;stroke-linejoin:round;stroke-miterlimit:10;stroke-opacity:1;stroke-dasharray:43.2, 3.6, 3.6, 3.6;stroke-dashoffset:8.139"
       d="m 334.6526,242.7557 23.253,77.51" /><path
       inkscape:connector-curvature="0"
       id="path5047"
       style="fill:none;stroke:#000000;stroke-width:0.50999999;stroke-linecap:round;stroke-linejoin:round;stroke-miterlimit:10;stroke-opacity:1;stroke-dasharray:43.2, 3.6, 3.6, 3.6;stroke-dashoffset:8.139"
       d="m 403.335,320.2656 23.253,-77.51" /><path
       inkscape:connector-curvature="0"
       id="path5051"
       style="fill:none;stroke:#000000;stroke-width:0.50999999;stroke-linecap:round;stroke-linejoin:round;stroke-miterlimit:10;stroke-opacity:1;stroke-dasharray:43.2, 3.6, 3.6, 3.6;stroke-dashoffset:8.139"
       d="m 426.5876,242.7557 23.253,77.51" /><g
       id="g5053"
       transform="translate(414.1,446.1)"><path
         d="M 0,0 63.1,0 M 0,-30.9 l 63.1,0 m -9,30.9 0,18 m 0,-48.9 0,-18 m -56.7,16.7 28.7,-38.6 m 0,0 18,0 m -47.7,74.4 0,35.6 m -121.8,-41.5 0,41.5 m 121.8,-9 -44.3,0 m -77.5,0 40.9,0"
         style="fill:none;stroke:#808080;stroke-width:0.50999999;stroke-linecap:round;stroke-linejoin:round;stroke-miterlimit:10;stroke-opacity:1;stroke-dasharray:none"
         id="path5055"
         inkscape:connector-curvature="0" /></g><g
       id="g5057"
       transform="translate(411.5,416.3)"><path
         d="M 0,0 1.8,9.3 4.5,8.4 m -4.2,22.3 3.3,8.9 2.5,-1.4 m -83,-211.8 -3.6,-8.8 -2.4,1.5 m 97.9,7.3 -8.7,-3.6 -0.7,2.8"
         style="fill:#000000;fill-opacity:1;fill-rule:nonzero;stroke:none"
         id="path5059"
         inkscape:connector-curvature="0" /></g><g
       id="g5061"
       transform="translate(468.2,446.1)"><path
         d="m 0,0 -1.4,9.4 2.9,0 M 0,-30.9 l 1.5,-9.4 -2.9,0 m -55.3,8.1 4.4,-8.4 2.3,1.8 m -7.7,69 -9.3,-1.4 0,2.9 m -112.5,-1.5 9.4,1.5 0,-2.9"
         style="fill:#808080;fill-opacity:1;fill-rule:nonzero;stroke:none"
         id="path5063"
         inkscape:connector-curvature="0" /></g><path
       inkscape:connector-curvature="0"
       id="path5067"
       style="fill:none;stroke:#000000;stroke-width:0.16;stroke-linecap:round;stroke-linejoin:round;stroke-miterlimit:10;stroke-opacity:1;stroke-dasharray:none"
       d="m 282.9,427.1 0,-2.3 m 0.1,0 0,2.3 m -0.1,9.4 0,-2.3 m 0.1,0 0,2.3 m 8.1,-4 0,1.7 m 0,-7.1 0,1.6 m -11.5,1.5 0,0 m 0,0.8 0,0 m 0,-1.7 0,0 m 0,2.7 0,0 m -0.4,-2.4 0,0 m -0.1,0.1 0,0 m 0,1.9 0,-0.1 m 0.1,0.1 0,0 m -0.4,-2.4 0.1,0.2 m 0,2.5 -0.1,0.1 m -0.5,-0.6 -0.1,0 m 0,-1.5 0.1,0 m 0.3,0.8 0,0 m 0,-0.2 0,0 m -0.6,0.7 0,0 m 0,-0.3 0,0 m 0,-0.6 0,0 m 0,-0.2 0,0 m 1.6,0.4 0.1,0 m 0,0.3 -0.1,0 m 0.1,-0.3 0,0 0,0.1 m 0,0 0,0.1 0,0.1 m -0.1,0.7 0.1,0 m 0,0.3 -0.1,0 m 0.1,-0.3 0,0.1 m 0,0.1 0,0 0,0.1 m -0.1,-2.4 0.1,0.1 m 0,0.2 -0.1,0 m 0.1,-0.2 0,0 0,0.1 m 0,0 0,0 0,0.1 m -0.4,1.9 0,0 m -0.2,-0.1 0,0 m 0.2,-1.9 0,0.1 m -0.2,0 0,0 m 15.4,-3 0,0.2 0,0.1 0,0.1 m 0.2,1.4 0,0.1 0,0.3 0,0.2 0,0.3 0,0.1 0,0.1 0,0.1 0,0.1 0,0.1 0,0.1 0,0.1 0,0.2 0,0.1 m -0.3,-0.1 0,0 0,-0.1 0,-0.1 0,-0.1 0,-0.1 -0.1,-0.1 m -0.1,-0.9 0.1,-0.2 0,-0.3 0,-0.2 0,-0.2 0,-0.2 0,-0.1 0,-0.2 0,-0.1 0,-0.1 0,-0.1 0,-0.2 0,-0.1 0,-0.2 m 0,7.9 0,-0.2 0,-0.2 0,-0.1 0,-0.1 0,-0.1 0,-0.1 0,-0.1 0,-0.3 0,-0.2 0,-0.2 0,-0.2 0,-0.2 -0.1,-0.3 m 0.1,-0.9 0.1,-0.1 0,-0.1 m 0,0 0,-0.1 0,-0.1 0,-0.1 m 0.3,0 0,0.1 0,0.2 0,0.1 0,0.1 0,0.1 0,0.1 0,0.2 0,0.1 0,0.4 0,0.3 0,0.2 -0.1,0.3 0,0.3 0,0.3 -0.1,0.1 0,0.1 0,0.1 0,0.1 0,0.2 0,0.2 m -0.2,-4.2 0.1,0 m 0,0.6 -0.1,0 m 0.4,0 -0.1,0 m 0.5,0 -0.1,0 m 0,-0.6 0.1,0 m 0.4,0.6 0,0 m 0,-0.6 0,0 m 0,0.1 0.2,0 0.1,0 0.1,0 0.1,0.1 0.1,0.1 m 0,0 -0.1,0.1 0,0.1 -0.1,0 -0.1,0.1 -0.1,0 -0.2,0 m -0.5,-0.1 -0.2,0 m 0,-0.4 0.2,0 m 0.1,0.4 0,0 m 0,-0.3 0,0 m 0.3,0.3 0,0.1 0.1,0.1 0,0.1 0,0.2 0,0.1 0,0.1 0,0.1 0,0.1 0,0.2 0,0.3 0,0.3 0,0.2 m -0.2,1.3 0,0 0,0.2 0,0.2 m -0.2,0.1 0,-0.2 0,-0.2 0,-0.2 0,-0.3 0,-0.3 0,-0.3 0,-0.2 0,-0.2 -0.1,-0.1 0,-0.2 m 0.1,-0.8 0.1,-0.2 0,-0.1 0,-0.2 0,-0.1 m -0.2,-2 0.1,-0.2 0,-0.2 0,-0.1 0,-0.2 0,-0.2 0,-0.3 0,-0.3 0,-0.2 0,-0.3 0,-0.2 m 0.1,3.7 0,-0.1 0,-0.2 0,-0.2 -0.1,-0.1 m 0.3,0.5 0.1,0 m -0.4,0 0.1,0 m 0,0.6 -0.1,0 m 0.2,-4.1 0,0.2 0,0.1 0,0.1 0,0.1 0,0.1 0,0.2 0.1,0.2 0,0.3 0,0.3 0.1,0.3 0,0.3 0,0.2 0,0.3 0,0.1 0,0.1 0,0.1 0,0.1 0,0.1 0,0.2 0,0.1 m -13.5,0.1 0.1,0 m 0,0.5 -0.1,0 m 1.9,-0.5 0.1,0 m 0,0.5 -0.1,0 m 5.1,-0.9 0,0 m -5.8,1.3 0,0 m 0.2,0 0,0 m 0.3,-1.5 0,0.1 m -1,0 0,-0.1 m 0.7,0.1 0,0.1 m -0.2,0 0,-0.1 m 0.7,-0.1 0,0.1 m 4.6,1.5 0,0 m 0,-1.5 0,-0.1 m -20,-1.2 0,0.3 m 0,0.1 0,1 m 0,0.1 0,0.4 m 0,0.3 0,0.4 m 0,0.1 0,1 m 0,0.1 0,0.2 m -0.1,0.2 0,-0.4 m 0,-0.1 0,-1 m 0,-0.1 0,-0.4 m 0,-0.8 0,-1 m 0,-0.1 0,-0.5 m 2.5,2.4 -2.5,2 m 0.1,-0.2 2.3,-1.8 m -2.4,-2.4 2.5,2.1 m -0.1,0 -2.3,-1.9 m 0,3.7 0,0.1 m 0,-1.2 0,0.1 m 0,-1.3 0,0.1 m 0,-1.2 0,0.1 m 22.6,-14.2 0,10 m 0,11.7 0,10 m -1,-20.8 0.2,0 m 0,0.7 -0.2,0 m -0.5,-0.7 0.4,0 m 0,0.7 -0.4,0 m 0.4,-0.6 0.1,0 m 0,0.5 -0.1,0 m -0.4,0.3 -0.2,0 m -0.1,-1.1 0.3,0 m 0.5,9.3 0.2,0 m 0,0.8 -0.2,0 m -0.5,-0.7 0.4,0 m 0,0.7 -0.4,0 m 0.4,-0.6 0.1,0 m 0,0.5 -0.1,0 m -0.7,-0.8 0.3,0 m 0,1.1 -0.2,0 m -6.3,-5.8 0,0 m 0.4,0 0,0 m -0.5,0 0,0 m 5.9,6.1 0,0.1 m -0.4,0 0,-0.1 m -0.1,0 0,-0.1 m 0.1,-10.9 0,0 m 0.4,0 0,0.1 m -0.5,0 0,-0.1 m -4.9,6.1 0,0.1 m -0.4,0 0,-0.1 m -0.1,0 0,0 m 5.9,5 0,0.3 m 0,-1.7 0,0.2 m 0,-8.5 0,0 m 0,0.1 0,0.5 m 0,1.6 0,0.8 m 0,0.4 0,0.1 m 0,0 0,0.1 m 0,1.6 0,0.8 m 0,1.7 0,0.5 m 0,0 0,0.1 m 0,-8.5 0,0.1 m 0,-1.6 0,0.3 m -0.3,0 0,-0.3 m 0,1.6 0,-0.1 m 0,8.5 0,-0.1 m 0,0 0,-0.5 m 0,-1.7 0,-1.1 m 0,0 0,-0.1 m 0,-1.4 0,0 m 0,-0.1 0,-1.1 m 0,-1.6 0,-0.5 m 0,-0.1 0,0 m 0,8.5 0,-0.2 m 0,1.7 0,-0.3 m 5.1,-6.2 0.4,0 m 0,1.2 -0.4,0 m 0.4,-1.2 0.2,0.3 m 0,0.7 -0.2,0.2 m -1.2,0 -0.1,-0.2 m 0,-0.7 0.1,-0.2 m 0.6,-0.2 0.1,0 m 0,1.4 -0.1,0 m 1.2,-0.9 0.1,0 m 0,0.4 -0.1,0 m -1.9,-0.3 0,0 m 0,0.3 0,0 m -0.4,0.4 1.1,0 m 0.1,0 0.1,0 m 0,0.1 -0.1,0 m -0.1,0 -1.1,0 m 0,-1.3 1.1,0 m 0.1,0 0.1,0 m 0,0.1 -0.1,0 m -0.1,0 -1.1,0 m -24.3,0.4 0.2,0 m 0.1,0 9,0 m 2.2,0 2.4,0 m 2,0 0.3,0 m 8.1,0 0.4,0 m 0,0.3 -0.4,0 m -8.1,0 -0.3,0 m -2,0 -2.4,0 m -2.2,0 -9.3,0 m 142,13.8 0.2,0 0.1,-0.1 0.2,0 0.1,0.1 0.2,0 0.2,0 0.1,0.1 0.1,0.1 0.2,0.1 0.1,0.1 0.1,0.1 0.1,0.1 0.1,0.1 0,0.2 0.1,0.1 0,0.2 0.1,0.1 0,0.2 0,0.1 -0.1,0.2 0,0.1 0,0.2 -0.1,0.1 -0.1,0.2 -0.1,0.1 -0.1,0.1 -0.1,0.1 -0.1,0.1 -0.2,0.1 -0.1,0 -0.2,0.1 -0.1,0 -0.2,0 -0.1,0 -0.2,0 -0.1,0 -0.2,-0.1 -0.1,0 -0.2,-0.1 -0.1,-0.1 -0.1,-0.1 -0.1,-0.1 -0.1,-0.1 -0.1,-0.1 -0.1,-0.2 0,-0.1 -0.1,-0.2 0,-0.1 0,-0.2 0,-0.1 0,-0.2 0,-0.2 0.1,-0.1 0.1,-0.1 0.1,-0.2 0,-0.1 0.2,-0.1 0.1,-0.1 0.1,-0.1 0.1,-0.1 0.2,-0.1 0.1,0 m 2,-29.4 0,0.1 -0.1,0.2 0,0.1 0,0.2 -0.1,0.1 -0.1,0.1 -0.1,0.2 -0.1,0.1 -0.1,0.1 -0.2,0.1 -0.1,0 -0.1,0.1 -0.2,0.1 -0.1,0 -0.2,0 -0.1,0 -0.2,0 -0.2,0 -0.1,-0.1 -0.2,-0.1 -0.1,0 -0.1,-0.1 -0.1,-0.1 -0.1,-0.1 -0.1,-0.2 -0.1,-0.1 -0.1,-0.1 0,-0.2 -0.1,-0.1 0,-0.2 0,-0.1 0,-0.2 0,-0.2 0.1,-0.1 0,-0.2 0.1,-0.1 0.1,-0.1 0.1,-0.2 0.1,-0.1 0.1,-0.1 0.1,-0.1 0.1,0 0.2,-0.1 0.1,0 0.2,-0.1 0.2,0 0.1,0 0.2,0 0.1,0.1 0.2,0 0.1,0.1 0.1,0 0.2,0.1 0.1,0.1 0.1,0.1 0.1,0.2 0.1,0.1 0.1,0.1 0,0.2 0,0.1 0.1,0.2 0,0.2 m -130,19 0,-1.7 m 0,1.7 2.3,0 2.2,0 0.8,0 0.7,0 0.8,0 0.6,0 0.5,0 0.3,0 0.3,0 0.1,0 0.2,0 0.1,0 0.1,0 m -9,-1.7 2.3,0 2.2,0 0.8,0 0.7,0 0.8,0 0.6,0 0.5,0 0.3,0 0.3,0 0.1,0 0.2,0 0.1,0 0.1,0 m -9,-3.8 0,-1.6 m 0,1.6 2.3,0 2.2,0 0.8,0 0.7,0 0.8,0 0.6,0 0.5,0 0.3,0 0.3,0 0.1,0 0.2,0 0.1,0 0.1,0 m -9,-1.6 2.3,0 2.2,0 0.8,0 0.7,0 0.8,0 0.6,0 0.5,0 0.3,0 0.3,0 0.1,0 0.2,0 0.1,0 0.1,0 m -11.5,3.3 0,0 m 0,0.4 0,0 m 0,-0.4 0,0.4 m 0,-0.4 0,0.4 m 0,-0.4 0,0 0,-0.1 0,-0.1 m 0,0.8 0,0 0,-0.1 0,-0.1 m 0,-1.3 0,0 m 0,0.6 0,-0.6 m 0,0.7 0,-0.7 m 0,2.3 0,0 m 0,-0.1 0,-0.6 m 0,0.7 0,-0.8 m 0,-1.5 0,-0.1 0,-0.1 m 0,2.7 0,0 0,-0.1 0,-0.1 m -2.1,-1.1 0,0 0.1,0 0,-0.1 m 0,0.1 0,0 -0.1,0 m 0,-0.1 0,0 0,0.1 m 0,-0.1 0,0 m 0,0 0,0 0,-0.1 0.1,0 m 0,0.1 0,0 -0.1,0 m 0.1,0 -0.1,0 m 1.7,-1 0,0 -0.1,0.1 0.1,0 0,-0.1 m -0.1,1 0,0 -0.1,0 -0.1,0 m 0.1,-0.1 0,0 0.1,0 0,0.1 m -0.2,0 0.2,0.1 m -0.2,-0.1 0,0 0.1,0 0,0.1 0.1,0 m 0,0 0,0 m 0,0 0,0 -0.1,0.1 m 0.1,-0.1 0,0 0,-0.1 m -0.1,-0.1 0,0 0.1,0 0,0.1 0,0.1 0,0.1 -0.1,0 m 0.1,-0.2 0,0 m 0,0.9 0,0 0,0.1 0.1,0 0,-0.1 -0.1,0 m -0.6,-2 0.1,-0.1 0.1,0 0.1,0 0.1,0 m -0.4,0.2 0,-0.1 m -0.2,0.1 0,0.1 m -0.4,0.2 0,-0.1 0.1,0 0.1,-0.1 0.1,-0.1 0.1,0 m 0.5,0.4 0,0 -0.1,0 m -0.4,-0.4 -0.1,-0.1 m 0.3,-0.1 -0.1,0 -0.1,0.1 -0.1,0 m 0.3,0 0,-0.1 m 0.3,-0.2 0,0 -0.1,-0.1 -0.1,0 -0.1,0 -0.1,0.1 -0.1,0 -0.1,0 -0.1,0.1 -0.1,0.1 -0.1,0 -0.1,0.1 0,0.1 -0.1,0 0,0.1 -0.1,0.1 m 0.9,-0.4 0,0 -0.1,0 m 0.1,0 0,0 m -0.3,0.1 0,0 m 0,0 0,0 m 0.2,-0.1 0,0 0,0.1 -0.1,0 -0.1,0 m 0.2,-0.1 0,0 m -0.1,0.3 0,0 m 0,0 0,-0.1 m 0,0 -0.1,-0.1 m 0.1,0.1 0.2,-0.1 m 0,0 -0.1,-0.1 m 0.1,0.2 -0.2,0.1 m 0.2,-0.2 0,0.1 m 0,0 0,0 m 0,-0.2 0,0.1 m 0,-0.1 0,0 m 0,0 0,0 m -0.9,0.4 0,0.1 0,0.1 m 0,-0.2 0,0 m 0,0.2 0,0 m 0,0 0,0 0,-0.1 m 0,-0.1 0,0.1 m 0,0.1 0,0 m 0,0 0,-0.1 m 0,0.1 0,0 m 0,0 0,0 m 1.3,-0.7 0,0 -0.1,-0.1 m 0,0 0,0 m 0.1,0.1 0.1,0 m -0.7,2.4 -0.1,-0.1 -0.1,-0.1 -0.1,0 -0.1,-0.1 m 0.4,0.1 0,0.2 m 0.2,0.1 0,-0.1 m 0.4,0.1 -0.1,0 -0.1,0 -0.1,0 -0.1,0 m 0.2,-0.6 0.1,0 0,0.1 m -0.3,0.5 0,0 m -0.3,-0.1 0,0 0.1,0.1 0.1,0 0.1,0 m -0.2,-0.1 -0.1,0 m -0.6,-0.3 0,0.1 0.1,0.1 0.1,0.1 0,0.1 0.1,0 0.1,0.1 0.1,0.1 0.1,0 0.1,0 0.1,0.1 0.1,0 0.1,0 0.1,0 0.1,0 0,-0.1 m -0.6,-0.3 0,0 m 0.3,0.1 0,0 m -0.1,0 0,0 0.1,0 m -0.1,0 0,0 m -0.2,-0.1 0.1,0 0,0.1 0.1,0 m -0.2,-0.1 0,0 m 0.1,0 -0.1,0 m 0.1,0 0,-0.1 m 0,0 0,0 m 0,0 0.2,0.1 m 0,0.1 -0.2,-0.1 m 0.2,0 0,0.1 m 0,0 -0.1,0 m 0.1,-0.1 0,0 m 0,0.1 0,0 m 0,0 0,0 m 0,0 0,0 m -0.9,-0.5 0,0 0,0.1 m 0,0 0,0 m 0,-0.1 0,-0.1 m 0,0.2 0,-0.1 0,-0.1 m 0,0.2 0,0 m 0,-0.2 0,0 0,0.1 m 0,0 0,0 m 0,-0.1 0,0 m 0,0.1 0,-0.1 m 1.2,0.8 0,0 0.1,0 0,-0.1 m -0.1,0.1 0,0 m 0.1,-0.1 0.1,0 m 0,-1.4 0,0 -0.1,0 -0.1,0.1 m 0,0.1 0,0 0,-0.1 m 0,0.1 0.1,0 0.1,0 m -0.2,0 0,0.1 m 0.1,0 0,0 -0.1,0 m 0.1,0 0.1,0 m 0,0 0,0 m 0,-0.3 0,0 m -0.1,0 0.1,0 m -0.2,0 0,0 0.1,0 m -0.1,0 0,0.1 m 0,0.2 0,0 m 0,0 0.2,0 m 0,0 0,0 0.1,0 m 0,-0.3 -0.1,0 0,-0.1 m 0,0 -0.2,0 m 0,0 0,0 0,0.1 m -0.6,0.8 -0.1,0 -0.1,0 -0.1,-0.1 -0.1,-0.1 -0.1,-0.1 0,-0.1 -0.1,0 0,-0.1 0,-0.2 0,-0.1 0,-0.1 0.1,-0.1 0.1,-0.1 0,-0.1 0.1,-0.1 0.1,0 0.1,0 0.1,-0.1 0.1,0.1 0.1,0 0.1,0 0.1,0.1 0,0.1 0.1,0.1 0.1,0.1 0,0.1 0,0.1 0,0.2 0,0.1 -0.1,0 0,0.1 -0.1,0.1 -0.1,0.1 -0.1,0.1 -0.1,0 -0.1,0 m -0.6,-0.6 0,0 0,-0.1 m 0,0.1 0,0.1 m 0,0 0,0 m 1.2,0 0,0.1 -0.1,0.1 0,0.1 -0.1,0.1 -0.1,0.1 -0.1,0 -0.1,0.1 -0.1,0 -0.1,0 -0.1,-0.1 -0.1,0 -0.1,-0.1 -0.1,-0.1 0,-0.1 -0.1,-0.1 0,-0.1 m 0,-0.4 0,-0.1 0.1,-0.1 0.1,-0.1 0,-0.1 0.1,0 0.1,-0.1 0.1,0 0.1,0 0.1,0 0.1,0 0.1,0.1 0.1,0 0,0.1 0.1,0.1 0.1,0.1 0,0.1 m -1.2,0.1 0,0 0,-0.1 m 0,0.1 0,0.1 m 0.9,0.7 -0.1,0.1 -0.1,0 m 0.2,-0.1 0,0 m 0,0 0.1,0 0.1,0 0.1,-0.1 0.1,-0.1 0,-0.1 0.1,-0.1 0,-0.1 m 0,-0.4 0,-0.1 -0.1,0 0,-0.1 -0.1,-0.1 0,-0.1 -0.1,0 -0.1,-0.1 -0.1,0 m 0,0 0,0 m -0.2,0 0.1,0 0.1,0 m -0.3,0 0,0 -0.1,0.1 -0.1,0 -0.1,0 0,0.1 -0.1,0.1 -0.1,0.1 0,0.1 -0.1,0.1 0,0.1 0,0.2 0.1,0.1 0.1,0.1 0,0.1 0.1,0.1 0.1,0 0,0.1 0.1,0 0.1,0 m 0.5,-0.7 0,0 0,0.1 -0.1,0 -0.1,0 0,-0.1 0,-0.1 0.1,0 0.1,0 0,0.1 m 0,0 0,0 0,0.1 -0.1,0 m 0,-0.2 0.1,0 0,0.1 m -0.7,0.3 0,0 0.1,0 0,0.1 0,0.1 0,0.1 -0.1,0 m 0,-1.1 0,0 0.1,0 0,0.1 0,0.1 -0.1,0 m 1.2,0.5 0,0 0,-0.1 m 0,0 0,0 m 0,0 0,0 -0.1,0 0,0.1 m 0,0 0.1,0 m 0,-0.3 0,0 m 0,0 0,0 m -0.1,0 0,0 0.1,0 m 0,0 -0.1,0 m 0.1,0 0,0.2 m 0,0 0,-0.2 m -0.1,0 -0.1,0 m 0.1,0.3 -0.1,0 m -1,0.4 0,0 -0.1,-0.1 0,-0.1 0,-0.1 0.1,0 0.1,0.1 0,0.1 -0.1,0.1 m -0.1,-1.1 0,0 0.1,0 0.1,0 0,0.1 0,0.1 -0.1,0 -0.1,0 0,-0.1 0,-0.1 m -0.3,0.7 -0.1,0 0,-0.1 m 0,-0.2 0,0 0.1,0 m -0.1,0 0,0.1 m 0,0.1 0,0 m 0,0 0,0 m 0.1,-0.2 0,0 m 0,0.3 0,0 m 1.8,0.3 0.1,0 0.1,0 m 0,-1 0,1 m 0,-1 0,0 -0.1,0 -0.1,0 m 0,0 0,1 m 0,-1 -0.5,0 m -1.2,0 -0.2,0 m 0,0 0,1 m 0,0 0.2,0 m 1.2,0 0.5,0 m -2,0 0.1,0 m 0,-1 0,0 0,0.1 -0.1,0 m 0,0 0,0.9 m 0.1,-1 1.9,-1 m -1.9,1 0,0 m 0,0 2,-0.9 m 0,0 -0.1,-0.1 m 0,0.6 -0.7,0.3 m 0,-0.2 0,0.1 -0.1,0 m -0.4,0 0,0 0.1,-0.1 0.1,-0.1 0.1,0 0.1,0 0.1,0 0,0.1 m -1.3,0.4 0.1,-0.1 m 0,0 0,0 m 0,1.1 0,-0.1 -0.1,0 m 0.1,0 0,0.1 m 0,-0.1 0,0 m 1.9,1 -1.9,-0.9 m 2,0.9 -0.1,0 m 0.1,0 -2,-1 m 1.2,0.1 0.7,0.4 m -0.7,-0.1 0,-0.1 0,-0.1 -0.1,0 m -0.4,0.1 0,0 0.1,0.1 0.1,0 0.1,0.1 0.1,0 0.1,0 0,-0.1 m 0,0 0,0 0,-0.1 -0.1,0 0,-0.1 m 0.9,-1.8 0,-0.3 m 0.1,0.3 -0.1,0 m 0,-0.3 0.1,0 m 0,0.3 0,-0.3 m -1,0.7 0,0 0.1,-0.1 0,-0.1 m 0.9,2.1 -0.1,0 m 0.1,0 0,-0.1 m 0,-0.4 -0.1,0 m 0,0.5 0,-0.5 m 0,0.8 0,-0.3 m 0,0.3 0.1,0 m 0,0 0,-0.3 m 0,-1.8 -0.1,0 m 0,0 0,-0.5 m 0.1,0 0,0 m -0.2,-0.4 0.1,0 0.1,0 0,0.1 m -0.1,0 0,-0.1 0,0.1 m 0.1,2.9 0,0 -0.1,0 -0.1,0 m 0.1,0 0,0 m 8.8,-2.3 -0.2,0 m 0,1.6 0.2,0 m -0.2,0 0,0 -0.1,0 0,-0.1 m 0.3,-1.5 0,0 0.1,0 0,0.1 0.1,0 m 0,1.4 0,0.1 -0.1,0 -0.1,0 m -0.3,-1.5 0,0 0,-0.1 0.1,0 m -3.2,2 0.1,0 m 0,0 0,0 m 2.3,0 0.1,0 m 0,0 0,0 m 0,-2.4 0,0 m 0,0 0,0 m -0.1,0 0,0 m 0.1,0 0,0 -0.1,0 m -2.3,0 0,0 m 0,0 -0.1,0 m 2.6,2.4 0,0 m -0.2,0 0,0 0,0.1 m -2,0.1 -0.1,0 m 1.9,0 -0.1,0 m 0.3,0 -0.1,0 m 0.3,0 0,0 m -0.1,0 0,0 -0.1,0 m -0.3,0 -1.6,0 m 1.7,0 0,0 m -1.9,0 0,0 m 2,0 0,0 m -2.3,0 0,0 -0.1,0 m 2.7,0 -0.1,0 m -0.2,0 0,0 m -0.1,0 0,0 m 0.4,-0.2 0,0.2 m -0.5,0 0,0 m -1.6,0 0,0 -0.1,0 m -0.1,0 0,0 m -0.1,0 0,0 m 0,0 0,0 m -0.1,0 -0.1,0 m 0.2,0 0,0 m 0,0 -0.1,0 m -0.2,0 0,-0.2 m 2.4,-2.6 0,0 m -0.1,0 0,0 m 0.1,0 0,0 m -0.1,0 0,0 m -0.1,0 0.1,0 m -0.1,0 0,0 m -1.6,0 1.6,0 m -1.7,0 0,0 0.1,0 m -0.2,0 0.1,0 m -0.1,0 0,0 m -0.1,0 0,0 m 0.1,0 0,0 m -0.1,0 0,0 m 0,0 0,0 m -0.1,0 0,0 0.1,0 m -0.2,0 0.1,0 m -0.2,0.1 0,0 0,-0.1 0.1,0 m 2.6,0.2 0,0 m 0,-0.1 0,0.1 m 0,-0.2 0,0 0,0.1 m -0.1,-0.1 0.1,0 m -0.2,0 0,0 0.1,0 m -0.2,0 0.1,0 m 0,0.2 0,0 m -2.5,0 0,-0.1 m -5.1,1.4 0,0 m 0,0 0,0 m 0,0 0,-0.1 0,-0.1 m 0,0.3 0,-0.1 m 0,0 0,0 m 0,-0.1 0,0 0,0.1 m 0,0 0,0 0,-0.1 m 0,1.1 0,0 m 0,0 0,0 m 0,0 0,0 0,-0.1 0,-0.1 m 0,0.3 0,0 0,-0.1 m 0,0 0,0 m 0,-0.1 0,0 0,0.1 m 0,0 0,0 m 0,-2.1 0,0 0,0.1 m 0,-0.1 0,0 m 0,0 0,0 0,-0.1 m 0,0.2 0,0 m 0,0 0,0 m 0,-0.1 0,0 m 0,0.1 0,-0.1 m 4.8,-0.3 0,0.1 m 3.4,-0.1 -0.4,0 m -2.7,0 -0.3,0 m 3.2,0.1 0,0 0,-0.1 0,0.1 m 0.1,0 0,0 0,-0.1 0,0.1 m -3,0 0,0 0,-0.1 -0.1,0.1 0.1,0 m -0.2,0 0,0 -0.1,-0.1 0,0.1 0.1,0 m 3,0 0,0 0,-0.1 0,0.1 -0.1,0 0.1,0 m 0.3,0.1 0,-0.2 m -3.2,0.1 0,0 0,-0.1 -0.1,0 0,0.1 0.1,0 m -0.2,2.4 0,0.1 m 0,0 0.3,0 m 2.7,0 0.4,0 m 0,0 0,-0.2 m -3.2,0.2 0,0 0,-0.1 -0.1,0.1 0.1,0 m 0.1,0 0,0 0,-0.1 0,0.1 -0.1,0 0.1,0 m 2.8,0 0,0 0,-0.1 0,0.1 -0.1,0 0.1,0 m 0.1,0 0,0 0,-0.1 0,0.1 m 0.1,0 0,0 0,-0.1 0,0.1 m -3.2,0 0,0 -0.1,0 0,-0.1 0,0.1 0.1,0 m -5.1,-2.4 -0.1,0 m 0,0 0,0 m 0,0.1 0,-0.1 m 0.1,0.1 -0.1,0 m 0,0.1 0,0 0,-0.1 m 0,-0.1 0,0.1 0,0.1 m 0,-0.2 0,-0.1 m 0,0 0,0.1 m 0,0.2 0,0 m 0.1,0 -0.1,0 m 0.1,-0.3 -0.1,0 m 0,0 0,0 m 0,0.3 0,0 m 0,0 0,0 m 0.1,1.9 -0.1,0 m 0,0 0,0 m 0,0.1 0,-0.1 m 0.1,0.1 -0.1,0 m 0,0.1 0,0 0,-0.1 m 0,-0.1 0,0 0,0.1 0,0.1 m 0,-0.2 0,-0.1 m 0,0 0,0 0,0.1 m 0,0.2 0,0 m 0.1,0 -0.1,0 m 0.1,-0.3 -0.1,0 m 0,0 0,0 m 0,0.3 0,0 m 0,0 0,0 m -0.3,0 -0.1,-0.1 m 0.1,0.1 0.1,-0.1 m -0.1,-0.1 0,0 0.1,0.1 m -0.2,-0.1 0.1,0 m -0.1,0.1 0,-0.1 m 0.2,0 0,0 -0.1,0 m 0.1,0 0,0 0.1,0 0,0.1 m -0.2,-0.2 0,0 0.1,0 0,0.1 m -0.2,-0.1 0,0 0.1,0 m 0,0.1 0,0 -0.1,-0.1 m 0.2,0.2 0,0 -0.1,-0.1 m 0.2,0.1 0,0 -0.1,0 m 0,0 0,0 m -0.2,-0.2 0,0 0,0.1 m 0.2,0.2 0.1,-0.1 m -0.1,0 0,0 0.1,0 m -0.1,0.1 -0.1,0 m -0.1,-0.3 0,0 m 0,0.1 0,-0.1 m 0,0.2 0,-0.1 m 0.3,0.1 0,0 m -0.3,-0.2 0.1,0 m 0.2,0.1 0,0 m 0,0.1 0,0 0,-0.1 m -0.1,0 0,0 0,-0.1 m -0.1,0 0,0 0.1,0 m -0.2,-1.9 0.2,-0.1 m -0.2,0.1 0.1,0 m 0,0 0,0 m 0.1,-0.1 -0.1,0.1 m 0.1,-0.1 0,0 m -0.1,0.2 0,0 0,-0.1 0.1,0 m -0.1,0.1 0,0 m 0,-0.1 0.1,0 0.1,0 m -0.2,0.1 0,0 0,-0.1 m 0,0.1 0,0 -0.1,0 0.1,0 m 0.1,0 0,0 -0.1,0 m 0.2,-0.1 0,0 0,0.1 -0.1,0 m 0.1,-0.1 0,0 m -0.2,0.1 0,0 0,-0.1 m 0.2,0 0,0 -0.1,-0.1 m -0.2,0.2 0,0 m 0,0 0,0 0.1,0 m -0.1,-0.1 0,0.1 m 0.3,-0.1 0,0 m 0,-0.1 0,0.1 m -0.1,-0.1 0.1,0 m -0.3,0.2 0.1,0 m 0.2,-0.1 0,0 m 0,0 0,0 m -0.2,0.1 0,0 m 8.1,-0.4 0.1,0 m -0.2,0 -0.1,0 m -1.7,0 1.7,0 m -1.8,0 0.1,0 m -0.2,0 0,0 m 0,0.1 0,-0.1 m 0,0.1 0,0.1 m 0.1,0 0,0 0.1,0.1 0.1,0 0.1,0 0.1,0.1 0.1,0 0.1,0.1 0,0.1 m -0.7,1.9 0,0 0,-0.1 m 0.1,0 0,0 0.1,0 0.1,0 0.1,-0.1 0.1,0 0.1,-0.1 0.1,-0.1 0,-0.1 m -0.7,0.5 0,0.2 m 0,0 0,0 m 0.1,0 0.1,-0.1 m 0,0 1.7,0 m 0.1,0.1 -0.1,-0.1 m 0.3,-0.1 0,0.2 m 0,-0.2 0,0 m 0,0 -0.1,-0.1 m -0.1,0 0,-0.1 -0.1,0 -0.1,0 0,-0.1 -0.1,0 0,-0.1 -0.1,0 0,-0.1 m 0.6,-1.8 -0.1,0 m -0.1,0.1 0,0 -0.1,0 -0.1,0.1 -0.1,0.1 -0.1,0.1 m 0.6,-0.5 0,0 0,0.1 m 0,-0.1 0,-0.1 m -1.7,0.2 0.1,0.1 0.1,0 0.1,0.1 0,0.1 0.1,0.1 m -0.4,-0.4 0,0 m 1.3,0 -1.3,0 m 1.3,0 0,0 m -0.3,0.4 0,0 0,-0.1 0.1,-0.1 0,-0.1 0.1,0 0.1,-0.1 m -1.3,2.2 0,0 0,0.1 m 0,-0.1 0.1,0 0.1,-0.1 0.1,-0.1 0.1,-0.1 0,-0.1 m 0.6,0 0,0.1 0,0.1 0.1,0 0,0.1 0.1,0.1 0.1,0 m 0,0.1 0,0 0,-0.1 m 0,0.1 -1.3,0 m 1.6,0.2 0.1,0 m -1.8,-2 0,0 0,-0.1 0.1,0 0,0.1 -0.1,0 m 0,-0.2 0.1,0 0,0.1 0,0.1 -0.1,0 0,-0.1 0,-0.1 m 2.2,0 0,-0.2 m 0.2,0.3 -0.1,0 m 0.1,-0.3 0,0.3 m -0.2,-0.3 0.2,0 m -0.2,2 0,-0.2 m 0.2,0 0,0.2 m 0,0 -0.2,0 m 0.1,-0.2 0.1,0 m -2.3,-1.4 -0.2,0 m 0.3,-0.2 0,0.1 m -0.3,-0.1 0.3,0 m -0.3,0.2 0,-0.2 m -0.3,-0.1 0,0 m 0,0.2 0,0 -0.1,0 0,-0.1 -0.1,0 0,-0.1 0,-0.1 0.1,0 0,-0.1 0.1,0 m 0.1,0 0,0 0.1,0.1 0,0.1 0,0.1 -0.1,0.1 m -0.1,0 0,0 m 2.3,1.6 0,0 m 0,-1.8 0,0 m -0.1,0.1 0,0 -0.1,-0.1 0.1,-0.1 0,-0.1 0.1,0 0.1,0 0.1,0.1 0,0.1 0,0.1 m -2.5,1.7 0,0 m 0,0.2 0,0 -0.1,0 0,-0.1 -0.1,0 0,-0.1 0,-0.1 0.1,0 0,-0.1 0.1,0 m 0.1,0 0,0 0.1,0.1 0,0.1 0,0.1 -0.1,0.1 m -0.1,0 0,0 m 2.3,0 0,0 -0.1,0 0,-0.1 -0.1,-0.1 0.1,-0.1 m 0.3,0 0,0 0,0.1 0,0.1 -0.1,0.1 -0.1,0 m 0.4,-2.1 0.1,0 m -0.1,0 0,0 m 0.1,0 0,0 m -0.1,2.1 0,-0.1 m 0.1,0.1 -0.1,0 m 0.1,-0.1 0,0.1 m -0.1,-1.8 0,0 m 0.1,0 0,0 m -0.1,1.5 0,-0.1 m 0.1,0 0,0.1 m -2.3,-0.1 -0.2,0 m 0,0 0,-0.1 m 0,0 0.2,0 m 0,0 0,0.1 m -0.9,-0.8 0,0.1 0,0.1 -0.1,0 0,-0.1 0.1,-0.1 m 3.2,1.2 -0.1,0 m 0.1,-2.2 0,0.4 m 0,1.4 0,0.4 m -0.1,-2.2 0,0 m 0,-0.1 0,0.1 m -2.9,-0.1 0.2,0 m 2.2,0 0.5,0 m -2.9,0.8 0,-0.8 m -0.1,0.9 0,0 m -0.3,0 0.3,0 m -0.3,0.7 0,-0.7 m 0.3,0.7 -0.3,0 m 0.3,0 0,0 m 3,0.7 0,0 0,0.1 m 0,0 0,0 m 0,-2.3 0.1,0 m -3,2.3 0,-0.8 m 2.9,0.8 -0.5,0 m -2.2,0 -0.2,0 m -0.3,-0.2 -0.4,0 m 0.4,-0.6 0,0.6 m -0.4,-0.6 0.4,0 m -0.4,0.6 0,-0.6 m 0.4,-0.8 0,-0.5 m -0.4,0 0,0.5 m 0,0 0.4,0 m 0,-0.5 -0.4,0 m 0.7,2.1 -0.6,0 m 0,-2.4 0.6,0 m -0.3,1.2 0,0 0,0.1 m -0.1,-0.1 0,0 m -0.2,1.2 0,-0.2 m 0,-0.6 0,-0.8 m 0,-0.5 0,-0.3 m 1.6,1.9 0,-1.4 m 1.9,1.5 -0.6,0 m -0.1,0 -0.1,0 m 0.8,-0.3 0,0.3 m 0.8,-0.3 -0.8,0 m 0.8,0 0,-1.2 m 0,0 -0.8,0 m 0,-0.1 0,0.1 m 0,-0.1 -0.6,0 m -0.1,0 -0.1,0 m -0.7,1.1 0,-1 m 0,0 -0.4,0 m 1.1,-0.1 0,1.1 m 0,0.4 -1.1,0 m 1.1,0 0,0.1 m 0,-0.5 -0.7,0 m -0.5,0.1 -0.6,0 m -0.1,0 -0.3,0 m 0,-0.8 0.3,0 m 0.1,0 0.6,0 m 0,0 0,0.8 m -1,0 0,-0.8 m 4,1.1 -1,0 m 1,-1.4 0,1.4 m -1,-1.4 1,0 m -3.2,1.4 0,-0.3 m 1.4,0.3 -1.4,0 m 0,-1.4 1.4,0 m -1.4,0.3 0,-0.3 m 9,0.6 0,-0.3 0.1,-0.4 0,-0.3 0,-0.4 0,-0.3 0,-0.4 -0.1,-0.4 0,-0.4 -0.1,-0.5 0,-0.4 m -0.1,0 0,0 0.1,0 m -0.1,0 0.1,0.7 0,0.7 0,0.7 0,0.5 0,0.6 -0.1,0.5 m 0,0 0.1,0.1 0.1,0 m -0.1,-3.8 0,0 -0.1,0 m 0.2,3.8 0,0 0.1,-0.1 m -0.4,-3.7 0,0 0.1,0 m 0,3.2 -0.1,-0.2 0,-0.2 0,-0.3 -0.1,-0.3 0.1,-0.3 0,-0.3 0,-0.3 0,-0.3 0,-0.2 0,-0.3 0,-0.3 0,-0.2 m 0.1,3.6 0,0 0,0.1 m 0,0.5 0,0.2 0,0.2 -0.1,0.2 0,0.3 0,0.2 -0.1,0.3 0.1,0.3 0,0.4 0,0.2 0,0.3 0,0.3 0,0.3 0,0.2 0,0.3 m 0.1,0 -0.1,0 m 0.3,-3.7 0,0.3 0,0.3 0,0.2 0,0.3 -0.1,0.3 0,0.3 0,0.3 0,0.4 0,0.5 -0.1,0.4 0,0.4 m 0.2,-3.7 -0.1,0 -0.1,0 0,-0.1 0,0.1 m -0.1,3.7 0,0 m 0.1,-3.7 0,0 m 0,-4.2 -0.1,0 m 0.2,7.8 0,0 m 0,0 0,0 -0.1,0.1 m 0.1,-0.5 0,0.4 m 0.1,-3.6 0,0 m 0.1,0 0,0 0,-0.1 0,-0.1 0,-0.1 0,-0.1 0,-0.1 0,-0.1 m 0.4,0 0,0 m 0,0.6 0,0 0,-0.1 0,-0.1 0,-0.1 0,-0.1 0,-0.1 0,-0.1 m -0.1,0 0,0 m 0,0.6 0,0 0,-0.1 0,-0.1 0,-0.1 0,-0.1 0,-0.1 0,-0.1 m 0.5,0 0,0 m 0,0.6 0,0 0,-0.1 0,-0.1 0,-0.1 0,-0.1 0,-0.1 0,-0.1 m 0,0 0,0 m 0,0.6 0,0 0,-0.1 0,-0.1 0,-0.1 0,-0.1 0,-0.1 0,-0.1 m -0.7,0.1 0,0 m 0,0.4 0,0 0,-0.1 0,-0.1 0,-0.1 0,-0.1 m 0.4,4.1 0,-0.7 0.1,-0.7 0,-0.7 0,-0.5 0,-0.5 -0.1,-0.6 m 0,3.7 0.1,0 0,-0.1 m 0.1,-3.7 0,0.3 0.1,0.3 0,0.4 0,0.3 0,0.4 0,0.4 -0.1,0.4 -0.1,0.4 0,0.4 0,0.4 m 0.1,-3.7 0,0 -0.1,0 -0.1,0.1 m 0.1,3.6 0,0 0,0.1 -0.1,0 m 0.2,-3.7 0,0 0,-0.1 m -0.3,0.7 0,0.2 0,0.2 -0.1,0.2 0,0.3 0.1,0.4 0,0.3 0,0.2 0,0.3 0,0.3 0,0.2 0,0.3 0,0.2 m 0,0 0,0 0.1,0 m 0,-3.7 0,0.1 m 0,3.6 -0.1,0 m 0.3,-4.1 0,-0.3 0,-0.3 0,-0.3 -0.1,-0.3 0,-0.3 0,-0.3 0,-0.3 0,-0.4 0,-0.4 -0.1,-0.4 0,-0.4 m 0,0 -0.1,0 m 0.1,3.7 0,-0.3 0,-0.2 -0.1,-0.2 0,-0.2 -0.1,-0.3 0,-0.3 0.1,-0.3 0,-0.3 0,-0.3 0,-0.3 0,-0.2 0,-0.3 0,-0.3 0,-0.2 m 0.1,3.7 0,0 0.1,0 0.1,0 m -0.2,0 0,0 m -0.1,0.5 0,0 0,-0.1 0,-0.1 0,-0.1 0,-0.1 0,-0.1 0,-0.1 m 0.3,0.1 0,-0.1 m -0.1,-3.1 0,-0.4 m 0,0 0,0 -0.1,0 0,-0.1 m -6.1,3.4 1.8,0 m 0,0 1.5,0 m 0,1 -1.5,0 m 0,0 -1.8,0 m 0,0 0,-1 m -0.2,1 0.1,0 0,-0.1 0.1,0 m -0.3,0.1 0.1,0 m -0.2,0.2 0,0.1 m 0,0 0.2,0 m 0.1,0 0.1,0 m 0,0 0,0 m -0.1,-0.3 0,0.2 m 0,0.1 1.9,0 m 0,0 1.5,0 m 0,-0.3 -1.5,0 m 0,0 -1.9,0 m 3.4,-1.2 -1.5,0 m 0,0 -1.9,0 m 0,0 0,0.2 m 0,0 1.9,0 m 0,0 1.5,0 m -3.6,0 0,0 0.1,0 0.1,0 m -0.1,0 0,0 -0.1,0 m 0.2,0 -0.1,0 m -6.9,0.4 0.1,0 m -0.1,0.3 0,-0.3 m 0,0.3 0.1,0 m -0.1,-0.3 0,0 0,-0.1 m 0,0.5 0,0 0,-0.1 m 1.9,-0.3 0.1,0 m -0.1,0.3 0.1,0 m 0,0 0,-0.3 m 0,0 0,0 0,-0.1 m 0,0.5 0,0 0,-0.1 m 4.9,-0.8 0,0 m -0.1,0 0.1,0 m -0.1,0 0.1,0 m 0,0 0,0 0.1,0 m -0.1,0 0,0 0.1,0 m -5.8,1.3 0,0.1 m 0.1,0 0,-0.1 m 0,0 0,0 -0.1,0 m 0,0.1 0,0 0.1,0 m 0,-0.1 0,0.1 m 0,-0.1 0,0 m 0,0.1 0,0 m 0.1,0 0,-0.1 m 0,0 0,0 -0.1,0 m 0,0.1 0.1,0 m -0.2,0 0,-0.1 m 0,0 0,0 m 0,0.1 0,0 m -0.5,-0.1 0,0.1 m 0.1,0 0,-0.1 m 0,0 0,0 -0.1,0 m 0,0.1 0,0 0.1,0 m 0.4,-0.1 -0.4,0 m 0.4,0.1 -0.4,0 m 1,-0.1 0,0.1 m 0,-0.1 -0.4,0 m 0.4,0.1 -0.4,0 m 0.6,0 0,-0.1 m 0,0 0,0 -0.1,0 -0.1,0 m 0,0.1 0.1,0 0.1,0 m -1.3,0 0,-0.1 m 0,0 0,0 m 0,0.1 0,0 m 0.9,-1.5 0,-0.1 m -0.1,0 0,0.1 m 0,0 0,0 0.1,0 m 0,-0.1 0,0 -0.1,0 m 0.1,0 0,0.1 m 0,0 0,0 m 0,-0.1 0,0 m 0,0.1 0.1,0 m 0,-0.1 0,0 -0.1,0 m -0.3,0.1 0,-0.1 m 0,0.1 0.2,0 m -0.2,-0.1 0.2,0 m -0.6,0.1 0,-0.1 m -0.1,0 0,0.1 m 0,0 0,0 0.1,0 m 0,-0.1 0,0 -0.1,0 m 0.1,0.1 0.4,0 m -0.4,-0.1 0.4,0 m -0.5,0.1 0,-0.1 m 0,0.1 0,0 m 0,-0.1 0,0 m -0.1,0.1 0,0 0.1,0 m 0,-0.1 -0.1,0 m 1.1,0 0,0.1 m -0.1,0 0.1,0 m -0.1,-0.1 0.1,0 m 0,0.1 0.1,0 m 0,-0.1 0,0 -0.1,0 m 0.1,1.4 -1.8,0 m 0,-1.2 1.8,0 m -1.8,1.2 0,-1.2 m 1.8,0 0,1.2 m -11.7,-0.7 0,0 -0.1,0 -0.1,0 -0.1,0 -0.2,0 -0.2,0 -0.2,0 -0.2,0 -0.3,0 -0.4,0 -0.3,0 -0.4,0 -0.4,0 -0.3,0 -0.4,0 m 0,0 0,0 0,0.1 m 0,0 0,0 0.4,0 0.2,0 m 0,0 0.1,0 0.4,0 0.4,0 0.3,0 0.4,0 0.3,0 0.2,0 0.2,0 0.3,0 0.2,0 0.1,0 0.1,0 0.1,0 m -0.1,-0.1 0,0 0.1,0 0,0.1 m 0,0 -0.1,0 -0.1,0 -0.1,0 -0.2,0 -0.3,0 -0.2,0 -0.2,0 -0.3,0 -0.2,0 -0.4,0 -0.4,0 -0.5,0 -0.1,0 m 3.1,0 0,0 m -3.1,0 0,0 m 0,0 0,0 -0.2,0 -0.4,0 m 0,0 0,0.1 0,0.1 m 0,0 0.7,0 0.4,0 0.4,0 0.3,0 0.4,0 0.2,0 0.2,0 0.3,0 0.2,0 0.2,0 0.1,0 0.1,0 0.1,0 m 0.1,-0.2 0,0.1 -0.1,0 0,0.1 m -3.6,-0.2 0,0 m 3.6,0.2 1,0 m 0,-0.3 -1,0 m 20.3,0.9 0,0 -0.1,0 m 0.1,0 0,0 m 0,0 0,0 -0.1,0 m -0.1,0 0,0 m 0,0 0,0 m 0,0 0,0 m 0.1,0 -0.1,0 m -0.8,0 0,0 m 0,0 0.8,0 m -0.8,0 0,0 m 0,0 0,0 m -3,0 0,0 0.1,0 0.1,0 m -0.2,0 0,0 0.1,0 0.1,0 m 0,0 0.2,0 m 0.1,0 1.9,0 m 0,0 0.6,0 m 1,-1.5 0,0 -0.1,0 m 0.1,0 0,-0.1 m 0,0 0,0 -0.1,0 m -0.1,0.1 0,-0.1 m 0.1,0 -0.1,0 m 0,0 0,0.1 m 0,-0.1 0,0 m -0.8,0.1 0,-0.1 m 0,0 0.8,0 m -0.8,0 0,0.1 m 0,-0.1 0,0 m -2.8,0.1 0,-0.1 m 0,0.1 0.2,0 m -0.2,-0.1 0.2,0 m 0.1,0 1.9,0 m 0,0 0.6,0 m -3,0.1 0,0 0.1,0 0.1,0 m -0.2,-0.1 0,0 0.1,0 0.1,0 m -20.6,-1.5 0,-0.1 m 0.4,0 -0.4,0 m 0.4,0.2 0,-0.2 m 0.9,1 -0.9,-0.8 m 0.9,-3.4 0,4.2 m -4.5,-4.2 4.5,0 m 0,7.1 0,4.1 m -0.9,-3.3 0.9,-0.8 m -0.9,0.8 0,0.1 m 0,0 -0.4,0 m 0,0 0,0 m 0,0 0.2,-0.2 m 0,-0.4 0,0.4 m 0,-0.4 -0.2,0 m 0,0 0,-0.1 m 0.2,0 -0.2,0 m 0.2,-1 0,1 m -0.6,-1 -0.1,0 m 0,-0.1 0,0.1 m 0.1,-0.1 -0.1,0 m 0.5,0 0,0 m 0.2,0 -0.2,0 m 0.2,-0.3 0,0.3 m 0,-0.3 -0.4,0 m 0,0 0,-0.1 m 0,-0.3 0,-0.1 m 0.4,-0.1 -0.3,0 m 0.2,-0.2 -0.1,0 m 0,-0.1 0,0.1 m 0.2,-0.1 -0.2,0 m 0.2,-1.1 0,1.1 m 0,-1.1 -0.2,0 m 0,0 0,0 m 0.2,0 -0.2,0 m 0.2,-0.5 0,0.5 m -0.2,-0.6 0.2,0.1 m -3.4,7.8 0,-5.4 m 0,-0.3 0,-5.5 m 4.5,11.2 -4.5,0 m 3.6,-7.6 0,0 0,-0.1 -0.1,0 0,-0.1 m 0.1,4.2 0,0 0,0.1 -0.1,0 0,0.1 m -0.1,-1.6 0,0.1 m 0,-0.1 -0.6,0 m 0.6,0.1 -0.6,0 m 0.6,-0.1 0,0 m 0,0.1 0,0 m 0,-0.1 0,0.1 m 0,-1.2 0,0 0.1,0 -0.1,0 m 0.1,-0.1 -0.1,0 m 0.1,0.5 0,-0.5 m -0.1,0 -0.6,0.5 m 0.6,-0.4 -0.5,0.4 m 0.5,-0.2 0,0 0.1,0 -0.1,0 m 0,0.2 0,-0.4 m 0,0.1 0,0 0.1,0 -0.1,0 m 0.2,2.1 0,0.1 m 0,-0.1 0,0 -0.1,0 m 0,0 0,0.1 m 0.1,0 0,0 -0.1,0 m 0.1,-0.1 0,0 m 0,0.1 0,0 m -0.4,-0.1 0,0.1 m 0.3,-0.1 -0.3,0 m 0.3,0.1 -0.3,0 m 0.4,-1.2 0,0.1 m -0.1,-0.1 0,0.1 m 0.1,0 0,0 -0.1,0 m 0.1,-0.1 0,0 -0.1,0 m 0.1,0.1 0,0 m 0,-0.1 0,0 m -0.4,0 0,0 m 0.3,0.1 -0.1,0 m 0.1,-0.1 -0.3,0 m 0.4,-1.2 0,0.1 m 0,-0.1 0,0 -0.1,0 m 0.1,0.1 0,0 -0.1,0 m 0.1,0 0,0 m 0,-0.1 0,0 m -0.4,0 0,0.1 m 0.2,0 0,0 m -0.1,0 -0.1,0 m 0.2,-0.1 -0.2,0 m 0.4,0.7 -0.1,0 m 0.2,0 0,0 m -0.1,-0.1 0,0 0,-0.1 0.1,0 m 0,0.1 0,0 m 0,0.1 0,0 -0.1,0 m -0.1,-0.1 0.1,0 m 0,-1.7 0,0.1 m 0,-0.1 0,0 -0.1,0 m 0,0 0,0.1 m 0.1,0 0,0 -0.1,0 m 0.1,0 0,0 m 0,-0.1 0,0 m -0.4,0 0,0.1 m 0.3,0 -0.3,0 m 0.3,-0.1 -0.3,0 m -3.6,1.9 0,-0.3 m 3.9,0.3 0,-0.3 m 0,0 -3.9,0 m 3.9,0.3 -3.9,0 m 17.6,-6 0,-10 m 0,10 2.3,0 2.2,0 0.8,0 0.7,0 0.8,0 0.6,0 0.5,0 0.3,0 0.3,0 0.1,0 0.2,0 0.1,0 0.1,0 m -9,-10 2.3,0 2.2,0 0.8,0 0.7,0 0.8,0 0.6,0 0.5,0 0.3,0 0.3,0 0.1,0 0.2,0 0.1,0 0.1,0 m -9,31.7 0,-10 m 0,0 2.3,0 2.2,0 0.8,0 0.7,0 0.8,0 0.6,0 0.5,0 0.3,0 0.3,0 0.1,0 0.2,0 0.1,0 0.1,0 m -9,10 2.3,0 2.2,0 0.8,0 0.7,0 0.8,0 0.6,0 0.5,0 0.3,0 0.3,0 0.1,0 0.2,0 0.1,0 0.1,0 m -2.3,-10.6 0,0.1 m 0,-0.1 0.2,0 m 0,0.1 0,-0.1 m -0.2,0.1 0.2,0 m -0.6,-0.1 0,0.1 m 0.4,-0.1 0,0 -0.1,0 -0.1,0 -0.1,0 -0.1,0 m 0.4,0.1 0,0 -0.1,0 -0.1,0 -0.1,0 -0.1,0 m 0.6,-0.1 0.2,0 m 0,0.1 -0.2,0 m -1,-0.1 0,0.1 m 0.4,-0.1 -0.4,0 m 0.4,0.1 -0.4,0 m -0.5,-0.1 0,0.1 m 0,-0.1 0.5,0 m -0.5,0.1 0.5,0 m 1.2,-1.3 0,0 m -0.4,0 0.4,0 m -0.4,0 0,0 m 0,0 0.4,0 m -0.4,0 0,0 -0.1,0 -0.1,0 -0.1,0 -0.1,0 m 0,0 0,0 m 0.4,0 0,0 -0.1,0 -0.1,0 -0.1,0 -0.1,0 m -0.8,0 0,0 m 0.8,0 -0.8,0 m 0.8,0 -0.8,0 m -0.1,0 0,0 m 0.1,0 0,0 -0.1,0 m 0.1,0 0,0 -0.1,0 m 1.7,-0.4 0,0 m 0,1.8 0,-1.8 m 0,1.8 0,0 m 0,0 0,-1.8 m 0.1,-7.4 0,0 m 0,0 0,-1.8 m 0,0 0,0 m 0,1.8 0,-1.8 m -0.1,0.4 0.1,0 m -0.1,1.1 0.1,0 m 0.1,0.1 -0.1,0 m 0.1,-0.2 -0.1,0 m 0.1,0.2 0,-0.2 m 0.9,-0.1 0,0 0,-0.1 0,-0.1 0,-0.1 0,-0.1 0,-0.1 0,-0.1 0,-0.1 m -0.2,0.7 0,0 0,-0.1 0,-0.1 0,-0.1 0,-0.1 0,-0.1 0,-0.1 0,-0.1 m -0.5,0.7 -0.3,0 m 0.3,0 0,-0.7 m 0,0 -0.3,0 m -0.1,-0.5 0.1,0 m -0.1,0.1 0.1,0 m 0.7,1.1 0,0 0,-0.1 0,-0.1 0,-0.1 0,-0.1 0,-0.1 0,-0.1 0,-0.1 m -0.6,-0.4 0,-0.1 m 0,0 -0.1,0 m 0.1,0.1 -0.1,0 m -0.4,1.4 0.3,0 m 0,0 0.1,0 m -0.4,0 0,0.2 m 0,0 0.3,0 m 0,0 0.1,0 m 0.3,-1.3 -0.3,0 m 0.3,0.1 0,-0.1 m 0,0.9 -0.3,0 m 0.3,0 0,-0.1 m 0,0.2 0,0 0,-0.1 m 0,-0.9 0,-0.1 m -0.5,0.2 0.1,0 m -0.1,-0.4 0.1,0 m 0,0 0.1,0 m -0.2,0 0,0.1 m 0,0.1 0,0.2 m 0.3,1 -0.1,0 m 0.1,0 0,0 m 0,0 0,0 m -0.2,0 0.1,0 m 0,9.4 0,0 m 0,-1.8 0,0 m 0,1.8 0,-1.8 m 0,1.8 0,-1.8 m -0.1,1.5 0.1,0 m -0.1,-1.1 0.1,0 m 0.1,1 -0.1,0 m 0.1,0.2 0,-0.2 m 0,0.2 -0.1,0 m 1,-0.3 0,0 0,-0.1 0,-0.1 0,-0.1 0,-0.1 0,-0.1 0,-0.1 0,-0.1 0,-0.1 m -0.2,0.8 0,0 0,-0.1 0,-0.1 0,-0.1 0,-0.1 0,-0.1 0,-0.1 0,-0.1 0,-0.1 m -0.5,0 -0.3,0 m 0.3,0.8 0,-0.8 m 0,0.8 -0.3,0 m -0.1,-1.2 0.1,0 m -0.1,0.1 0.1,0 m 0.7,1.1 0,0 0,-0.1 0,-0.1 0,-0.1 0,-0.1 0,-0.1 0,-0.1 0,-0.1 m -0.6,-0.5 -0.1,0 m 0.1,0.1 0,-0.1 m 0,0.1 -0.1,0 m -0.4,1.4 0.3,0 m 0,0 0.1,0 m -0.4,0.1 0,0.1 m 0,0 0.3,0 m 0,0 0.1,0 m 0.3,-1.4 -0.3,0 m 0.3,0 0,0 m 0,0.1 0,-0.1 m 0,1 -0.3,0 m 0.3,0.1 0,0 0,-0.1 m 0,0 0,-0.1 m -0.5,-1.1 0.1,0 m 0,0 0.1,0 m -0.2,0 0,0.2 m 0,0 0,0.2 m 0,0 0.1,0 m 0.2,1 -0.1,0 m 0.1,0 0,-0.1 m 0,0 0,0 m -0.2,0 0.1,0 m -6.2,-5.8 0,0 m 0.4,0 0,0 -0.1,0 -0.1,0 -0.1,0 -0.1,0 m 0,0 0,0 -0.1,0 m 4.9,5 1,0 m -1,0 0,0.8 m -0.2,0 0.2,0 m -0.2,0 0,0 m 0,0 0.2,0 m 1,0.1 0,-0.1 m 0,0 0.2,0 m 0,0 0,0 m -0.2,0 0.2,0 m -0.2,-0.8 0,0.8 m -1,0.1 0,-0.1 m 0.7,0.2 0,0.1 m 0.1,0.1 0.1,0 0.1,0 m -0.4,0 0,0 0.1,0 0.1,0 m -0.3,-0.1 0,0 0.1,0 0.1,0 m 0.3,-9.8 -1,0 m 1.2,-0.9 0,0.1 m 0,-0.1 -0.2,0 m -1.2,0 0,0.1 m 1.2,-0.2 0,0.1 m 0.2,0.1 -0.2,0 m 0,0.8 0,-0.8 m -1,-0.2 0,0.1 m 0,0.9 0,-0.8 m 0,-0.1 -0.2,0 m 0.2,0.1 -0.2,0 m 0.9,-0.4 0,0.1 m 0.3,-0.1 0,0 -0.1,0 -0.1,0 -0.1,0 -0.1,0 m 0.1,0 -0.1,0 -0.1,0 m -5.3,6.1 0,0 m 0.2,0.1 0.1,0 0.1,0 m -0.4,0 0,0 0.1,0 0.1,0 m -0.3,-0.1 0,0 0.1,0 m 5.2,-4.6 -0.1,0 m 0.1,0 0,0 m 0,-0.1 0,-0.2 m 0,-1.1 0,0 m -0.1,1.4 0,0 m 0,-0.1 0,-0.2 m 0,-1.1 0,0 m 0.1,0 -0.1,0 m 0,9.4 0,0.1 m 0,0 0,0.3 m 0,1 0,0 m 0,0 0.1,0 m 0,-1.4 0,0.1 m 0,0 0,0.3 m 0,1 0,0 m -0.1,-1.4 0.1,0 m 0.5,-8.1 0,0.1 m 0,-0.1 0,0 -0.1,0 -0.1,0 -0.1,0 -0.1,0 m 0,0 0,0.1 m 0.4,0 0,0 -0.1,0 -0.1,0 -0.1,0 -0.1,0 m 0.4,0 0.4,0 m -0.4,-0.1 0.4,0 m 0,0 0,0.1 m -1.2,-0.1 0,0.1 m 0.4,0 -0.4,0 m 0.4,-0.1 -0.4,0 m -0.5,0 0,0.1 m 0.5,0 -0.5,0 m 0.5,-0.1 -0.5,0 m 1.7,-1.4 0,0 m 0,1.8 0,-1.8 m 0,1.8 0,-1.8 m 0,1.8 0,0 m -0.4,-1.7 0,0.1 m 0,-0.1 0,0 -0.1,0 -0.1,0 -0.1,0 -0.1,0 m 0,0 0,0.1 m 0.4,0 0,0 -0.1,0 -0.1,0 -0.1,0 -0.1,0 m 0.4,0 0.2,0 m 0,0 0,-0.1 m -0.2,0 0.2,0 m 0.2,0.1 -0.2,0 m 0,-0.1 0.2,0 m -1.5,0 0,0.1 m -0.2,-0.1 0,0.1 m 0,0 0.2,0 m -0.2,-0.1 0.2,0 m 0.7,0.1 -0.7,0 m 0.7,-0.1 -0.7,0 m 0.9,1.2 0,0 0,0.1 m 0.3,-0.1 0,0 0,0.1 m -0.3,8.3 0,0 m 0.3,0 0,0 m -20.3,-4.2 0,0.1 -0.1,0 0,-0.1 0.1,0 m 25,-0.3 -0.1,0 m -0.5,-0.2 0,0 0,0.1 0,0.1 0,0.1 0,0.1 0,0.1 0,0.1 0,0.1 0,0.1 0,0.1 0,0.1 0,0.1 m 1.1,-1.2 0,0 0,0.1 0,0.1 0,0.1 0,0.1 0,0.1 0,0.1 0,0.1 0,0.1 0,0.1 0,0.1 0,0.1 0,0.1 m -0.5,-0.3 -0.1,0 m 0.8,-0.6 0,0 0,0.1 0,0.1 0,0.1 0,0.1 0,0.1 0,0.1 0,0.1 m -1.5,-0.7 0,0 0,0.1 0,0.1 0,0.1 0,0.1 0,0.1 0,0.1 0,0.1 m 0.8,-1.1 0,0 0,0.1 0,0.1 0,0.1 m -0.1,-0.3 0,0 0,0.1 0,0.1 0,0.1 m 0.1,0 -0.1,0 m 0.1,0.8 -0.1,0 m 0.1,0 0,0.1 0,0.1 0,0.1 m -0.1,-0.3 0,0.1 0,0.1 0,0.1 m 0.1,-0.4 0,0.1 m -0.1,-0.1 0,0.1 m 0.1,-0.7 0,-0.1 m -0.1,0.1 0,-0.1 m -0.7,0.3 0,0 0,0.1 0,0.1 0,0.1 m 0.9,0.4 0,0 m 0,0.1 0,0 0,-0.1 m 0,-1.1 0,0 0,-0.1 m -1.3,1.5 0,0 m 0,-0.1 0,0 m 0,0 0,0.1 m 0,-0.1 0,0.1 m 0,-1.7 0,0 m 0,-0.1 0,0 m 0,0.1 0,0 0,-0.1 m 0,0.1 0,0 0,-0.1 m 0,1.7 0,-1.6 m 0,1.6 0,-1.6 m -1.5,0.1 0,0 m 0,0 0,-0.1 0,-0.1 0,-0.1 m 0,0 0,0 m 0,0.3 0,-0.1 0,-0.1 0,-0.1 m 0,1.8 0,0 m 0,0 0,-1.5 m 0,1.5 0,-1.5 m 0,1.7 0,0 m 0,0 0,0 0,-0.1 0,-0.1 m 0,0.2 0,0 0,-0.1 0,-0.1 m -3.7,0.6 -0.1,0 m 0.1,-0.4 -0.1,0 m 0.1,0 0,0.1 0,0.1 0,0.1 0,0.1 m -0.1,-0.4 0,0.1 0,0.1 0,0.1 0,0.1 m 0.1,-2.4 -0.1,0 m 0.1,-0.3 -0.1,0 m 0.1,0.3 0,0 0,-0.1 0,-0.1 0,-0.1 m -0.1,0.3 0,0 0,-0.1 0,-0.1 0,-0.1 m 0.1,2.3 0,-2 m -0.1,2 0,-2 m 0.1,2.5 -0.1,0 m 0.1,0 0,0 0,-0.1 m -0.1,0.1 0,0 0,-0.1 m 0.1,-2.9 -0.1,0 m 0.1,0 0,0 0,0.1 0,0.1 m -0.1,-0.2 0,0 0,0.1 0,0.1 m 0.1,2.8 -0.1,0 m 0.1,0 0,0 m -0.1,0 0,0 m 0.1,-3 -0.1,0 m 0.1,0 0,0 m -0.1,0 0,0 m -1.9,2.9 -0.1,0 m 0.1,-0.4 0,0.1 0,0.1 0,0.1 0,0.1 m 0,-0.4 -0.1,0 m 0,0 0,0.1 0,0.1 0,0.1 0,0.1 m 0.1,-2.4 -0.1,0 m 0.1,-0.3 -0.1,0 m 0.1,0.3 0,0 0,-0.1 0,-0.1 0,-0.1 m -0.1,0.3 0,0 0,-0.1 0,-0.1 0,-0.1 m 0.1,2.3 0,-2 m -0.1,2 0,-2 m 0.1,2.5 -0.1,0 m 0.1,0 0,0 0,-0.1 m -0.1,0.1 0,0 0,-0.1 m 0.1,-2.9 -0.1,0 m 0.1,0 0,0 0,0.1 0,0.1 m -0.1,-0.2 0,0 0,0.1 0,0.1 m 0.1,2.8 -0.1,0 m 0.1,0 0,0 m -0.1,0 0,0 m 0.1,-3 -0.1,0 m 0.1,0 0,0 m -0.1,0 0,0 m 3.9,0.8 -0.1,0 m 0.1,0 0,-0.1 0,-0.1 0,-0.1 0,-0.1 m 0,0 -0.1,0 m 0,0.4 0,-0.1 0,-0.1 0,-0.1 0,-0.1 m 0.1,0.4 0,0 m -0.1,0 0,0 m 0,0 0.1,0 m 0,1.8 -0.1,0 m 0.1,-0.3 -0.1,0 m 0.1,0 0,0.1 0,0.1 0,0.1 m -0.1,-0.3 0,0.1 0,0.1 0,0.1 m 0,-0.4 0.1,0 m 0,0.1 0,-0.1 m -0.1,0.1 0,-0.1 m 0,-1.4 0,0.1 m 0,0 0,0.1 m 3.9,0.7 0,0 m 0,-0.3 0,0 m -24.7,0.3 0,0 m 0,-0.3 0,0 m 9.6,-0.5 -0.1,-0.2 m 0,0.2 0,0 m 1.4,-0.6 -0.1,-0.1 m -1.3,2.1 0.1,-0.1 m -0.1,-0.1 0,0.1 m 1.3,0.6 0.1,0 m -1.5,-1.8 0,0 m 2,-0.7 0,-0.2 m -2,1.9 0,0 m 2,1 0,-0.3 m 9.5,-0.7 0,-1 m 0,0 0,0 m 0,0 0,0 -0.1,0 m 0.1,0 0.1,0 m -15.8,0.5 -1,0 m 0,0 1,0 m 15.4,0.8 0,0" /></g></svg>